<?xml version="1.0" encoding="UTF-8"?><svg id="_Слой_2" xmlns="http://www.w3.org/2000/svg" viewBox="0 0 106 139.7"><g id="_агрэ́ст"><path d="m36.4,34.9c-1.1-.4-2.2-.9-2.9-1.8-.7-.9-.9-2.2-1.2-3.4-.8-3.2-2.9-6.1-5.8-7.8-.7-.4-1.7-.7-2.2-.1-.2-1.2-2-1.5-2.8-.6-.8.9-.4,2.5.5,3.2-1.3-1.1-2.7-2-4.2-2.8-.6-.3-1.2-.6-1.8-.5s-1.2.7-1.1,1.3c-1.2-.4-2.6-.6-3.7.1-1.1.7-1.3,2.6-.2,3.2-.8,0-1,1.1-.6,1.8.4.6,1.2.9,1.9,1.2,1.8.8,3.4,1.8,4.9,3.1-3.5-.7-7.2-1.3-10.5,0-1,.4-2,1.3-1.6,2.2.2.7,1.1,1,1.8,1.1-1,.3-2,0-3,.3-1,.3-1.8,1.5-1.1,2.2-1.1.8-2,2-2.3,3.3-.2.7-.2,1.5.3,2,.5.5,2.3.2,2.3.2-.5.2-1,.4-1.3.8-.3.4-.4,1,0,1.4.2.1.4.2.6.2,2,.3,3.2-2.1,5.1-2.7-.2,1.3-2.1,1.7-2.3,3-.1.7.4,1.4,1.1,1.7.7.3,1.4.2,2.2,0,3.8-.8,6.9-3.6,10.6-4.4-2.3,1-4.3,2.8-5.6,5-.4.6-.7,1.4-.5,2.1.2.5.8.8,1.3.7-.8.7-.9,2.2,0,2.9.8.8,2.2.6,3-.2-.1.5.2,1.2.8,1.3.8.1,1.5-.4,1.9-1.1.3-.5.5-1,.8-1.5-.2.4-.2.9,0,1.3.3.6,1.1.9,1.7.7.5-.2.9-.6,1.2-1.1,1.1-1.9.7-4.6,2.5-5.9-.4,1.2-.7,2.4-1.1,3.6-.2.7-.4,1.7.2,2.1.5.3,1.2.2,1.6-.2.4-.4.6-1,.8-1.5.7.5,1.6-.3,2.1-1,2.3-3.4,4.7-7.1,4.6-11.2,0-1.1,0-2.5.9-3,.7-.4,1.6,0,2.3.4,2.1,1.1,4.2,2.1,6.2,3.2,3.8,1.9,7.7,4.1,9.8,7.8l1.1-1.5c-5.5-4.6-11.7-8.3-18.3-11Z" style="fill:#267f1f; stroke-width:0px;"/><g style="opacity:.5;"><path d="m26.1,40.5c0-.4-.6-.3-1-.2-.8.4-1.3.6-1.3.6-3.3,1.8-6.3,4.1-9,6.7-.3.3-.6.6-.8.9,0,.2-.2.4,0,.5.2.5,1.1,0,1.4.3.2.2,0,.5,0,.8-.5,1-1.1,2.1-.7,3,.1.3.4.6.7.6.3,0,.5-.2.7-.4.4-.4.7-.9.9-1.4.2.4.2.8.4,1.2.1.4.4.8.9.8.5,0,.7-.5.9-.9.5-1.1.8-2.2,1.1-3.3.2.8.4,1.7.6,2.5,0,.3.2.7.4,1,.2.3.6.5.9.4.3,0,.4-.3.6-.5.8-1.2,1-2.7,1.1-4.1,0-1.4,0-2.9.4-4.3.3-1.3,1-2.5,1.8-3.7,0-.1.2-.3.2-.5Z" style="fill:#549f1d; stroke-width:0px;"/><path d="m33.7,36.8c0-.1-.3-.1-.4,0-.5,0-.9.3-1.2.7-1.2.6-2.3,1.4-3.3,2.3-.5.5-.9,1-1.3,1.6-.3.6-.5,1.3-.7,1.9-.8,2.8-1.5,5.8-1.2,8.7,0,.3.2.6.4.5.1,0,.2-.1.3-.2.6-1,1.2-2.1,1.7-3.2,0,.2.1.5.3.7.1.2.4.3.6.3.3,0,.4-.3.5-.6,1.9-3.9,3.2-8,4.3-12.2,0-.1,0-.3,0-.4Z" style="fill:#549f1d; stroke-width:0px;"/><path d="m18.9,41.2c1.2-.7,2.1-1.9,3.4-2.7,1.7-1.1,3.9-1.3,5.7-2.4-.6,0-1.3.2-1.9.3-1,.1-2.1.3-3.1.4-1.1,0-2.2.1-3.3.3-1.1.1-2.1.4-3.1.6-4.9,1.2-9.8,2.4-14.6,3.7-.1,0-.2,0-.4,0-.3-.2,0-.6.3-.7,1.4-.9,3.1-1.5,4.8-1.7.6,0,1.1-.1,1.7-.2.2,0,.4-.2.3-.4,0,0,0,0-.2-.1-.6-.2-1.3-.4-2-.4h.5c-1.2-.4-2.6-.3-3.7.3s-2,1.7-2.3,3c0,.3-.1.7,0,.9.2.2.5.3.7.4.8,0,1.5-.4,2.2-.9-.4.7-.8,1.4-1,2.2,0,.2,0,.3,0,.5.2.4.8.3,1.2.1,1.2-.7,2.1-2.2,3.5-2.4.1,0,.3,0,.4,0,.3.1.3.5.2.8s-.4.5-.6.7c-.5.4-.9.9-1.3,1.3-.3.4-.5.8-.4,1.2.1.5.7.7,1.2.8,1.2,0,2.2-.7,3.2-1.5,0,.1,0,.3,0,.4.1.2.4.3.7.3.3,0,.5-.2.8-.3,1.7-1,3.1-2.5,4.9-3.4.7-.4,1.5-.6,2.2-1.1Z" style="fill:#549f1d; stroke-width:0px;"/><path d="m4.3,36.5h0c.9.3,1.8,0,2.7,0,.9,0,1.8.3,2.7.6.6.2,1.2.4,1.8.5,1.5.2,2.9-.5,4.3-.9.8-.2,1.7-.4,2.5-.4.7,0,1.4,0,2-.4-.9-.2-1.7-.4-2.6-.6-.3,0-.6-.1-.8-.3-.2-.2-.3-.5-.2-.7.2-.3.5-.3.8-.3,2.6.1,5,1.5,7.6,1.4.9,0,1.8-.3,2.8-.4,1.1-.2,2.3-.2,3.4-.2-1.6-.8-3.4-1.6-5.2-1.3-.5,0-1,.2-1.5.3-1.1.1-2.3-.2-3.4-.5-3.1-.9-6.2-1.9-9.4-2.1-1.7-.1-3.5,0-4.9.9-.4.2-.7.5-.9.9-.2.4-.2.9,0,1.3.5.6,1.5.4,2.2.6-1.3.2-2.5.5-3.7.9-.2,0-.3.1-.4.3,0,.2,0,.4.2.4Z" style="fill:#549f1d; stroke-width:0px;"/><path d="m12.5,25.9c-.4,0-.8,0-1.1.4-.4.5,0,1.2.4,1.6,1.6,1.3,4.2.8,5.6,2.3.2.2.4.5.7.8.6.6,1.5.7,2.3.8,1.3.2,2.5.3,3.8.5.5,0,1.1.1,1.6,0,.8-.1,1.5-.6,2.2-.5.8.1,1.4.9,2.2.9-.3-.5-.7-.9-1.1-1.3-3.5-3.4-7.3-6.4-11.3-9.1-.4-.3-1-.6-1.5-.4-.5.2-.6.8-.6,1.3-.6-.2-1.2-.3-1.8-.1h0c-.6-.1-1.3-.2-1.9,0-.6.2-1.1.8-1,1.4,0,.7.9,1.1,1.5,1.4Z" style="fill:#549f1d; stroke-width:0px;"/><path d="m25.4,26.9c1.3,1,2.7,1.8,3.9,3,1,.9,1.8,2,2.7,2.9.2.2.4.4.7.5.3,0,.6-.2.5-.5,0,0-.6-1.4-.9-2.1-1.2-3.1-3.2-5.7-5.9-7.8-.4-.3-.7-.6-1.2-.7-.4,0-1,0-1.2.4-.5-.3-.5-1.1-1-1.3-.4-.2-.9.2-1,.6-.1.4,0,.9.2,1.3.7,1.5,1.9,2.6,3.2,3.6Z" style="fill:#549f1d; stroke-width:0px;"/></g><g style="opacity:.5;"><path d="m35.7,35.1c-.2,0-.4,0-.6,0,0,0,0,0,0,0-.5,0-.9-.2-1.3-.4-.5-.4-.9-.7-1.3-1.1-.5-1.5-1-3.1-2-4.4-.5-.7-1.1-1.3-1.6-2.1-.6-.9-.9-2-1.3-3,0-.1-.3,0-.2,0,.6,1.7,1.3,3.1,2.4,4.5,1.1,1.4,1.8,2.9,2.3,4.6-3.7-3.2-6.5-7.1-9.1-11.3,0-.1-.3,0-.2.1,2.7,4.3,5.6,8.4,9.4,11.6,0,0,.2.2.2.2.2.1.4.3.5.4-1.2-.6-2.4-1.4-3.6-2-2-1-4.3-1.5-6.3-2.5-.5-.3-1-.6-1.4-.9-.9-2.5-2.4-4.7-4.5-6.4-.1,0-.3,0-.1.2,2,1.6,3.4,3.7,4.3,6-1.2-.9-2.3-1.9-3.6-2.6-1.8-1.1-3.8-2-5.9-2.6-.1,0-.2.2,0,.2,2.2.7,4.3,1.7,6.3,2.9.4.2.8.5,1.1.8-1.1,0-2.2,0-3.3,0-1.5,0-2.7-.5-4-1.2-.1,0-.2.1-.1.2,1.1.6,2.2,1.1,3.4,1.2,1.4.1,2.7,0,4.1,0,0,0,.1,0,0-.1.7.5,1.4,1.1,2.1,1.6,0,0,0,.1,0,.2,0,.1.2,0,.2,0,.6.4,1.2.8,1.9,1.1,2,.9,4.2,1.4,6.1,2.5,1.3.7,2.5,1.6,3.9,2.1,0,0,.2.1.3.2,0,0,0,0,0,0-2.8,0-5.5.6-8.3,1-.3,0-.7,0-1,.1-1.6-.1-3.1-.9-4.7-1.2-1.4-.3-2.8-.5-4.2-.6-.5,0-1,0-1.4,0-2-.9-3.5-2.9-5.8-2.6-.1,0-.1.2,0,.2,2.1-.3,3.6,1.4,5.3,2.3-.9,0-1.8,0-2.7-.2-1.5-.2-2.8-.9-4.3-1.1-.1,0-.2.2,0,.2,1.5.2,2.8.8,4.3,1.1,1.1.2,2.1.1,3.2.1.3,0,.5,0,.7,0,.1,0,.3,0,.4,0,1.8.1,3.5.4,5.2.8,1.1.3,2.2.7,3.3,1-.5,0-1,0-1.4.1,0,0,0-.1-.1-.1-.1,0-.3,0-.4.1-1.3,0-2.6.2-3.9.5-1,.2-2,.4-2.9.6,0,0,0,0,0,0-1,0-2-.2-2.9-.6-.5-.2-1-.5-1.6-.5-.1,0-.1.2,0,.2.8,0,1.6.6,2.4.8.5.2,1.1.3,1.6.3-1.5.3-3,.7-4.4,1.1,0-.1-.1-.2-.2,0,0,0,0,0,0,.1-.3-2.5-4.1-2.1-5.8-2.1-.1,0-.1.2,0,.2,1.7,0,5.4-.4,5.6,2,0,0,0,0,0,0-2.6.7-5.2,1.4-7.8,2.1-.1,0,0,.2,0,.2,2.6-.7,5.2-1.4,7.8-2.1-1.4,1.9-4.4,1.9-5.5,4.1,0,.1.1.2.2.1.7-1.3,2.4-1.8,3.6-2.4.8-.5,1.5-1,2-1.8,2.6-.7,5.2-1.3,7.8-1.8,1.2-.2,2.3-.4,3.5-.5-2.1,1-3.7,2.9-5.8,4-.3.1-.5.2-.8.4,0,0,0,0-.1,0-.1,0-.2.2-.3.2-.9.4-1.8.8-2.6,1.4-1.4.9-2.6,2-3.9,3-.1,0,0,.3.1.2,1.2-1,2.4-2,3.7-2.9.7-.5,1.5-.9,2.3-1.2-.8,1.1-1.1,2.8-2.4,3.4-.1,0,0,.3,0,.2,1.5-.7,1.6-2.9,2.8-3.9.4-.2.8-.4,1.2-.6,2.3-1.1,4-3.3,6.4-4.2,1,0,1.9-.1,2.9-.2,0,0,0,0,0,0,0,0,0,0,0,0,.3,0,.7,0,1-.1,1.8-.2,3.5-.6,5.3-.8-2,.6-3.7,1.8-5.7,2.3-1.9.5-3.9.6-5.5,1.9-.1,0,0,.3.1.2,1.7-1.3,3.8-1.4,5.7-1.9,2.1-.6,6-2.5,5.9-2.5.8,0,1.6-.1,2.4-.2,0,0,.2,0,.3,0-.3.1-.6.3-.9.5-.2,0-.3.2-.5.3,0,0-.1,0-.2,0-.9.5-1.8,1-2.6,1.5-.9.5-1.8,1.1-2.6,1.8,0,0-.1-.2-.2,0,0,.1-.2.3-.3.4-.9.7-1.7,1.4-2.5,2.1-.9.8-1.7,1.7-2.5,2.6-.7.8-1.3,1.7-2,2.6,0,0,0-.2,0-.3,0-.1-.1-.2-.2-.1-.1.3-.2.6-.4,1-1.4,1.7-3,3.2-4,5.2,0,.1.1.2.2.1,1-1.8,2.4-3.2,3.7-4.7-.5,1.8-.8,3.6-1.6,5.3,0,.1.1.2.2.1.8-1.9,1.1-3.9,1.8-5.9,0,0,0,0,0,0,.7-.9,1.2-1.8,1.9-2.7.4-.5.8-1,1.3-1.4,0,1.8-.2,3.4-.8,5.1-.5,1.4-.5,2.7-.4,4.3,0,.1.2.1.2,0,0-.9-.1-1.7,0-2.6.1-.8.4-1.6.7-2.3.4-1.5.6-3,.6-4.5,0,0,0-.1,0-.2.3-.3.5-.5.8-.8.9-.8,1.7-1.6,2.7-2.4-.3.6-.4,1.2-.5,1.9-.3,1.5-.8,2.9-1.4,4.3,0,.1.1.2.2.1.4-1,.8-2.1,1.1-3.2.3-1.1.4-2.4,1-3.4.7-.5,1.4-1.1,2.2-1.6.9-.6,1.9-1.2,2.9-1.7,0,0,0,0,0,0-1.7,2-3.5,4-4.1,6.7-.4,1.6-.7,3.2-1.2,4.8-.4,1.2-.8,2.5-.9,3.8,0,.1.2.1.2,0,0-1.6.6-3.1,1.2-4.6.4-1.2.6-2.3.9-3.6.6-3,2.6-5.2,4.5-7.4.5-.3,1-.6,1.6-.8,0,0,.1,0,.2,0,.4-.1.7-.2,1.1-.2.1,0,.1-.2,0-.2Zm-1.4.1c.1,0,.2,0,.3,0,0,0-.1,0-.2,0,0,0-.1,0-.2-.1Z" style="fill:#85b847; stroke-width:0px;"/><path d="m20.3,46.1c-2.3.3-4.3,1.3-6,2.9-.1,0,0,.2.2.1,1.6-1.5,3.6-2.5,5.8-2.8.1,0,.1-.2,0-.2Z" style="fill:#85b847; stroke-width:0px;"/></g><path d="m49,41.5c-.6-.4-1.1-.8-1.7-1.2-.7-.4-1.4-.7-2.1-1.1-1.8-.9-3.5-2.1-5.4-3-1.2-.6-2.5-1-3.7-1.4-.5-.2-1.1-.3-1.6-.5,0,0-.2,0-.3,0,0,0,0,.1,0,.2,0,0,0,.2,1.1.6-.5-.2-.4-.1-.7-.2-.2,0-.5,0-.6.2-.1.2.2.5.3.4-.2.1-.5.4-.3.6.1.2.4,0,.6,0,.8-.5,1.8-.5,2.8-.3.9.2,1.8.7,2.6,1.1,1.4.7,2.8,1.5,4.3,2.2.9.5,1.9,1,2.8,1.5,1.4.9,2.7,1.9,4,3,1,.9,2.1,1.9,3.4,2-1.8-1.4-3.7-2.8-5.5-4.2Z" style="fill:#85b847; stroke-width:0px;"/><g style="opacity:.2;"><path d="m23.9,27.5c-1.8-1.3-3.3-3.1-5.2-4.3-.4-.3-.9-.5-1.3-.6-.1-.1-.3-.2-.5-.1-.3,0-.5.3-.5.6,0,.2,0,.3,0,.5,0,.1-.3.2-.4.2-.7,0-1.4,0-2.1,0-.6,0-1.3-.1-1.6.4-.3.5,0,1.1.5,1.5,1.3,1,3.1.8,4.7,1.2.9.2,1.6.7,2.4,1.1,1.8.9,3.7,1.6,5.7,1.9.2,0,.3,0,.4,0,.1-.1,0-.4,0-.5-.5-.7-1.2-1.1-1.9-1.6Z" style="fill:#fff; stroke-width:0px;"/></g><g style="opacity:.2;"><path d="m29.7,28.2c.2.2.6.4.7.1,0-.1,0-.3,0-.5-1.1-1.8-2.8-3.2-4.4-4.6-.3-.2-.6-.5-.9-.5-.3,0-.7.2-.9,0-.2-.1-.4-.4-.5-.5,0,0-.2-.2-.3-.2,0,0-.2-.1-.3,0-.1,0-.2.2-.2.4,0,.8.5,1.5,1.2,1.9.7.4,1.5.6,2.2.9,1.4.7,2.5,1.9,3.6,3Z" style="fill:#fff; stroke-width:0px;"/></g><g style="opacity:.3;"><path d="m18.5,40.6c.6-.5,1.2-1.2,1.9-1.7,1.1-.7,2.6-.8,3.5-1.8-2.8-.2-5.7.5-8.4,1.3-.9.3-1.9.5-2.8.8-.5.1-1,.3-1.5.6-1.5.8-2.1,2.7-3.3,4-.3.2-.5.5-.7.7-.2.4-.4.9,0,1.2.3.3.8,0,1.2-.2.5-.3,1.1-.7,1.6-1,.2,0,.3-.2.5-.2.2,0,.3.2.4.3.4.3,1,0,1.4-.2,1.4-.8,2.7-1.6,4.1-2.4.7-.4,1.5-.9,2.1-1.4Z" style="fill:#fff; stroke-width:0px;"/></g><g style="opacity:.3;"><path d="m8.9,40.2c0,0,.2-.2.1-.3,0-.1-.2-.1-.3-.1-.3,0-.5,0-.8.1h.8c-.8.1-1.7.3-2.5.6-.8.3-1.5.8-2,1.5-.2.3-.4.7-.8,1-.2.2-.5.4-.4.6,0,.1.2.1.3.2.4,0,.8-.3,1.1-.6.8-.7,1.6-1.3,2.5-1.8.6-.4,1.3-.7,1.9-1.2Z" style="fill:#fff; stroke-width:0px;"/></g><g style="opacity:.2;"><path d="m20.7,43.2c-.5.5-1,1.1-1.3,1.7-.1.4-.1.9.2,1.1.2,0,.5,0,.7-.2.8-.5,1.3-1.3,1.9-2,1-1.2,2.1-2.3,3.4-3.2.2-.2.5-.4.4-.7,0,0-3.9,1.9-5.4,3.4Z" style="fill:#fff; stroke-width:0px;"/></g><g style="opacity:.2;"><path d="m18.9,47c-.2,0-.4.1-.6.3h-.2c-.9,1.2-1.7,2.5-2.5,3.8-.2.3-.4.7-.4,1.1,0,.4.4.8.8.7.2,0,.3-.2.5-.4,1.1-1.5,2-3.1,2.8-4.8,0-.2.2-.6,0-.6,0,0-.2,0-.3,0Z" style="fill:#fff; stroke-width:0px;"/></g><g style="opacity:.2;"><path d="m15.7,48.8c.3-.1.5-.4.7-.6.2-.3.4-.5.6-.8.1-.2.2-.3.3-.5,0,0,0-.2,0-.3,0,0-.2,0-.2,0-.2,0-.4,0-.7,0v.4c-.6.4-1,.9-1.4,1.4,0,.1-.2.3,0,.4,0,0,.1,0,.2,0,.2,0,.5,0,.7,0Z" style="fill:#fff; stroke-width:0px;"/></g><g style="opacity:.2;"><path d="m33.3,37c-.1-.1-.4,0-.5,0-.9.5-1.9,1.1-2.8,1.7l.9-.5c-2.1,1.3-3.4,3.7-3.4,6.2,0,.1,0,.3.1.3.1,0,.2,0,.3-.2,1.2-1.5,2.4-2.9,3.6-4.4.7-.8,1.4-1.7,1.8-2.6,0-.2.1-.4,0-.5Z" style="fill:#fff; stroke-width:0px;"/></g><path d="m67,20.3c-.8-.8-1.7-1.6-2.1-2.7-.4-1.1,0-2.4,0-3.6.4-3.3-.7-6.7-2.8-9.3-.5-.6-1.3-1.2-2-.9.2-1.2-1.4-2.2-2.4-1.6-1.1.6-1.3,2.2-.6,3.2-.9-1.4-1.9-2.8-3-4.1-.4-.5-.9-1-1.5-1.1-.6-.1-1.4.2-1.4.9-1-.8-2.3-1.4-3.5-1.2s-2.2,2-1.3,2.9c-.7-.2-1.4.7-1.2,1.5.2.7.8,1.3,1.3,1.8,1.4,1.3,2.6,2.9,3.5,4.6-3-1.9-6.3-3.7-9.8-3.6-1,0-2.3.5-2.3,1.5,0,.7.7,1.3,1.3,1.7-1,0-1.9-.7-2.9-.8-1,0-2.2.8-1.8,1.7-1.3.3-2.5,1.2-3.3,2.3-.4.6-.7,1.3-.4,2s2.1,1,2.1,1c-.5,0-1,0-1.5.3-.4.3-.7.8-.5,1.3,0,.2.3.3.4.4,1.7,1,3.7-.9,5.7-.8-.6,1.1-2.5.9-3.2,2-.3.6,0,1.5.5,2,.5.5,1.3.7,2,.8,3.8.6,7.7-1,11.5-.5-2.5.2-5,1.2-7,2.8-.6.5-1.2,1.1-1.2,1.9,0,.5.5,1.1,1,1.1-1,.4-1.6,1.7-1.1,2.7.5,1,1.9,1.3,2.9.9-.3.4-.2,1.2.3,1.5.7.4,1.5,0,2.1-.4.5-.4.8-.8,1.3-1.2-.3.3-.5.8-.4,1.3.1.6.7,1.2,1.4,1.2.6,0,1.1-.3,1.5-.6,1.7-1.4,2.3-4.1,4.4-4.7-.8,1-1.5,2-2.3,3-.5.6-.9,1.4-.5,2.1.3.5,1,.6,1.6.3.5-.2.9-.7,1.3-1.1.5.7,1.6.3,2.3-.2,3.3-2.4,6.8-5,8.2-8.9.4-1,.8-2.4,1.9-2.5.8,0,1.5.6,2.1,1.2,1.6,1.7,3.2,3.4,4.8,5.1,2.9,3.1,5.9,6.5,6.5,10.6l1.6-1c-3.6-6.2-8.2-11.8-13.4-16.6Z" style="fill:#34772a; stroke-width:0px;"/><path d="m55.4,22.1c0-.4-.5-.5-.9-.5-.9,0-1.4.1-1.4.1-3.7.6-7.3,1.7-10.7,3.2-.4.2-.8.3-1.1.6-.1.1-.3.3-.3.5,0,.5,1,.3,1.2.8.1.3,0,.5-.3.7-.8.7-1.8,1.5-1.7,2.6,0,.3.2.7.5.8.3,0,.6,0,.8-.2.5-.3.9-.6,1.3-1,0,.4,0,.9,0,1.3,0,.4.1.9.5,1.1.4.1.9-.2,1.2-.5.8-.8,1.5-1.8,2.2-2.8,0,.8-.2,1.7-.3,2.5,0,.3,0,.7,0,1,.1.3.4.6.7.7.3,0,.5-.1.7-.3,1.2-.9,1.9-2.2,2.5-3.5.6-1.3,1-2.7,1.9-3.9.8-1.1,1.8-2,2.9-2.8.1-.1.3-.2.3-.4Z" style="fill:#308927; stroke-width:0px;"/><path d="m63.7,21.2c0-.1-.2-.2-.4-.2-.5,0-.9,0-1.4.2-1.3.1-2.6.5-3.9,1-.6.3-1.2.6-1.7,1.1-.5.5-.9,1-1.3,1.6-1.7,2.4-3.4,4.9-4.1,7.8,0,.2,0,.6.2.6.1,0,.2,0,.3-.1.9-.7,1.8-1.5,2.7-2.4,0,.2,0,.5,0,.7,0,.2.3.5.5.5.3,0,.5-.2.7-.3,3.1-3,5.8-6.4,8.2-10,0-.1.2-.3.1-.4Z" style="fill:#308927; stroke-width:0px;"/><path d="m48.3,20.3c1.4-.3,2.7-1.1,4.1-1.4,2-.5,4.2.1,6.2-.3-.6-.1-1.3-.3-1.9-.4-1-.2-2.1-.5-3.1-.7-1.1-.3-2.1-.6-3.2-.9-1-.2-2.1-.4-3.2-.5-5-.6-10-1.1-15-1.6-.1,0-.3,0-.3-.1-.2-.2.2-.5.5-.6,1.7-.3,3.4-.3,5.1,0,.5.1,1.1.3,1.6.3.2,0,.5,0,.4-.2,0,0,0-.1-.1-.2-.5-.5-1.1-.8-1.8-1l.5.2c-1-.8-2.3-1.2-3.6-1-1.3.2-2.4.9-3.2,2-.2.3-.3.6-.3.9,0,.3.3.5.6.6.7.3,1.6.1,2.4,0-.6.5-1.2,1.1-1.7,1.7-.1.1-.2.3-.2.5,0,.5.6.6,1.1.5,1.4-.3,2.7-1.3,4.1-1,.1,0,.3,0,.4.2.2.2.1.6,0,.8-.2.2-.5.3-.8.4-.6.2-1.1.5-1.6.8-.4.2-.8.6-.8,1,0,.5.4.9.8,1.1,1.1.5,2.3.1,3.5-.3,0,.1-.1.2-.1.4,0,.3.3.5.6.5.3,0,.6,0,.8,0,2-.4,3.8-1.2,5.8-1.5.8,0,1.6,0,2.5-.2Z" style="fill:#308927; stroke-width:0px;"/><path d="m36.3,10.8h0c.8.6,1.7.7,2.6,1,.9.3,1.6.9,2.3,1.5.5.4.9.8,1.5,1.1,1.3.7,2.9.5,4.3.7.9,0,1.7.2,2.5.5.7.2,1.3.4,2,.3-.7-.5-1.5-1-2.2-1.4-.2-.2-.5-.3-.6-.6s-.1-.6,0-.8c.2-.2.6-.1.9,0,2.4,1,4.2,3.1,6.6,3.9.9.3,1.8.4,2.7.6,1.1.2,2.2.6,3.2,1-1.3-1.3-2.6-2.6-4.4-3-.5-.1-1-.1-1.5-.2-1.1-.2-2.1-.9-3-1.6-2.6-1.9-5.2-4-8.1-5.3-1.5-.7-3.3-1.2-4.9-.8-.4,0-.9.2-1.2.6-.3.3-.5.8-.4,1.2.3.7,1.2.8,1.8,1.4-1.3-.2-2.5-.3-3.8-.4-.2,0-.4,0-.5.1-.1.1-.1.4,0,.4Z" style="fill:#308927; stroke-width:0px;"/><path d="m47.6,3.7c-.4-.1-.8-.2-1.1,0-.5.3-.5,1.1-.2,1.6,1,1.8,3.7,2.2,4.5,4.1.1.3.2.6.4.9.4.7,1.2,1.2,1.9,1.6,1.1.6,2.2,1.2,3.4,1.8.5.2.9.5,1.5.6.8.1,1.6,0,2.3.3.7.4,1,1.3,1.7,1.6,0-.6-.3-1.1-.6-1.6-2.1-4.4-4.6-8.5-7.4-12.5-.3-.4-.7-.9-1.3-.9-.5,0-.8.6-1,1.1-.5-.4-1-.6-1.6-.7h0c-.6-.3-1.2-.6-1.8-.6-.6,0-1.3.4-1.5,1-.2.7.4,1.4,1,1.9Z" style="fill:#308927; stroke-width:0px;"/><path d="m59.3,9.1c.9,1.4,1.9,2.7,2.6,4.1.6,1.2,1,2.5,1.5,3.7.1.3.3.5.5.7s.7,0,.7-.3c0,0,0-1.5,0-2.3,0-3.4-1.1-6.4-2.9-9.3-.2-.4-.5-.8-.9-1-.4-.2-.9-.3-1.3,0-.3-.4-.1-1.2-.6-1.5-.3-.3-.9-.1-1.2.2-.3.4-.3.8-.3,1.3.1,1.6.8,3.1,1.7,4.5Z" style="fill:#308927; stroke-width:0px;"/><g style="opacity:.5;"><path d="m66.2,20.3c-.2,0-.4-.1-.6-.1,0,0,0,0,0,0-.4-.2-.8-.5-1.1-.8-.3-.5-.6-1-.9-1.5,0-1.6,0-3.3-.4-4.8-.2-.8-.6-1.6-.7-2.5-.2-1.1-.2-2.2-.2-3.3,0-.1-.2-.2-.2,0,0,1.8.2,3.4.7,5.1.6,1.7.6,3.4.6,5.1-2.3-4.3-3.6-8.9-4.6-13.8,0-.1-.2,0-.2,0,1,5,2.4,9.8,4.8,14.2,0,0,0,.3.1.3.1.2.2.4.4.6-1-1-1.7-2.1-2.7-3.1-1.6-1.6-3.5-2.9-5-4.5-.4-.4-.7-.9-1-1.3,0-2.7-.6-5.2-2-7.6,0-.1-.3,0-.2.1,1.3,2.2,1.9,4.6,2,7.1-.8-1.2-1.6-2.5-2.5-3.7-1.3-1.7-2.9-3.2-4.6-4.5-.1,0-.2.1-.1.2,1.8,1.4,3.5,3,4.9,4.9.3.4.5.7.8,1.1-1-.4-2.1-.7-3.2-1.1-1.4-.5-2.4-1.4-3.4-2.5,0-.1-.3,0-.2.2.8.9,1.7,1.8,2.8,2.3,1.2.6,2.6.9,3.9,1.3,0,0,.1,0,.1,0,.5.7.9,1.5,1.4,2.2,0,0,0,.1,0,.2,0,.1.1.1.2,0,.4.6.9,1.2,1.4,1.7,1.6,1.5,3.4,2.7,4.9,4.4,1,1.1,1.8,2.4,2.9,3.3,0,.1.1.2.2.3,0,0,0,0,0,0-2.6-.9-5.4-1.3-8.1-1.9-.3,0-.7-.2-1-.2-1.4-.7-2.6-1.9-4-2.8-1.2-.8-2.5-1.5-3.8-2.1-.4-.2-.9-.4-1.3-.5-1.5-1.5-2.3-3.9-4.6-4.4-.1,0-.2.2,0,.2,2.1.4,2.9,2.5,4.2,4-.9-.3-1.7-.6-2.5-1.1-1.3-.7-2.3-1.8-3.7-2.5-.1,0-.2.1-.1.2,1.3.7,2.4,1.7,3.7,2.5.9.5,2,.9,3,1.2.3.1.4.2.6.2.1,0,.3.1.4.2,1.6.7,3.1,1.6,4.6,2.5.9.6,1.8,1.4,2.7,2-.5-.1-.9-.3-1.4-.4,0,0,0-.1,0-.1-.2,0-.3,0-.4,0-1.2-.4-2.5-.7-3.8-.9-1-.2-2-.3-3-.4,0,0,0,0,0-.1-1-.3-1.8-.9-2.5-1.6-.4-.4-.8-.8-1.3-1-.1,0-.2.2,0,.2.8.2,1.3,1.1,2,1.6.4.3.9.6,1.4.9-1.5-.2-3-.4-4.5-.5,0,0,0-.2-.2-.1,0,0,0,0-.1,0,.6-2.5-3.1-3.3-4.8-4-.1,0-.2.2,0,.2,1.5.6,5.2,1.5,4.6,3.8,0,0,0,0,0,0-2.7-.3-5.4-.5-8.1-.7-.1,0-.2.2,0,.2,2.7.2,5.3.4,8,.7-2,1.3-4.8.3-6.6,1.9-.1,0,0,.3.2.2,1.1-1,2.9-.9,4.2-1.1.9-.1,1.8-.4,2.5-1,2.7.3,5.3.6,7.9,1,1.2.2,2.3.5,3.5.8-2.3.2-4.5,1.5-6.9,1.7-.3,0-.6,0-.8,0,0,0,0,0-.1,0-.1,0-.3,0-.4.1-1,0-2,.1-3,.4-1.6.4-3.1.9-4.7,1.5-.1,0,0,.3,0,.2,1.5-.5,2.9-1.1,4.5-1.5.8-.2,1.7-.3,2.5-.4-1.2.7-2,2.3-3.4,2.4-.1,0-.2.2,0,.2,1.7-.1,2.5-2.1,4-2.7.5,0,.9,0,1.4-.1,2.6-.3,4.9-1.7,7.5-1.8.9.3,1.8.5,2.8.8,0,0,0,0,0,0,0,0,0,0,0,0,.3,0,.6.2,1,.2,1.7.4,3.5.7,5.2,1.1-2.1-.2-4.1.4-6.2.2-1.9-.2-3.8-.7-5.8-.1-.1,0,0,.3,0,.2,2-.6,4,0,6,.2,2.1.2,6.4-.3,6.4-.3.8.2,1.5.4,2.3.7,0,0,.2,0,.3.1-.3,0-.7,0-1,.1-.2,0-.4,0-.5,0,0,0-.2,0-.2,0-1,.1-2,.3-3,.5-1,.2-2,.5-3.1.8,0,0,0-.2-.1-.1-.1,0-.3.2-.4.3-1,.3-2.1.7-3.1,1.1-1.1.5-2.2,1-3.2,1.6-1,.5-1.8,1.2-2.7,1.8,0,0,.1-.1.2-.2,0-.1,0-.3-.2-.2-.2.2-.4.5-.7.8-1.9,1.2-3.9,2-5.6,3.5-.1,0,0,.3.2.2,1.5-1.4,3.3-2.2,5-3.2-1.1,1.5-2,3.1-3.3,4.5,0,.1,0,.3.2.2,1.4-1.5,2.4-3.3,3.7-4.9,0,0,0,0,0,0,.9-.6,1.8-1.3,2.7-1.8.6-.3,1.1-.6,1.7-.9-.6,1.7-1.4,3.1-2.5,4.5-.9,1.2-1.5,2.4-1.9,3.8,0,.1.2.2.2,0,.2-.8.5-1.7.9-2.4.4-.7.9-1.3,1.4-2,.9-1.2,1.6-2.6,2.1-4,0,0,0-.1,0-.2.3-.2.7-.3,1-.5,1.1-.5,2.2-.9,3.3-1.3-.4.5-.8,1-1.1,1.6-.8,1.3-1.8,2.4-2.8,3.5,0,.1,0,.3.2.2.8-.8,1.5-1.7,2.2-2.6.7-.9,1.2-2.1,2.1-2.8.9-.3,1.7-.5,2.6-.7,1.1-.2,2.2-.4,3.3-.6,0,0,0,0,0,0-2.3,1.3-4.7,2.6-6.2,4.8-.9,1.4-1.7,2.7-2.8,4-.8,1-1.6,2-2.1,3.3,0,.1.2.2.2,0,.6-1.5,1.7-2.7,2.7-3.9.8-1,1.4-2,2-3,1.6-2.6,4.2-4,6.8-5.4.6,0,1.2-.2,1.8-.2,0,0,.1,0,.2,0,.4,0,.7,0,1.1.2.1,0,.2-.2,0-.2Zm-1.3-.4c0,0,.2.1.3.2,0,0-.1,0-.2,0,0,0,0-.1-.1-.2Z" style="fill:#85b847; stroke-width:0px;"/><path d="m48,25.3c-2.2-.5-4.5-.2-6.6.6-.1,0,0,.3.1.2,2.1-.9,4.2-1.1,6.4-.6.1,0,.2-.2,0-.2Z" style="fill:#85b847; stroke-width:0px;"/></g><path d="m76.5,30.8c-.4-.6-.7-1.2-1.2-1.7-.5-.6-1-1.2-1.6-1.7-1.4-1.5-2.6-3.2-4-4.6-.9-.9-2-1.8-3-2.6-.4-.3-.9-.7-1.3-1,0,0-.2-.1-.3-.1,0,0,0,0,0,.2,0,0,0,.2.8,1-.4-.3-.4-.3-.6-.4-.2-.1-.5-.2-.6,0s0,.5.2.5c-.3,0-.6.2-.5.4,0,.2.4.2.6.1.9-.2,1.9.1,2.7.7.8.5,1.4,1.2,2.1,1.9l3.3,3.5c.7.8,1.4,1.6,2.1,2.4,1,1.3,1.9,2.7,2.7,4.2.6,1.2,1.3,2.5,2.5,3.1-1.2-1.9-2.5-3.9-3.7-5.8Z" style="fill:#85b847; stroke-width:0px;"/><g style="opacity:.2;"><path d="m57.8,9.1c-1.3-1.9-2-4-3.4-5.9-.3-.4-.6-.8-1.1-1-.1-.1-.3-.3-.4-.3-.3,0-.6.1-.7.4,0,.1-.1.3-.2.4-.1,0-.3,0-.5,0-.7-.2-1.3-.4-1.9-.8-.5-.3-1.2-.6-1.7-.2-.4.4-.3,1.1,0,1.6.9,1.4,2.7,1.8,4,2.8.7.5,1.3,1.2,1.9,1.9,1.4,1.5,2.9,2.7,4.7,3.8.1,0,.3.2.4,0,.2,0,.2-.3.1-.5-.2-.8-.8-1.5-1.2-2.2Z" style="fill:#fff; stroke-width:0px;"/></g><g style="opacity:.2;"><path d="m63,11.8c.1.3.4.5.7.4.1-.1.1-.3,0-.5-.5-2.1-1.5-4-2.6-5.9-.2-.3-.4-.6-.7-.8-.3-.1-.7,0-.9-.3-.2-.2-.2-.5-.3-.7,0-.1-.1-.2-.3-.3,0-.1-.2-.2-.3-.1-.1,0-.2.2-.3.3-.3.7,0,1.6.5,2.2s1.2,1.1,1.7,1.6c1.1,1.1,1.7,2.6,2.4,4Z" style="fill:#fff; stroke-width:0px;"/></g><g style="opacity:.3;"><path d="m48.2,19.5c.8-.3,1.5-.7,2.4-.9,1.3-.3,2.7.1,3.9-.5-2.6-1.2-5.5-1.4-8.4-1.7-1,0-1.9-.1-2.9-.2-.5,0-1.1,0-1.6,0-1.7.3-2.9,1.8-4.5,2.6-.3.1-.6.2-.9.4-.4.3-.7.7-.5,1.1.2.4.8.3,1.2.2.6-.1,1.3-.3,1.9-.4.2,0,.4,0,.5,0,.1,0,.2.3.3.4.3.4.9.4,1.4.3,1.6-.3,3.1-.6,4.7-.8.8-.1,1.7-.3,2.5-.6Z" style="fill:#fff; stroke-width:0px;"/></g><g style="opacity:.3;"><path d="m39.2,15.9c0,0,.2-.1.2-.2s-.2-.2-.3-.2c-.3,0-.5,0-.8-.1l.8.2c-.8-.1-1.7-.2-2.5-.2-.8,0-1.7.2-2.4.7-.3.2-.7.5-1,.6-.3,0-.6.2-.6.5,0,.1.1.2.2.3.4.2.8,0,1.2-.2,1-.4,2-.7,3-.9.7-.1,1.5-.2,2.2-.5Z" style="fill:#fff; stroke-width:0px;"/></g><g style="opacity:.2;"><path d="m49.3,22.7c-.7.3-1.3.6-1.8,1.2-.3.3-.4.8-.1,1.1.2.2.5.1.8,0,.9-.2,1.7-.8,2.5-1.2,1.4-.8,2.8-1.4,4.3-1.9.3,0,.6-.2.6-.5,0,0-4.4.4-6.2,1.3Z" style="fill:#fff; stroke-width:0px;"/></g><g style="opacity:.2;"><path d="m46.3,25.7c-.2,0-.5,0-.7,0h-.2c-1.3.8-2.5,1.7-3.6,2.6-.3.2-.6.5-.7.9-.1.4.1.9.5.9.2,0,.4-.1.6-.2,1.5-1,2.9-2.2,4.2-3.5.2-.2.3-.5.2-.6,0,0-.2,0-.2,0Z" style="fill:#fff; stroke-width:0px;"/></g><g style="opacity:.2;"><path d="m42.7,26.3c.3,0,.6-.2.8-.3.3-.2.6-.4.9-.5.2-.1.3-.2.4-.4,0,0,0-.2,0-.3,0,0-.1,0-.2-.1-.2,0-.4-.1-.6-.1l-.2.4c-.6.2-1.2.5-1.7.8-.1,0-.3.2-.2.3,0,0,0,0,.1.1.2.1.5.2.7.2Z" style="fill:#fff; stroke-width:0px;"/></g><g style="opacity:.2;"><path d="m63.3,21.3c0-.2-.3-.2-.5-.1-1.1.2-2.1.4-3.2.6l1-.2c-2.4.6-4.5,2.4-5.4,4.6,0,.1,0,.3,0,.4,0,0,.2,0,.3,0,1.6-1,3.3-1.9,4.9-2.9.9-.5,1.8-1.1,2.6-1.9.1-.1.3-.4.2-.5Z" style="fill:#fff; stroke-width:0px;"/></g><path d="m52.5,38.7c-.5-.6-1-1.2-1.2-1.9-.2-.7-.1-1.4,0-2.1.2-4.7-2.3-9.4-6.3-11.8-.3-.2-.6-.3-.8-.1-.1,0-.2.3-.2.4-.3,1.2,0,2.6.9,3.5-.3-.2-.6-.4-1-.5-.6-.1-1.3,0-1.6.6-.1.3-.2.6-.2.9.1,1.5,1.4,2.5,2.5,3.4-1,0-1.8.8-2.1,1.8s.1,2,.9,2.6c1.3,1,3.3.4,4.8,1.2.8.4,1.3,1,1.9,1.7,1.4,1.7,2.8,3.4,3,5.6,0,.5,0,1,.2,1.5.2.5.6.9,1,.9l.3-1.8c-.2-2-1-4-2.2-5.6Z" style="fill:#85b847; stroke-width:0px;"/><g style="opacity:.4;"><path d="m50.9,35.8c0-.7.2-1.3.2-2,0-.6-.1-1.1-.3-1.7-.5-2.1-1.1-4.2-2.4-5.9-.7-.9-1.5-1.7-2.3-2.4-.3-.3-.6-.5-1-.7-.2-.1-.5-.2-.7-.1-.2,0-.4.3-.3.6h0c0,.1,0,.3,0,.5.2.8.6,1.5,1.2,2,.6.6,1.3,1.1,1.5,1.9,0,0,0,0,0,.1,0,0-.1,0-.2,0-1,0-1.7-1-2.7-1-.2,0-.5,0-.6.3,0,.2,0,.3,0,.5.2.7.7,1.3,1.2,1.7.6.5,1.2.9,1.6,1.4,0,0,.1.2,0,.3,0,0-.1,0-.2,0-.6,0-1.1.1-1.6.4-.5.3-.8.8-.8,1.4,0,.6.6,1.1,1.2,1.4.5.3,1.1.4,1.7.4.6,0,1.2,0,1.8,0,.6,0,1.2,0,1.7.4.7.5,1,1.4,1.5,2-.3-.5-.5-1-.5-1.6Z" style="fill:#549f1d; stroke-width:0px;"/></g><path d="m51.6,37.4c-.9-1.5-.9-3.2-1.1-4.8-.1-1.4-.5-2.7-1.1-3.9-.2-.5-.5-.9-.7-1.3,0,0,0,0,0,0,0,0,0,0-.1-.1-1.1-1.7-2.5-3-4.2-4.3,0,0-.2,0,0,.1,1.4,1.1,2.7,2.3,3.8,3.7-1-.8-2.4-1-3.3-1.9,0,0,0,0,0,0,0,0,0,0,0,0,0,0,0,0,0,0,1,1.2,2.9,1.2,3.9,2.5.5.8,1,1.7,1.4,2.7.3,1,.4,1.8.5,2.8-.3-1.2-1.2-1.8-2.3-2.3-.3-.1-.5-.3-.8-.4-.9-1-1-2.5-1.8-3.7,0,0-.2,0-.1,0,.7,1,.9,2.4,1.6,3.4-1.5-.8-2.8-1.7-3.8-3,0,0-.2,0-.1,0,.7,1,1.8,1.9,2.9,2.6.4.3.9.5,1.4.7,0,0,0,0,.1.1,0,0,0,0,0,0-.2,0-.5-.1-.7-.2-1.2-.3-2.2-.9-3.2-1.6,0,0-.2,0,0,.1.7.5,1.5,1,2.3,1.3,1,.4,2.2.4,3,1,0,0,1.2.4,1.7,2.2,0,.6,0,1.1.2,1.7-.5-1-1.5-1.5-2.7-1.7-.4-.3-.8-.9-1.3-1.1-.3-.1-.6,0-.9-.2-.2,0-.4-.1-.6-.2,0,0,0,.1,0,.1.2,0,.5.1.7.2.3.1.7,0,1,.3.3.2.6.5.9.8-1.2-.2-2.4-.2-3.4-.3,0,0,0,.1,0,.1,1,0,2.4,0,3.6.4,0,0,0,0,0,0,.7.2,1.5.5,2,.9-.3-.2-.7-.4-1.1-.5-1.7-.3-3.3,1.3-4.9.2,0,0-.1,0,0,.1.7.4,1.3.4,2.1.3.6-.1,1.2-.4,1.8-.5,1.3-.2,2.4.1,2.8,1.3,0,.1.1.5.2.7.1.5.3,1,.6,1.5,0,0,.2,0,.1,0Zm-4.1-6.9s0,0,0,0c0,0,.1,0,.2.1,0,0-.2,0-.3,0Z" style="fill:#a1d359; isolation:isolate; opacity:.5; stroke-width:0px;"/><g style="opacity:.4;"><path d="m43.4,27.6c0-.2.1-.3.2-.4,0-.1.1-.3,0-.5s-.2-.3-.4-.2h.2c-.3,0-.6,0-.8.2-.3.3-.3.7-.3,1.1.2,1,1,1.8,1.7,2.5,0,0,.2.2.3.2-.3-.4-.5-.8-.8-1.2-.3-.4-.6-1-.4-1.5Z" style="fill:#fff; stroke-width:0px;"/></g><g style="opacity:.4;"><path d="m44.4,24.9c-.2-.5-.2-1.1-.2-1.6,0,0,0-.1,0-.2,0,0,0,0-.1,0,0,0,0,0,0,0,0,.2-.1.4-.1.6v-.4c0,.8.1,1.7.5,2.4,0,0,0,.2.2.2s.2,0,.3,0c0,0,0-.2,0-.2,0-.3-.3-.5-.4-.8Z" style="fill:#fff; stroke-width:0px;"/></g><g style="opacity:.4;"><path d="m44.1,31.3h.2c-.5.1-1,.6-1.2,1.1-.3.5-.3,1.2,0,1.7,0,.2.2.3.3.4.1.1.3.2.5.1,0,0,.2,0,.2-.2,0,0,0-.1,0-.2,0-.3-.3-.5-.3-.8-.1-.3,0-.7,0-1,.1-.3.4-.6.6-.8,0,0,.2-.1.2-.2s0-.2,0-.3c-.1-.1-.3,0-.5.2Z" style="fill:#fff; stroke-width:0px;"/></g><g style="opacity:.4;"><path d="m50,36.8c-.3-.3-.6-.5-.9-.7-.3-.2-.8-.2-1.1-.1,0,0,0,0,0,0,0,0,0,.2.2.2.3,0,.6.1.8.3.2,0,.3.2.5.3,1.7,1.7,3.3,3.8,3.8,6.2,0,.2.1.4.3.4.1-.7,0-1.4-.3-2.1-.7-1.7-1.8-3.2-3.2-4.5Z" style="fill:#fff; stroke-width:0px;"/></g><g style="opacity:.5;"><path d="m48,26.2c1.6,1.9,2.6,4.4,2.7,7,0,.5,0,1,0,1.5,0,0,0,.2.1.2.2-1.2.2-2.5-.1-3.7-.1-.5-.3-1-.5-1.5-.2-.5-.4-1-.6-1.4-.8-1.7-2-3.2-3.5-4.4.2.2.4.5.5.7.4.5.9,1,1.3,1.5Z" style="fill:#a1d359; stroke-width:0px;"/></g><g style="opacity:.4;"><path d="m46.7,24.7s0,0,0,0c0,0-.1-.1-.2-.2l.2.2Z" style="fill:#fff; stroke-width:0px;"/></g><g style="opacity:.3;"><path d="m50.1,35.8c0,0,.3.2.3,0,0,0,0,0,0-.1,0-.6,0-1.1-.1-1.7,0-.6,0-1.2-.2-1.9-.5-3.3-2.6-6.2-5.1-8.3.4,1.1,1.1,2,1.6,3,.6,1.1,1.1,2.2,1.1,3.5,0,1.2-.6,2.3-.8,3.5,0,.3,0,.6,0,.8,0,.3.3.5.6.6.2,0,.5,0,.7-.1.7-.2,1.5,0,1.9.6Z" style="fill:#267f1f; stroke-width:0px;"/></g><g style="opacity:.4;"><path d="m44.9,23.8s0,0,0,0c0,0,0-.1,0-.2h0Z" style="fill:#fff; stroke-width:0px;"/></g><g style="opacity:.4;"><path d="m51.1,35.4h0s0,0,0,0Z" style="fill:#fff; stroke-width:0px;"/></g><path d="m54.4,43c-.4-1.4-.8-2.7-1.6-3.9-.3-.5-.7-1-1-1.5-.3-.6-.5-1.3-.5-2,0,0,0-.2,0-.2,0,0,0,0,0,0,0,.3-.2.7-.3,1,0,.1,0,.2,0,.3,0,.1.1.2.2.3.3.4.6.8.9,1.2.4.5.7.9,1,1.5.3.6.6,1.3.8,2,.3.9.5,1.8.7,2.6.2-.4.1-.9,0-1.3Z" style="fill:#739e35; stroke-width:0px;"/><g style="opacity:.4;"><path d="m51.1,35.4s0,0,0,0c0,0,0-.1,0-.2v.2Z" style="fill:#fff; stroke-width:0px;"/></g><path d="m52.1,44.5h.1c-.9-.2-1.8.2-2.4.8-.6.7-.9,1.5-1.2,2.4-.2.7-.3,1.4-.3,2.1,0,1.1,0,2.2.2,3.3.2,1.4.3,2.8.5,4.2,0,0,0,.2,0,.2.1.2.4.1.6,0,.1-.2.1-.4,0-.7-.1-1.4-.3-2.8-.4-4.3,0-.7-.1-1.4-.1-2.1,0-1.2.2-2.6.7-3.7.4-.7,1.1-1.3,1.9-1.4.3,0,1.2.2,1.3,0,0-.3-.8-.7-1.1-.8Z" style="fill:#c4c95d; stroke-width:0px;"/><path d="m39,47.8c-.4-.4-.9-.8-1.2-1.3-.3-.5-.3-1.1-.4-1.6-.5-3.6-3.1-6.9-6.5-8.1-.2,0-.5-.1-.7,0,0,0,0,.2-.1.3,0,1,.4,1.9,1.2,2.5-.3-.1-.5-.2-.8-.2-.5,0-1,.2-1.1.7,0,.2,0,.5,0,.7.3,1.1,1.4,1.7,2.4,2.2-.7.2-1.3.9-1.4,1.6s.4,1.5,1,1.9c1.2.6,2.6-.1,3.8.2.6.2,1.2.6,1.7,1,1.3,1.1,2.6,2.2,3.1,3.8.1.4.2.8.4,1.1.2.3.6.6.9.5v-1.4c-.5-1.5-1.4-2.9-2.5-4Z" style="fill:#85b847; stroke-width:0px;"/><g style="opacity:.4;"><path d="m37.4,45.8c-.1-.5,0-1-.2-1.5,0-.4-.3-.9-.5-1.3-.7-1.5-1.5-3-2.7-4.2-.6-.6-1.4-1.1-2.1-1.5-.3-.2-.5-.3-.8-.4-.2,0-.4,0-.6,0-.2,0-.3.3-.2.5h0c0,0,0,.3.1.4.3.6.7,1,1.2,1.4.5.4,1.2.6,1.4,1.2,0,0,0,0,0,.1,0,0,0,0-.1,0-.7,0-1.5-.5-2.2-.4-.2,0-.3.1-.4.3,0,.1,0,.3,0,.4.2.5.7.9,1.2,1.1.5.3,1,.5,1.4.8,0,0,.1.1,0,.2,0,0-.1,0-.2.1-.4,0-.8.2-1.2.5-.3.3-.5.7-.4,1.2.1.5.6.8,1.1.9.4.1.9.2,1.3.1.5,0,.9-.2,1.4-.3.5,0,1-.1,1.4,0,.6.3.9.9,1.4,1.3-.3-.3-.5-.7-.6-1.2Z" style="fill:#549f1d; stroke-width:0px;"/></g><path d="m38.1,47c-.9-1-1.2-2.3-1.5-3.5-.3-1-.7-2-1.4-2.8-.2-.3-.5-.6-.8-.9,0,0,0,0,0,0,0,0,0,0,0,0-1.1-1.1-2.4-1.9-3.8-2.7,0,0-.1,0,0,0,1.3.6,2.4,1.4,3.4,2.3-.9-.4-2-.4-2.8-1,0,0,0,0,0,0,0,0,0,0,0,0,0,0,0,0,0,0,1,.8,2.4.5,3.3,1.4.5.5,1,1.2,1.4,1.9.4.7.6,1.3.8,2.1-.4-.9-1.2-1.2-2.1-1.5-.2,0-.4-.1-.6-.2-.8-.7-1.1-1.8-1.9-2.6,0,0-.1,0,0,0,.7.7,1,1.7,1.7,2.4-1.2-.4-2.4-.9-3.4-1.8,0,0-.1,0,0,0,.7.7,1.7,1.2,2.6,1.6.4.1.8.3,1.1.4,0,0,0,0,.1,0,0,0,0,0,0,0-.2,0-.4,0-.6,0-.9,0-1.8-.3-2.7-.7,0,0-.1,0,0,0,.6.3,1.3.5,1.9.7.8.1,1.7,0,2.4.3,0,0,1,.2,1.6,1.4.1.5.2.8.4,1.2-.5-.7-1.4-.9-2.3-1-.4-.2-.7-.6-1.1-.7-.2,0-.5,0-.7,0-.2,0-.3,0-.5,0,0,0,0,.1,0,.1.2,0,.4,0,.6,0,.3,0,.5,0,.8,0,.3.1.5.3.8.5-.9,0-1.9.2-2.6.2,0,0,0,.1,0,.1.8,0,1.9-.3,2.8-.2,0,0,0,0,0,0,.6,0,1.2.2,1.7.4-.2-.1-.6-.2-.9-.2-1.3,0-2.3,1.4-3.7.9,0,0,0,0,0,.1.6.2,1.1.2,1.6,0,.4-.2.8-.4,1.3-.6.9-.3,1.8-.2,2.4.6,0,.1.2.4.2.5.2.4.4.7.7,1.1,0,0,.1,0,0,0Zm-4.1-4.7s0,0,0,0c0,0,.1,0,.2,0,0,0-.1,0-.2,0Z" style="fill:#a1d359; isolation:isolate; opacity:.5; stroke-width:0px;"/><g style="opacity:.4;"><path d="m30.5,40.6c0-.1,0-.2.1-.4,0-.1,0-.3,0-.4s-.2-.2-.3-.1h.2c-.2,0-.4,0-.6.2-.2.2-.2.6,0,.8.3.7,1,1.2,1.7,1.6,0,0,.2.1.3,0-.3-.3-.5-.6-.8-.8-.3-.3-.6-.7-.5-1.1Z" style="fill:#fff; stroke-width:0px;"/></g><g style="opacity:.4;"><path d="m30.9,38.4c-.3-.4-.3-.8-.4-1.2,0,0,0,0,0-.1,0,0,0,0-.1,0,0,0,0,0,0,0,0,.2,0,.3,0,.5v-.3c0,.6.3,1.3.7,1.8,0,0,0,.1.2.1,0,0,.2,0,.2,0,0,0,0-.1,0-.2-.1-.2-.3-.4-.4-.5Z" style="fill:#fff; stroke-width:0px;"/></g><g style="opacity:.4;"><path d="m31.5,43.4h.1c-.4.2-.7.5-.8,1-.1.4,0,.9.2,1.3,0,.1.2.2.3.3s.3,0,.4,0c0,0,.1,0,.1-.1,0,0,0-.1,0-.2-.1-.2-.3-.4-.4-.5-.1-.2-.1-.5,0-.8s.2-.5.4-.7c0,0,.1-.1.1-.2,0,0,0-.2,0-.2-.1,0-.3,0-.3.2Z" style="fill:#fff; stroke-width:0px;"/></g><g style="opacity:.4;"><path d="m36.9,46.7c-.3-.2-.5-.3-.8-.4s-.6,0-.9,0c0,0,0,0,0,0,0,0,0,.1.2.1.2,0,.5,0,.7.1.1,0,.3,0,.4.2,1.6,1.1,3,2.4,3.8,4.2,0,.1.1.3.3.3,0-.5-.2-1.1-.5-1.5-.7-1.2-1.9-2.2-3.1-3Z" style="fill:#fff; stroke-width:0px;"/></g><g style="opacity:.5;"><path d="m33.8,38.8c1.5,1.3,2.6,3,3,5,0,.4.1.8.2,1.2,0,0,0,.2.1.1,0-1-.2-1.9-.6-2.8-.2-.4-.4-.7-.6-1.1-.2-.3-.4-.7-.7-1-.9-1.2-2-2.2-3.3-2.8.2.2.3.3.5.5.4.3.8.6,1.2,1Z" style="fill:#a1d359; stroke-width:0px;"/></g><g style="opacity:.4;"><path d="m32.6,37.9s0,0,0,0c0,0,0,0-.1-.1h.2Z" style="fill:#fff; stroke-width:0px;"/></g><g style="opacity:.3;"><path d="m36.8,45.9c0,0,.2.1.3,0,0,0,0,0,0,0-.1-.4-.2-.8-.3-1.3-.1-.5-.2-.9-.4-1.4-.9-2.4-2.8-4.3-5.1-5.6.5.8,1.1,1.4,1.7,2.1.6.7,1.1,1.6,1.3,2.5.1.9-.1,1.9-.1,2.8,0,.2,0,.4.1.6,0,.2.3.4.5.4.2,0,.4-.1.5-.2.5-.2,1.1-.2,1.5.2Z" style="fill:#267f1f; stroke-width:0px;"/></g><g style="opacity:.4;"><path d="m31.1,37.5s0,0,0,0c0,0,0,0,0-.1h0Z" style="fill:#fff; stroke-width:0px;"/></g><g style="opacity:.4;"><path d="m37.5,45.5h0s0,0,0,0Z" style="fill:#fff; stroke-width:0px;"/></g><path d="m41.1,50.8c-.5-1-1-2-1.8-2.8-.3-.3-.7-.6-1-1-.3-.4-.6-.9-.7-1.5,0,0,0-.1,0-.2,0,0,0,0,0,0,0,.3,0,.5,0,.8,0,0,0,.2,0,.3,0,0,.1.2.2.2.3.3.6.5.8.8.3.3.7.6,1,1,.3.4.6.9.9,1.4.3.6.6,1.3.9,1.9.1-.3,0-.7-.2-1Z" style="fill:#739e35; stroke-width:0px;"/><g style="opacity:.4;"><path d="m37.5,45.4s0,0,0,0c0,0,0-.1,0-.2v.2Z" style="fill:#fff; stroke-width:0px;"/></g><g style="opacity:.5;"><path d="m49.8,56.9c-.1-1.4-.3-2.8-.4-4.3,0-.7-.1-1.4-.1-2.1,0-1.2.2-2.6.7-3.7.4-.7,1.1-1.3,1.9-1.4.2,0,1.1.2,1.3,0-.3-.2-.7-.4-1.1-.4-.9,0-1.8.6-2.3,1.5-.9,1.6-.9,3.5-.8,5.3.1,1.8.3,3.6.5,5.5,0,0,0,.2,0,.3,0,0,0,0,0,0,0,0,0,0,0,0,.1-.2.1-.4,0-.7Z" style="fill:#317200; stroke-width:0px;"/></g><g style="opacity:.5;"><path d="m50.5,45c-1.1,1-1.6,2.3-1.9,3.8-.1,1-.2,2-.1,2.9,0,1,.4,1.9.4,2.9,0,.2.3.2.3,0,0-1.5-.5-2.8-.4-4.3,0-1.9.4-3.8,1.9-5.2.1-.1,0-.3-.2-.2h0Z" style="fill:#fff; stroke-width:0px;"/></g><path d="m54.1,98.7c-.3,0-.6.1-.9.2,0,0-.2,0-.3.1,0,0,0,.2,0,.3h0c0,0,0,.2.1.3,0,0,.2,0,.3,0,0,0,0-.2,0-.3,0,0,.1.2.2.2,0,0,.2,0,.3,0,0,0,0-.3.2-.3.1,0,.3.2.4.2,0,0,0-.2,0-.3,0-.1,0-.3-.2-.3,0,0-.2,0-.3,0Z" style="fill:#9b3a15; stroke-width:0px;"/><path d="m54.6,94.8c-.1-.3-.3-.5-.5-.7-.2-.2-.5-.3-.8-.2-.2,0-.9,0-.9,0-.6.8-.7,2-.3,2.9.2.5.6,1,.6,1.6,0,.3,0,.6.2.8.2.2.6,0,.6-.3,0,.2.3.3.4.3.2,0,.3-.2.3-.4.1.2.4.4.6.3.1,0,.2-.3.1-.4,0-.1-.1-.3-.2-.4-.2-.7.3-1.4.3-2.1,0-.5-.2-.9-.4-1.4Z" style="fill:#6b2610; stroke-width:0px;"/><path d="m53.2,97.4c.1.3.2.6,0,.9,0,.1,0,.3,0,.4,0,0,0,0,.1,0,.2,0,.3-.2.3-.4,0-.2,0-.3,0-.5-.3-1.1-.9-2.1-.8-3.2,0,0,0,0,0-.1,0,0,0,0-.1,0h0c-.3.6-.4,1.4,0,2.1.2.3.4.5.6.8Z" style="fill:#7a300f; stroke-width:0px;"/><path d="m54,94.6c0-.1-.2-.2-.3-.2-.2,0-.4.2-.3.4,0,0,0,.6.1,1.1,0,0,0,.2.1.2,0,0,.2,0,.2,0,0,0,0-.1,0-.2,0-.1,0-.3,0-.4,0,0,0-.1,0-.2,0,0,0-.1.1-.1,0,0,0,0,.1,0,.2.1.3.3.3.4,0,0,0,.1-.1.2-.2.3-.3.6-.3.9,0,0,0,.1,0,.2,0,0,.2,0,.3,0,.3-.2.4-.7.4-1.1,0-.5-.3-1-.6-1.4Z" style="fill:#7a300f; stroke-width:0px;"/><g style="opacity:.4;"><path d="m54.4,94.4c0-.1-.1-.2-.2-.2-.1,0-.3,0-.5,0-.4,0-.8,0-1.2.2-.2,0-.3.2-.4.4-.1.3-.2.7-.2,1,.2-.3.3-.7.5-.9.3-.3.8-.3,1.2,0s.5.7.6,1.1c0,.4,0,.9-.2,1.3-.1.3-.2.7-.2,1,0,.3.3.7.7.6,0,0,0,0,.1,0,0,0,0-.2,0-.3,0-.3,0-.6,0-.9.1-.4.4-.8.4-1.3.1-.7-.3-1.4-.7-2Z" style="fill:#2f0c0a; stroke-width:0px;"/></g><g style="opacity:.5;"><path d="m53.8,95.5c-.1-.1-.2-.3-.3-.4,0,0-.1-.2-.2-.2,0,0-.2,0-.3,0h0c0,.4.1.8.3,1.1,0,.1.1.3.2.4.1.3.2.6.3.9,0-.1,0-.3,0-.4,0,0,0-.2,0-.3,0-.2.3-.4.3-.6,0-.1,0-.3-.2-.4Z" style="fill:#fff; stroke-width:0px;"/><path d="m52.8,96.8c0-.1-.2-.2-.2-.4-.1-.3-.2-.7-.3-1-.2.3-.2.6-.1.9,0,.2,0,.4.2.6,0,0,.1.2.2.3.4.4.6,1,.5,1.6.2-.5.2-1.2-.1-1.6,0-.1-.2-.2-.3-.3Z" style="fill:#fff; stroke-width:0px;"/></g><path d="m63.6,75.7c1.7,7.5-2.2,14.7-8.6,16.1s-13-3.4-14.7-10.9,2.2-14.7,8.6-16.1c6.4-1.4,13,3.4,14.7,10.9Z" style="fill:#eab213; stroke-width:0px;"/><g style="opacity:.5;"><path d="m59.4,68.7c-3.5-3.6-7.9-3.9-9.9-3.6-2.5.4-4.8,2-6.2,4.1-.2.2-.3.5-.2.8.1.4.6.6,1,.8.4.3.6.8,1.1,1.1.5.3,1.2.2,1.7,0s1.1-.5,1.7-.6c1.1-.2,2.1.5,3.2.9,1.3.5,2.7.6,4.1.7,1.2,0,2.5,0,3.5-.5.3-.1.6-.3.8-.6.4-.5.4-1.2.2-1.7-.2-.6-.6-1.1-1-1.5Z" style="fill:#e5b233; stroke-width:0px;"/></g><g style="opacity:.4;"><path d="m62,72.3c-.2-.6-.5-1.3-1-1.7,0,.6-.2,1.1-.5,1.6-.1.2-.3.4-.4.6,0,.3,0,.6.1.9.3.8.6,1.5.9,2.3.5,2,.6,4,.5,6.1,0,.9-.2,1.8-.5,2.7-.5,1.5-1.4,2.9-2.3,4.2,3.5-2.9,5.3-7.7,4.5-12.1-.3-1.5-.8-3-1.3-4.4Z" style="fill:#b91703; stroke-width:0px;"/></g><g style="opacity:.2;"><path d="m62,72.8c-.2-.5-.5-1.1-.8-1.6,0,0-.5-.8-.5-.7,0,1.8-.9,1.9-.9,2-.1,4-1.1,6.5-2.5,9.5-1.6,3.4-9.2,7.6-16,.5,0,.6,1.2,3.1,2.3,4.2,0,0,2.2,2.8,5.9,4.2,1,.4,2.9.7,4,.5.9-.1,1.9-.4,2.7-.7,1.6-.7,3.3-2.2,3.9-2.9.6-.8,1.3-1.6,1.7-2.5,1.8-3.9,1.9-8.6,0-12.6Z" style="fill:#317200; stroke-width:0px;"/></g><g style="opacity:.4;"><g style="opacity:1;"><path d="m61.1,70.9c-.3.4-.3.9-.2,1.4,0,0,.5.9.7,1.4.5,1.6.9,3.4,1.1,5.1,0,.8,0,1.3,0,2.1-.4,3.1-1.8,5.3-.6,3.7.8-1,1.2-2.7,1.3-3.9s0-2.5-.2-3.7c-.3-2.1-.9-4.2-2.1-6Z" style="fill:#fff; stroke-width:0px;"/></g></g><path d="m50.4,64.6s0,0,0,0c-.1,0-.2,0-.3,0,0,0,0,0,0,0,0,0,0,0,0,0,1.9,4.5,3.1,8.6,3.9,13.5.4,2.6.5,6,.2,8.5-.2,1.6-.6,3.2-1.2,4.7,0,0,.2.1.3.2,1.5-4.2,1.7-9.1,1.1-13.3-.8-5.1-1.9-9.2-3.9-13.8Z" style="fill:#d8ea6a; stroke-width:0px;"/><path d="m49.2,65.1c0-.1.2-.3.3-.4-.2,0-.4,0-.6.1,0,0,0,0,0,0-2,.9-4,2.1-5.4,3.7-1.8,2-2.8,4.6-3.1,7.3-.5,5.9,2.4,12.4,8,14.9,1.4.6,2.9,1,4.3,1.3,0,0,0,0,0,0,0,0,.1,0,.2,0h0c0,0-.2-.1-.2-.2-.1,0-.2-.2-.4-.3-.7-.1-1.4-.3-2.1-.6-2.6-.8-5-2.3-6.6-4.5-3.4-4.7-4.2-11.9-.8-16.8,1.5-2.2,3.9-3.7,6.3-4.7Z" style="fill:#d8ea6a; stroke-width:0px;"/><path d="m56.4,68.4c-1.5-1.6-3.2-2.9-5.1-3.9-.3,0-.5,0-.8,0,5.2,2.4,9.1,7.3,10.1,12.9.6,3.3.1,6.8-1.6,9.7-1.3,2.2-3.4,3.5-5.5,4.7,0,0,0,0-.1,0,0,0,.2.1.2.2.1,0,.2,0,.4,0,0,0,.1,0,.2,0,1.5-.8,2.9-1.8,4.1-3.1,1.6-1.8,2.6-4.1,2.9-6.5.7-5-1.2-10.2-4.6-13.9Z" style="fill:#cfdd45; stroke-width:0px;"/><path d="m49.9,64.6c-.2,0-.3,0-.5,0,0,.1-.2.2-.3.4-2.9,4.1-3.9,9.3-3.5,14.3.2,2.9,1,5.7,2.7,8,1.1,1.6,2.5,3,4,4.2.1,0,.2.2.4.3,0,0,.2.1.2.2h0s0,0,0,0c.2,0,.4,0,.5,0,0,0-.4-.3-.4-.3,0,0-.2-.1-.3-.2-1.7-1.3-3.1-2.8-4.3-4.6-1.6-2.4-2.3-5.2-2.5-8-.4-5,.8-10.2,3.8-14.2,0,0,0,0,0-.1,0,0,0,0,0,0Z" style="fill:#b5ce4d; stroke-width:0px;"/><g style="opacity:.4;"><path d="m42,72.1c-.4.7-.7,1.5-.6,2.3.4-.6.7-1.2,1.1-1.7.2-.3.4-.7.7-.9.3-.2.8-.3,1.1,0,.3.2.4.7.8.7.3,0,.5-.4.6-.7.7-2.1,1.4-4.3,2.8-6.1,0,0,0,0,0-.1-2.8,1.4-5.1,3.7-6.5,6.4Z" style="fill:#317200; stroke-width:0px;"/></g><g style="opacity:.2;"><path d="m48.5,65.7s0,0,0,0c0,0,0,0,0,0h0Z" style="fill:#b21f13; stroke-width:0px;"/></g><g style="opacity:.2;"><path d="m48.4,65.6h.1s0,0,0,0c0,0-.2,0-.1,0Z" style="fill:#b21f13; stroke-width:0px;"/></g><g style="opacity:.2;"><path d="m48.1,88c-.8-1-1.5-2.2-1.7-3.6,0-.2,0-.5-.3-.7-.2-.2-.5-.1-.8,0-.2.1-.5.3-.7.3-.6,0-1.1-.4-1.5-.9-.4-.6-.9-1.1-1.3-1.7,0,.9.2,1.8.6,2.6,0,0,1.3,2.7,3.1,4.1,1.6,1.2,3.4,2.2,5.4,2.6-1-.9-2-1.8-2.8-2.8Z" style="fill:#317200; stroke-width:0px;"/></g><g style="opacity:.4;"><g style="opacity:.4;"><path d="m51.2,65.7s0,0,0,0h0Z" style="fill:#b91703; stroke-width:0px;"/></g><g style="opacity:.4;"><path d="m51.2,65.7s0,0,0,0c0,0,0,0,0,0Z" style="fill:#b91703; stroke-width:0px;"/></g><g style="opacity:.4;"><path d="m57.2,71.2c-1.4-2.4-3.5-4.4-5.8-5.9,0,0-.2,0-.2,0,0,0,0,.2,0,.3,1,1.9,1.7,3.9,2.1,6,0,.3.1.6.4.7.3.2.7,0,1-.1.3-.2.6-.4.9-.4.3,0,.6.2.9.3s.8,0,.9-.2c0-.2,0-.5-.2-.7Z" style="fill:#317200; stroke-width:0px;"/></g></g><g style="opacity:.2;"><path d="m59.7,76.4c0-.1-.1-.3-.2-.3-.2,0-.4.1-.5.3-.6.7-1.6,1.1-2.6,1.1-.5,0-1.1-.1-1.4.3-.2.3-.1.7,0,1.1,1,3.6.7,8-.8,11.5,0,.1-.1.3-.1.4,0,.1.1.3.3.3,0,0,.1,0,.2,0,1.1-.7,1.9-1.7,2.7-2.7,1.3-1.7,2.3-3.6,2.8-5.6.5-2,.5-4.2-.2-6.2Z" style="fill:#317200; stroke-width:0px;"/></g><g style="opacity:.4;"><path d="m58.4,68.9c0,0,.2,0,.3,0,.3,0,.6.2.9.3-1.7-1.9-4-3.2-6.4-3.9,2.3,1.3,3.8,3.7,5.5,5.7.1.1.3.3.4.1,0,0,0-.1,0-.2,0-.7-.5-1.2-.7-1.8,0,0,0-.1,0-.1Z" style="fill:#317200; stroke-width:0px;"/></g><g style="opacity:.5;"><path d="m50.3,65.8c0-.2-.2-.3-.3-.4-.2,0-.3.2-.4.3-1,1.7-1.8,3.5-2.6,5.3-.3.7-.4,1.3-.6,2-.4,2-.4,4.4-.3,6.7,0-1.7,0-3.4.2-4.4.1-1.1.6-2.3,1.3-3.7.2-.4.6-.9,1.1-1,.7-.1,1.3.5,1.6,1.1,1.4,2.2,2.1,4.7,2.1,7.3,0,1.6-.4,3.4-1.7,4.4-.5.4-1.5.9-2,.8-.6,0-1.3-.5-1.5-1.1-.5-.9-.7-1.7-1-2.7,0,1.1.6,2.9.8,3.4.5,1.5,1.1,2.2,1.6,3,0,0,1.8,2.3,3,3.3.1.1.6.5.7.5.3.2.6.3.9-1,.4-1.3.5-2.6.6-4.1,0-1.2,0-4.3-.1-6.1,0-1-.4-2.9-.6-3.9-.8-3.7-1.5-6.3-2.9-9.8Z" style="fill:#7fa31c; stroke-width:0px;"/></g><g style="opacity:.2;"><path d="m49.9,69.9c-.5-.6-.9-1.2-1.6-1.7-1.8-1.3-4.7-.6-5.9,1.5-2.3,4-3.1,9-1.2,13.2.8,1.7,1.9,3.1,3.1,4.4.5.5,1,1,1.7,1.4.6.4,1.4.6,2.1.8.8.2,1.7.4,2.5.2.9-.2,1.6-.9,2.1-1.7.5-.7.8-1.5,1.1-2.3.3-1,.3-1.9.3-2.9,0-4.6-1.5-9.1-4.2-12.8Z" style="fill:#fff; stroke-width:0px;"/></g><g style="opacity:.2;"><path d="m49.7,73.5c-.3-.6-.7-1.3-1.2-1.8-1.4-1.5-4-1.8-5.3-.4-2.5,2.6-3.7,6.5-2.4,10.4.5,1.5,1.3,3,2.3,4.4.4.6.8,1.1,1.3,1.6.5.5,1.1.8,1.8,1.2.7.4,1.4.8,2.2.8.8,0,1.5-.3,2.1-.8.5-.4.9-1,1.2-1.6.3-.7.5-1.5.6-2.3.4-3.7-.4-7.8-2.4-11.5Z" style="fill:#317200; stroke-width:0px;"/></g><g style="opacity:.5;"><path d="m47.3,75.3c-.3-.5-1.2-1.3-1.7-1.6-1.1-.7-3.4-.8-4.5.6-2.1,2.8-3.1,6.4-2,9.7.4,1.3,1.1,2.5,2,3.6.3.4.7.8,1.1,1.2.4.3,1.9,0,2.4.2.6.2,3,2,3.7,2,.7,0-1.5-.6,0-3.8.3-.7.8-2.6.9-3.4.4-3.4-.2-5.5-1.8-8.5Z" style="fill:#317200; stroke-width:0px;"/></g><g style="opacity:.5;"><path d="m45.3,77.5c-.3-.5-1.2-1.3-1.7-1.6-1.1-.7-3.4-.8-4.5.6-2.1,2.8-3.1,6.4-2,9.7.4,1.3,1.1,2.5,2,3.6.3.4.7.8,1.1,1.2.4.3,1.9,0,2.4.2.6.2,2.2,1.3,3.7-1.9.3-.7.8-2.6.9-3.4.4-3.4-.2-5.5-1.8-8.5Z" style="fill:#317200; stroke-width:0px;"/></g><g style="opacity:.2;"><path d="m55.4,73s0,0,0,0c0,0,0,0,0,0h0Z" style="fill:#f9e8a5; stroke-width:0px;"/></g><g style="opacity:.2;"><path d="m58.2,72.7c-.4-.4-.8-.9-1.4-.9-.6,0-1.5.6-1.4,1.1.8,2.2,1.5,4.5,2.1,6.8.1.6.4,1.2,1,1.3.3,0,.6-.2.8-.4.5-.6.6-1.3.6-2,.1-2.1-.5-4.2-1.8-5.8Z" style="fill:#f9e8a5; stroke-width:0px;"/></g><g style="opacity:.5;"><path d="m45,72.8c0,.2.4.2.4,0-.5-1.5-.8-3.1-.3-4.7,0,0,0,0,0,0,.7-.6,1.4-1.2,2.2-1.7.2-.1,0-.5-.2-.3-2.3,1.5-4.4,3.4-4.8,6.1,0,.2.3.3.4,0,.2-1.4.9-2.6,1.8-3.6-.3,1.4,0,2.8.5,4.2Z" style="fill:#f9cb38; isolation:isolate; opacity:.5; stroke-width:0px;"/><path d="m47.6,86.8c-.9-1.3-3-1.6-3.2-3.3,0-.2-.2-.2-.3,0-.1,0-.3,0-.3.2.4,1.4.3,2.9,1.1,4.2.9,1.3,2.2,2.1,3.6,2.8,0,0,.3,0,.3-.1.1-.6-.2-1.3-.4-1.9-.2-.6-.4-1.3-.8-1.8Zm-2.2,1c-.8-1-.8-2.1-1-3.3.4.6,1,1,1.7,1.4.9.6,1.4,1.2,1.7,2.2.2.5.6,1.4.6,2-1.1-.6-2.2-1.3-3-2.3Z" style="fill:#f9cb38; isolation:isolate; opacity:.5; stroke-width:0px;"/><path d="m55.5,71.4c-.6-1.3-1.4-2.5-2.2-3.6-.7-.9-1.4-2.2-2.5-2.7-.2-.1-.3.3-.1.4.6.3,1.1,1,1.5,1.5.4.5.8,1.1,1.2,1.6.7,1,1.2,2,1.8,3,.1.2.5,0,.3-.2Z" style="fill:#f9cb38; isolation:isolate; opacity:.5; stroke-width:0px;"/><path d="m58.8,82.1c0,0,0-.1,0-.2,0-.2-.4-.2-.4,0,0,0,0,.1,0,.2,0,.3-.1.6-.2.9-.4,1-1.6,1.7-2.2,2.4-.7.9-1.2,1.9-1.6,3,0,.2.3.4.4.1.5-1.6,1.4-2.8,2.6-3.9.3-.3.6-.5.8-.8,0,1.2,0,2.5-.5,3.6-.7,1.9-2.4,3-4,4-.2.1,0,.5.2.3,1.5-1,3.2-2,4-3.7.8-1.5.6-3.3.8-5,.1-.3.2-.5.2-.8,0,0,0-.1,0-.2,0,0,0,0,0,0Z" style="fill:#f9cb38; isolation:isolate; opacity:.5; stroke-width:0px;"/><path d="m52.3,65.6c-.2-.1-.4.2-.2.3,6.1,3.6,9.3,10.8,7.9,17.8,0,.2.3.4.4.1,1.4-7.2-1.8-14.5-8.1-18.2Z" style="fill:#f9cb38; isolation:isolate; opacity:.5; stroke-width:0px;"/><path d="m50.5,88.8c-.3-1.1-.2-2.1,0-3.3.1-.8.2-1.5.1-2.3,0-.2-.4-.2-.4,0,.2,1.2-.2,2.3-.3,3.4,0,.5,0,1,0,1.4-1-1.3-1.9-2.7-2.5-4.3-1.1-3-1.3-6.3-.6-9.4,0,0,0,0,0,0,.3,1.3.9,2.4,1.4,3.6.8,1.7,1.6,3.4,2.4,5.1.1.2.4,0,.3-.2-.7-1.4-1.4-2.9-2-4.3-.7-1.4-1.5-2.9-1.8-4.4-.4-2.1.2-4,1-5.9.1.7.3,1.4.5,2,0,.2.5.2.4,0-.3-.8-.5-1.6-.6-2.4,0,0,0,0,0,0,.2-.3.3-.6.5-.9.6,1.6,1.2,3.3,1.6,5,0,.2.4.2.4,0-.5-1.7-1-3.4-1.7-5.1,0,0,0-.1-.1-.1.2-.3.4-.6.6-.9,0,0,0,0,0,0,1.1,2.9,2.2,5.9,2.6,9,0,.2.4.2.4,0-.5-3.2-1.6-6.3-2.8-9.4,0-.1-.2-.1-.2,0,0,0-.2,0-.3,0-1.7,2.4-3.1,5.2-2.8,8.2,0,.3,0,.5.1.7,0-.2-.3-.2-.4,0-.7,3.1-.6,6.3.5,9.3.7,2,1.9,3.7,3.2,5.3,0,.2.2.5.3.7,0,.2.3.1.3,0,.6.7,1.2,1.3,1.8,1.9.2.2.5,0,.3-.3-.8-.8-1.6-1.7-2.3-2.6Z" style="fill:#f9cb38; isolation:isolate; opacity:.5; stroke-width:0px;"/></g><g style="opacity:.4;"><path d="m59.7,70c-.8-1.9-2.7-3.3-4.7-4-2-.7-2.7-.9-4.8-.7-.6,0-2.1.4-2.1.4-.8.3-2.1.8-2.7,1.6,0,.1-.2.3-.1.5.1.2.4.2.6,0,2.3-.7,4.8-1.4,7.1-.8,2.3.5,4.1,2.1,6.2,3.3.2.1.6.2.6,0,0,0,0-.2,0-.2Z" style="fill:#317200; stroke-width:0px;"/></g><path d="m54.7,92.2c-.2-.1-.5,0-.7,0-.7,0-1.4,0-2.1.2h-.3c0,.1,0,.1,0,.2,0,.5.1,1.1.2,1.6,0,.2,0,.5.3.7.2,0,.4,0,.6,0,.6,0,1.1-.1,1.6-.2.2,0,.4,0,.5-.2.1-.2.1-.4,0-.6,0-.3,0-.5-.1-.8,0-.3,0-.8-.2-.9Z" style="fill:#6b2610; stroke-width:0px;"/><path d="m52.3,91.9c-.4,0-.9,0-1.3.1h0s0,0,0,.1c0,0,0,0,.1.1,1.1.6,2.4.7,3.6.2.4-.1.8-.4.8-.8-1.1,0-2.1.2-3.2.2Z" style="fill:#2f0c0a; stroke-width:0px;"/><g style="opacity:.5;"><path d="m54.5,92.6c0-.2-.2-.4-.5-.5-.2,0-.4,0-.5,0-.3,0-.7,0-1,.1-.1,0-.3,0-.4.1,0,0-.1.2-.1.3,0,0,0,0,0,.1,0,.3,0,.7,0,1,0,.3,0,.7.3,1,0,0,.2.1.2.1.1,0,.1-.2.1-.3,0-.3-.1-.6-.1-.9,0-.3,0-.6.2-.8,0,0,0,0,.1,0,0,0,.2,0,.2.2.1.3,0,.6,0,.9,0,.2,0,.4.1.6,0,0,0,.2.2.2s.2,0,.3,0c0,0,0-.1,0-.2,0-.5-.2-1.1,0-1.6,0-.1.2-.3.3-.2,0,0,0,0,0,0,.2.4.1.8.1,1.3,0,.2,0,.4.3.4.1,0,.3,0,.3-.2,0-.1,0-.3,0-.4,0-.2,0-.3,0-.5,0-.2,0-.5-.1-.7Z" style="fill:#300e09; stroke-width:0px;"/><path d="m52,92.6s0,0,0,0c0,0,0,0,0,0h0Z" style="fill:#300e09; stroke-width:0px;"/></g><g style="opacity:.5;"><path d="m54.6,92.4c0,0-.1-.1-.2-.2h0c-.4,0-.7-.1-1.1-.1-.4,0-.8,0-1.1.3-.1,0-.2.2-.2.3,0,.1.2.2.3.2.3,0,.7,0,1,.2.2.2,0,.6-.1.8s-.5.3-.7.4c0,0,0,0,0,.1,0,0,0,0,0,.1.2.1.5.1.8.1.3,0,.6,0,1,0,.1,0,.2,0,.3,0,.2-.1.3-.5.3-.7,0-.3,0-.6,0-.8,0-.2,0-.4-.1-.6Z" style="fill:#2f0c0a; stroke-width:0px;"/></g><path d="m50.4,60.8c0-.9.2-2.1-.1-2.9,0-.2-.3-.4-.6-.4-.2,0-.8,0-1,.2-.3.2-.2.7-.2,1,.3,1,.6,2.1.6,3.1,0,1.1-.2,2.2-.9,3l-.3.3c1.7-.1,2.9-.2,4.7-.4-1.9-.6-2.2-3-2.3-3.9Z" style="fill:#abd66d; stroke-width:0px;"/><path d="m50.4,59.7c0-.5.2-1,0-1.4,0-.4-.3-.8-.6-1-.3-.2-.9,0-.9,0-.8.2-.8.9-.7,1.5,0,.4.3.7.5,1.1.2.4.2.8,0,1.2-.1.2-.4.4-.2.6,0,.1.2.1.4,0,.2,0,.1-.3.2-.4.3-.2.4.2.3.4,0,0,0,0,0,0h0c.1,0,.2-.1.3-.2,0-.1,0-.2,0-.4.3.3.8.4,1.2.3,0-.2-.2-.3-.4-.4-.4-.3-.3-.8-.3-1.3Z" style="fill:#c4c95d; stroke-width:0px;"/><g style="opacity:.5;"><path d="m49.6,61.4c0,0-.3,0-.3,0,0,0,0,.2,0,.3,0,.7,0,1.4-.2,2.1,0,0,0,.1,0,.1,0,0,0,0,0,0,.2,0,.4,0,.6,0,0,0,0,0,.1,0,0,0,0-.1,0-.2,0-.7-.2-1.4-.3-2.1,0,0,0-.1,0-.2Z" style="fill:#fff; stroke-width:0px;"/></g><path d="m50.3,61.5c0,0,0,.1,0,.2,0,0,0,0,0,0v-.2Z" style="fill:#c0e86d; stroke-width:0px;"/><g style="opacity:.5;"><path d="m50.4,61.7c0,0,0-.1,0-.2,0,0,0-.1-.1,0,0,0,0,0,0,0,0,.7,0,1.4.2,2.1,0,.1,0,.2,0,.4,0,.1-.2.2-.3.3-.4.2-.9.3-1.2,0-.1,0-.1.2,0,.3,0,.1.2.2.3.2.1,0,.2,0,.4,0,.8-.2,1.6-.2,2.3-.1,0,0,.2,0,.2,0-.9-.6-1.5-1.7-1.5-2.8Z" style="fill:#317200; stroke-width:0px;"/></g><g style="opacity:.5;"><path d="m49.7,57.4c-.2,0-.4,0-.6,0-.1,0-.3,0-.4.2-.1,0-.2.3-.3.4,0,.4,0,.8.1,1.2,0,.1.1.2.3.2,0-.2,0-.4,0-.7,0,0,0-.1,0-.2,0,0,0,0,.1,0,0,0,0,.1.1.2,0,.3.1.7.2,1,0,0,0,.2.1.2.1-.4,0-.8,0-1.2,0,0,0-.1,0-.1,0,.3,0,.5.2.7,0,0,.1.2.2.1,0,0,0,0,0,0,0-.1,0-.2.1-.3,0,0,.1,0,.1.1,0,0,0-.1,0-.2,0-.4,0-.8-.3-1.1,0-.1-.2-.3-.4-.3Z" style="fill:#fff; stroke-width:0px;"/></g><path d="m49,61c0,.1-.2.2-.3.4,0,0,0,0,0,0,0,0,.1,0,.1,0,.2-.3.3-.7.3-1.1h0c0,.3,0,.5-.1.7Z" style="fill:#fff; stroke-width:0px;"/><path d="m49.5,60.2c0,.3,0,.7,0,1,0,0,0,.2,0,.2,0,0,.1,0,.1,0,0,0,0-.1,0-.2,0-.2,0-.3-.1-.5,0-.2,0-.3,0-.5h-.1Z" style="fill:#fff; stroke-width:0px;"/><path d="m50.5,60.9c-.2-.2-.2-.6-.4-.9,0,0,0,0,0,0,0,0,0,0,0,0,0,0,0,0,0,0h0s0,0,0,0c0,.2,0,.5.1.7,0,.2.3.4.6.4,0,0,0,0,0,0,0,0,0,0,0-.1,0-.1-.2-.2-.3-.3Z" style="fill:#fff; stroke-width:0px;"/><g style="opacity:.8;"><path d="m50.1,57.9s0,0-.1,0c-.2,0-.4-.2-.6,0,0,0,0,0-.1,0,0,0-.2,0-.2-.1,0,0,0-.2,0-.3,0,0-.2,0-.3,0,0,0-.1,0-.2,0-.2.2-.3.5-.3.8,0,0,0,.1,0,.1,0,0,0,0,0,0,0-.1,0-.2.1-.3,0,0,0,0,.1,0,0,0,0,0,0,0,0,.1.2.2.3.2,0,0,.1,0,.2-.1,0,0,.1,0,.2,0,0,0,0,0,0,0,0,0,.2.1.4,0,.1,0,.2-.2.2-.3,0,0,0-.1-.1-.1Z" style="fill:#fff; stroke-width:0px;"/></g><g style="opacity:.8;"><path d="m49,58.8s0,0,0,0c0,0-.1,0-.1,0,0,0,0,0,0,0h0c0,.5.2,1,.5,1.5,0,0,0-.2,0-.2,0-.3-.2-.7-.3-1,0,0,0-.2,0-.3Z" style="fill:#fff; stroke-width:0px;"/></g><g style="opacity:.8;"><path d="m50,58.9c0-.1-.3,0-.3,0,0,.1,0,1.1,0,1.6,0,.1,0,.2.1.3,0,0,0,0,0,0,0,0,0,0,0-.1,0-.5,0-1.1,0-1.6,0,0,0-.2,0-.2Z" style="fill:#fff; stroke-width:0px;"/></g><path d="m49.5,61.7c-.1-.1-.1.4-.1.6,0,.4,0,.8,0,1.2,0,0,0,.2,0,.3s.2.1.2,0c0,0,0-.1,0-.2,0-.3,0-.6,0-.9,0-.3,0-.6,0-.8,0,0,0-.1,0-.2Z" style="fill:#fff; stroke-width:0px;"/><path d="m54,46.6c-4,3.3-13,4.7-16.8,8.3-1.4,1.3-12.3,10.6-13.9,11.5-1.3.7-2.3,1.4-3.7,1.8-2.7.8-5.5,1.3-8.3,1.1l2.2,2.4c1.8-.1,2.3-.2,4.1-.3,1.2,0,2.7-.4,3.9-.8,1.5-.5,4.2-2.4,5.3-2.8-.7,2.7-1.4,6.4-2.1,9.1l1.9-1.3c2.5-14.1,8.6-14.8,12.4-18.4,1.5-1.4,15.3-7,17.3-7.7,20.9-7.3,22.8-8.7,31.4-12.3l-3.4-2.5-30.2,11.8Z" style="fill:#6a2d13; stroke-width:0px;"/><g style="opacity:.5;"><path d="m66.7,75.5c-.1-1.2-.3-2.3-.9-3.4-.6-1-1.6-1.8-2.7-2-1.3-.2-2.5.5-3.4,1.4-.2.3-.4.5-.6.8l.3-.6c-3.1,4.2-3.4,10.3-.8,14.8.4.6.8,1.2,1.5,1.4.5.1,1.1-.1,1.6-.4,2-1.1,3.5-3.1,4.3-5.2.8-2.2.9-4.5.7-6.8Z" style="fill:#317200; stroke-width:0px;"/></g><path d="m74.6,105.6c-.4,0-.8,0-1.3.1-.1,0-.3,0-.4.1s-.2.3,0,.4h0c0,.1,0,.3.1.4,0,.1.3.1.4,0,0-.1,0-.3.2-.3,0,.1.2.3.3.3.1,0,.3.1.4,0,.1-.1.2-.4.3-.4.2,0,.3.3.5.3.1,0,.2-.2.1-.4,0-.2,0-.4-.3-.5-.1,0-.3,0-.5,0Z" style="fill:#9b3a15; stroke-width:0px;"/><path d="m75.9,100.2c-.1-.4-.3-.8-.6-1.1s-.7-.5-1.1-.4c-.3,0-1.3,0-1.3,0-.9,1.1-1.3,2.6-.9,4,.2.8.7,1.6.6,2.4,0,.4-.2.8,0,1.1.3.3.8,0,.8-.3,0,.3.3.5.6.4s.5-.3.5-.5c.2.3.5.6.8.5.2,0,.3-.3.2-.5,0-.2-.1-.4-.2-.6-.2-1,.6-1.9.7-2.9,0-.7-.2-1.3-.4-1.9Z" style="fill:#6b2610; stroke-width:0px;"/><path d="m73.4,103.6c.1.4.1.9,0,1.3,0,.2-.2.4,0,.5,0,0,.1,0,.2,0,.2,0,.4-.2.5-.5,0-.2,0-.5,0-.7-.2-1.5-.9-3-.7-4.5,0,0,0-.1,0-.2,0,0-.1,0-.2,0h0c-.6.8-.8,1.9-.4,2.9.2.4.5.7.7,1.2Z" style="fill:#7a300f; stroke-width:0px;"/><path d="m75,99.7c-.1-.2-.3-.3-.4-.4-.3,0-.6.3-.5.6,0,0-.2.9,0,1.5,0,.1,0,.2.2.3,0,0,.2.1.3,0,0,0,0-.1,0-.2,0-.2,0-.4,0-.5,0,0,0-.2,0-.2,0,0,0-.1.2-.1,0,0,.1,0,.2,0,.2.2.4.4.3.7,0,.1-.1.2-.2.3-.3.4-.6.7-.6,1.2,0,0,0,.2,0,.3.1.1.3.1.5,0,.5-.3.7-.9.7-1.5,0-.7-.2-1.4-.6-2Z" style="fill:#7a300f; stroke-width:0px;"/><g style="opacity:.4;"><path d="m75.6,99.6c0-.2-.1-.4-.3-.3-.2,0-.5,0-.6,0-.5,0-1.2,0-1.7,0-.3,0-.5.2-.6.4-.2.4-.4,1-.4,1.4.4-.3.5-.9.8-1.2.5-.4,1.2-.3,1.7,0s.7,1.1.6,1.7c0,.6-.3,1.2-.5,1.8-.2.4-.4.9-.4,1.3,0,.5.3,1,.8,1,0,0,.1,0,.2,0,.1,0,.1-.2.1-.4,0-.4,0-.8.2-1.2.2-.6.6-1.1.8-1.7.2-1-.2-2-.6-2.9Z" style="fill:#2f0c0a; stroke-width:0px;"/></g><g style="opacity:.5;"><path d="m74.6,101c-.1-.2-.3-.4-.4-.7,0-.1-.1-.2-.3-.3-.1,0-.2-.2-.4-.1h0c0,.5,0,1.1.2,1.5,0,.2.1.4.2.6.1.4.2.9.3,1.3,0-.2,0-.4,0-.6,0-.1,0-.3,0-.4.1-.3.5-.5.6-.8,0-.2,0-.4-.2-.5Z" style="fill:#fff; stroke-width:0px;"/><path d="m73,102.7c-.1-.2-.2-.4-.2-.6-.2-.5-.2-1-.2-1.5-.2.4-.3.8-.3,1.3,0,.3,0,.5.2.8,0,.1.2.3.3.4.5.7.6,1.5.5,2.3.3-.7.5-1.6,0-2.3,0-.2-.2-.3-.3-.5Z" style="fill:#fff; stroke-width:0px;"/></g><path d="m91.1,74.9c1.2,10.6-5.2,20.1-14.4,21.2-9.2,1.1-17.6-6.7-18.8-17.3-1.2-10.6,5.2-20.1,14.4-21.2,9.2-1.1,17.6,6.7,18.8,17.3Z" style="fill:#791429; stroke-width:0px;"/><path d="m86.3,64.6c-4.3-5.6-10.4-6.6-13.2-6.5-3.6.2-7,2-9.2,4.8-.3.3-.5.7-.4,1.1,0,.6.8.9,1.2,1.3.5.5.7,1.3,1.3,1.7.6.5,1.6.5,2.4.3.8-.2,1.6-.6,2.4-.6,1.6,0,2.9,1,4.3,1.7,1.8.9,3.7,1.3,5.6,1.6,1.7.3,3.4.5,5-.1.4-.2.8-.4,1.1-.7.6-.6.7-1.5.5-2.4-.2-.8-.6-1.6-1.1-2.2Z" style="fill:#60182d; stroke-width:0px;"/><g style="opacity:.4;"><path d="m89.4,69.9c-.2-.9-.5-1.9-1.2-2.6,0,.8-.4,1.5-.9,2.1-.2.3-.5.5-.6.8-.1.4,0,.8,0,1.2.3,1.1.6,2.2.9,3.3.4,2.8.3,5.7-.3,8.5-.2,1.3-.6,2.5-1.1,3.7-.9,2-2.3,3.8-3.8,5.5,5.3-3.5,8.5-9.9,8.1-16.2-.1-2.1-.7-4.2-1.2-6.3Z" style="fill:#b91703; stroke-width:0px;"/></g><path d="m89.4,70.6c-.3-.8-.6-1.6-.9-2.3,0-.1-.5-1.1-.6-1-.1,2.5-1.5,2.5-1.5,2.7-.8,5.5-2.5,8.9-4.9,12.8-2.8,4.5-13.9,9.1-22.3-1.7-.2.9,1.2,4.5,2.6,6.2,0,0,2.6,4.2,7.6,6.7,1.4.7,4,1.4,5.5,1.3,1.3,0,2.7-.3,3.9-.6,2.4-.7,4.9-2.6,5.8-3.5,1-1,2-2,2.7-3.2,3.1-5.2,3.9-11.8,2-17.5Z" style="fill:#600a2b; stroke-width:0px;"/><g style="opacity:.4;"><g style="opacity:1;"><path d="m88.4,67.9c-.4.5-.6,1.2-.5,1.9,0,0,.6,1.3.8,2,.5,2.2.7,4.9.7,7.2,0,1.1-.1,1.9-.4,3-1,4.3-3.3,7.2-1.4,5.1,1.2-1.2,2.1-3.5,2.5-5.2.4-1.7.4-3.5.3-5.2-.1-3-.7-6-2-8.7Z" style="fill:#fff; stroke-width:0px;"/></g><g style="opacity:1;"><path d="m76.3,95.8c.2.2.4.1.6.1,2.7-.5,5.3-2,7-4.2-2.2,1.9-4.2,3-4.2,3-1.4.7-3.3,1.1-3.4,1.1Z" style="fill:#fff; stroke-width:0px;"/></g></g><path d="m74.4,57.6s0,0,0,0c-.2,0-.3,0-.5,0,0,0,0,0,0,0,0,0,0,0,0,.1,2,6.5,3,12.5,3.4,19.4.2,3.6-.2,8.4-1,11.9-.5,2.2-1.3,4.4-2.3,6.4.1.1.2.2.4.3,2.7-5.6,3.8-12.4,3.5-18.3-.4-7.2-1.2-13-3.4-19.8Z" style="fill:#9b1b39; stroke-width:0px;"/><path d="m72.7,58c.1-.2.3-.3.5-.5-.3,0-.6,0-.8,0,0,0,0,0-.1,0-3,.9-5.8,2.3-8.1,4.3-2.8,2.5-4.6,6-5.4,9.7-1.6,8.2,1.5,17.7,8.9,21.9,1.8,1.1,3.8,1.9,5.8,2.5,0,0,0,0,.1,0,0,0,.2,0,.3,0h0c0,0-.2-.2-.3-.3-.2-.1-.3-.3-.5-.4-1-.3-1.9-.7-2.9-1.1-3.5-1.5-6.6-3.9-8.5-7.2-4.1-7-4.1-17.2,1.4-23.5,2.4-2.8,5.9-4.6,9.5-5.6Z" style="fill:#9b1b39; stroke-width:0px;"/><path d="m82.3,63.8c-1.8-2.4-4-4.5-6.5-6.1-.4,0-.8,0-1.2,0,6.8,4.1,11.6,11.5,12.1,19.5.3,4.7-.8,9.5-3.7,13.2-2.2,2.8-5.2,4.4-8.4,5.7,0,0-.1,0-.2,0,.1,0,.2.2.3.3.2,0,.3,0,.5,0,0,0,.2,0,.2-.1,2.2-.9,4.4-2,6.1-3.7,2.5-2.3,4.2-5.3,5-8.6,1.8-6.9-.2-14.4-4.4-20.1Z" style="fill:#8e233c; stroke-width:0px;"/><path d="m73.8,57.5c-.2,0-.4,0-.7,0-.2.2-.3.3-.5.5-4.6,5.3-6.8,12.4-6.9,19.4,0,4,.6,8,2.6,11.6,1.3,2.3,3,4.5,4.9,6.5.1.1.3.3.5.4,0,0,.2.2.3.3h0s0,0,.1,0c.2,0,.5,0,.7,0-.1,0-.5-.5-.5-.5-.1-.1-.2-.2-.4-.3-2.1-2-3.9-4.4-5.3-7-1.9-3.5-2.4-7.5-2.3-11.5.2-7,2.6-14,7.4-19.2,0,0,0-.1.1-.2,0,0,0,0,0,0Z" style="fill:#8c1834; stroke-width:0px;"/><path d="m61.7,66.8c-.6,1-1.2,2-1.2,3.2.6-.7,1.2-1.5,1.8-2.2.3-.4.7-.9,1.1-1.1.5-.2,1.1-.3,1.5.1.4.4.5,1.1,1,1.1.5,0,.8-.4.9-.9,1.2-2.9,2.6-5.8,4.8-8.1,0,0,0,0,.1-.2-4.1,1.5-7.6,4.4-10,8Z" style="fill:#89072c; stroke-width:0px;"/><g style="opacity:.2;"><path d="m71.7,58.8s0,0,0,0c0,0,0,0,0,0h0Z" style="fill:#b21f13; stroke-width:0px;"/></g><g style="opacity:.2;"><path d="m71.5,58.7h.2c0,0,0,0,0,0,0-.1-.2,0-.2,0Z" style="fill:#b21f13; stroke-width:0px;"/></g><path d="m67.8,89.7c-1-1.6-1.7-3.4-1.9-5.2,0-.3,0-.7-.3-1-.3-.3-.7-.2-1.1-.1-.4.1-.7.3-1.1.3-.9,0-1.5-.8-1.9-1.5-.5-.8-1.1-1.7-1.6-2.5-.2,1.2,0,2.5.4,3.7,0,0,1.4,3.9,3.8,6.2,2,2,4.5,3.5,7.1,4.5-1.2-1.4-2.5-2.8-3.5-4.4Z" style="fill:#89072c; stroke-width:0px;"/><g style="opacity:.4;"><g style="opacity:.4;"><path d="m75.4,59.1c0,0,0,0,0,0h0Z" style="fill:#b91703; stroke-width:0px;"/></g><g style="opacity:.4;"><path d="m75.4,59.1s0,0,0,0c0,0,0,0,0,0Z" style="fill:#b91703; stroke-width:0px;"/></g><path d="m83,67.8c-1.7-3.5-4.2-6.6-7.2-9,0,0-.2-.1-.3,0-.1,0,0,.2,0,.3,1.1,2.8,1.7,5.7,2,8.7,0,.4,0,.8.4,1.1.4.3.9.2,1.4,0,.4-.2.9-.5,1.4-.5.5,0,.8.4,1.3.6s1,.2,1.2-.2c.1-.3,0-.6-.1-.9Z" style="fill:#89072c; stroke-width:0px;"/></g><path d="m85.6,75.3c0-.2-.1-.4-.3-.5-.3-.1-.5.1-.7.3-1,.9-2.4,1.4-3.8,1.2-.7-.1-1.5-.3-2,.2-.3.4-.3,1-.2,1.5.9,5.2-.2,11.2-2.9,15.8-.1.2-.2.4-.2.6,0,.2.1.4.3.4,0,0,.2,0,.3,0,1.6-.8,2.9-2,4.1-3.3,2-2.1,3.7-4.6,4.7-7.4,1-2.8,1.3-5.8.7-8.6Z" style="fill:#89072c; stroke-width:0px;"/><path d="m74.1,59.1c0-.2-.2-.5-.4-.5-.2,0-.5.2-.6.4-1.6,2.2-3.1,4.6-4.4,7-.5.9-.7,1.8-1.1,2.8-.9,2.7-1.2,6-1.4,9.3.2-2.4.6-4.7.9-6.1.3-1.5,1.1-3.1,2.4-4.9.4-.6.9-1.2,1.6-1.3,1,0,1.7.9,2.1,1.7,1.6,3.2,2.2,6.9,1.8,10.5-.3,2.2-1.1,4.6-3,5.8-.7.5-2.2,1-2.9.8-.8-.2-1.7-.9-2-1.7-.6-1.3-.8-2.5-.9-3.9,0,1.5.4,4.1.6,4.8.5,2.1,1.2,3.2,1.8,4.4,0,0,2.1,3.4,3.7,5.1.2.2.8.8.9.9.4.3.8.5,1.4-1.2.7-1.7,1.1-3.5,1.5-5.6.3-1.6.7-5.9.8-8.5,0-1.4-.1-4.2-.3-5.5-.5-5.2-1.1-9-2.6-14.1Z" style="fill:#89072c; stroke-width:0px;"/><g style="opacity:.2;"><path d="m73,64.8c-.5-.9-1.1-1.9-1.9-2.6-2.3-2-6.4-1.5-8.4,1.2-3.9,5.2-5.7,12-3.6,18.2.8,2.4,2.1,4.6,3.7,6.6.6.8,1.3,1.6,2.1,2.2.8.6,1.8,1,2.8,1.4,1.1.4,2.3.8,3.4.6,1.3-.2,2.4-1,3.2-2,.8-.9,1.4-1.9,1.8-3.1.5-1.3.7-2.7.9-4,.6-6.4-.8-12.9-3.9-18.5Z" style="fill:#f9e8a5; stroke-width:0px;"/></g><g style="opacity:.2;"><path d="m71,67.8c-.3-.7-.7-1.5-1.2-2.1-1.5-1.7-4.6-1.7-6.4.2-3.3,3.6-5.3,8.5-4.2,13.2.4,1.9,1.2,3.6,2.2,5.3.4.6.8,1.3,1.4,1.8.6.5,1.3.9,2,1.3.8.4,1.6.8,2.5.8,1,0,1.9-.6,2.6-1.2.7-.6,1.2-1.3,1.6-2.1.5-.9.8-1.9,1-2.9,1-4.7.5-9.7-1.4-14.1Z" style="fill:#f9e8a5; stroke-width:0px;"/></g><g style="opacity:.4;"><path d="m65.1,68.3c-.8-.7-1.9-1.4-2.8-.9-.4.2-.7.6-.9,1,0,.1-.1.2-.2.3-.6.9-1.1,1.9-1.4,3-.6,2-.8,4.2-.5,6.3.1.9.3,1.8.9,2.5.5.7,1.3,1.2,2,1.6.6.4,1.4.8,2,.4.4-.2.6-.8.7-1.3.3-1.8-.2-3.6,0-5.4.1-1.8.9-3.4,1.2-5.1,0-.3.1-.7,0-1-.1-.5-.6-.9-1-1.3Z" style="fill:#fff; stroke-width:0px;"/></g><g style="opacity:.2;"><path d="m80.2,70s0,0,0,0c0,0,0,0,0,0h0Z" style="fill:#f9e8a5; stroke-width:0px;"/></g><g style="opacity:.2;"><path d="m84.1,70c-.4-.7-1-1.3-1.8-1.5-.8-.1-2.2.6-2.1,1.4.8,3.2,1.4,6.5,1.9,9.7.1.8.4,1.8,1.2,1.9.5,0,.9-.2,1.2-.5.7-.7,1-1.7,1.2-2.7.5-2.9,0-5.9-1.6-8.3Z" style="fill:#f9e8a5; stroke-width:0px;"/></g><g style="opacity:.2;"><path d="m62.7,66.9c.5-1.9,1.6-3.4,3-4.7-.6,1.9-.4,4,0,5.9,0,.3.6.3.5,0-.4-2.2-.7-4.5.3-6.6,0,0,0,0,0,0,1-.8,2.2-1.5,3.4-2,.3-.2.1-.7-.2-.5-3.4,1.7-6.6,4-7.6,7.8,0,.3.4.4.5,0Z" style="fill:#791429; stroke-width:0px;"/><path d="m67.2,88c-1.1-1.9-3.9-2.7-4-5.1,0-.2-.3-.3-.4-.2-.2,0-.4,0-.4.2.4,2.1,0,4.1,1,6,1,1.9,2.8,3.2,4.5,4.4.1,0,.4,0,.4-.1.3-.8-.1-1.8-.3-2.7-.2-.9-.3-1.8-.8-2.7Zm-3.2,1.1c-.9-1.5-.8-3.1-.9-4.7.5.9,1.3,1.5,2.1,2.2,1.1.9,1.8,1.8,2.1,3.3.2.7.6,2,.6,2.9-1.5-1-2.9-2.1-3.9-3.7Z" style="fill:#600a2b; stroke-width:0px;"/><path d="m76.6,61.1c.5.8,1,1.6,1.4,2.5.8,1.4,1.4,2.9,2,4.4.1.3.6.1.5-.2-.7-1.8-1.6-3.6-2.5-5.3-.8-1.4-1.7-3.3-3-4.1-.3-.2-.5.3-.2.5.8.5,1.3,1.6,1.8,2.3Z" style="fill:#600a2b; stroke-width:0px;"/><path d="m83.5,82.8c0-.3-.6-.3-.5,0,0,0,0,.2,0,.2-.1.4-.2.8-.3,1.2-.7,1.3-2.5,2.1-3.5,3.1-1.1,1.1-2,2.4-2.6,3.9-.1.3.4.5.5.2.9-2.1,2.3-3.7,4.2-5.1.4-.3.9-.6,1.2-1-.3,1.7-.4,3.4-1.2,4.9-1.2,2.5-3.8,3.8-6.2,5-.3.1-.1.6.2.5,2.3-1.1,4.7-2.3,6.1-4.5,1.3-2,1.3-4.5,1.8-6.8.2-.3.3-.7.4-1.1,0,0,0-.2,0-.3,0,0,0,0,0,0,0,0,0-.1,0-.2Z" style="fill:#600a2b; stroke-width:0px;"/><path d="m76.6,59.6c8,6,11.4,16.4,8.4,25.9-.1.3.4.5.5.2,3.1-9.8-.3-20.4-8.5-26.5-.3-.2-.6.2-.3.4Z" style="fill:#600a2b; stroke-width:0px;"/><path d="m71.4,65.2c0,.3.6.3.5,0-.2-1.1-.4-2.3-.5-3.4,0,0,0,0,0-.1.3-.4.5-.8.8-1.1.6,2.4,1.2,4.7,1.5,7.1,0,.3.6.3.5,0-.4-2.5-.9-4.9-1.6-7.3,0-.1,0-.1-.2-.2.3-.4.6-.8.9-1.1,0,0,0,0,0,0,1.1,4.3,2.1,8.5,2.3,12.9,0,.3.6.3.5,0-.2-4.6-1.3-9-2.5-13.4,0-.2-.2-.2-.3-.1-.1,0-.3,0-.4,0-2.7,3.1-5.1,6.8-5.2,11.1,0,.4,0,.7,0,1.1,0-.2-.4-.4-.5,0-1.5,4.2-1.8,8.7-.7,13,.7,2.9,2,5.5,3.6,7.9,0,.4.2.7.3,1.1,0,.2.4.2.5,0,.7,1,1.4,2,2.2,3,.2.3.6,0,.4-.3-1-1.3-1.9-2.6-2.8-3.9-.3-1.5,0-3,.5-4.5.3-1.1.6-2.1.5-3.2,0-.3-.6-.3-.5,0,0,1.7-.6,3.1-.9,4.7-.1.7-.2,1.3-.2,2-1.2-2-2.3-4.1-2.9-6.4-1.1-4.3-.9-8.9.6-13.1,0,0,0,0,0-.1.2,1.8.9,3.5,1.5,5.2.9,2.5,1.7,5,2.6,7.5.1.3.6.1.5-.2-.7-2.1-1.5-4.2-2.2-6.3-.7-2.1-1.7-4.2-1.9-6.5-.2-2.9.8-5.6,2.3-8,0,1,.2,1.9.4,2.9Z" style="fill:#600a2b; stroke-width:0px;"/></g><path d="m76.3,96.6c-.2-.2-.7,0-1,0-.9-.2-1.9-.2-2.9,0h-.4c0,.1,0,.2,0,.2,0,.8,0,1.5,0,2.3,0,.4,0,.8.3,1,.2.2.5.2.8.2.8,0,1.6,0,2.3,0,.3,0,.5,0,.7-.2.2-.2.2-.5.2-.8,0-.4,0-.8,0-1.1,0-.4.1-1.1-.1-1.3Z" style="fill:#6b2610; stroke-width:0px;"/><path d="m73.1,95.8c-.6,0-1.2,0-1.8,0h0c0,0,0,0,0,.1,0,0,0,.1.2.2,1.4,1,3.3,1.3,4.9.8.5-.1,1.1-.4,1.2-1-1.5,0-3,0-4.4-.1Z" style="fill:#2f0c0a; stroke-width:0px;"/><g style="opacity:.5;"><path d="m76,97.1c0-.3-.3-.6-.6-.7-.2-.1-.5-.1-.8-.1-.5,0-.9,0-1.4,0-.2,0-.4,0-.5,0-.1,0-.2.2-.2.3,0,0,.1.1.1.2,0,.5,0,.9-.1,1.4,0,.5,0,1,.2,1.4,0,.1.2.2.3.2.2,0,.2-.3.2-.4,0-.4,0-.8,0-1.2s0-.9.4-1.2c0,0,0,0,.2-.1.1,0,.2.1.2.2.1.4,0,.9-.1,1.3,0,.3,0,.6,0,.9,0,.1,0,.2.2.3,0,0,.2.1.3,0,0,0,.1-.2.1-.2.2-.7-.2-1.5.1-2.2,0-.2.3-.4.4-.3,0,0,0,0,0,.1.3.5,0,1.2,0,1.8,0,.3,0,.6.3.6.2,0,.4,0,.5-.3,0-.2,0-.4,0-.5,0-.2,0-.5,0-.7,0-.3,0-.6,0-1Z" style="fill:#300e09; stroke-width:0px;"/><path d="m72.6,96.8s0,0,0-.1c0,0,0,0,0,0h0Z" style="fill:#300e09; stroke-width:0px;"/></g><g style="opacity:.5;"><path d="m76.2,96.8c0-.1-.2-.2-.3-.3h.1c-.5-.1-1-.2-1.5-.3-.5,0-1.1,0-1.6.2-.2,0-.3.2-.3.4,0,.2.2.3.4.4.4.1,1,0,1.3.4.2.3,0,.8-.3,1-.3.2-.7.3-1.1.5,0,0-.1,0-.2.1s0,.1.1.2c.3.2.7.2,1,.3.4,0,.9,0,1.3.1.1,0,.3,0,.4,0,.4-.1.4-.6.5-1,0-.4,0-.8,0-1.2,0-.3,0-.5,0-.8Z" style="fill:#2f0c0a; stroke-width:0px;"/></g><path d="m75,52.2c0-1.2.6-2.9.3-4.1,0-.3-.3-.5-.7-.7-.3-.1-1.1,0-1.4.1-.4.2-.4.9-.4,1.4.2,1.5.5,3,.4,4.5-.1,1.5-.6,3-1.7,4.1l-.4.3c2.4,0,4.1.1,6.6.2-2.6-1.1-2.6-4.6-2.6-5.8Z" style="fill:#abd66d; stroke-width:0px;"/><g style="opacity:.6;"><path d="m85,64.7c0-.1.2,0,.4,0,.4.2.8.3,1.2.5-2.1-2.9-5-5.1-8.3-6.4,3,2.2,4.7,5.7,6.8,8.7.1.2.4.4.6.3,0,0,0-.1.1-.2.2-.9-.5-1.7-.8-2.6,0,0,0-.2,0-.2Z" style="fill:#89072c; stroke-width:0px;"/></g><g style="opacity:.5;"><path d="m86.6,66.5c-.9-2.8-3.3-5-6-6.2-2.7-1.2-3.7-1.6-6.6-1.8-.9,0-2.9.2-2.9.2-1.1.3-3,.7-4,1.8-.2.2-.3.4-.2.6.1.3.5.3.8.2,3.3-.6,6.8-1.2,10,0,3.1,1.1,5.4,3.6,8.1,5.5.3.2.8.3.9,0,0-.1,0-.2,0-.3Z" style="fill:#490f23; stroke-width:0px;"/></g><path d="m75.2,50.7c.1-.6.4-1.3.3-1.9,0-.5-.3-1.1-.7-1.4-.4-.3-1.3-.2-1.3-.2-1.1.1-1.3,1.2-1.2,2,0,.6.4,1.1.5,1.6s.2,1.2-.2,1.6c-.2.2-.6.5-.4.8,0,.2.3.2.5.1.2-.1.2-.4.4-.5.4-.3.5.4.4.6,0,0,0,0,0,0h0c.1,0,.3-.1.4-.2.1-.1.1-.3.1-.5.4.5,1.1.7,1.7.5.1-.3-.2-.5-.5-.7-.5-.4-.3-1.2-.2-1.8Z" style="fill:#c4c95d; stroke-width:0px;"/><g style="opacity:.5;"><path d="m73.8,53c0-.1-.4-.1-.4,0,0,.1,0,.3,0,.4,0,1-.3,1.9-.6,2.8,0,0,0,.2,0,.2,0,0,0,0,0,0,.3,0,.5,0,.8,0,0,0,.1,0,.2,0,0,0,.1-.2.1-.3,0-1,0-2,0-3,0,0,0-.2,0-.2Z" style="fill:#f9e8a5; stroke-width:0px;"/></g><path d="m74.8,53.3c0,0,0,.2,0,.3,0,0,0,0,0,0v-.3Z" style="fill:#c0e86d; stroke-width:0px;"/><g style="opacity:.5;"><path d="m74.8,53.5c0,0,0-.2,0-.2,0,0,0-.2-.2-.1,0,0,0,0,0,0-.1,1-.1,1.9,0,2.9,0,.2,0,.3,0,.5,0,.2-.3.3-.5.4-.6.2-1.3.2-1.7-.2-.2,0-.2.3-.2.4,0,.2.2.3.4.3.2,0,.3,0,.5,0,1.1-.1,2.2,0,3.3.2.1,0,.2,0,.3,0-1.2-1-1.8-2.6-1.7-4.2Z" style="fill:#317200; stroke-width:0px;"/></g><g style="opacity:.5;"><path d="m74.5,47.4c-.3-.1-.6-.1-.8-.1s-.4,0-.5.2c-.2,0-.4.3-.4.6-.2.5-.2,1.1,0,1.7,0,.2.2.3.3.3,0-.3,0-.6,0-.9,0,0,0-.2,0-.2,0,0,.1-.1.2,0,.1,0,.1.2.1.3,0,.5,0,1,.2,1.4,0,.1,0,.2.2.3.3-.5.2-1.1.3-1.7,0,0,0-.2.2-.2,0,.4,0,.7.2,1.1,0,.1.2.2.3.2,0,0,0,0,0-.1,0-.1.1-.3.2-.4,0,0,.1,0,.2.2,0,0,.1-.1.1-.2,0-.5,0-1.1-.3-1.6-.1-.2-.3-.4-.5-.5Z" style="fill:#fff; stroke-width:0px;"/></g><path d="m73,52.4c-.1.2-.3.3-.4.5,0,0,0,0,0,.1,0,0,.2,0,.2,0,.4-.4.6-.9.6-1.5v.2c-.1.3-.2.5-.4.7Z" style="fill:#fff; stroke-width:0px;"/><path d="m73.8,51.2c0,.5,0,.9-.1,1.4,0,.1,0,.2,0,.3,0,0,.2,0,.2,0s0-.1,0-.2c0-.2,0-.4,0-.7,0-.2,0-.5,0-.7h-.2Z" style="fill:#fff; stroke-width:0px;"/><path d="m75.1,52.4c-.3-.4-.2-.9-.4-1.3,0,0,0,0,0,.1,0,0,0,0,0,0,0,0,0,0,0,0h0s0,0,0,0c0,.3,0,.7,0,1,0,.3.4.6.7.7,0,0,0,0,0,0,0,0,0-.1,0-.2-.1-.2-.3-.3-.4-.4Z" style="fill:#fff; stroke-width:0px;"/><g style="opacity:.8;"><path d="m75.1,48.1c0,0-.1,0-.2,0-.3,0-.5-.3-.8-.2,0,0-.1,0-.2,0-.1,0-.3,0-.3-.2,0-.1,0-.3.2-.4-.1,0-.3,0-.4,0,0,0-.2,0-.2,0-.3.3-.5.7-.5,1.1,0,0,0,.2.1.2,0,0,0,0,0,0,0-.2.1-.3.2-.5,0,0,.1,0,.2,0,0,0,0,0,0,.1,0,.2.2.3.4.3.1,0,.2,0,.3-.2,0,0,.2-.1.3,0,0,0,0,0,.1.1.1.1.3.2.5.2.2,0,.3-.2.3-.4,0,0,0-.2-.1-.2Z" style="fill:#fff; stroke-width:0px;"/></g><g style="opacity:.8;"><path d="m73.4,49.3s0,0,0-.1c0,0-.2,0-.2,0,0,0,0,0,0,.1h0c0,.7.2,1.5.5,2.2,0,0,0-.2,0-.3,0-.5-.1-1-.2-1.5,0-.1,0-.3,0-.4Z" style="fill:#fff; stroke-width:0px;"/></g><g style="opacity:.8;"><path d="m74.8,49.5c0-.2-.3-.1-.5,0s-.2,1.5-.2,2.2c0,.1,0,.3.1.4,0,0,0,0,.1,0,0,0,0-.1,0-.2,0-.7,0-1.5.3-2.2,0-.1,0-.2,0-.3Z" style="fill:#fff; stroke-width:0px;"/></g><path d="m73.7,53.3c-.2-.2-.2.5-.3.7,0,.5-.1,1.1-.3,1.6,0,.1,0,.3,0,.4,0,.1.2.2.3.1,0,0,0-.1,0-.2,0-.4,0-.9.1-1.3,0-.4,0-.8,0-1.2,0,0,0-.2,0-.2Z" style="fill:#fff; stroke-width:0px;"/><path d="m28.5,110.4c-.3,0-.7,0-1,0-.1,0-.2,0-.3,0,0,0-.2.2-.1.3h0c0,.1,0,.2,0,.3,0,0,.2.2.3,0,0,0,0-.2.2-.2,0,.1,0,.2.2.3,0,0,.2.1.3,0,.1,0,.2-.3.3-.2.2,0,.2.3.4.3.1,0,.2-.1.2-.3,0-.2,0-.3-.1-.4,0,0-.2,0-.3-.1Z" style="fill:#9b3a15; stroke-width:0px;"/><path d="m30.3,106.3c0-.3-.1-.7-.3-.9-.2-.3-.5-.5-.8-.5-.2,0-1-.2-1-.2-.9.7-1.4,1.9-1.3,3,0,.7.3,1.3.1,2,0,.3-.3.6,0,.9.2.3.6.2.7-.1,0,.2.2.4.4.4.2,0,.4-.1.5-.4,0,.3.3.6.6.5.2,0,.3-.2.3-.4,0-.2,0-.3,0-.5,0-.8.8-1.4,1-2.2.2-.5,0-1.1,0-1.6Z" style="fill:#6b2610; stroke-width:0px;"/><path d="m27.9,108.7c0,.3,0,.7-.2,1,0,.1-.2.3-.1.4,0,0,0,0,.2,0,.2,0,.4-.1.5-.3,0-.2.1-.4.1-.6,0-1.2-.3-2.5.1-3.6,0,0,0-.1,0-.1,0,0,0,0-.1,0h0c-.6.5-.9,1.4-.7,2.2,0,.3.3.7.3,1Z" style="fill:#7a300f; stroke-width:0px;"/><path d="m29.7,105.9c0-.1-.2-.3-.3-.3-.2-.1-.5.1-.5.4,0,0-.3.7-.2,1.2,0,0,0,.2,0,.3,0,0,.2.1.2,0,0,0,0,0,0-.2,0-.1,0-.3,0-.4,0,0,0-.1,0-.2s0-.1.2,0c0,0,0,0,.1,0,.1.2.3.4.2.6,0,0-.1.1-.2.2-.3.2-.6.5-.7.8,0,0,0,.2,0,.2,0,.1.2.1.4,0,.4-.1.7-.6.8-1,.1-.6,0-1.2-.2-1.7Z" style="fill:#7a300f; stroke-width:0px;"/><g style="opacity:.4;"><path d="m30.2,105.9c0-.2,0-.3-.2-.3-.1,0-.4,0-.5,0-.4,0-.9-.2-1.3-.2-.2,0-.4,0-.6.3-.2.3-.5.7-.5,1.1.3-.2.5-.6.8-.8.4-.3,1,0,1.3.3.3.4.4.9.2,1.4s-.4.9-.7,1.3c-.2.3-.5.6-.5,1,0,.4.1.8.5.9,0,0,0,0,.1,0,.1,0,.1-.2.1-.3,0-.3.2-.7.3-.9.3-.4.6-.8.8-1.2.3-.7.1-1.6,0-2.4Z" style="fill:#2f0c0a; stroke-width:0px;"/></g><g style="opacity:.5;"><path d="m29.2,106.8c0-.2-.1-.4-.2-.6,0-.1,0-.2-.1-.3s-.2-.2-.3-.2h0c0,.4,0,.8,0,1.2,0,.2,0,.3,0,.5,0,.4,0,.7,0,1.1,0-.2,0-.3,0-.5,0,0,0-.2,0-.3.1-.2.5-.3.6-.5,0-.1,0-.3,0-.4Z" style="fill:#fff; stroke-width:0px;"/><path d="m27.7,107.9c0-.2,0-.3-.1-.5,0-.4,0-.8,0-1.2-.2.2-.4.6-.4.9,0,.2,0,.4,0,.6,0,.1,0,.2.1.4.3.6.3,1.3,0,1.9.4-.5.6-1.2.4-1.8,0-.1-.1-.3-.2-.4Z" style="fill:#fff; stroke-width:0px;"/></g><path d="m46,88.9c-.6,8.5-7.1,15-14.4,14.4-7.3-.5-12.8-7.9-12.2-16.4.6-8.5,7.1-15,14.4-14.4,7.3.5,12.8,7.9,12.2,16.4Z" style="fill:#751039; stroke-width:0px;"/><path d="m43.8,80.1c-2.5-5-7.1-6.7-9.4-7-2.8-.4-5.8.5-7.9,2.4-.2.2-.5.5-.5.8,0,.5.5.8.8,1.2.3.5.4,1.1.8,1.5.4.5,1.2.6,1.8.6.7,0,1.3-.2,2,0,1.2.2,2.1,1.2,3.1,1.9,1.2,1,2.7,1.6,4.2,2.1,1.3.5,2.6.9,3.9.6.4,0,.7-.2,1-.4.5-.4.8-1.1.8-1.8,0-.7-.3-1.3-.6-1.9Z" style="fill:#5b1631; stroke-width:0px;"/><g style="opacity:.4;"><path d="m45.4,84.7c0-.8-.1-1.5-.5-2.2-.2.6-.6,1.1-1.1,1.5-.2.2-.5.3-.6.5-.2.3-.1.6-.1,1,0,.9.1,1.8.2,2.7-.1,2.3-.6,4.5-1.5,6.6-.4,1-.8,1.9-1.4,2.7-1,1.5-2.4,2.6-3.8,3.7,4.7-1.9,8.1-6.5,8.8-11.5.2-1.7.1-3.4,0-5.1Z" style="fill:#b91703; stroke-width:0px;"/></g><path d="m45.4,85.2c0-.7-.2-1.3-.4-1.9,0,0-.3-1-.3-.9-.5,1.9-1.5,1.7-1.6,1.9-1.4,4.2-3.3,6.6-5.7,9.3-2.8,3.1-12.2,5.1-17.2-4.7-.3.6.3,3.7,1.1,5.3,0,0,1.4,3.7,5,6.4,1,.7,2.9,1.7,4.1,1.9,1,.2,2.1.2,3.1,0,2-.2,4.3-1.3,5.1-1.9.9-.6,1.9-1.3,2.6-2.1,3.2-3.6,4.8-8.6,4.2-13.4Z" style="fill:#470a23; stroke-width:0px;"/><g style="opacity:.4;"><g style="opacity:1;"><path d="m44.9,82.9c-.4.4-.6.9-.6,1.4,0,0,.3,1.1.3,1.7,0,1.8-.2,3.9-.5,5.8-.2.9-.4,1.5-.7,2.3-1.5,3.2-3.6,5.1-1.9,3.8,1.1-.8,2.1-2.5,2.7-3.7.6-1.3.8-2.7,1-4,.3-2.4.4-4.8-.3-7.1Z" style="fill:#fff; stroke-width:0px;"/></g><g style="opacity:1;"><path d="m31.3,103c0,.2.3.2.5.2,2.2,0,4.4-.8,6.1-2.3-2,1.2-3.8,1.7-3.8,1.7-1.2.3-2.8.3-2.8.4Z" style="fill:#fff; stroke-width:0px;"/></g></g><path d="m35.5,72.8s0,0,0,0c-.1,0-.2,0-.4,0,0,0,0,0,0,0,0,0,0,0,0,0,.6,5.4.5,10.2-.3,15.7-.4,2.9-1.4,6.5-2.5,9.2-.7,1.7-1.7,3.2-2.8,4.7,0,.1.2.2.2.3,2.9-4,4.8-9.2,5.5-13.8.8-5.7,1-10.4.3-16Z" style="fill:#f45e45; stroke-width:0px;"/><path d="m34.1,72.9c.1-.1.3-.2.4-.3-.2,0-.4,0-.7,0,0,0,0,0,0,0-2.5.3-4.9.9-7,2.2-2.6,1.6-4.5,4-5.6,6.8-2.5,6.2-1.4,14.1,3.7,18.5,1.3,1.1,2.7,2,4.2,2.8,0,0,0,0,0,0,0,0,.1,0,.2,0,0,0,0,0,0,0,0,0-.1-.2-.2-.3,0-.1-.2-.3-.3-.4-.7-.4-1.4-.8-2.1-1.3-2.5-1.7-4.6-4-5.6-6.9-2.2-6.1-.7-14.1,4.6-18.2,2.3-1.8,5.3-2.7,8.3-3Z" style="fill:#b50829; stroke-width:0px;"/><path d="m40.8,78.8c-1.1-2.2-2.5-4.1-4.2-5.8-.3,0-.6-.2-.9-.2,4.8,4.2,7.4,10.7,6.6,17.1-.4,3.7-2,7.3-4.9,9.8-2.1,1.9-4.7,2.6-7.4,3.2,0,0,0,0-.1,0,0,0,.1.2.2.3.1,0,.3,0,.4,0,0,0,.1,0,.2,0,1.9-.4,3.7-1,5.4-2,2.3-1.4,4-3.5,5.2-6,2.4-5.2,2-11.3-.4-16.4Z" style="fill:#f95a35; stroke-width:0px;"/><path d="m35.1,72.6c-.2,0-.3,0-.5,0-.1.1-.3.2-.4.3-4.4,3.4-7.2,8.7-8.3,14.1-.7,3.1-.7,6.4.3,9.4.7,2,1.6,4,2.9,5.8,0,.1.2.3.3.4,0,0,.1.2.2.3h0s0,0,0,0c.2,0,.4,0,.6.1,0,0-.3-.4-.3-.4,0-.1-.2-.2-.2-.3-1.3-1.9-2.4-4-3.1-6.3-.9-3-.8-6.3,0-9.3,1.2-5.4,4.1-10.6,8.6-13.9,0,0,0,0,.1-.1,0,0,0,0,0,0Z" style="fill:#f4542f; stroke-width:0px;"/><path d="m24.2,78.1c-.6.7-1.2,1.4-1.4,2.3.6-.5,1.1-1,1.7-1.5.3-.3.7-.6,1.1-.7.4-.1.9,0,1.1.3.2.3.2.9.6,1,.3.1.7-.2.9-.5,1.4-2.1,2.9-4.2,5-5.6,0,0,0,0,.1-.1-3.4.6-6.6,2.3-9,4.8Z" style="fill:#960c30; stroke-width:0px;"/><g style="opacity:.2;"><path d="m33.2,73.3s0,0,0,0c0,0,0,0,0,0h0Z" style="fill:#b21f13; stroke-width:0px;"/></g><g style="opacity:.2;"><path d="m33.1,73.2h.1c0,0,0,0,0,0,0,0-.2-.1-.2,0Z" style="fill:#b21f13; stroke-width:0px;"/></g><path d="m25.6,97c-.5-1.4-.9-2.9-.7-4.4,0-.3,0-.6,0-.8-.2-.2-.5-.3-.8-.3-.3,0-.6.1-.9,0-.7-.1-1-.8-1.3-1.5-.3-.7-.6-1.5-.9-2.2-.3,1-.4,2-.2,3,0,0,.5,3.3,2,5.4,1.3,1.8,3,3.4,4.9,4.6-.8-1.3-1.5-2.6-2.1-3.9Z" style="fill:#960c30; stroke-width:0px;"/><g style="opacity:.4;"><g style="opacity:.4;"><path d="m36.1,74.1c0,0,0,0,0,0h0Z" style="fill:#b91703; stroke-width:0px;"/></g><g style="opacity:.4;"><path d="m36.1,74.1s0,0,0,0c0,0,0,0,0,0Z" style="fill:#b91703; stroke-width:0px;"/></g><path d="m40.7,82.1c-.8-3-2.3-5.8-4.3-8.1,0,0-.1-.1-.2-.1,0,0-.1.2,0,.3.5,2.3.5,4.8.3,7.1,0,.3,0,.7.2.9.3.3.7.3,1.1.2.4-.1.8-.3,1.1-.1.4.1.6.4.9.6.3.2.8.3,1,0,.2-.2.1-.5,0-.8Z" style="fill:#960c30; stroke-width:0px;"/></g><g style="opacity:.5;"><path d="m41.6,88.3c0-.2,0-.3-.2-.4-.2-.1-.4,0-.6.1-.9.6-2.1.7-3.1.3-.5-.2-1.2-.5-1.6-.2-.3.2-.4.7-.4,1.1,0,4.2-1.8,8.8-4.6,12-.1.1-.2.3-.3.4,0,.2,0,.4.2.4,0,0,.2,0,.2,0,1.4-.4,2.6-1.2,3.7-2,1.9-1.4,3.6-3.1,4.8-5.1,1.2-2,1.9-4.3,1.8-6.7Z" style="fill:#960c30; stroke-width:0px;"/></g><path d="m42.7,80c0,0,.2,0,.3,0,.3.2.6.4.9.6-1.2-2.6-3.2-4.7-5.6-6.3,2,2.2,2.9,5.1,4,7.9,0,.2.2.4.4.3,0,0,0-.1.1-.2.3-.7-.2-1.4-.2-2.2,0,0,0-.1,0-.2Z" style="fill:#960c30; stroke-width:0px;"/><path d="m35.1,73.9c0-.2,0-.4-.2-.5-.2,0-.4,0-.5.2-1.6,1.5-3.1,3.1-4.5,4.8-.5.7-.8,1.3-1.2,2-1.1,2-1.8,4.5-2.5,7,.5-1.9,1.2-3.6,1.6-4.6.5-1.1,1.3-2.2,2.6-3.5.4-.4.9-.8,1.5-.7.8,0,1.2.9,1.4,1.7.8,2.8.7,5.7-.1,8.5-.5,1.7-1.5,3.4-3.2,4.1-.6.3-1.9.4-2.4.2-.6-.2-1.2-1-1.3-1.6-.2-1.1-.2-2.1-.2-3.2-.3,1.2-.3,3.3-.2,3.8,0,1.7.5,2.7.7,3.7,0,0,1.1,3,2.1,4.5.1.2.5.7.6.8.3.3.5.5,1.3-.7.8-1.3,1.4-2.6,2-4.2.5-1.2,1.4-4.5,1.9-6.6.2-1.1.5-3.3.6-4.4.4-4.2.5-7.3,0-11.4Z" style="fill:#960c30; stroke-width:0px;"/><g style="opacity:.2;"><path d="m33.3,78.2c-.3-.8-.6-1.6-1.1-2.3-1.5-1.9-4.8-2.2-6.8-.3-3.8,3.5-6.3,8.6-5.5,13.7.3,2,1,3.9,1.9,5.7.4.7.8,1.4,1.3,2,.6.6,1.3,1.1,2,1.5.8.5,1.6,1,2.6,1,1,0,2-.5,2.8-1.1.7-.6,1.4-1.3,1.9-2.1.6-.9,1-2,1.3-3,1.4-4.9,1.3-10.2-.3-15Z" style="fill:#f9e8a5; stroke-width:0px;"/></g><g style="opacity:.2;"><path d="m31.3,80.3c-.1-.6-.3-1.3-.7-1.8-.9-1.5-3.4-2-5-.8-3.1,2.3-5.4,5.9-5.3,9.7,0,1.5.4,3,.9,4.4.2.6.5,1.1.8,1.6.4.5.9.9,1.3,1.3.6.4,1.1.9,1.8,1,.8.1,1.6-.2,2.2-.6.6-.4,1.1-.9,1.6-1.4.5-.6.9-1.4,1.2-2.2,1.5-3.5,1.8-7.5,1-11.2Z" style="fill:#f9e8a5; stroke-width:0px;"/></g><g style="opacity:.4;"><path d="m26.6,79.8c-.5-.6-1.2-1.4-2.1-1.1-.4,0-.6.4-.9.6,0,0-.1.1-.2.2-.6.6-1.2,1.3-1.6,2.1-.8,1.5-1.2,3.2-1.3,4.8,0,.7,0,1.5.3,2.1.3.6.8,1.1,1.3,1.6.4.4,1,.8,1.5.6.4-.1.6-.5.8-.9.5-1.4.4-2.9.7-4.3.4-1.4,1.2-2.5,1.7-3.8.1-.3.2-.5.2-.8,0-.4-.3-.8-.6-1.2Z" style="fill:#fff; stroke-width:0px;"/></g><g style="opacity:.2;"><path d="m38.2,83.4s0,0,0,0c0,0,0,0,0,0h0Z" style="fill:#f9e8a5; stroke-width:0px;"/></g><g style="opacity:.2;"><path d="m41.3,84c-.2-.6-.6-1.2-1.2-1.4-.6-.2-1.8.2-1.8.8.1,2.6.1,5.3,0,7.9,0,.6,0,1.4.6,1.7.3.1.7,0,1-.2.7-.4,1.1-1.2,1.4-2,.8-2.2.9-4.6,0-6.8Z" style="fill:#f9e8a5; stroke-width:0px;"/></g><g style="opacity:.2;"><path d="m25,78.4c.7-1.4,1.8-2.4,3.1-3.2-.8,1.4-.9,3-.9,4.7,0,.3.4.3.4,0,0-1.8.1-3.6,1.2-5.1,0,0,0,0,0,0,.9-.5,1.9-.8,2.9-1.1.3,0,.2-.5,0-.4-2.9.8-5.7,2.2-7.1,5-.1.2.3.4.4.1Z" style="fill:#470a23; stroke-width:0px;"/><path d="m25.4,95.5c-.5-1.7-2.7-2.7-2.4-4.6,0-.2-.2-.3-.3-.2-.1-.1-.4,0-.4.1,0,1.7-.7,3.2-.1,4.9.5,1.6,1.7,2.9,2.9,4.1,0,0,.3.1.3,0,.3-.6.2-1.5.2-2.1,0-.7,0-1.5-.2-2.2Zm-2.7.4c-.5-1.3-.2-2.5,0-3.8.2.7.8,1.4,1.3,2,.7.9,1.1,1.7,1.2,2.9,0,.6.2,1.7,0,2.4-1-1-2-2.1-2.5-3.5Z" style="fill:#470a23; stroke-width:0px;"/><path d="m36.7,75.8c.3.7.5,1.4.8,2.1.4,1.2.7,2.5.9,3.8,0,.3.5.2.4,0-.3-1.5-.7-3.1-1.2-4.6-.4-1.2-.8-2.8-1.8-3.7-.2-.2-.4.2-.2.4.5.5.8,1.4,1.1,2.1Z" style="fill:#960c30; stroke-width:0px;"/><path d="m38.9,93.9c0-.3-.4-.3-.4,0,0,0,0,.1,0,.2-.2.3-.3.6-.4.9-.8.9-2.3,1.3-3.2,1.9-1,.7-1.9,1.6-2.6,2.6-.2.2.2.5.4.2,1-1.5,2.4-2.6,4-3.4.4-.2.8-.4,1.1-.6-.5,1.3-.9,2.6-1.7,3.7-1.3,1.8-3.6,2.4-5.6,3-.3,0-.2.5,0,.4,1.9-.5,4-1.1,5.4-2.6,1.3-1.4,1.7-3.3,2.5-5.1.2-.2.4-.5.5-.8,0,0,0-.1,0-.2,0,0,0,0,0,0,0,0,0-.1,0-.2Z" style="fill:#470a23; stroke-width:0px;"/><path d="m36.9,74.7c5.4,5.9,6.5,14.5,2.7,21.5-.1.2.2.5.4.2,3.9-7.2,2.8-16-2.7-22.1-.2-.2-.5,0-.3.3Z" style="fill:#960c30; stroke-width:0px;"/><path d="m32,78.3c0,.3.4.3.4,0,0-.9,0-1.8.1-2.8,0,0,0,0,0,0,.3-.3.5-.5.8-.8.2,1.9.2,3.9.1,5.8,0,.3.4.3.4,0,0-2,0-4-.2-6,0,0,0-.1-.1-.2.3-.3.6-.5.9-.8,0,0,0,0,0,0,.2,3.5.4,7,0,10.5,0,.3.4.3.4,0,.5-3.6.3-7.3,0-10.9,0-.1-.1-.2-.2-.2,0,0-.2-.1-.3,0-2.5,2.1-5,4.6-5.7,7.9,0,.3,0,.6-.1.8,0-.2-.3-.3-.4-.1-1.8,3.1-2.7,6.6-2.5,10.1.1,2.4.8,4.6,1.7,6.7,0,.3,0,.6,0,.9,0,.2.2.2.4.1.4.9.8,1.8,1.3,2.7.1.2.5,0,.4-.2-.6-1.1-1.1-2.3-1.6-3.5,0-1.2.4-2.3,1-3.5.4-.8.8-1.6.9-2.5,0-.3-.4-.3-.4,0-.2,1.3-.9,2.4-1.4,3.5-.2.5-.3,1-.4,1.5-.7-1.7-1.2-3.5-1.3-5.4-.2-3.6.6-7.1,2.4-10.2,0,0,0,0,0,0-.1,1.4.2,2.9.4,4.3.3,2.1.6,4.2.9,6.3,0,.3.5.2.4,0-.3-1.7-.5-3.5-.8-5.2-.3-1.7-.7-3.6-.5-5.3.3-2.3,1.5-4.3,3-5.9,0,.8-.1,1.6,0,2.3Z" style="fill:#470a23; stroke-width:0px;"/></g><g style="opacity:.6;"><path d="m43.7,81.6c-.3-2.4-1.8-4.4-3.8-5.8-1.9-1.4-2.6-1.8-4.9-2.4-.7-.2-2.3-.3-2.3-.3-.9,0-2.4.1-3.4.9-.1.1-.3.3-.3.4,0,.2.4.3.6.3,2.7,0,5.5,0,7.9,1.4,2.2,1.3,3.7,3.6,5.5,5.5.2.2.6.4.7.1,0,0,0-.2,0-.3Z" style="fill:#470a23; stroke-width:0px;"/></g><path d="m31.2,103.6c-.1-.2-.5,0-.8-.2-.7-.3-1.5-.4-2.2-.5h-.3s0,0,0,.1c-.1.6-.2,1.2-.3,1.8,0,.3,0,.6.1.8.1.2.4.2.6.2.6.1,1.2.2,1.8.3.2,0,.4,0,.6,0,.2-.1.2-.4.3-.6,0-.3,0-.6.1-.9,0-.3.2-.8,0-1.1Z" style="fill:#6b2610; stroke-width:0px;"/><path d="m28.8,102.5c-.5-.1-1-.2-1.4-.3h0s0,0,0,.1c0,0,0,.1,0,.2,1,1,2.4,1.5,3.7,1.4.4,0,.9-.2,1.1-.6-1.2-.3-2.3-.5-3.5-.8Z" style="fill:#2f0c0a; stroke-width:0px;"/><g style="opacity:.5;"><path d="m30.9,104c0-.3-.1-.5-.3-.7-.2-.1-.4-.2-.6-.2-.4,0-.7-.1-1.1-.2-.1,0-.3,0-.4,0-.1,0-.2.1-.2.2,0,0,0,.1,0,.2,0,.4-.2.7-.3,1.1,0,.4-.2.8,0,1.1,0,0,.1.2.2.2.1,0,.2-.2.3-.3,0-.3,0-.7.1-1,0-.3.2-.7.4-.9,0,0,0,0,.1,0,0,0,.1.1.2.2,0,.4-.2.7-.3,1,0,.2-.1.5,0,.7,0,.1,0,.2,0,.3,0,0,.2.1.3,0,0,0,.1-.1.2-.2.3-.5.1-1.2.4-1.7,0-.1.3-.2.4-.1,0,0,0,0,0,0,.1.5-.2.9-.3,1.4,0,.2,0,.5.1.5.1,0,.3,0,.4-.1s.1-.3.2-.4c0-.2,0-.4.1-.5,0-.3.1-.5,0-.8Z" style="fill:#300e09; stroke-width:0px;"/><path d="m28.2,103.2s0,0,0,0c0,0,0,0,0,0h0Z" style="fill:#300e09; stroke-width:0px;"/></g><g style="opacity:.5;"><path d="m31.1,103.8c0-.1,0-.2-.2-.3h0c-.4-.2-.7-.3-1.1-.4-.4-.1-.9-.2-1.3,0-.1,0-.3.1-.3.3,0,.1,0,.3.2.3.3.2.8.2,1,.5.1.3,0,.6-.4.8-.3.1-.6.1-.9.2,0,0-.1,0-.1,0,0,0,0,.1,0,.1.2.2.5.3.8.4.3.1.7.2,1,.3.1,0,.2,0,.3,0,.3,0,.4-.4.5-.7,0-.3.2-.6.2-.9,0-.2.1-.4,0-.6Z" style="fill:#2f0c0a; stroke-width:0px;"/></g><path d="m36.8,68.6c.2-.9.9-2.2.8-3.1,0-.3-.2-.5-.5-.6-.2-.1-.9-.2-1.1-.1-.4.1-.5.6-.5,1,0,1.2,0,2.4-.4,3.6-.3,1.2-.9,2.3-1.9,2.9l-.4.2c1.9.4,3.2.7,5.1,1.1-1.8-1.2-1.4-4-1.2-4.9Z" style="fill:#abd66d; stroke-width:0px;"/><path d="m37.2,67.5c.2-.5.5-1,.5-1.5,0-.4,0-.9-.3-1.2-.3-.3-1-.3-1-.3-.9,0-1.2.7-1.2,1.4,0,.5.1.9.2,1.3s0,1-.4,1.2c-.2.1-.5.3-.5.5,0,.1.2.2.4.2.2,0,.2-.3.4-.3.3-.1.3.3.2.5,0,0,0,0,0,0h0c0,0,.3,0,.3-.1.1,0,.1-.2.2-.4.2.4.7.7,1.2.7.1-.2-.1-.4-.3-.6-.3-.4,0-1,0-1.5Z" style="fill:#c4c95d; stroke-width:0px;"/><g style="opacity:.5;"><path d="m35.7,69.1c0-.1-.3-.2-.3,0,0,.1,0,.2,0,.3-.2.7-.5,1.5-.9,2.1,0,0,0,.1,0,.2,0,0,0,0,0,0,.2,0,.4,0,.6.1,0,0,0,0,.1,0,0,0,.1-.1.1-.2.1-.8.3-1.6.4-2.3,0,0,0-.1,0-.2Z" style="fill:#fff; stroke-width:0px;"/></g><path d="m36.5,69.4c0,0,0,.1,0,.2,0,0,0,0,0,0v-.2Z" style="fill:#c0e86d; stroke-width:0px;"/><g style="opacity:.5;"><path d="m36.4,69.7c0,0,0-.1,0-.2,0,0,0-.2-.1-.1,0,0,0,0,0,0-.2.7-.4,1.5-.5,2.3,0,.1,0,.3-.1.4-.1.1-.3.2-.5.2-.5,0-1.1,0-1.3-.4-.1,0-.2.2-.2.3s.1.2.3.3c.1,0,.3,0,.4,0,.9,0,1.7.3,2.5.6,0,0,.2,0,.3,0-.8-1-1-2.3-.7-3.5Z" style="fill:#317200; stroke-width:0px;"/></g><g style="opacity:.5;"><path d="m37.1,64.8c-.2-.1-.4-.2-.6-.2-.1,0-.3,0-.4,0-.2,0-.3.2-.4.4-.2.4-.3.9-.2,1.3,0,.1,0,.3.2.3,0-.2.1-.5.2-.7,0,0,0-.1,0-.2s.1,0,.2,0c0,0,0,.1,0,.2,0,.4,0,.8,0,1.1,0,0,0,.2,0,.2.3-.4.3-.9.5-1.3,0,0,0-.1.1-.1,0,.3,0,.6,0,.9,0,0,0,.2.2.2,0,0,0,0,0,0,0-.1.2-.2.2-.3,0,0,0,0,.1.2,0,0,.1,0,.1-.2.1-.4.2-.9,0-1.3,0-.2-.2-.3-.3-.5Z" style="fill:#fff; stroke-width:0px;"/></g><path d="m35.2,68.5c-.1.1-.3.2-.4.3,0,0,0,0,0,.1,0,0,.1,0,.2,0,.3-.3.6-.6.7-1.1h-.1c0,.3-.2.5-.3.6Z" style="fill:#fff; stroke-width:0px;"/><path d="m36,67.7c0,.4-.2.7-.3,1.1,0,0,0,.2,0,.2,0,0,.1,0,.2,0,0,0,0-.1,0-.2,0-.2,0-.4,0-.5,0-.2,0-.4.1-.6h-.1Z" style="fill:#fff; stroke-width:0px;"/><path d="m36.8,68.8c-.2-.3,0-.7-.1-1.1,0,0,0,0,0,0,0,0,0,0,0,0,0,0,0,0,0,0h0s0,0,0,0c0,.3-.1.5-.1.8,0,.3.2.6.5.6,0,0,0,0,0,0,0,0,0,0,0-.1,0-.1-.2-.2-.2-.4Z" style="fill:#fff; stroke-width:0px;"/><g style="opacity:.8;"><path d="m37.5,65.5s-.1,0-.2,0c-.2,0-.4-.3-.6-.3,0,0,0,0-.1,0-.1,0-.2-.1-.2-.2,0-.1,0-.2.2-.3,0,0-.2,0-.3,0,0,0-.1,0-.2,0-.3.1-.5.5-.6.8,0,0,0,.1,0,.1,0,0,0,0,0,0,0-.1.1-.2.2-.3,0,0,.1,0,.2,0,0,0,0,0,0,.1,0,.1.1.3.2.3,0,0,.2,0,.2,0,0,0,.2,0,.2,0,0,0,0,0,0,0,0,.1.2.2.3.2.1,0,.3-.1.3-.3,0,0,0-.2,0-.2Z" style="fill:#fff; stroke-width:0px;"/></g><g style="opacity:.8;"><path d="m36,66.1s0,0,0,0c0,0-.1,0-.2,0,0,0,0,0,0,0h0c-.1.6,0,1.2,0,1.8,0,0,0-.2,0-.3,0-.4,0-.8,0-1.2,0-.1,0-.2,0-.3Z" style="fill:#fff; stroke-width:0px;"/></g><g style="opacity:.8;"><path d="m37,66.5c0-.1-.3-.2-.4,0-.1.1-.4,1.2-.5,1.7,0,.1,0,.2,0,.3,0,0,0,0,0,0,0,0,0,0,0-.1,0-.6.3-1.1.6-1.7,0,0,0-.2,0-.2Z" style="fill:#fff; stroke-width:0px;"/></g><path d="m35.6,69.3c0-.2-.2.3-.3.5-.1.4-.3.8-.5,1.2,0,.1,0,.2,0,.3,0,.1.1.2.2.1,0,0,0-.1,0-.2,0-.3.2-.7.3-1,0-.3.2-.6.3-.9,0,0,0-.1,0-.2Z" style="fill:#fff; stroke-width:0px;"/><path d="m55.5,43.6c-.5-.4-.9-.9-1.1-1.5l.2.9v.2c0-.3-.3-.5-.5-.6-.1,0-.2-.1-.4,0-.2,0-.2.3-.2.5s.1.4,0,.6c-.8-.3-1.7-.5-2.5-.1-.1,0-.3.2-.3.3,0,0,0,.2.1.2.5.5,1,1,1.5,1.4-.5.2-.9.6-1.1,1.1,0,0,0,.1,0,.2,0,.2.2.2.4.2.2,0,.3,0,.5,0,0,.2,0,.4,0,.6,0,0,0,0,0,.1,0,0,.2,0,.3,0,.4-.2.8-.2,1.3-.2.2,0,.5.1.7,0,.2,0,1.2-.5,1.4-.6,1.4-.7,2.8-.9,3.3-2.1-.6.3-3.2-.7-3.7-1.1Z" style="fill:#753e2c; stroke-width:0px;"/><path d="m57.4,44c-.5-.4-.9-.9-1.1-1.6l.2.9c0,0,0,.1.1.2-.2-.3-.4-.5-.7-.7-.1,0-.3-.1-.4,0-.2,0-.2.3-.2.5,0,.2.1.4,0,.6-.9-.3-1.8-.5-2.6-.1-.1,0-.3.2-.3.3,0,0,0,.2.1.3.5.5,1,1,1.6,1.5-.5.2-.9.6-1.1,1.1,0,0,0,.1,0,.2,0,.2.2.2.4.2s.3,0,.5,0c0,.2,0,.4,0,.6,0,0,0,.1,0,.1,0,0,.2,0,.3,0,.4-.2.9-.2,1.3-.2.3,0,.5.1.8,0,.2,0,1.2-.5,1.4-.6,1.5-.7,2.9-1,3.4-2.2-.6.3-3.3-.7-3.9-1.1Z" style="fill:#bc604d; stroke-width:0px;"/><path d="m57.7,44.7c-.4-.3-.6-.7-.8-1.1l.2.6s0,0,0,.1c-.1-.2-.3-.3-.5-.4,0,0-.2,0-.3,0-.1,0-.2.2-.1.4,0,.1,0,.3,0,.4-.6-.2-1.2-.4-1.8,0,0,0-.2.1-.2.2,0,0,0,.1,0,.2.3.4.7.7,1.1,1-.3.2-.6.4-.8.8,0,0,0,0,0,.1,0,.1.2.2.3.1.1,0,.2,0,.3,0,0,.1,0,.3,0,.4,0,0,0,0,0,0,0,0,.1,0,.2,0,.3-.1.6-.2.9-.1.2,0,.4,0,.5,0,.2,0,.8-.4,1-.4,1-.5,2-.7,2.4-1.5-.4.2-2.3-.5-2.7-.8Z" style="fill:#c4804d; stroke-width:0px;"/><path d="m39,51.9h.1c-.9-.2-1.8.2-2.4.8-.6.7-.9,1.5-1.2,2.4-.2.7-.3,1.4-.3,2.1,0,1.1,0,2.2.2,3.3.2,1.4.3,2.8.5,4.2,0,0,0,.2,0,.2.1.2.4.1.6,0,.1-.2.1-.4,0-.7-.1-1.4-.3-2.8-.4-4.3,0-.7-.1-1.4-.1-2.1,0-1.2.2-2.6.7-3.7.4-.7,1.1-1.3,1.9-1.4.3,0,1.2.2,1.3,0,0-.3-.8-.7-1.1-.8Z" style="fill:#c4c95d; stroke-width:0px;"/><g style="opacity:.5;"><path d="m36.7,64.2c-.1-1.4-.3-2.8-.4-4.3,0-.7-.1-1.4-.1-2.1,0-1.2.2-2.6.7-3.7.4-.7,1.1-1.3,1.9-1.4.2,0,1.1.2,1.3,0-.3-.2-.7-.4-1.1-.4-.9,0-1.8.6-2.3,1.5-.9,1.6-.9,3.5-.8,5.3.1,1.8.3,3.6.5,5.5,0,0,0,.2,0,.3,0,0,0,0,0,0,0,0,0,0,0,0,.1-.2.1-.4,0-.7Z" style="fill:#317200; stroke-width:0px;"/></g><g style="opacity:.5;"><path d="m37.4,52.3c-1.1,1-1.6,2.3-1.9,3.8-.1,1-.2,2-.1,2.9,0,1,.4,1.9.4,2.9,0,.2.3.2.3,0,0-1.5-.5-2.8-.4-4.3,0-1.9.4-3.8,1.9-5.2.1-.1,0-.3-.2-.2h0Z" style="fill:#fff; stroke-width:0px;"/></g><path d="m25.2,50.8c-.8.1-1.6.2-2.4,0-.8-.3-1.3-1-1.9-1.6-1.6-1.7-4-2.7-6.3-2.7-.6,0-1.3.2-1.4.7-.5-.7-1.8-.2-2,.6-.2.8.6,1.7,1.5,1.7-1.2-.2-2.4-.3-3.6-.2-.5,0-.9,0-1.3.3s-.5.9-.2,1.2c-.9.2-1.8.6-2.2,1.4s.1,2.1,1,2c-.4.3-.2,1.1.3,1.3.5.3,1.1.2,1.6,0,1.4-.2,2.7-.1,4.1.1-2.4.8-4.9,1.7-6.4,3.7-.4.6-.8,1.5-.2,1.9.4.3,1,.2,1.5,0-.5.5-1.2.7-1.7,1.2-.5.5-.6,1.6.1,1.8-.4.9-.5,1.9-.2,2.8.1.5.4,1,.9,1.1.5.2,1.5-.7,1.5-.7-.2.3-.5.6-.5.9,0,.4.1.8.5.8.1,0,.3,0,.4,0,1.3-.5,1.2-2.4,2.1-3.5.3.8-.7,1.8-.3,2.6.2.5.8.7,1.3.6.5,0,1-.4,1.3-.7,2-1.8,2.9-4.6,4.9-6.5-1,1.5-1.6,3.3-1.6,5,0,.5,0,1.1.5,1.5.3.3.8.2,1.1,0-.2.7.2,1.6,1,1.8.8.2,1.6-.4,1.8-1.2.1.3.6.6.9.5.5-.2.7-.8.8-1.3,0-.4,0-.8,0-1.2,0,.3.2.6.5.8.4.2,1,.1,1.3-.2.3-.3.3-.7.3-1.1,0-1.5-1.2-3.1-.6-4.5.2.9.4,1.8.6,2.6.1.5.4,1.2.9,1.2.4,0,.8-.3.9-.7.1-.4,0-.8,0-1.2.6,0,.9-.8.9-1.4.2-2.9.3-6-1.2-8.5-.4-.7-.9-1.5-.5-2.2.3-.5,1-.6,1.6-.6,1.7,0,3.3-.2,5-.3,3-.2,6.2-.3,8.7,1.3v-1.3c-4.9-.8-10-.9-15-.2Z" style="fill:#4ba53c; stroke-width:0px;"/><g style="opacity:.5;"><path d="m20.9,58c-.2-.2-.5,0-.7.2-.3.5-.6.8-.6.8-1.4,2.3-2.4,4.8-3.1,7.3,0,.3-.1.6-.1.9,0,.1,0,.3.1.3.3.2.6-.4,1-.3.2,0,.2.3.3.5,0,.8,0,1.7.7,2.1.2.1.5.2.6,0,.2-.1.2-.3.3-.5,0-.4,0-.8,0-1.2.3.2.4.4.7.6.2.2.6.3.8.2.3-.2.3-.6.2-.9,0-.8-.3-1.6-.5-2.4.4.4.8.9,1.3,1.3.2.2.4.4.6.4.2,0,.5,0,.7-.1.1-.1.2-.3.2-.5,0-1-.3-2-.8-2.9-.5-.9-1-1.8-1.3-2.8-.3-.9-.3-1.9-.2-2.9,0-.1,0-.3,0-.3Z" style="fill:#5dba49; stroke-width:0px;"/><path d="m24.2,53c0,0-.2,0-.3,0-.3.2-.4.5-.5.8-.5.8-.9,1.7-1.2,2.6-.1.5-.2,1-.2,1.4,0,.5.1,1,.2,1.4.5,2,1.1,4.1,2.4,5.7.1.1.3.3.4.2,0,0,0-.2,0-.2,0-.8,0-1.7-.1-2.5.1.1.3.3.4.3.2,0,.4,0,.5,0,.1-.1.1-.3.1-.5-.2-3.1-.9-6-1.8-9,0-.1,0-.2-.2-.3Z" style="fill:#5dba49; stroke-width:0px;"/><path d="m16.7,61c.5-.9.6-2,1.1-2.9.7-1.3,1.9-2.2,2.6-3.5-.4.3-.7.6-1.1.8-.6.5-1.2.9-1.8,1.3-.6.4-1.3.9-1.9,1.3-.6.5-1.1,1-1.7,1.5-2.6,2.5-5.1,5-7.6,7.5,0,0-.1.1-.2.1-.2,0-.2-.3,0-.5.6-1.1,1.4-2,2.3-2.8.3-.2.6-.5.9-.7,0,0,.2-.3,0-.3,0,0,0,0-.1,0-.5,0-.9.2-1.4.5l.3-.2c-.9.2-1.7.8-2.2,1.5-.5.8-.6,1.8-.3,2.6,0,.2.2.4.4.5.2,0,.4,0,.6,0,.5-.3.8-.8,1-1.3,0,.6,0,1.2.2,1.7,0,.1,0,.2.2.3.2.2.6,0,.8-.4.5-.9.5-2.1,1.3-2.7,0,0,.2-.1.3-.1.2,0,.4.2.4.4,0,.2,0,.4-.1.6-.1.4-.2.8-.3,1.3,0,.3,0,.7.2.9.3.2.7.2,1,0,.8-.4,1.1-1.2,1.4-2,0,0,0,.2.2.2.2.1.4,0,.6,0,.2-.1.3-.3.4-.5.7-1.2,1-2.6,1.8-3.8.3-.5.7-.9,1-1.4Z" style="fill:#5dba49; stroke-width:0px;"/><path d="m6.1,63.3h0c.6-.1,1.1-.6,1.7-.9.6-.3,1.2-.5,1.8-.6.4,0,.9-.2,1.2-.3,1-.4,1.6-1.3,2.3-2.1.4-.4.9-.8,1.4-1.2.4-.3.8-.5,1.1-1-.6.2-1.2.4-1.8.6-.2,0-.4.1-.6,0s-.4-.2-.4-.4c0-.2.2-.4.4-.5,1.6-.8,3.6-.9,5.1-1.9.6-.4,1-.8,1.6-1.2.6-.5,1.3-.9,2-1.3-1.3.1-2.6.2-3.6,1-.3.2-.5.5-.8.7-.6.5-1.5.7-2.2.9-2.2.5-4.5,1-6.5,2.1-1.1.5-2.1,1.3-2.7,2.3-.1.3-.3.6-.2.9,0,.3.2.6.5.7.5.2,1-.3,1.6-.4-.7.6-1.3,1.2-1.9,1.9,0,0-.2.2-.2.3,0,.1.2.2.2.2Z" style="fill:#5dba49; stroke-width:0px;"/><path d="m7.4,53.9c-.2.2-.5.3-.5.6,0,.4.4.7.8.8,1.4.3,2.8-1,4.2-.6.2,0,.4.2.7.2.6.1,1.2,0,1.7-.3.8-.3,1.7-.7,2.5-1,.3-.1.7-.3,1-.5.4-.4.7-.9,1.2-1.1.5-.2,1.2,0,1.6-.2-.3-.2-.7-.3-1.1-.4-3.3-.8-6.7-1.3-10.2-1.6-.4,0-.8,0-1,.3-.2.3,0,.7.1,1-.4,0-.8.3-1.1.6h0c-.4.2-.8.4-1.1.7-.3.3-.4.9-.1,1.3.3.4.9.4,1.4.3Z" style="fill:#5dba49; stroke-width:0px;"/><path d="m15.6,49.9c1.1.1,2.3.2,3.4.4.9.2,1.8.6,2.7.8.2,0,.4.1.6,0,.2,0,.3-.4.1-.5,0,0-.8-.6-1.3-1-1.9-1.5-4-2.3-6.4-2.6-.3,0-.6,0-1,0-.3.1-.6.4-.6.7-.4,0-.7-.5-1.1-.4-.3,0-.5.4-.4.7,0,.3.3.5.6.7.9.7,2.1.9,3.2,1.1Z" style="fill:#5dba49; stroke-width:0px;"/></g><g style="opacity:.5;"><path d="m24.8,51.2c-.1,0-.2.2-.3.2,0,0,0,0,0,0-.3.1-.6.2-.9.3-.4,0-.8-.1-1.2-.2-.9-.8-1.7-1.5-2.8-2-.6-.2-1.2-.4-1.7-.7-.7-.4-1.3-.9-1.9-1.4,0,0-.2,0-.1.1,1,.8,1.9,1.4,3.1,1.9,1.2.5,2.1,1.2,3.1,2-3.4-.6-6.5-2.1-9.6-3.7,0,0-.2,0,0,.1,3.2,1.7,6.4,3.1,9.9,3.7,0,0,.2,0,.2,0,.2,0,.3,0,.5,0-1,0-1.9,0-2.9,0-1.6.1-3.2.6-4.8.7-.4,0-.8,0-1.2,0-1.4-1.2-3.2-2-5-2.3,0,0-.1.1,0,.2,1.8.3,3.4,1,4.8,2.1-1-.1-2.1-.3-3.1-.3-1.5,0-3,.2-4.5.5,0,0,0,.2,0,.1,1.6-.4,3.2-.5,4.9-.5.3,0,.7,0,1,0-.7.4-1.3.9-2,1.3-.9.5-1.9.7-2.9.7-.1,0,0,.2,0,.2.9,0,1.7-.1,2.5-.5.9-.4,1.7-1,2.5-1.5,0,0,0,0,0-.1.6,0,1.2.2,1.8.2,0,0,0,0,0,0,0,0,.1,0,.1,0,.5,0,1.1,0,1.6,0,1.5-.2,3-.6,4.6-.7,1.1,0,2.1,0,3.1-.1,0,0,.2,0,.3,0,0,0,0,0,0,0-1.7,1-3.2,2.3-4.7,3.6-.2.2-.4.3-.6.4-1,.5-2.2.6-3.3.9-1,.3-1.9.7-2.8,1.1-.3.1-.6.3-.9.5-1.5.2-3.2-.5-4.5.5,0,0,0,.2,0,.1,1.2-1,2.7-.4,4.1-.5-.6.3-1.1.7-1.7.9-1,.4-2,.5-3,.9,0,0,0,.2,0,.1,1-.4,2-.5,3-.9.7-.3,1.4-.7,2-1.1.2-.1.3-.2.4-.2,0,0,.2,0,.3-.1,1.1-.6,2.3-1,3.5-1.4.8-.2,1.6-.3,2.3-.6-.3.2-.6.4-.8.6,0,0,0,0-.1,0,0,0-.1.2-.2.2-.8.5-1.5,1.1-2.2,1.7-.5.5-1.1.9-1.6,1.4,0,0,0,0,0,0-.6.4-1.3.6-2,.6-.4,0-.8,0-1.2.3,0,0,0,.2,0,.1.5-.3,1.2-.2,1.8-.4.4,0,.8-.2,1.1-.4-.8.7-1.6,1.5-2.3,2.2,0,0-.2,0-.2,0,0,0,0,0,0,.1-1.1-1.4-3.2.2-4.3.8,0,0,0,.2,0,.1,1.1-.6,3.1-2.1,4.1-.8,0,0,0,0,0,0-1.4,1.4-2.7,2.7-4,4.1,0,0,0,.2.1.1,1.3-1.4,2.6-2.7,4-4.1-.2,1.7-2,2.8-1.9,4.5,0,.1.2,0,.2,0,0-1,.8-2,1.3-2.8.3-.6.6-1.2.6-1.8,1.3-1.3,2.7-2.6,4.1-3.9.6-.6,1.3-1.1,2-1.5-.9,1.4-1.2,3.1-2.2,4.5-.1.2-.2.3-.3.5,0,0,0,0,0,0,0,0,0,.2-.1.3-.4.6-.8,1.1-1.1,1.8-.5,1-.9,2.1-1.3,3.2,0,0,.1.2.1,0,.4-1,.7-2.1,1.2-3.1.3-.6.6-1.1,1-1.5-.1,1,.4,2.1-.2,2.9,0,0,0,.2.1.1.7-1,0-2.3.3-3.4.2-.3.4-.5.6-.8,1-1.5,1.3-3.5,2.4-4.9.6-.4,1.1-.8,1.7-1.2,0,0,0,0,0,0,0,0,0,0,0,0,.2-.1.4-.3.6-.4,1-.8,2-1.6,3-2.4-1,1.1-1.6,2.4-2.7,3.5-1,1-2.1,1.8-2.7,3.1,0,0,.1.2.1,0,.6-1.4,1.8-2.2,2.8-3.2,1-1.1,2.8-3.6,2.7-3.7.5-.3.9-.7,1.4-.9,0,0,.1-.1.2-.1-.1.2-.3.4-.4.6,0,.1-.1.2-.2.3,0,0,0,0,0,.1-.4.6-.7,1.2-1.1,1.8-.4.7-.7,1.3-1,2,0,0-.1,0-.1,0,0,.1,0,.2,0,.3-.3.7-.5,1.4-.8,2.2-.2.8-.5,1.6-.6,2.5-.2.8-.2,1.5-.3,2.3,0,0,0-.1,0-.2,0-.1-.2,0-.2,0,0,.2,0,.5.1.7-.2,1.6-.7,3-.6,4.6,0,.1.2,0,.2,0,0-1.5.3-2.8.6-4.2.3,1.3.8,2.5.9,3.8,0,.1.2,0,.2,0-.2-1.5-.7-2.8-1-4.2,0,0,0,0,0,0,.1-.8.1-1.6.2-2.3,0-.4.2-.9.3-1.3.7,1.1,1.1,2.2,1.3,3.4.2,1.1.6,1.9,1.2,2.8,0,0,.2,0,.1,0-.3-.5-.7-1-.9-1.6-.2-.5-.3-1.1-.4-1.7-.3-1.1-.7-2-1.3-2.9,0,0,0,0,0-.1,0-.3.1-.5.2-.8.2-.8.5-1.6.8-2.4,0,.5.2.9.4,1.3.3,1,.5,2.1.7,3.1,0,.1.2,0,.2,0-.1-.8-.2-1.6-.4-2.4-.2-.8-.6-1.6-.6-2.4.2-.6.5-1.2.8-1.7.4-.7.8-1.4,1.2-2.1,0,0,0,0,0,0-.3,1.8-.7,3.7-.1,5.5.4,1.1.7,2.2.9,3.4.2.9.4,1.8.8,2.6,0,0,.2,0,.1,0-.5-1-.7-2.1-.9-3.2-.2-.9-.4-1.7-.7-2.5-.7-2-.2-4.1.1-6.2.2-.4.4-.7.7-1,0,0,0,0,0,0,.2-.2.4-.4.6-.5,0,0,0-.2,0-.1Zm-.8.6c0,0,.2,0,.2,0,0,0,0,0,0,0,0,0,0,0-.1,0Z" style="fill:#85b847; stroke-width:0px;"/><path d="m19.3,63.5c-1.3,1-2.2,2.3-2.6,3.9,0,0,.1.1.2,0,.5-1.5,1.3-2.8,2.5-3.8,0,0,0-.2,0-.1Z" style="fill:#85b847; stroke-width:0px;"/></g><path d="m35.2,50.4c-.5,0-1-.1-1.5-.1-.6,0-1.1,0-1.7,0-1.4,0-2.9,0-4.3.1-.9,0-1.9.3-2.8.5-.4,0-.8.2-1.2.3,0,0-.1,0-.2,0,0,0,0,0,0,.1,0,0,.1.1.9,0-.3,0-.3,0-.5.1-.2,0-.3.2-.3.3,0,.2.3.2.3,0,0,.2-.2.4,0,.5.1,0,.2-.1.3-.2.3-.6.9-1,1.6-1.2.6-.2,1.3-.2,2-.3,1.1,0,2.3-.1,3.4-.2.7,0,1.5,0,2.2,0,1.2,0,2.3.2,3.5.4.9.2,1.9.4,2.8,0-1.6-.2-3.2-.4-4.9-.6Z" style="fill:#85b847; stroke-width:0px;"/><g style="opacity:.2;"><path d="m14.9,50.8c-1.6-.2-3.1-.7-4.7-.8-.3,0-.7,0-1,.1-.1,0-.3,0-.4.1-.2.1-.2.4-.1.6,0,.1.1.2.1.3,0,.1-.1.2-.2.3-.4.3-.8.5-1.3.7-.4.2-.9.4-.9.8,0,.4.4.7.8.7,1.1.1,2.2-.6,3.3-.9.6-.2,1.3-.2,1.9-.2,1.4,0,2.8-.4,4.2-.8.1,0,.2,0,.2-.2,0-.1-.1-.2-.2-.3-.5-.2-1.1-.3-1.7-.3Z" style="fill:#fff; stroke-width:0px;"/></g><g style="opacity:.2;"><path d="m18.7,49.2c.2,0,.5,0,.5-.2,0-.1-.1-.2-.2-.2-1.3-.7-2.9-1-4.4-1.2-.2,0-.5,0-.7,0-.2.1-.3.3-.6.4-.2,0-.3,0-.5-.1,0,0-.2,0-.3,0,0,0-.2,0-.2,0,0,0,0,.2,0,.3.2.5.9.7,1.4.7.6,0,1.1-.2,1.7-.2,1.1,0,2.2.3,3.3.5Z" style="fill:#fff; stroke-width:0px;"/></g><g style="opacity:.2;"><path d="m15.8,57.2c.4-.4.8-.9,1.3-1.3.8-.6,1.8-.7,2.4-1.4-2,0-4,.6-5.9,1.3-.6.2-1.3.5-1.9.7-.4.1-.7.3-1,.5-1,.7-1.4,2-2.2,3-.2.2-.3.3-.5.6-.2.3-.2.7,0,.8.2.2.6,0,.8-.2.4-.3.7-.5,1.1-.8.1,0,.2-.2.4-.1.1,0,.2.1.3.2.3.2.7,0,1-.2.9-.6,1.8-1.2,2.8-1.9.5-.3,1-.7,1.4-1.1Z" style="fill:#fff; stroke-width:0px;"/></g><g style="opacity:.2;"><path d="m9.4,63.2c0,0,0-.1,0-.2,0,0-.2,0-.3,0-.2,0-.3.1-.5.2h.5c-.6,0-1.1.3-1.6.6s-1,.8-1.2,1.3c-.1.3-.2.6-.4.8-.1.1-.3.3-.2.5,0,0,.1,0,.2,0,.3,0,.5-.3.7-.6.4-.6,1-1.1,1.5-1.6.4-.3.8-.6,1.2-1.1Z" style="fill:#fff; stroke-width:0px;"/></g><g style="opacity:.2;"><path d="m18.5,61.6c-.1.5-.2,1-.2,1.5,0,.3.2.6.5.6.2,0,.3-.2.4-.4.3-.6.3-1.3.5-1.9.2-1.1.5-2.2.9-3.2,0-.2.1-.4,0-.6,0,0-1.7,2.6-2.1,4Z" style="fill:#fff; stroke-width:0px;"/></g><g style="opacity:.2;"><path d="m18.8,64.5c-.1.1-.2.2-.3.4h-.1c-.1,1.2-.2,2.2-.2,3.3,0,.3,0,.6.2.8.2.2.5.3.7.1.1-.1.1-.3.1-.4.1-1.3.1-2.6,0-3.9,0-.2-.1-.4-.3-.4,0,0-.1,0-.2,0Z" style="fill:#fff; stroke-width:0px;"/></g><g style="opacity:.2;"><path d="m17.5,66.7c.1-.2.2-.4.2-.6,0-.2,0-.5.1-.7,0-.1,0-.3,0-.4,0,0,0-.1-.2-.1,0,0-.1,0-.2,0-.1,0-.3.2-.4.3v.3c0,.4-.2.9-.2,1.3,0,0,0,.2,0,.3,0,0,0,0,.1,0,.2,0,.3-.2.4-.3Z" style="fill:#fff; stroke-width:0px;"/></g><g style="opacity:.2;"><path d="m24,53.3c-.1,0-.2.1-.3.2-.4.7-.8,1.3-1.1,2l.4-.6c-.8,1.6-.7,3.5.1,5,0,0,.1.2.2.1,0,0,.1-.1.1-.2.2-1.3.4-2.7.6-4,.1-.7.2-1.5.1-2.2,0-.1,0-.3-.2-.3Z" style="fill:#fff; stroke-width:0px;"/></g><path d="m42.4,50.9c-.5-.4-.9-.9-1.1-1.5l.2.9c0,0,0,.1.1.2-.2-.3-.4-.5-.6-.6-.1,0-.2-.1-.4,0-.2,0-.2.3-.2.5,0,.2.1.4,0,.6-.8-.3-1.7-.5-2.5-.1-.1,0-.3.2-.3.3,0,0,0,.2.1.2.5.5,1,1,1.5,1.4-.5.2-.9.6-1.1,1.1,0,0,0,.1,0,.2,0,.2.2.2.4.2.2,0,.3,0,.5,0,0,.2,0,.4,0,.6,0,0,0,0,0,.1,0,0,.2,0,.3,0,.4-.2.8-.2,1.3-.2.2,0,.5.1.7,0,.2,0,1.2-.5,1.4-.6,1.4-.7,2.8-.9,3.3-2.1-.6.3-3.2-.7-3.7-1.1Z" style="fill:#753e2c; stroke-width:0px;"/><path d="m76.6,34.9h.1c-.9-.2-1.8.2-2.4.8-.6.7-.9,1.5-1.2,2.4-.2.7-.3,1.4-.3,2.1,0,1.1,0,2.2.2,3.3.2,1.4.3,2.8.5,4.2,0,0,0,.2,0,.2.1.2.4.1.6,0,.1-.2.1-.4,0-.7-.1-1.4-.3-2.8-.4-4.3,0-.7-.1-1.4-.1-2.1,0-1.2.2-2.6.7-3.7.4-.7,1.1-1.3,1.9-1.4.3,0,1.2.2,1.3,0,0-.3-.8-.7-1.1-.8Z" style="fill:#c4c95d; stroke-width:0px;"/><g style="opacity:.5;"><path d="m74.3,47.2c-.1-1.4-.3-2.8-.4-4.3,0-.7-.1-1.4-.1-2.1,0-1.2.2-2.6.7-3.7.4-.7,1.1-1.3,1.9-1.4.2,0,1.1.2,1.3,0-.3-.2-.7-.4-1.1-.4-.9,0-1.8.6-2.3,1.5-.9,1.6-.9,3.5-.8,5.3.1,1.8.3,3.6.5,5.5,0,0,0,.2,0,.3,0,0,0,0,0,0,0,0,0,0,0,0,.1-.2.1-.4,0-.7Z" style="fill:#317200; stroke-width:0px;"/></g><g style="opacity:.5;"><path d="m75,35.3c-1.1,1-1.6,2.3-1.9,3.8-.1,1-.2,2-.1,2.9,0,1,.4,1.9.4,2.9,0,.2.3.2.3,0,0-1.5-.5-2.8-.4-4.3,0-1.9.4-3.8,1.9-5.2.1-.1,0-.3-.2-.2h0Z" style="fill:#fff; stroke-width:0px;"/></g><path d="m79.3,34.8c-.6-.1-1.1-.5-1.6-1l.5.8c0,0,.1,0,.2.1-.2-.2-.5-.3-.8-.4-.1,0-.3,0-.4,0-.2.1,0,.4,0,.6.1.2.3.3.3.5-.9,0-1.8.2-2.4.8,0,.1-.2.3-.1.4,0,0,.1.1.2.2.6.3,1.3.6,1.9.8-.3.4-.6.9-.6,1.4,0,0,0,.1,0,.2,0,.1.3.1.4,0,.1,0,.3-.2.4-.2,0,.2.2.3.2.5,0,0,0,0,0,.1,0,0,.2,0,.2,0,.3-.3.7-.5,1.1-.6.2,0,.5,0,.7-.2.2-.1.9-.9,1-1,1.1-1.2,2.3-1.9,2.3-3.2-.4.5-3.3.5-3.9.4Z" style="fill:#753e2c; stroke-width:0px;"/><path d="m80.6,35c-.6-.1-1.1-.5-1.6-1l.5.8c0,0,.1,0,.2.1-.2-.2-.5-.3-.8-.4-.1,0-.3,0-.4,0-.2.1,0,.4,0,.6.1.2.3.3.3.5-.9,0-1.8.2-2.4.8,0,.1-.2.3-.1.4,0,0,.1.1.2.2.6.3,1.3.6,1.9.8-.3.4-.6.9-.6,1.4,0,0,0,.1,0,.2,0,.1.3.1.4,0,.1,0,.3-.2.4-.2,0,.2.2.3.2.5,0,0,0,0,0,.1,0,0,.2,0,.2,0,.3-.3.7-.5,1.1-.6.2,0,.5,0,.7-.2.2-.1.9-.9,1-1,1.1-1.2,2.3-1.9,2.3-3.2-.4.5-3.3.5-3.9.4Z" style="fill:#bc604d; stroke-width:0px;"/><path d="m82.7,38.4c-.4.5-.7,1.1-.8,1.7v-.9c0,0,.1-.1.1-.2-.1.3-.3.5-.5.7,0,0-.2.2-.3.2-.2,0-.3-.3-.3-.5,0-.2,0-.4,0-.6-.8.4-1.6.9-2.4.7-.1,0-.3-.1-.3-.2,0,0,0-.2,0-.3.3-.6.7-1.2,1.2-1.7-.5-.1-1-.4-1.3-.8,0,0,0,0,0-.2,0-.2.2-.3.3-.3s.3,0,.5,0c0-.2,0-.4,0-.6,0,0,0,0,0-.1,0,0,.2,0,.2,0,.4,0,.9,0,1.3,0,.2,0,.5-.2.7-.2.2,0,1.2.2,1.4.3,1.5.4,2.9.3,3.7,1.4-.6-.1-3,1.4-3.5,1.8Z" style="fill:#c4804d; stroke-width:0px;"/><path d="m105.1,26.4c-1.6-.7-3.4-1.5-5.2-1.1-1.4.3-2.5,1.3-3.7,2.2-3.2,2.6-9.1,4.7-12.8,6.4-.2,0-.4.2-.6.4-.6.6,0,1.6.7,2.2.9.8,1.8,1.7,2.7,2.5.5.5,1-.8,1.4-1.3.3-.5,2.1-1.4,2.9-2.1,2.7-2,12-6.5,14.6-7.5.4-.1.8-.3.8-.7,0-.5-.5-.8-.9-1Z" style="fill:#6a2d13; stroke-width:0px;"/><path d="m43.5,51c-.4-.3-.6-.7-.8-1.1l.2.7s0,0,0,.1c-.1-.2-.3-.3-.5-.5,0,0-.2,0-.3,0-.1,0-.2.2-.1.4,0,.1.1.3,0,.4-.6-.2-1.3-.4-1.8-.1,0,0-.2.1-.2.2,0,0,0,.1,0,.2.3.4.7.7,1.1,1-.3.2-.6.4-.8.8,0,0,0,0,0,.1,0,.1.2.2.3.2s.2,0,.3,0c0,.1,0,.3,0,.4,0,0,0,0,0,0,0,0,.1,0,.2,0,.3-.1.6-.2.9-.1.2,0,.4,0,.5,0,.2,0,.8-.4,1-.4,1-.5,2-.7,2.4-1.6-.4.2-2.3-.5-2.7-.8Z" style="fill:#bc604d; stroke-width:0px;"/><path d="m43.8,51.6c-.3-.2-.4-.5-.5-.7v.4c.1,0,.2,0,.2,0,0-.1-.2-.2-.3-.3,0,0-.1,0-.2,0,0,0-.1.2,0,.3s0,.2,0,.3c-.4-.1-.9-.3-1.2,0,0,0-.1,0-.1.2,0,0,0,0,0,.1.2.3.5.5.7.7-.2.1-.4.3-.5.5,0,0,0,0,0,0,0,0,.1.1.2.1,0,0,.2,0,.2,0,0,0,0,.2,0,.3,0,0,0,0,0,0,0,0,0,0,.1,0,.2,0,.4-.1.6,0,.1,0,.2,0,.4,0,.1,0,.6-.2.7-.3.7-.3,1.4-.5,1.6-1.1-.3.1-1.6-.3-1.9-.5Z" style="fill:#c4804d; stroke-width:0px;"/><path d="m71.9,4.7c-.3.2-.4.6-.5,1-.4,1.8.4,3.6.9,5.4s.6,4-.8,5.2c-.5.4-1.2.8-1.1,1.4.1.8,1.4.8,2.1,1.2.8.5.9,1.6.8,2.5,0,2.2-.4,4.4-.8,6.5,0,0-.3,1.3-.4,2.9,0,.7,0,1.5.7,1.8.7.3,1.5-.2,2-.8,0,.7,0,1.5.2,2.2.3.7.8,1.3,1.6,1.4.5,0,1-.1,1.4-.4.9-.6,1.5-1.5,1.7-2.6.2-1.2-.2-2.5.4-3.6.8,1.7,1.5,3.4,2,5.2.2.6.4,1.3.8,1.8.4.5,1.2.8,1.8.5.9-.5.8-1.8.5-2.8.4,1.2,2.1,1.8,3.2,1,.9-.6,1.1-2,.5-2.9.8.7,2.3.7,2.8-.2.4-.6.2-1.5-.2-2.1-.4-.6-1-1.1-1.5-1.5-1.9-1.5-3.7-2.9-5.6-4.4-.3-.2-.6-.7-.3-1,2.4,1,4.7,2.3,6.7,3.9.6.4,1.2.9,1.9.9s1.4-.7,1.2-1.3c.5.7,1.4,1.2,2.2,1.2.3,0,.6,0,.8-.3.4-.3.3-.9,0-1.4,0,0,0-.1-.1-.2,1.3.6,3.1.4,4.3-.5,1.2-.9,1.9-2.5,1.4-3.9-.4-.9-1.2-1.5-2-2-1.2-.7-2.5-1.2-3.9-1.4.5-.2,1-.5,1.4-.9.4-.4.8-.9.9-1.5.2-.9-.3-1.8-1.1-2.4-1.8-1.4-4.4-1-6.6-.2-2.2.8-4.5,1.8-6.7,1.2,2.9-.9,5.7-2.3,8.1-4.2.6-.4,1.1-.9,1.5-1.5.3-.6.4-1.4,0-2-.4-.6-1.4-.7-1.8-.2.5-.5,1.1-1,1.4-1.6s.3-1.5-.2-2c-.4-.4-1.1-.5-1.7-.5-1.2,0-2.4.5-3.3,1.3.4-.6.3-1.5-.1-2.1-.7-.8-1.9-1-2.9-.6-1,.4-1.7,1.3-2.2,2.2s-.8,2-1.1,3-.8,2-1.6,2.8c.1-.9.3-1.7.4-2.6.2-1.4.3-3.2-.9-3.9-.3-.2-.6-.2-.9-.2-1.1.2-1,2-1.9,2.7,0-.5-.2-1-.5-1.4-.3-.4-.9-.6-1.3-.4-.4.2-.5.8-.6,1.3,0,1-.2,2-.2,3-.2-.7-.4-1.4-.9-1.9-.5-.5-1.3-.7-1.9-.3Z" style="fill:#2d7d08; stroke-width:0px;"/><g style="opacity:.4;"><path d="m78.1,32.5c0-.6.1-1.3.2-1.9,0-.8.1-1.5,0-2.3,0-1-.3-2-.6-3-.3-1.2-.6-2.4-1.2-3.5-.6-1.1-1.4-2-2.3-3-.2-.2-.6-.5-.9-.4,1.3,1.2,1.6,3.2,1.4,5-.2,1.8-.9,3.5-1.3,5.2-.2.9-.3,1.8-.4,2.8,0,.2,0,.5.2.6.2,0,.4,0,.6-.2.8-.7,1.1-1.7,1.5-2.7,0,.7,0,1.5.1,2.2h0c-.1.8,0,1.4,0,2.1.1.5.5,1.1,1,1.2.5,0,.9-.3,1.1-.7.2-.4.3-.9.3-1.4Z" style="fill:#549f1d; stroke-width:0px;"/><path d="m88,32.4c0-.5-.4-1-.6-1.5,0,0,0-.2,0-.2,0,0,.2,0,.3,0,.4,0,.8.3,1.1.5.4.1.8.2,1.2,0,.5-.3.5-.9.5-1.5-.1-.8-.5-1.6-1.1-2.2-.9-.9-2.1-1.3-3.1-2-.6-.4-1.2-.9-1.7-1.4-1.6-1.3-3.2-2.6-4.8-3.9-.7-.6-1.5-1.2-2.5-1.3.4.7.9,1.4,1.3,2.1,1.2,2,2,4.4,1.3,6.7-.2.7-.5,1.4-.5,2.2.2-.4.4-.9.9-.9.5,0,.9.6,1,1.1.3,1,.3,2.1,1,2.9v-.3c.3.9.7,1.7,1.2,2.5.1.2.3.4.5.4.2,0,.5-.2.5-.4s0-.5,0-.7c-.2-1-.3-2-.5-3,.5.2.8.6,1.1,1,.3.4.5.9.9,1.2s.9.5,1.4.3c.5-.2.7-.9.6-1.4Z" style="fill:#549f1d; stroke-width:0px;"/><path d="m81.7,15.8c-.4.3-.7.6-1.1.8-.5.3-1.1.5-1.7.6.4.7,1.1,1.2,1.8,1.5,1.9,1.3,4.1,2,6,3.3.7.5,1.3,1.1,1.9,1.6.7.6,1.4,1.2,2.1,1.9.4.4.9.8,1.4.8.6,0,1.1-.5.9-1,0-.2-.2-.3-.1-.5.1-.2.4,0,.6,0,.5.3.9.6,1.4,1,.2.1.3.2.5.3.4,0,.7-.5.7-.9,0-.4-.3-.8-.6-1.1.7.2,1.4.5,2.1.4.7,0,1.3-.4,1.9-.9.4-.3.7-.6.9-1.1.3-.7.2-1.5-.3-2.1-.6-.7-1.5-1-2.4-1.2-1.9-.5-3.8-.9-5.7-1.4-.2,0-.5-.1-.7,0,1.5-.3,2.9-1,4.2-1.6.4-.2.8-.4,1.1-.7.3-.3.6-.7.5-1.2,0-.5-.4-1-.9-1.3-1.1-.6-2.4-.5-3.6-.1-1.2.4-2.3,1-3.5,1.4-1.3.4-2.6.3-3.9.4-1.3.1-2.7.3-3.8,1.1Z" style="fill:#549f1d; stroke-width:0px;"/><path d="m78.7,10.5c-.1.8-.3,1.5-.6,2.2-.8,1.8-2.6,3-4.4,3.7h.4c1.4.1,2.8,0,4.1-.5,1-.3,1.9-.7,2.8-1.2,2.5-1.2,4.9-2.4,7.4-3.6.9-.4,1.8-.9,2.6-1.5.8-.6,1.5-1.4,1.7-2.4,0-.3.1-.7-.1-.8-.1,0-.3-.1-.5-.1-.9,0-1.7.3-2.4.9,1.2-.8,2.1-2,2.4-3.4.1-.4.1-.9-.2-1.2-.2-.2-.4-.2-.7-.2-.9,0-1.7.5-2.4,1-.6.4-1.2.9-1.7,1.4.2-.9.2-1.9,0-2.8,0-.2,0-.4-.2-.5-.2-.3-.6-.3-1-.2-.8.2-1.5.9-1.9,1.7-.4.8-.6,1.6-.9,2.4-.5,1.6-1.1,3.2-1.7,4.7-.2.6-.5,1.2-.9,1.6-.2.2-.5.3-.7.2-.1,0-.2-.3-.3-.4-.4-1.2-.2-2.5,0-3.7s.6-2.5.6-3.7c0-.2,0-.4-.2-.5-.2,0-.4.3-.4.5-.4,2.1-.7,4.1-1.1,6.2Z" style="fill:#549f1d; stroke-width:0px;"/><path d="m72.3,7c0,.7,0,1.5.2,2.2.2.9.5,1.7.6,2.6,0,.6,0,1.2,0,1.8,0,.5,0,1.1,0,1.6s-.2,1.1-.6,1.4l.6-.4c1.2-.5,2.3-1.4,3-2.5.5-.8.8-1.8,1.1-2.7.3-1.1.5-2.2.4-3.4s-.5-2.3-1.2-3.1c0,0-.2-.2-.3-.2-.4,0-.6.4-.6.7-.2,1.1-.4,2.3-.5,3.5-.2-.7-.5-1.4-1-1.9-.2-.2-.3-.4-.6-.5-.2-.1-.5-.1-.7,0-.2.2-.3.6-.2.9Z" style="fill:#549f1d; stroke-width:0px;"/></g><path d="m72.9,6.5c0,1.4,0,2.8.4,4.1.4,1.4,1.4,2.6,1.4,4-.4.5-.9.9-1.5,1.3-.3,0-1.8,1.3-2.1,1.4-.1,0-.2,0,0,.1.1,0,0,.4.1.4.7,0,2.9,0,3.5.2.9,1.4.1,2.8,0,4.3-.2,1.5,0,3-.4,4.5,0,.2.2.2.3,0,.4-2.1.3-4.1.7-6.2.1-.6.2-1.3.2-1.9.3.9.4,1.8.6,2.4.3,1.2.3,2.4,0,3.6-.5,2.1-1.4,4.1-2.5,6,0,.2.1.3.2.1,1.2-2.2,2.4-4.8,2.7-7.3.1-1.3-.2-2.4-.6-3.6-.2-.7-.4-1.4-.7-2.1,0,0,0,0,0,0,.9.8,1.9,2.1,2.3,3,.7,1.6.7,3.1.7,4.8,0,.1,0,.2,0,.4-.3.9-.7,1.7-1.3,2.4-.5.6-.9,1.1-1.3,1.7,0,.1.1.3.2.1.5-.8,1.2-1.5,1.7-2.2.3-.4.5-.9.7-1.3,0,1,.1,2-.1,3.1-.3,1.2-.8,2.4-1.2,3.6,0,.2.2.2.3,0,.4-1.5,1.1-2.9,1.3-4.5.2-1.7,0-3.5-.1-5.2,0-1.5-.5-2.8-1.3-4.1-.3-.5-1.1-1.2-1.5-1.7,2.2,1.4,4.5,3.9,5.9,6.1.1.2.3.5.4.7,0,0-.2,0-.1.2,1.6,2.4-.2,5.4,1.1,8,0,.2.3,0,.2-.1-1.1-2.3.2-4.9-.7-7.2,0,.1.2.3.2.4,0,0,0,0,0,.1,0,0,.1.2.2.3,1.3,2.3,2.6,4.5,4.3,6.6.1.1.3,0,.2-.2-1.5-1.8-2.7-3.8-3.9-5.8.6.4,1.3.6,2,.9,1.6.7,2.9,1.6,4.2,2.8.1.1.3,0,.2-.2-.8-.8-1.8-1.5-2.8-2.1-1.2-.7-3-1-4-2.1-.8-1.5-1.7-2.9-2.7-4.3-1.2-1.7-3.2-3.3-5.1-4.3-.3-.3-.9-.3-1.3-.5.8,0,2.4,0,3.3,0,0,0,0,0,0,0,1,.7,1.8,1.5,2.8,2.2,1.1.8,2.3,1.4,3.1,2.5.1.1.3,0,.2-.2-.8-1-1.8-1.6-2.8-2.3-1-.7-1.9-1.5-2.9-2.3.4,0,.8,0,1.2,0,1.1.1,2.1.3,3.2.6,0,0,0,0,0,0,1.6.7,3.1,1.5,4.7,2.4.8.7,1.2,1.8,1.9,2.6.5.7,1.1,1.3,1.7,1.8.1.1.3,0,.2-.2-.8-.7-1.5-1.5-2.1-2.4-.3-.5-.6-.9-.9-1.4.2.1.5.3.7.4,2,1.2,4.7,2.6,6,4.6,0,.1.3,0,.2-.1-1.2-1.8-3.4-3-5.2-4.1-.7-.5-1.5-.9-2.2-1.3,0,0,0,0,0,0,0,0,0,0-.1,0-1.2-.7-2.4-1.3-3.7-1.9,1,.2,2,.4,3,.5,1.4.1,2.6.4,3.9.7,1.3.8,2.3,2.1,3.5,3,1.2.9,2.4,1.5,3.9,1.7.2,0,.2-.2,0-.3,0,0,0,0,0,0,0,0-.1,0-.2,0-1.6-.3-3-1.1-4.2-2.2-.8-.6-1.4-1.4-2.2-2,.9.3,1.9.6,2.8,1,1.7.8,3.4,1.6,5.4,1.6.2,0,.2-.3,0-.3-2.4-.1-4.3-1.3-6.5-2.1-.8-.3-1.6-.6-2.5-.8,0,0,0,0,0,0,1.1,0,2.3,0,3.4,0,1.6,0,3,.5,4.5.7.2,0,.2-.2,0-.3-1.4-.2-2.7-.7-4.1-.7-1.7,0-3.4,0-5.1,0-.7-.1-1.4-.2-2.1-.3-1.8-.2-3.5-.6-5.3-.9.7,0,1.4-.4,2.1-.7,1.4-.6,2.9-.7,4.4-.8,2.6-.2,5-1.4,7.6-1.3.2,0,.2-.3,0-.3-2.6-.2-5,1.1-7.6,1.3-1.1,0-2.2.1-3.2.4-1.3.3-2.4,1.3-3.8,1.1-.1,0-.1,0-.1.2-.4,0-.9-.1-1.3-.2-.5,0-1.1,0-1.6-.1,1.5-1.3,3.5-1.8,5.4-1.9,1.3,0,2.6.2,3.8-.4.2,0,0-.3-.1-.2-1.6.7-3.7.2-5.4.5-1.5.3-2.8.8-4,1.8,0,0,0,.1,0,.2-1.7,0-4.9,0-6.1.2.2,0,1.4-1,1.7-1.1,1.4-.4,2.8-.5,4.2-1,.5-.2,1-.5,1.5-.8,0,0,0,.2.1.2,1,0,2,.1,2.9-.4.1,0,0-.3-.1-.2-.8.5-1.8.5-2.8.4,1.2-.7,2.3-1.6,3.4-2.4,0,0,0,0,0,0,1.8,0,3.2.2,4.9-.5,1.8-.8,3.2-2.2,4.5-3.7.1-.1,0-.3-.2-.2-1.2,1.3-2.5,2.7-4.1,3.5-1.7.8-3.2.7-4.9.6,0,0,0,0,.1,0,1.6-1.2,3.5-2.1,5.1-3.3,1.7-1.3,2.8-3.1,3.9-4.8,0-.1-.1-.3-.2-.1-1.2,1.9-2.5,3.9-4.5,5.2-1.4.9-2.8,1.8-4.2,2.7.3-1.5,0-3.1.4-4.6.4-2,1.7-3.5,3-4.9.1-.1,0-.3-.2-.2-1.1,1.3-2.3,2.6-2.9,4.2-.6,1.8-.2,3.8-.6,5.6,0,0,0,0,0,0-.1,0-.3.2-.4.3-1.5,1.1-3,2.3-4.6,3.2-.8.4-1.6.6-2.4.8,1.6-1.3,2.7-3,3.2-5,0,0,0,0,0,0,0,0,0-.2,0-.2.2-1.1.2-2.2.3-3.4,0-1.3.8-2.3.9-3.6,0-.2-.3-.2-.3,0,0,1-.7,1.8-.8,2.8-.2,1,0,2.1-.1,3.1,0,0,0,.2,0,.3,0-.1-.1-.3-.2-.4-.3-.8-.6-1.6-.8-2.4,0-.2-.3,0-.3,0,.2.6.3,1.2.5,1.8.2.5.6,1.1.6,1.6-.5,2.1-1.6,4-3.4,5.3,0,0,0,0,0,.1-.3,0-.6.1-.9.2.3-.3.7-.5.9-.9,0,0,0,0,0,0,.5-.6.9-1.3,1.1-2.1.3-.9.2-1.7.1-2.7-.2-1.6-.2-3.1.1-4.8,0-.2-.2-.2-.3,0-.4,1.9-.1,3.7,0,5.6,0,1.3-.3,2.5-1.1,3.5,0-.9-.6-1.7-1-2.6-.8-1.7-.8-3.4-.8-5.2,0-.2-.3-.2-.3,0Zm1.9,10.7h0,0Z" style="fill:#d9e021; isolation:isolate; opacity:.3; stroke-width:0px;"/><path d="m71.6,16.2c-.3.4-.6.7-.9,1.1,0,0-.1.1-.1.2,0,.2.2.5.4.5,0,0,.2,0,.2,0,.4.1.7.3,1.1.4,0,0,.2,0,.2,0,0,0,.2,0,.2-.2,0,0,0-.1-.1-.2-.2-.2-.4-.3-.6-.5.3,0,.6,0,1,0,.1,0,.3,0,.3-.2,0-.2-.2-.3-.3-.3-.6-.1-1.1,0-1.7,0,.2-.1.4-.2.6-.4.2-.1.4-.3.4-.6,0-.2-.2-.5-.5-.4,0,0-.1.1-.2.2Z" style="fill:#549f1d; stroke-width:0px;"/><g style="opacity:.2;"><path d="m77.3,20.6c-.2-.4-.5-.7-.9-1-.9-.7-2.2-.9-3.3-1l.2.2c.4.9.6,1.8.5,2.8,0,.6-.2,1.2.1,1.7.2.3.6.5.9.7.9.4,1.9.8,3,1,0,0,.2,0,.3,0,.2,0,.2-.3.2-.5,0-1.4-.3-2.8-1-3.9Z" style="fill:#fff; stroke-width:0px;"/></g><g style="opacity:.2;"><path d="m82.7,27.6c-.8-2.9-2.4-5.7-4.6-7.7h-.3c.9,1.1,1.2,2.6,1.5,3.9.1.5.3,1.1.6,1.5.2.4.5.8.8,1.1.5.6,1,1.1,1.4,1.7,0,0,.2.2.3.2.2,0,.3-.1.3-.3,0-.1,0-.3,0-.4Z" style="fill:#fff; stroke-width:0px;"/></g><g style="opacity:.2;"><path d="m78.8,18h-.9c1.6,0,3.1.7,4.4,1.6s2.5,2,3.8,2.9c1.4,1,2.9,1.8,4.3,2.6.3.2.7.4,1.1.4.4,0,.8-.2.9-.6,0-.2,0-.4.1-.5.2-.2.6-.2.8,0,.3.2.5.4.7.5.3.1.7,0,.7-.3,0-.2-.2-.5,0-.7,0-.1.3-.1.4-.1,1.2,0,2.6.2,3.5-.6.2-.1.3-.3.4-.5.1-.5-.2-1-.6-1.3-.7-.6-1.5-1-2.3-1.3-2.1-.8-4.3-1.1-6.3-2.1.8-.4,1.7-.7,2.5-1.1.7-.3,1.4-.7,1.4-1.5,0-.5-.5-1-1-1.1s-1.1,0-1.6.1c-5,1.1-10.1,2.1-15.2,3,.9.4,1.8.6,2.8.6Z" style="fill:#fff; stroke-width:0px;"/></g><g style="opacity:.2;"><path d="m75.9,8.5c-.1.3,0,.7,0,1,.1,1.2.2,2.4,0,3.5-.3,1.2-.9,2.3-1.9,2.9-.3.2-.7.3-.8.6,1.9-.1,3.7-.6,5.4-1.5l-2.2.8c2.2-.8,4.4-1.7,6.6-2.6,1.5-.6,3.1-1.3,4.3-2.5.5-.4.8-1,1-1.6.2-.6.1-1.3-.2-1.8-.7-1-2.2-.9-3.2-.3-1,.7-1.6,1.8-2.1,2.8-.6,1-1.2,2.1-2.3,2.7-.3.1-.6.2-.9.2-.4-.1-.7-.5-.7-1,0-.4,0-.9,0-1.3,0-.9-.1-1.8-.8-2.4-.7-.5-1.9-.4-2.2.4Z" style="fill:#fff; stroke-width:0px;"/></g><text transform="translate(21.9 130.2) rotate(14.4)" style="fill:#163768; font-family:MyriadPro-Regular, &apos;Myriad Pro&apos;; font-size:19.8px;"><tspan x="0" y="0">А</tspan></text><text transform="translate(34.7 133.3) rotate(7.7)" style="fill:#163768; font-family:MyriadPro-Regular, &apos;Myriad Pro&apos;; font-size:19.8px;"><tspan x="0" y="0">г</tspan></text><text transform="translate(43 134.5) rotate(2.1)" style="fill:#163768; font-family:MyriadPro-Regular, &apos;Myriad Pro&apos;; font-size:19.8px;"><tspan x="0" y="0">р</tspan></text><text transform="translate(55.2 134.8) rotate(-4)" style="fill:#163768; font-family:MyriadPro-Regular, &apos;Myriad Pro&apos;; font-size:19.8px;"><tspan x="0" y="0">э</tspan></text><text transform="translate(65.2 134.1) rotate(-9.7)" style="fill:#163768; font-family:MyriadPro-Regular, &apos;Myriad Pro&apos;; font-size:19.8px;"><tspan x="0" y="0">с</tspan></text><text transform="translate(75.3 132.3) rotate(-16.3)" style="fill:#163768; font-family:MyriadPro-Regular, &apos;Myriad Pro&apos;; font-size:19.8px;"><tspan x="0" y="0">т</tspan></text></g></svg>