<?xml version="1.0" encoding="UTF-8"?><svg id="_Слой_2" xmlns="http://www.w3.org/2000/svg" viewBox="0 0 153.5 114.6"><g id="_ажы́ны"><path d="m71.1,52.7c2.4-3.8,1.4-8.9-.5-13-.6-1.4-1.4-2.7-2.5-3.8-.9-.9-2.1-1.5-3.2-2.2-4.2-2.3-8.8-4.8-13.6-4.2.3.8.7,1.5,1.3,2.1-2.1-2.4-5.9-2.2-9.1-1.7,1,.9,1.4,2.3,1.1,3.6-3-1.4-6.2-2.3-9.5-2.6.7,1.1,1.4,2.3,2.1,3.4-3.1-1-6.5-1.1-9.6-.3,1,.4,1.9,1.2,2.4,2.1-2.8-.2-5.5.1-8.2,1,.8.5,1.4,1.2,1.9,2-2.4-1.2-5.2-1.6-7.9-1.2.1.4.3.8.4,1.1-1.4-.6-2.8-1.1-4.3-1.7-.4-.2-.9-.3-1.2,0-.2.2-.2.5-.4.7-.5.5-1.2-.2-1.7-.6-2.1-1.9-5.5.8-8.2-.2h-.6c3.7.5,5.8,5.3,9.5,5.5-.4.8-1.3,1.4-2.2,1.6,2.4,1,4.8,2,7.2,3-.7.4-1.4.9-2.2,1.3,1.7,1.3,3.8,2.2,6,2.3-.7.8-1.7,1.4-2.8,1.5,2.7,1.4,5.3,2.8,8,4.2-.8.7-1.8,1-2.8,1,2.5,2,5.7,3.1,8.9,3.1-.5,1.2-1.7,2.1-3,2.3,3.2,1,6.4,2,9.6,3,.3,0,.7.3.7.6,0,.3-.2.5-.4.6-.9.6-1.9,1-3,1.3,3.4,1.6,7.1,2.3,10.9,2-.6,1.4-1.8,2.4-3.2,2.8,2.1-.2,4.3.2,6.1,1.3,1.7,1,3.1,2.5,5,3.1,1.4.4,2.9.2,4.4-.1,3.5-.8,6.8-2.4,9.2-5s3.9-6.2,3.4-9.7c-.3-2.2-1.3-4.4-.6-6.5.4-1.5,1.6-2.6,2.4-3.9Z" style="fill:#9ac01a; stroke-width:0px;"/><path d="m71.1,52.7c2.4-3.8,1.4-8.9-.5-13-.6-1.4-1.4-2.7-2.5-3.8-.9-.9-2.1-1.5-3.2-2.2-4.2-2.3-8.8-4.8-13.6-4.2.3.8.7,1.5,1.3,2.1-2.1-2.4-5.9-2.2-9.1-1.7,1,.9,1.4,2.3,1.1,3.6-3-1.4-6.2-2.3-9.5-2.6.7,1.1,1.4,2.3,2.1,3.4-3.1-1-6.5-1.1-9.6-.3,1,.4,1.9,1.2,2.4,2.1-2.8-.2-5.5.1-8.2,1,.8.5,1.4,1.2,1.9,2-2.4-1.2-5.2-1.6-7.9-1.2.1.4.3.8.4,1.1-1.4-.6-2.8-1.1-4.3-1.7-.4-.2-.9-.3-1.2,0-.2.2-.2.5-.4.7-.5.5-1.2-.2-1.7-.6-2-1.7-5,.4-7.5,0l21.7,8.2c14.1,5.3,28.7,9.4,43.6,12l2,.4c0-.5,0-1.1.2-1.6.4-1.5,1.6-2.6,2.4-3.9Z" style="fill:#619312; isolation:isolate; opacity:.5; stroke-width:0px;"/><path d="m5.7,38.8c-5.5-1.4-.8.7.7,1.3,3,1.2,5,2.2,11.9,5.5,1,.5,2.1.7,3.1,1.1-.8,0-1.7,0-2.5-.2-1.2-.3-5.4-1.2-6.7-1.2-.7,0,7,2.6,8.8,2.6s1.9,0,2.8-.4c.3.1.6.2.9.3.2,0,.3.2.5.2.1,0,.2,0,.2,0,2.6.9,5.2,1.8,7.9,2.7-2.4,1-3.9,1.6-6.5,1.6-2,0-6.8.4-8.8.5-.6,0,1.7.3,2.2.2,2.6,0,5.3.6,7.8.5,2.5,0,4.8-1.4,7.1-2.2,0,0,0,0,0,0,1.5.5,3,1,4.4,1.5,1.9.6,3.8,1.3,5.8,1.8-2.8,1.8-5.9,3.1-9.2,3.5-3.1.3-5.1-.2-8,0-.5,0-6.9.5-.8.8,1.8.1,3.9,0,5.6.4,1.6.2,3.3,0,4.8-.2,3.4-.6,6.4-2,9.2-4,2.4.7,4.7,1.3,7.1,1.8-1.8,1.2-3,3.2-4.8,4.5-2.9,2.1-6.5,3.9-10.4,3.3-9-1.2-1.2.7-.6.9,3.1,1.1,6.1.3,8.9-1.3,1-.6,2-1.2,2.9-1.8,0,.5,0,1.1,0,1.7,0,2.2-2.2,3.4-3.9,3.9-7.4,2.2.1.9.5.7,1.5-.7,3.4-1,4-2.7.2-.6.2-1.1.2-1.7,0-1.2,0-2.2.8-3.2,0,0,0,0,0,0,1.5-1.4,2.5-3.1,4.5-3.8,1.1.2,2.2.4,3.4.6,1.8.3,3.6.4,5.5.5-1.9,1.6-2.2,4.4-3.4,6.8-2.4,4.6-7,5.8-11.4,5.9-5.8,0-.5.7-.2.7,3.9.5,8.2-.6,11.3-3.5,2.9-2.8,2.1-7.6,6.2-9.6.8,0,1.7.2,2.5.3,3.9.5,7.6,2.1,11.6,1.7,1.1-.1,0-2.5-.8-2.4-3.4.4-6.7-.9-10.1-1.5-.8-.1-1.7-.2-2.5-.3,0-.1-.2-.2-.3-.2-3.7-1.9-1.5-7.6-1.9-11-.2-2-.6-4.1-1.5-5.9-1.8-3.5-5.4-5.5-8.6-7.4-4.2-2.5,1.7,2.3,2.3,2.6,2.2.9,5.6,4.1,6.2,8.8.3,2.8,0,5.3-.2,8-.2,1.8.6,3.6,1.7,5-1.9-.2-3.8-.3-5.7-.5-1.2-.1-2.4-.3-3.6-.5-.6-2.5-1.3-5.1-2.1-7.7,0,0,0-.2,0-.3-.2-2.3-.3-4.1.1-6.4.3-1.9.4-4.2-1.1-5.4-9-7.9-1.1.3-.4,1.7.7,1.5-.6,3.3-.8,5-1.6-3-5.9-6.4-9.3-7.9-6.8-3,1.5,2,2.3,2.6,3.5,2.6,5.8,5.8,7.2,9.7,0,.1,0,.2,0,.4,0,.3.2.5.3.7.8,2.4,1.4,4.9,2,7.3-2.4-.5-4.8-1.1-7.2-1.8-2-7.4-4.7-15.3-16.1-18.3-.8-.2,3.3,2.2,3.8,2.6,6,3.6,9.2,8.7,10.9,15.3-2.4-.7-4.5-1.4-6.9-2.2-1.3-.4-2.6-.9-3.9-1.3-1.9-2.3-2.4-5.5-4.1-8-1.3-2-4.6-2.6-6.8-3.5-1.2-.5,1.7,1.5,2.6,1.9,4,1.5,4,5.3,5.8,8.7-3-1-6.1-2.1-9.1-3.1-1.2-1-1.9-2.6-3.1-3.6-1.5-1.2-3.5-1.5-5.3-2-.5-.1,2.3,1.9,3.3,2.2,1.2.4,2.5,1.9,3.2,2.8-.8-.3-1.7-.6-2.5-.9-7-2.4-7-3.3-13.7-5Z" style="fill:#7eb512; stroke-width:0px;"/><g style="opacity:.5;"><path d="m34.8,60.6c-1.8.4-3.5,1.5-4.5,3,.5,0,1-.2,1.5-.3h-.7c1.5-.4,3-.9,4.6-.7.7,0,1.5.3,2.2.5,1.2.3,2.4.4,3.6.4.7,0,1.5-.1,2.2-.4.6-.2,1.1-.6,1.6-.9,1.2-.9,2.5-1.7,3.7-2.6.4-.3.8-.6,1-1,.2-.4.2-1-.1-1.3-.5-.5-1.4,0-2,.4-2.5,1.7-5.5,2.6-8.5,2.7-1.5,0-3.1-.1-4.6.2Z" style="fill:#b4d627; stroke-width:0px;"/></g><g style="opacity:.5;"><path d="m23.6,54.8c.9.4,1.7.8,2.5,1.4.3.2.5.5.9.6.3.1.7.1,1.1.2,4.3,0,8.5-.4,12.7-1.3-.8-1.1-2.7-.9-3.7-1.9-.4-.4-.8-1.1-1.3-1-.2,0-.4.2-.5.3-1.8,1.3-3.9,2.1-6.1,2.3-1.8.1-3.6-.2-5.4-.5Z" style="fill:#b4d627; stroke-width:0px;"/></g><g style="opacity:.5;"><path d="m23.1,54.8c.2,0,.3,0,.5,0-.2,0-.5-.2-.8-.3l.3.2Z" style="fill:#b4d627; stroke-width:0px;"/></g><g style="opacity:.5;"><path d="m16.9,49.4c2.3.5,4.6.9,6.9,1.3,1.2.2,2.4.4,3.5-.2-.5-.3-1-.5-1.5-.8-.4-.2-.9-.5-1.4-.6-1.2-.2-2.5.5-3.7.6-1.3,0-2.6-.6-3.8-.4Z" style="fill:#b4d627; stroke-width:0px;"/></g><g style="opacity:.5;"><path d="m16.1,49.7c.2-.1.5-.2.7-.2-.3,0-.7-.1-1-.2l.3.4Z" style="fill:#b4d627; stroke-width:0px;"/></g><g style="opacity:.5;"><path d="m47.1,66c-2.2.4-4.2,1.8-6.4,1.7-.5,0-1-.1-1.5.1-.5.3-.8.9-1.2,1h.5c.2,0,.3,0,.5,0,1.2,0,2.4-.1,3.6-.4,1.9-.5,3.7-1.5,5.3-2.6-.2.1-.5.2-.8.2Z" style="fill:#b4d627; stroke-width:0px;"/></g><g style="opacity:.5;"><path d="m47.9,65.8c.1,0,.2-.1.3-.2,0,0-.2.1-.3.2Z" style="fill:#b4d627; stroke-width:0px;"/></g><g style="opacity:.5;"><path d="m38,68.9h-.3c0,0,.2,0,.3,0Z" style="fill:#b4d627; stroke-width:0px;"/></g><g style="opacity:.5;"><path d="m48.1,70.5c.8,0,1.6-.3,2.3-.8-.9.3-1.8.6-2.6.9h.3Z" style="fill:#b4d627; stroke-width:0px;"/></g><g style="opacity:.5;"><path d="m54.3,61c-.6.7-.9,1.6-1.3,2.5-.3.9-.7,1.7-.8,2.6-.1.6-.2,1.2-.4,1.8-.3.7-.7,1.3-1.3,1.8.7-.2,1.4-.5,2.1-.7,1-.3,2-.7,2.9-1.2.6-.4,1.2-.8,1.8-1.3,1.9-1.7,3.6-3.9,4.2-6.4-1.5.7-3.2-.6-4.8-.4-.9.1-1.7.7-2.3,1.4Z" style="fill:#b4d627; stroke-width:0px;"/></g><g style="opacity:.5;"><path d="m65.1,65.2c-.5,1.2-.7,2.6-1.3,3.7-.4.8-.8,1.4-1.4,2.1-1.9,2-4.7,2.9-7.4,3-2.7.1-5.4-.4-8.1-1h-.7c2.7,1.1,5.3,2.4,8.2,2.5,3.5.1,6.9-1.7,9.6-4.1.7-.6,1.3-1.3,1.8-2,.5-.9.7-1.9.9-2.9.3-1.5.6-3,.7-4.5-1.2.6-1.9,1.8-2.3,3.1Z" style="fill:#b4d627; stroke-width:0px;"/></g><g style="opacity:.5;"><path d="m29.5,45.2c0-.2,0-.5,0-.7-.1-.4-.3-.9-.5-1.2-.4-.5-1-.7-1.6-.9-1.6-.5-3.2-1-4.8-1.6.7.4,1.3,1,1.8,1.6,1.1,1.2,2.2,2.6,3.8,3.1.5.2,1.3.2,1.4-.4Z" style="fill:#619312; stroke-width:0px;"/></g><g style="opacity:.5;"><path d="m43.5,49c-1.5-2.8-3-5.6-5.3-7.7-2.3-2.2-5.4-3.6-8.5-3.1l-.4-.2c2.5,1.8,4.5,4.2,5.9,6.9.3.7.7,1.4,1.2,2,.7.8,1.7,1.2,2.7,1.6,1.3.5,2.6,1,3.9,1.5.1,0,.3.1.4,0,.3-.1.2-.6,0-1Z" style="fill:#619312; stroke-width:0px;"/></g><g style="opacity:.5;"><path d="m49.2,44c-.8-1.4-1.9-2.5-3-3.7-2.1-2.1-4.7-4.2-7.7-3.8h.5c3.9,1.9,6.6,5.9,7.8,10.1.4,1.3.6,2.7,1.3,3.8,1,1.6,3,2.7,4.9,2.5-.8-2-1.6-4-2.5-5.9-.4-1-.9-2.1-1.4-3Z" style="fill:#619312; stroke-width:0px;"/></g><g style="opacity:.5;"><path d="m47,32c0,.2-.1.4,0,.7l-.2.2c-.2.6,0,1.2.4,1.7.4.5.9.9,1.3,1.2.9.8,1.7,1.6,2.4,2.6.1-1.3-.7-2.5-1.5-3.5-.5-.8-1.1-1.6-1.3-2.5,0-.3-.2-.6-.5-.7-.2,0-.4.1-.5.3Z" style="fill:#619312; stroke-width:0px;"/></g><g style="opacity:.5;"><path d="m56.5,39.2c.5,2.7-.7,5.4-.6,8.2.1,1.6.7,3.2,1.5,4.6.3.5.6.9,1.1,1.1.5.2,1,.1,1.5.1,1.1,0,2.2.3,3.1.9-2.5-4,1-9.8-1.6-13.7-.3-.4-.6-.8-1-1.2-2.2-2.3-5-4.2-8-5.5h0c1.9,1.4,3.5,3.3,4,5.6Z" style="fill:#619312; stroke-width:0px;"/></g><g style="opacity:.5;"><path d="m64.1,36.3c1.6,1.2,2.8,2.9,3.2,4.9.3,1.4.3,2.8.3,4.2,0,3.1,0,6.1-.1,9.2,2.1-3,3.3-6.7,2.7-10.3-.5-2.6-1.8-5-3.7-6.9-1.8-1.8-4.1-3.2-6.6-3.6,1.3,1,2.9,1.7,4.2,2.6Z" style="fill:#619312; stroke-width:0px;"/></g><path d="m117.7,35.1c-.8.7-2,.9-2.9.5,1.4-2.2,2.4-4.7,3-7.2-1,.4-1.9.9-2.9,1.3,1.1-2.3,1.5-5,1.2-7.6-.4.8-1.1,1.4-1.9,1.7.4-2.2.4-4.4,0-6.5-.5.5-1.1,1-1.8,1.3,1.2-1.8,1.8-4,1.7-6.1-.3,0-.6.1-.9.2.6-1.1,1.2-2.1,1.7-3.2.2-.3.3-.7.1-1-.1-.2-.4-.2-.5-.4-.3-.4.3-.9.7-1.2,1.7-1.5-.1-4.5.9-6.4v-.5c-.7,2.9-4.7,4.1-5.2,7-.6-.4-1-1.2-1-1.9-1,1.8-2,3.6-3.1,5.4-.3-.6-.6-1.2-.8-1.8-1.2,1.2-2.1,2.8-2.4,4.5-.6-.6-.9-1.5-.9-2.3-1.4,2-2.8,3.9-4.1,5.9-.4-.7-.6-1.5-.5-2.3-1.8,1.8-3,4.2-3.4,6.7-.9-.5-1.5-1.6-1.5-2.6-1.1,2.4-2.2,4.9-3.3,7.3-.1.2-.3.5-.5.5-.2,0-.4-.2-.5-.4-.4-.8-.6-1.6-.7-2.5-1.6,2.5-2.5,5.4-2.6,8.4-1-.6-1.7-1.6-1.9-2.8,0,1.7-.6,3.4-1.7,4.7-1,1.2-2.3,2.2-2.9,3.6-.5,1.1-.5,2.3-.3,3.4.3,2.8,1.2,5.6,3,7.8,1.8,2.2,4.5,3.7,7.3,3.6,1.7,0,3.6-.6,5.2.1,1.1.5,1.9,1.5,2.9,2.3,2.8,2.2,6.9,2,10.3.9,1.2-.4,2.3-.8,3.2-1.6.8-.6,1.4-1.5,2-2.3,2.3-3.1,4.6-6.5,4.7-10.3-.7.1-1.3.4-1.8.8,2.1-1.4,2.3-4.5,2.2-7Z" style="fill:#9ac01a; stroke-width:0px;"/><path d="m97.1,54.6c2.8,2.2,6.9,2,10.3.9,1.2-.4,2.3-.8,3.2-1.6.8-.6,1.4-1.5,2-2.3,2.3-3.1,4.6-6.5,4.7-10.3-.7.1-1.3.4-1.8.8,2.1-1.4,2.3-4.5,2.2-7-.8.7-2,.9-2.9.5,1.4-2.2,2.4-4.7,3-7.2-1,.4-1.9.9-2.9,1.3,1.1-2.3,1.5-5,1.2-7.6-.4.8-1.1,1.4-1.9,1.7.4-2.2.4-4.4,0-6.5-.5.5-1.1,1-1.8,1.3,1.2-1.8,1.8-4,1.7-6.1-.3,0-.6.1-.9.2.6-1.1,1.2-2.1,1.7-3.2.2-.3.3-.7.1-1-.1-.2-.4-.2-.5-.4-.3-.4.3-.9.7-1.2,1.5-1.4.2-4,.7-6l-8.6,16.3c-5.6,10.6-10.2,21.7-13.8,33.2l-.5,1.5c.4,0,.8.1,1.2.3,1.1.5,1.9,1.5,2.9,2.3Z" style="fill:#619312; isolation:isolate; opacity:.5; stroke-width:0px;"/><path d="m114.6,4.4c1.6-4.2-.5-.7-1.1.5-1.3,2.2-2.2,3.7-5.5,8.8-.5.7-.8,1.6-1.1,2.3,0-.7.2-1.3.4-1.9.4-.9,1.5-4.1,1.6-5.1,0-.5-2.7,5.2-2.9,6.7,0,.5-.2,1.5,0,2.2-.1.2-.2.5-.3.7,0,.1-.2.2-.2.4,0,0,0,.1,0,.2-1,2-1.9,4-2.9,5.9-.5-2-.9-3.2-.6-5.3.2-1.6.3-5.4.5-7,0-.5-.4,1.3-.4,1.7-.2,2-1,4.1-1.2,6.1-.2,2,.6,3.9,1.1,5.8,0,0,0,0,0,0-.5,1.1-1.1,2.2-1.6,3.4-.7,1.4-1.4,2.9-2,4.4-1.2-2.4-1.9-4.9-1.8-7.6,0-2.5.7-4,.8-6.3,0-.4.3-5.5-.6-.7-.3,1.4-.4,3.1-.8,4.4-.3,1.2-.4,2.6-.3,3.8.1,2.7,1,5.2,2.2,7.6-.8,1.8-1.5,3.6-2.1,5.4-.8-1.5-2.2-2.7-3.1-4.3-1.4-2.5-2.4-5.5-1.6-8.6,1.9-7-.4-1-.6-.6-1.2,2.3-.9,4.8.1,7.1.4.8.7,1.7,1.2,2.5-.4,0-.9,0-1.3-.2-1.7-.3-2.5-2-2.7-3.5-1-6.1-.7,0-.6.4.4,1.3.5,2.7,1.7,3.4.4.2.9.3,1.4.3,1,0,1.7.2,2.4,1,0,0,0,0,0,0,1,1.3,2.2,2.3,2.6,3.9-.3.9-.5,1.7-.8,2.6-.4,1.4-.7,2.8-1,4.3-1.1-1.6-3.3-2.2-5-3.4-3.4-2.3-3.9-6.1-3.5-9.6.5-4.6-.5-.5-.5-.2-.8,3.1-.4,6.6,1.7,9.3,1.9,2.6,5.8,2.4,7,5.8-.1.7-.3,1.3-.5,2-.8,3-2.4,5.8-2.5,9,0,.8,1.9.3,1.9-.4,0-2.8,1.4-5.2,2.1-7.8.2-.6.3-1.3.5-1.9,0,0,.2-.1.2-.2,1.9-2.8,6.1-.5,8.9-.4,1.6,0,3.3,0,4.8-.6,2.9-1.1,4.9-3.7,6.7-6.1,2.4-3-2,1.1-2.3,1.6-1,1.6-3.8,4-7.5,4-2.2,0-4.2-.5-6.3-.9-1.4-.3-2.9.2-4.1.9.3-1.5.6-3,1-4.5.2-.9.5-1.9.8-2.8,2.1-.3,4.2-.5,6.2-.9,0,0,.2,0,.3,0,1.8,0,3.3.2,5.1.7,1.4.5,3.2.7,4.4-.3,7.1-6.4-.1-.9-1.3-.5-1.3.4-2.5-.8-3.8-1.1,2.6-.9,5.7-4,7.2-6.5,3.1-5.1-1.7,1-2.3,1.6-2.4,2.5-5.1,4-8.4,4.7-.1,0-.2,0-.3,0-.2,0-.4,0-.6.2-2,.4-4,.6-6,.8.6-1.9,1.3-3.7,2.1-5.5,6.1-.9,12.5-2.2,16-10.9.2-.6-2.1,2.4-2.4,2.7-3.4,4.4-7.8,6.4-13.1,7.1.8-1.8,1.5-3.4,2.4-5.2.5-1,.9-1.9,1.4-2.9,2-1.3,4.6-1.4,6.7-2.5,1.7-.9,2.5-3.4,3.4-5,.5-.9-1.4,1.2-1.7,1.9-1.6,3-4.6,2.7-7.4,3.7,1.1-2.3,2.2-4.6,3.4-6.9.9-.8,2.2-1.2,3.1-2.1,1.1-1,1.5-2.6,2.1-4,.1-.3-1.7,1.7-2,2.4-.4.9-1.7,1.8-2.5,2.3.3-.6.6-1.2.9-1.9,2.6-5.3,3.3-5.2,5.3-10.3Z" style="fill:#7eb512; stroke-width:0px;"/><g style="opacity:.5;"><path d="m94.5,25.2c-.1-1.5-.8-2.9-2-3.8,0,.4,0,.8,0,1.2v-.6c.2,1.2.5,2.5.2,3.7-.1.6-.4,1.1-.6,1.7-.3.9-.6,1.9-.7,2.8,0,.6,0,1.2,0,1.8.1.5.3.9.6,1.3.6,1.1,1.1,2.1,1.7,3.2.2.3.4.7.7.9.3.2.8.3,1.1,0,.4-.4.2-1.1,0-1.6-1.1-2.1-1.5-4.6-1.3-6.9.1-1.2.4-2.4.3-3.6Z" style="fill:#b4d627; stroke-width:0px;"/></g><g style="opacity:.5;"><path d="m100.2,16.9c-.4.7-.8,1.3-1.4,1.8-.2.2-.4.4-.6.6-.1.2-.2.5-.2.8-.5,3.4-.5,6.8-.2,10.1,1-.6,1-2.1,1.9-2.7.4-.3.9-.5.9-.9,0-.2,0-.3-.2-.5-.9-1.5-1.3-3.3-1.2-5,0-1.4.5-2.8.9-4.2Z" style="fill:#b4d627; stroke-width:0px;"/></g><g style="opacity:.5;"><path d="m100.3,16.6c0,.1,0,.2-.1.4.1-.2.2-.4.3-.6l-.2.2Z" style="fill:#b4d627; stroke-width:0px;"/></g><g style="opacity:.5;"><path d="m105.1,12.1c-.6,1.8-1.2,3.5-1.7,5.3-.3.9-.5,1.9-.2,2.8.3-.4.5-.7.8-1.1.2-.3.5-.7.6-1.1.3-1-.2-2-.1-3,0-1,.7-2,.7-2.9Z" style="fill:#b4d627; stroke-width:0px;"/></g><g style="opacity:.5;"><path d="m105,11.5c0,.2,0,.4.1.6,0-.3.2-.5.3-.8l-.4.2Z" style="fill:#b4d627; stroke-width:0px;"/></g><g style="opacity:.5;"><path d="m89,34.4c-.1-1.8-1-3.5-.7-5.2,0-.4.2-.8,0-1.2-.2-.4-.6-.7-.7-1.1v.4c0,.1,0,.3,0,.4,0,1-.1,1.9,0,2.9.2,1.6.8,3.1,1.5,4.5,0-.2,0-.4,0-.6Z" style="fill:#b4d627; stroke-width:0px;"/></g><g style="opacity:.5;"><path d="m89.1,35c0,0,0,.2.1.2,0,0,0-.2-.1-.2Z" style="fill:#b4d627; stroke-width:0px;"/></g><g style="opacity:.5;"><path d="m87.6,26.9v-.2c0,0,0,.1,0,.2Z" style="fill:#b4d627; stroke-width:0px;"/></g><g style="opacity:.5;"><path d="m85.4,34.7c0,.7,0,1.3.4,1.9-.1-.7-.3-1.4-.4-2.2v.3Z" style="fill:#b4d627; stroke-width:0px;"/></g><g style="opacity:.5;"><path d="m92.3,40.5c-.5-.5-1.2-.9-1.8-1.2-.6-.4-1.3-.7-2-.9-.5-.2-.9-.3-1.4-.5-.5-.3-1-.7-1.3-1.2.1.6.2,1.1.3,1.7.2.8.3,1.7.7,2.4.2.5.5,1,.9,1.5,1.2,1.7,2.7,3.2,4.7,3.9-.4-1.2.8-2.5.8-3.8,0-.7-.4-1.4-.9-2Z" style="fill:#b4d627; stroke-width:0px;"/></g><g style="opacity:.5;"><path d="m87.9,48.6c-.9-.5-1.9-.8-2.8-1.4-.6-.4-1.1-.8-1.5-1.3-1.4-1.7-1.8-4-1.6-6.1s.9-4.2,1.6-6.3v-.6c-1,2-2.4,4-2.7,6.2-.4,2.8.7,5.6,2.3,7.9.4.6.9,1.2,1.4,1.6.6.5,1.4.8,2.2,1,1.1.4,2.3.7,3.4,1-.4-1-1.3-1.7-2.2-2.2Z" style="fill:#b4d627; stroke-width:0px;"/></g><g style="opacity:.5;"><path d="m107.2,22.5c.2,0,.4,0,.6,0,.4,0,.7-.1,1-.3.4-.3.7-.7.9-1.2.6-1.2,1.1-2.4,1.7-3.6-.4.5-.9.9-1.5,1.3-1.1.8-2.3,1.5-2.8,2.7-.2.4-.2,1,.2,1.2Z" style="fill:#619312; stroke-width:0px;"/></g><g style="opacity:.5;"><path d="m102.8,33.2c2.3-.9,4.7-1.8,6.6-3.4,1.9-1.6,3.4-3.9,3.3-6.4l.2-.3c-1.6,1.8-3.7,3.1-6,3.9-.6.2-1.2.4-1.7.7-.7.5-1.1,1.2-1.5,2-.5,1-1.1,2-1.6,2.9,0,.1-.1.2,0,.3,0,.3.5.3.8.1Z" style="fill:#619312; stroke-width:0px;"/></g><g style="opacity:.5;"><path d="m106.2,38.2c1.2-.5,2.2-1.3,3.2-2,1.9-1.4,3.8-3.3,3.8-5.7v.4c-2,2.9-5.3,4.7-8.8,5.2-1.1.2-2.2.2-3.1.7-1.4.6-2.4,2.1-2.5,3.6,1.6-.4,3.3-.9,4.9-1.4.9-.2,1.7-.5,2.5-.8Z" style="fill:#619312; stroke-width:0px;"/></g><g style="opacity:.5;"><path d="m115.9,37.6c-.2,0-.3-.1-.5-.1v-.2c-.6-.2-1.1,0-1.5.2-.4.2-.8.6-1.1.9-.7.6-1.5,1.2-2.3,1.6,1,.2,2-.4,2.9-.8.7-.4,1.4-.7,2.1-.8.2,0,.5,0,.6-.3,0-.2,0-.4-.2-.5Z" style="fill:#619312; stroke-width:0px;"/></g><g style="opacity:.5;"><path d="m109.3,44.4c-2.2.1-4.2-1.1-6.4-1.2-1.3,0-2.6.2-3.8.7-.4.2-.8.4-1,.7-.2.3-.2.8-.2,1.2,0,.9-.4,1.7-1,2.4,3.4-1.6,7.6,1.7,11,0,.4-.2.7-.4,1.1-.7,2.1-1.5,3.8-3.5,5.1-5.8h0c-1.2,1.3-2.9,2.4-4.7,2.6Z" style="fill:#619312; stroke-width:0px;"/></g><g style="opacity:.5;"><path d="m110.8,50.7c-1.1,1.1-2.6,1.9-4.2,2.1-1.1.1-2.2,0-3.4-.2-2.4-.3-4.8-.7-7.2-1,2.2,1.9,5,3.2,7.9,3.1,2.1-.1,4.1-1,5.8-2.2,1.6-1.2,3-2.9,3.5-4.8-.9.9-1.6,2.1-2.5,3.1Z" style="fill:#619312; stroke-width:0px;"/></g><path d="m145.5,69.6l-8.8-1.9c-3.5-.7-7.1-.3-10.3,1.1h0c-2.3,1-4.8,1.8-7.3,2.3l-12.7,2.6-6.2.7-.2-1.7,11.8-1.9c2.8-.5,5.5-1.1,8.2-1.9l3.3-1c1.7-.6,3.3-1.5,4.7-2.7h0l-13.9-2.1c-5.8-.9-11.7-1.1-17.5-.7l-32.1,2.4.8-5.5,31-1.6c6.6-.3,13.2.1,19.7,1.4l20.5,3.9-9.7-7.6c-4.4-3.5-9.4-6.3-14.6-8.4h0c-4.2-1.6-8.6-2.5-13.1-2.5l-23.7-.4,4.2-5.3,4.4,1.4c3.8.3,22.4-.1,27.5,2.8h0c7.1,3.1,13.8,7,19.9,11.8l5.3,4.2c3.9,3.1,8.6,4.9,13.6,5.3l3,.2h0c-.7,2.1-2.4,3.7-4.6,4.1l-3.4.7Z" style="fill:#52770b; stroke-width:0px;"/><path d="m139.7,78.1c.3-.5.8-.9,1.4-.9-1.5-.6-2.9-1.2-4.4-1.9.4-.3.9-.5,1.3-.8-1-.8-2.3-1.3-3.6-1.5.4-.5,1-.8,1.7-.9-1.6-.9-3.2-1.8-4.8-2.6.5-.4,1.1-.6,1.7-.6-1.5-1.2-3.4-1.9-5.3-2,.3-.7,1.1-1.3,1.9-1.3-1.9-.6-3.9-1.3-5.8-1.9-.2,0-.4-.2-.4-.4,0-.2.1-.3.3-.4.5-.4,1.2-.6,1.8-.7-2-1-4.3-1.5-6.6-1.3.3-.8,1.1-1.4,2-1.6-1.3.1-2.6-.2-3.7-.9-1-.6-1.9-1.5-3-1.9-.9-.3-1.8-.2-2.6,0-2.1.4-4.1,1.4-5.6,2.9-1.5,1.5-2.4,3.7-2.1,5.8.2,1.3.7,2.7.3,3.9-.3.9-1,1.6-1.5,2.4-1.5,2.3-.9,5.4.2,7.9.4.8.8,1.7,1.5,2.3.6.5,1.2.9,1.9,1.3,2.5,1.5,5.3,3,8.2,2.7-.2-.5-.4-.9-.8-1.3,1.3,1.5,3.6,1.4,5.5,1.1-.6-.5-.8-1.4-.6-2.2,1.8.9,3.7,1.5,5.7,1.7-.4-.7-.8-1.4-1.2-2.1,1.9.7,3.9.7,5.8.3-.6-.3-1.1-.7-1.5-1.3,1.7.1,3.4,0,5-.5-.5-.3-.8-.7-1.1-1.2,1.4.8,3.1,1,4.8.8,0-.2-.2-.5-.2-.7.9.4,1.7.7,2.6,1.1.2.1.6.2.8,0,.1-.1.1-.3.3-.4.3-.3.7.1,1,.4,1.3,1.1,3.4-.4,5,.2h.4c-2.2-.3-3.5-3.3-5.7-3.4Z" style="fill:#9ac01a; stroke-width:0px;"/><path d="m102.5,71.7c-1.5,2.3-.9,5.4.2,7.9.4.8.8,1.7,1.5,2.3.6.5,1.2.9,1.9,1.3,2.5,1.5,5.3,3,8.2,2.7-.2-.5-.4-.9-.8-1.3,1.3,1.5,3.6,1.4,5.5,1.1-.6-.5-.8-1.4-.6-2.2,1.8.9,3.7,1.5,5.7,1.7-.4-.7-.8-1.4-1.2-2.1,1.9.7,3.9.7,5.8.3-.6-.3-1.1-.7-1.5-1.3,1.7.1,3.4,0,5-.5-.5-.3-.8-.7-1.1-1.2,1.4.8,3.1,1,4.8.8,0-.2-.2-.5-.2-.7.9.4,1.7.7,2.6,1.1.2.1.6.2.8,0,.1-.1.1-.3.3-.4.3-.3.7.1,1,.4,1.2,1.1,3-.2,4.6,0l-13-5.2c-8.5-3.4-17.3-5.9-26.3-7.7l-1.2-.2c0,.3,0,.6-.1.9-.3.9-1,1.6-1.5,2.4Z" style="fill:#619312; isolation:isolate; opacity:.5; stroke-width:0px;"/><path d="m142,80.7c3.3.9.5-.4-.4-.8-1.8-.8-3-1.4-7.1-3.4-.6-.3-1.2-.4-1.9-.7.5,0,1,0,1.5.1.7.2,3.2.8,4,.8.4,0-4.2-1.6-5.3-1.7-.4,0-1.2,0-1.7.2-.2,0-.4-.1-.5-.2,0,0-.2-.1-.3-.2,0,0-.1,0-.1,0-1.6-.6-3.2-1.1-4.7-1.7,1.4-.6,2.4-.9,3.9-.9,1.2,0,4.1-.2,5.3-.2.4,0-1-.2-1.3-.2-1.5,0-3.2-.4-4.7-.4-1.5,0-2.9.8-4.3,1.3,0,0,0,0,0,0-.9-.3-1.8-.6-2.7-1-1.1-.4-2.3-.8-3.5-1.2,1.7-1.1,3.6-1.8,5.6-2,1.9-.2,3.1.2,4.8,0,.3,0,4.2-.2.5-.5-1.1,0-2.4,0-3.4-.3-1-.2-2,0-2.9,0-2,.3-3.9,1.2-5.6,2.3-1.4-.4-2.8-.8-4.3-1.2,1.1-.7,1.9-1.9,3-2.7,1.8-1.3,4-2.3,6.4-1.9,5.4.8.7-.4.4-.5-1.9-.7-3.7-.3-5.4.7-.6.3-1.2.7-1.8,1.1,0-.3,0-.7,0-1,0-1.3,1.3-2,2.4-2.3,4.5-1.3,0-.5-.3-.4-.9.4-2,.6-2.4,1.6-.1.3-.2.7-.1,1.1,0,.8,0,1.3-.5,1.9,0,0,0,0,0,0-.9.8-1.6,1.8-2.8,2.3-.7-.1-1.4-.3-2-.4-1.1-.2-2.2-.3-3.3-.4,1.2-1,1.4-2.6,2.1-4.1,1.5-2.8,4.3-3.5,6.9-3.5,3.5,0,.3-.4.1-.4-2.4-.4-5,.3-6.9,2-1.8,1.7-1.4,4.6-3.9,5.8-.5,0-1-.1-1.5-.2-2.3-.3-4.6-1.4-7-1.1-.6,0,0,1.5.5,1.4,2.1-.2,4.1.6,6.1,1,.5,0,1,.2,1.5.2,0,0,.1.1.2.1,2.2,1.2.9,4.6,1.1,6.7.1,1.2.3,2.5.9,3.6,1.1,2.1,3.2,3.4,5.1,4.6,2.5,1.6-1-1.4-1.4-1.6-1.3-.6-3.4-2.5-3.7-5.4-.2-1.7,0-3.2.2-4.8.1-1.1-.4-2.2-1-3.1,1.2.1,2.3.2,3.5.4.7.1,1.5.2,2.2.4.4,1.5.7,3.1,1.2,4.7,0,0,0,.1,0,.2.1,1.4.1,2.5-.1,3.9-.2,1.1-.3,2.5.6,3.3,5.4,4.9.7-.2.3-1-.4-.9.4-2,.5-3,.9,1.9,3.5,4,5.5,4.9,4.1,1.9-.9-1.2-1.4-1.6-2.1-1.6-3.5-3.5-4.3-6,0,0,0-.2,0-.2,0-.2,0-.3-.2-.5-.4-1.5-.8-3-1.1-4.5,1.5.3,2.9.7,4.3,1.1,1.2,4.5,2.7,9.3,9.6,11.2.5.1-2-1.4-2.3-1.6-3.6-2.2-5.5-5.4-6.4-9.4,1.5.5,2.7.9,4.2,1.4.8.3,1.6.6,2.3.8,1.1,1.4,1.4,3.3,2.4,4.9.8,1.2,2.8,1.6,4.1,2.2.7.3-1-.9-1.6-1.2-2.4-.9-2.4-3.2-3.4-5.3,1.8.7,3.7,1.3,5.5,2,.7.6,1.1,1.6,1.8,2.2.9.7,2.1.9,3.2,1.3.3,0-1.4-1.1-2-1.3-.7-.2-1.5-1.2-1.9-1.7.5.2,1,.4,1.5.5,4.2,1.5,4.2,2.1,8.2,3.2Z" style="fill:#7eb512; stroke-width:0px;"/><g style="opacity:.5;"><path d="m124.6,67.2c1.1-.2,2.1-.9,2.7-1.8-.3,0-.6.1-.9.2h.5c-.9.2-1.8.5-2.8.4-.4,0-.9-.2-1.3-.3-.7-.2-1.5-.3-2.2-.3-.4,0-.9,0-1.3.2-.3.1-.6.3-.9.5-.8.5-1.5,1-2.3,1.5-.2.2-.5.3-.6.6-.1.2-.2.6,0,.8.3.3.8,0,1.2-.2,1.5-1,3.3-1.5,5.2-1.5.9,0,1.9.1,2.8,0Z" style="fill:#b4d627; stroke-width:0px;"/></g><g style="opacity:.5;"><path d="m131.3,70.8c-.5-.2-1-.5-1.5-.9-.2-.1-.3-.3-.5-.4-.2,0-.4,0-.6-.1-2.6,0-5.2.2-7.7.7.5.7,1.6.6,2.2,1.2.2.3.4.7.8.6.1,0,.2,0,.3-.2,1.1-.8,2.4-1.2,3.7-1.3,1.1,0,2.2.1,3.3.4Z" style="fill:#b4d627; stroke-width:0px;"/></g><g style="opacity:.5;"><path d="m131.6,70.9c0,0-.2,0-.3,0,.1,0,.3.1.5.2h-.2Z" style="fill:#b4d627; stroke-width:0px;"/></g><g style="opacity:.5;"><path d="m135.3,74.2c-1.4-.3-2.8-.6-4.2-.9-.7-.1-1.5-.3-2.1,0,.3.2.6.3.9.5.3.2.5.3.9.4.8.1,1.5-.3,2.3-.3.8,0,1.6.4,2.3.3Z" style="fill:#b4d627; stroke-width:0px;"/></g><g style="opacity:.5;"><path d="m135.8,74.1c-.1,0-.3.1-.4.1.2,0,.4,0,.6.1l-.2-.3Z" style="fill:#b4d627; stroke-width:0px;"/></g><g style="opacity:.5;"><path d="m117.2,63.8c1.3-.2,2.6-1,3.9-1,.3,0,.6,0,.9,0,.3-.2.5-.5.8-.6h-.3c0,0-.2,0-.3,0-.7,0-1.5,0-2.2.2-1.2.3-2.3.9-3.3,1.5.1,0,.3,0,.5-.1Z" style="fill:#b4d627; stroke-width:0px;"/></g><g style="opacity:.5;"><path d="m116.7,63.9c0,0-.1,0-.2.1,0,0,.1,0,.2-.1Z" style="fill:#b4d627; stroke-width:0px;"/></g><g style="opacity:.5;"><path d="m122.7,62.2h.2c0,0-.1,0-.2,0Z" style="fill:#b4d627; stroke-width:0px;"/></g><g style="opacity:.5;"><path d="m116.6,61.1c-.5,0-1,.2-1.4.5.5-.2,1.1-.3,1.6-.5h-.2Z" style="fill:#b4d627; stroke-width:0px;"/></g><g style="opacity:.5;"><path d="m112.8,66.8c.4-.4.6-1,.8-1.5.2-.5.4-1,.5-1.6,0-.4.1-.7.3-1.1.2-.4.5-.8.8-1.1-.4.1-.8.3-1.3.4-.6.2-1.2.4-1.8.7-.4.2-.7.5-1.1.8-1.2,1-2.2,2.3-2.6,3.9.9-.4,1.9.4,2.9.3.6,0,1.1-.4,1.4-.8Z" style="fill:#b4d627; stroke-width:0px;"/></g><g style="opacity:.5;"><path d="m106.3,64.2c.3-.7.5-1.5.8-2.3.2-.5.5-.9.9-1.2,1.2-1.2,2.8-1.7,4.5-1.7,1.6,0,3.3.3,4.9.7h.4c-1.6-.7-3.2-1.5-4.9-1.6-2.1-.1-4.2,1-5.8,2.4-.4.4-.8.7-1.1,1.2-.3.5-.5,1.1-.6,1.7-.2.9-.4,1.8-.5,2.7.7-.4,1.2-1.1,1.4-1.8Z" style="fill:#b4d627; stroke-width:0px;"/></g><g style="opacity:.5;"><path d="m127.6,76.6c0,.1,0,.3,0,.4,0,.3.1.5.3.8.2.3.6.4,1,.6,1,.3,1.9.7,2.9,1-.4-.3-.8-.6-1.1-1-.7-.8-1.3-1.6-2.3-1.9-.3-.1-.8-.1-.9.2Z" style="fill:#619312; stroke-width:0px;"/></g><g style="opacity:.5;"><path d="m119.2,74.2c.9,1.7,1.8,3.4,3.1,4.7,1.3,1.3,3.2,2.3,5.1,2h.2c-1.5-1-2.7-2.4-3.5-4.1-.2-.4-.4-.9-.7-1.2-.4-.5-1-.7-1.6-1-.8-.3-1.6-.6-2.4-1,0,0-.2,0-.3,0-.2,0-.2.4,0,.6Z" style="fill:#619312; stroke-width:0px;"/></g><g style="opacity:.5;"><path d="m115.7,77.2c.5.8,1.1,1.6,1.8,2.2,1.2,1.3,2.8,2.6,4.6,2.4h-.3c-2.4-1.2-4-3.6-4.6-6.2-.2-.8-.3-1.6-.8-2.3-.6-1-1.8-1.6-3-1.6.5,1.2,1,2.4,1.4,3.6.2.6.5,1.3.8,1.9Z" style="fill:#619312; stroke-width:0px;"/></g><g style="opacity:.5;"><path d="m116.9,84.5c0-.1,0-.3,0-.4h.1c.1-.4,0-.8-.2-1.1-.2-.3-.5-.5-.8-.8-.5-.5-1-1-1.4-1.6,0,.8.4,1.5.9,2.1.3.5.6,1,.8,1.5,0,.2.1.4.3.4.1,0,.3,0,.3-.2Z" style="fill:#619312; stroke-width:0px;"/></g><g style="opacity:.5;"><path d="m111.3,80c-.3-1.6.5-3.3.4-4.9,0-1-.4-1.9-.9-2.8-.2-.3-.3-.6-.6-.7-.3-.1-.6,0-.9,0-.7,0-1.3-.2-1.9-.6,1.5,2.4-.7,5.9.8,8.3.2.3.4.5.6.7,1.3,1.4,3,2.6,4.8,3.4h0c-1.1-.9-2.1-2-2.4-3.4Z" style="fill:#619312; stroke-width:0px;"/></g><g style="opacity:.5;"><path d="m106.6,81.7c-1-.7-1.6-1.8-1.9-3-.2-.8-.2-1.7-.1-2.6,0-1.8.1-3.7.2-5.5-1.3,1.8-2.1,4.1-1.7,6.2.3,1.6,1.1,3,2.2,4.2,1.1,1.1,2.4,2,3.9,2.3-.8-.6-1.7-1-2.5-1.6Z" style="fill:#619312; stroke-width:0px;"/></g><path d="m150.6,64.5c-5-.4-9.7-2.2-13.6-5.3l-5.3-4.2c-6.1-4.8-12.8-8.8-19.9-11.8h0c-5.1-3-23.7-2.6-27.5-2.8l-1.5-.4c-.7.6-1.1,2.1,0,2l-1.2,1.1c7.6-.6,13.2-1.2,23.9.4,7.3,1.1,11.4,4,19.5,8.7,2.6,1.5,4.9,3.4,7.2,5.3,2.2,1.8,4.1,3.9,6.5,5.3,3.9,2.3,8.7,4,13.3,4.4.6-.7,1.1-1.4,1.4-2.3l-3-.2Z" style="fill:#619312; stroke-width:0px;"/><path d="m89.2,47.8c-1.2-1.8-3-2.8-4.9-3.8.8,0,1.7,0,2.5-.2,3.4-.5,6.8-.9,10.2-1.4-1.5-.5-3.1.2-4.6,0-1.3-.2-2.4-1.2-3.6-2-1.1-.8-2.6-1.4-3.8-.9,2.9-1.3,5.6-3.2,7.8-5.5,1.2-1.2,2.3-2.8,1.8-4.4.2,1.4-.7,2.8-1.9,3.5-1.2.8-2.6,1-4.1,1.2-1.4.2-2.8.3-4.2.8v.2c-1.7.5-3.4,1.1-4.5,2.5-.8,1.1-1.2,2.5-2.1,3.5-.6.7-1.4,1.2-1.7,2-.1.4-.1.8-.1,1.2,0,.8,0,1.6,0,2.4,0,.8,0,1.5.2,2.3.3,1.1.9,2.1,1.6,3,1.1,1.5,2.1,3,3.6,4.2-1.6-3.3-1.8-7.1-2-10.8,3.4,4,8.2,6.6,13.4,7.4-2-.9-2.5-3.4-3.7-5.2Z" style="fill:#a66740; stroke-width:0px;"/><path d="m103.9,73.2c.3,0,.7,0,1,0,0,0-.1,0-.2-.1-.3,0-.6,0-.8,0Z" style="fill:#a66740; stroke-width:0px;"/><path d="m124.7,81.2c-.6,0-1.2,0-1.8,0,.6.1,1.2.1,1.8,0Z" style="fill:#a66740; stroke-width:0px;"/><path d="m107.1,78.2c.7.3,1.4.5,2.1.7,4.3,1,8.8,1.6,13.2,1.7-1.8-.3-3.6-1.5-5.5-1.7-.6,0-1.3,0-1.8-.4-.6-.4-.8-1.1-1.1-1.8-.8-1.4-2.3-2.2-3.9-2.8-1.2-.4-2.5-.8-3.7-1.1,2-.3,3.9-.8,5.4-2,.9-.7,1.6-1.5,2.4-2.2,1.1-.8,2.3-1.4,3.5-2,2.5-1.2,5.1-2.4,7.6-3.6-1.8.3-3.7.3-5.5,0-.7-.1-1.4-.3-2-.2-.7.1-1.3.5-2,.8-.7.3-1.5.4-2,0,.4-.5.8-.9,1.2-1.4-1.2,1.1-2.6,1.8-4.2,2.1-.7.1-1.4.2-2.1.4-1.1.4-2,1.5-3.1,1.8,2.6-1.6,5.5-3.5,6.2-6.5.3-1.3.1-2.6,0-3.9-.3-2.3-.8-4.5-1.3-6.7-.1,2.6-.2,5.3-1.1,7.9-.8,2.5-2.5,4.9-4.9,6-.8.4-1.7.6-2.4,1s-1.4,1.2-1.4,2.1l-.2-.9c-.7.6-1,1.7-.9,2.6,0,1,.4,1.9.8,2.8,1.2,3.3,2.2,6.7,2.8,10.1.2,1,.3,2,1,2.7.6.6,1.6.9,2.4,1.1.7.2,1.5.3,2.2.5-1.3,1.4-2.2,3.2-2.8,5,1.7-1.5,3.4-3,5.1-4.6.5-.5,1.1-1.1.9-1.8-.2-.7-1.1-.9-1.8-1.2-.8-.4-1.4-1.2-1.9-1.9-.9-1.2-1.7-2.4-2.5-3.6.4.4.8.7,1.3.9Z" style="fill:#a66740; stroke-width:0px;"/><path d="m114.2,60.7c-.4.4-.8.9-1.2,1.3.4-.4.8-.9,1.2-1.3Z" style="fill:#a66740; stroke-width:0px;"/><g style="opacity:.5;"><path d="m87.9,35c-.9.3-1.9.4-2.8.7-2.4.6-4.4,2.1-6.4,3.5-1.1.8-2.4,2-2.2,3.3-.6,4,0,8.2,1.6,11.9-.5-3-.7-6-.6-9,0-.5,0-1,.5-1.2.2-.1.4-.1.7-.1,3.8.2,6,4.5,9.6,5.6-3.5-2.1-5-7-8.9-8.3,2.8,0,5.7,0,8.5.4-2-1.2-4.2-2.1-6.5-2.8,0-.4.4-.7.8-.9,2.2-1,4.4-1.9,6.6-2.9,1.3-.6,2.8-1.4,2.9-2.8-1.1,1.1-2.3,2.2-3.8,2.7Z" style="fill:#cda324; stroke-width:0px;"/></g><path d="m73.9,47.3c.5-.2,1-.5,1.3-1,.9-1.3.5-5,1.1-4.6,1.2.8,2.9.5,3.8-.9.9-1.3.7-3.1-.4-3.9s1,.7,2.1,1.5c1.1.8,2.9.4,3.9-1,1-1.4.9-3.2-.3-4-.7-.5-1.6-.5-2.5-.1.8-1.5.3-3.4-1.1-4.4-.4-.3-.8-.5-1.2-.6,0,0,.1-.2.2-.2,1.1-1.5.6-3.8-1.1-5-.1,0-.2-.1-.3-.2.1-1-.3-2-1.1-2.6-.7-.5-1.6-.6-2.4-.4-.2-.6-.5-1.2-1.1-1.6-.8-.6-1.8-.7-2.7-.3-.2-.6-.5-1.2-1.1-1.6-1-.7-2.3-.7-3.3,0-.2-.4-.5-.7-.9-.9-1.2-.8-2.7-.8-3.6,0-.2-.6-.5-1.1-1-1.4-1.1-.8-2.7-.7-3.7.3-.1-.1-.2-.2-.3-.3-1.3-.9-3.2-.6-4.1.7-.4.6-.6,1.2-.5,1.9-1.7-.8-3.7-.4-4.8,1.1-.8,1.1-.8,2.6-.2,3.9-.8,0-1.6.5-2.1,1.3-.5.7-.7,1.6-.5,2.3,0,.1-.2.2-.3.3-.5.7-.6,1.4-.6,2.2-.2.1-.4.3-.6.5-.8,1.1-.4,2.7.9,3.6.3.2.6.4,1,.5,0,0,0,.1,0,.2-.5,0-.9.3-1.1.6-.7,1,.2,3,2.1,4.4-.5,1.1,0,2.5,1.1,3.3.6.4,1.2.6,1.8.6,0,1.1.6,2.2,1.7,3,1.6,1.2,3.7,1.1,4.7-.2.2-.2.3-.5.3-.7.1,0,.3.1.4.1-.4.2-.7.5-1,.9-1.1,1.5-.6,3.6,1.1,4.8s3.8.9,4.9-.6c0,0,.1-.2.2-.3,0,0,.1,0,.2,0-.4,1.2.2,2.7,1.5,3.6,1.5,1.1,3.5,1,4.4-.2.3-.5.5-1,.4-1.6.3.4.6.8,1.1,1.2,1.6,1.2,3.6,1.1,4.5-.2.8-1.1.4-2.8-.8-3.9Z" style="fill:#000b13; stroke-width:0px;"/><path d="m85.6,37.4c-1,1.4-2.7,1.9-3.9,1-1.1-.8-1.3-2.6-.3-4,1-1.4,2.7-1.9,3.9-1,1.1.8,1.3,2.6.3,4Z" style="fill:#131f30; stroke-width:0px;"/><path d="m80.8,28c-1.1,1.5-3.4,1.8-5.1.6s-2.2-3.5-1.1-5c1.1-1.5,3.4-1.8,5.1-.6,1.7,1.2,2.2,3.5,1.1,5Z" style="fill:#131f30; stroke-width:0px;"/><path d="m83.2,33.5c-1.1,1.5-3.2,1.8-4.8.7-1.6-1.1-2-3.3-.9-4.8,1.1-1.5,3.2-1.8,4.8-.7,1.6,1.1,2,3.3.9,4.8Z" style="fill:#192538; stroke-width:0px;"/><path d="m74.7,51.2c-.9,1.3-2.9,1.3-4.5.2-1.6-1.2-2.2-3.1-1.3-4.4.9-1.3,2.9-1.3,4.5-.2,1.6,1.2,2.2,3.1,1.3,4.4Z" style="fill:#192538; stroke-width:0px;"/><path d="m56.6,44.1c-.9,1.3-3,1.4-4.7.2-1.6-1.2-2.2-3.2-1.3-4.5s3-1.4,4.7-.2c1.6,1.2,2.2,3.2,1.3,4.5Z" style="fill:#131f30; stroke-width:0px;"/><path d="m68.6,51.8c-.9,1.2-2.9,1.4-4.4.2-1.5-1.1-2.1-3-1.2-4.2.9-1.2,2.9-1.4,4.4-.2,1.5,1.1,2.1,3,1.2,4.2Z" style="fill:#131f30; stroke-width:0px;"/><path d="m52.4,38.2c-.8,1.1-3,.8-5-.6-2-1.4-3-3.4-2.2-4.5.8-1.1,3-.8,5,.6,2,1.4,3,3.4,2.2,4.5Z" style="fill:#131f30; stroke-width:0px;"/><path d="m62.4,48.7c-1.1,1.5-3.2,1.7-4.9.6-1.6-1.2-2.1-3.3-1.1-4.8,1.1-1.5,3.2-1.7,4.9-.6,1.6,1.2,2.1,3.3,1.1,4.8Z" style="fill:#192538; stroke-width:0px;"/><path d="m75.3,22.5c-1,1.4-2.8,1.7-4.2.8-1.3-.9-1.6-2.8-.6-4.2,1-1.4,2.8-1.7,4.2-.8,1.3.9,1.6,2.8.6,4.2Z" style="fill:#131f30; stroke-width:0px;"/><path d="m62.7,18.3c-1,1.4-2.8,1.7-4.2.8-1.3-.9-1.6-2.8-.6-4.2,1-1.4,2.8-1.7,4.2-.8,1.3.9,1.6,2.8.6,4.2Z" style="fill:#131f30; stroke-width:0px;"/><path d="m71.5,20.6c-1,1.4-2.8,1.7-4.2.8-1.3-.9-1.6-2.8-.6-4.2,1-1.4,2.8-1.7,4.2-.8,1.3.9,1.6,2.8.6,4.2Z" style="fill:#192538; stroke-width:0px;"/><path d="m67.6,19.2c-.8,1.2-2.6,1.3-3.9.4-1.3-.9-1.7-2.6-.9-3.8.8-1.2,2.6-1.3,3.9-.4,1.3.9,1.7,2.6.9,3.8Z" style="fill:#192538; stroke-width:0px;"/><path d="m58.7,18.2c-.9,1.3-2.8,1.6-4.1.7-1.3-.9-1.6-2.8-.7-4.1.9-1.3,2.8-1.6,4.1-.7,1.3.9,1.6,2.8.7,4.1Z" style="fill:#192538; stroke-width:0px;"/><path d="m50.3,28.9c-1,1.4-2.8,1.7-4.2.8s-1.6-2.8-.6-4.2c1-1.4,2.8-1.7,4.2-.8,1.3.9,1.6,2.8.6,4.2Z" style="fill:#131f30; stroke-width:0px;"/><path d="m51.2,26.3c-1,1.4-2.9,1.7-4.2.7-1.3-1-1.6-2.9-.7-4.2,1-1.4,2.9-1.7,4.2-.7,1.3,1,1.6,2.9.7,4.2Z" style="fill:#192538; stroke-width:0px;"/><path d="m49.1,31.6c-.8,1.1-2.5,1.2-3.8.3-1.3-.9-1.7-2.6-.9-3.6.8-1.1,2.5-1.2,3.8-.3,1.3.9,1.7,2.6.9,3.6Z" style="fill:#192538; stroke-width:0px;"/><path d="m52.2,40.5c-.8,1.1-2.5,1.2-3.8.3-1.3-.9-1.7-2.6-.9-3.6.8-1.1,2.5-1.2,3.8-.3,1.3.9,1.7,2.6.9,3.6Z" style="fill:#192538; stroke-width:0px;"/><path d="m55.5,22.6c-1.2,1.7-3.7,1.9-5.6.6-1.9-1.3-2.4-3.8-1.2-5.5,1.2-1.7,3.7-1.9,5.6-.6,1.9,1.3,2.4,3.8,1.2,5.5Z" style="fill:#192538; stroke-width:0px;"/><path d="m78.8,24.2c-.9,1.3-2.7,1.6-3.9.7-1.2-.9-1.5-2.6-.6-3.9.9-1.3,2.7-1.6,3.9-.7,1.2.9,1.5,2.6.6,3.9Z" style="fill:#192538; stroke-width:0px;"/><path d="m82.7,35.8c.1-.4.4-.9.2-1.3-.2-.4-.8-.5-1.3-.6-.8,0-1.6-.2-2.2-.7-.8-.7-1.1-1.8-1-2.8,0-1.1.5-2.1.9-3.1-.7.3-1.5-.4-1.6-1.1-.2-.7.1-1.5.4-2.2-1.1.5-2.3,0-3.1-.9s-1.1-2-1.4-3.2c-.9-.7-2,.3-3.1.5-1.2.2-2.4-.5-2.8-1.6-.2-.5-.2-1.2-.7-1.5-.3-.1-.6,0-.9,0-1.1.1-2.3.1-3.4,0-.3,0-.6,0-.8-.3-.2-.2-.3-.5-.6-.7-.5-.5-1.4-.2-2,.1-1.6.6-3.3.9-5,.8.7.5.5,1.6,0,2.2-.6.6-1.5.8-2.3.9-.8,0-1.7.1-2.5.4-.1,0-1,.8-1,1,0,.2.8-.4.9-.2.4.7,0,1.6-.5,2.2-.5.6-1.1,1.4-.9,2.2,0,.3.2.6.3.9,0,.3,0,.7-.4.8-.2,0-.5,0-.7,0-.2,0-.6,0-.6.3.8.5,1.3,1.4,1.2,2.4,0,1-.7,1.9-1.6,2.2.4.9,1.6,1.1,2.1,1.9.5.9,0,2-.8,2.6.8,0,1.5.4,1.9,1.1.4.7.5,1.5.6,2.2,0,.2.1.5.3.5.1,0,.2,0,.3-.1.8-.6,2.1-.5,2.9,0,.8.6,1.3,1.6,1.6,2.6.2.8.6,1.8,1.4,1.7.4,0,.7-.3,1-.4.6-.2,1.1,0,1.7.3.9.4,1.9,1,2.2,2,.1.4,0,.9.4,1.2.5.5,1.3,0,1.9-.3.6-.2,1.3,0,1.8.3.3.3.6.6,1,.9.4.2.9.3,1.2,0,.2-.2.3-.6.5-.9.4-.7,1.4-.7,2.2-.4s1.4.7,2.2.8c.4,0,.8,0,1-.4.2-.3.2-.7.2-1,0-1-.2-1.9-.5-2.9-.4-1.1-.9-2.2-.4-3.2.6-1.1,2.1-1.2,3.4-1.4,1.5-.2,2.9-.8,4.2-1.7,0,0,.3-.4.9-.1.6.3,1.3.6,1.9.2-.6-.5-.9-1.4-.7-2.2Z" style="fill:#09182b; stroke-width:0px;"/><path d="m57.2,14.4c-.2-.2-.4-.3-.6-.4-.2,0-.4.1-.6.3-.1,0-.2.2-.4.3,0,0-.1.1-.1.2,0,.2,0,.3.2.4.5.3,1.1.5,1.7.7.3,0,.7.1.9-.1-.3-.5-.6-.9-1-1.3Z" style="fill:#243951; stroke-width:0px;"/><path d="m58.2,15.7s0,0,0,0c0,0,0,0,0,.1v-.2Z" style="fill:#243951; stroke-width:0px;"/><path d="m65.9,15.3c-.2-.2-.4-.3-.6-.4-.2,0-.4.1-.6.3-.1,0-.2.2-.4.3,0,0-.1.1-.1.2,0,.2,0,.3.2.4.5.3,1.1.5,1.7.7.3,0,.7.1.9-.1-.3-.5-.6-.9-1-1.3Z" style="fill:#243951; stroke-width:0px;"/><path d="m66.9,16.5s0,0,0,0c0,0,0,0,0,.1v-.2Z" style="fill:#243951; stroke-width:0px;"/><path d="m53.3,18c0-.5-.7-.9-1.2-.9-.6,0-1.1.3-1.5.6,0,0-.1,0-.1.2,0,0,0,.1,0,.2.2.5.7.8,1.2.9.5,0,1.1,0,1.5-.5v-.5Z" style="fill:#243951; stroke-width:0px;"/><path d="m70.9,17.4c-.2-.2-.5-.4-.8-.2-.2.1-.3.4-.2.6,0,.2.2.4.3.6.1.1.2.3.4.4s.1.1.2.1c0,0,.2,0,.2-.1v-.2c.4-.1.4-.4.4-.6,0-.2-.2-.4-.4-.6Z" style="fill:#243951; stroke-width:0px;"/><path d="m76.5,21.7c.1.2.4.4.6.6.1,0,.2.2.4.3.2.1.3.3.5.3.2,0,.4-.2.4-.4v-.6c0-.3-.3-.7-.6-.9-.2-.1-.4-.3-.6-.3-.2,0-.5,0-.6.2-.2.2-.1.5,0,.8Z" style="fill:#243951; stroke-width:0px;"/><path d="m80.4,24.7h-.5c-.2.4-.3.8-.3,1.2,0,.3.1.6.4.6.2,0,.3,0,.4-.2,0-.1.1-.3.1-.4,0-.4.1-.9-.1-1.2Z" style="fill:#243951; stroke-width:0px;"/><path d="m82.8,32.5c0,0,.1,0,.2,0,0,0,0,0,0-.1,0-.7-.2-1.5-.4-2.1,0-.2-.1-.3-.2-.5-.3-.3-.7-.5-1-.8h0c-.3.4-.4.9-.2,1.4.1.3.3.5.5.8.3.3.5.6.8,1,.1.1.2.3.4.4Z" style="fill:#243951; stroke-width:0px;"/><path d="m85.4,34.7c0-.3-.1-.6-.4-.8l-.4.6c0,.2-.2.4-.2.6,0,.2,0,.5,0,.6.2.3.7.2.9-.1.2-.3.2-.6.1-1Z" style="fill:#243951; stroke-width:0px;"/><path d="m48.4,22.6h-.5c-.4,0-.7.3-.8.7-.1.3-.1.7,0,1,0,0,0,0,0,0,0,0,.2,0,.2-.1.3-.5.6-1.1,1-1.6Z" style="fill:#243951; stroke-width:0px;"/><path d="m46.4,28.5v.3c-.2-.2-.4-.4-.6-.4-.2,0-.5.2-.6.4,0,.1,0,.3,0,.5,0,.3.2.7.4.9,0,0,0,0,.1,0,0,0,.1,0,.1,0,.5-.4.7-1.1.5-1.7Z" style="fill:#243951; stroke-width:0px;"/><path d="m49.3,38.9c-.3-.3-.6-.7-.8-1v.4c0,.7.3,1.4.9,1.8.1,0,.4.1.4,0,0,0,0-.1,0-.2,0-.4-.3-.8-.5-1.1Z" style="fill:#243951; stroke-width:0px;"/><path d="m60.5,48.2c0,0,0,0-.1-.1-.8-.6-1.6-1.1-2.1-2h-.7c.1,1.1.6,2.1,1.4,2.7.2.1.4.3.6.3.4,0,.6-.4.8-.7,0,0,0-.1,0-.2Z" style="fill:#243951; stroke-width:0px;"/><path d="m73.1,49.1c-.2,0-.3,0-.5,0-.8.2-1.7.2-2.4,0l-.9-.4c.4.4.7.9,1.1,1.3.6.6,1.4.8,2.2.7.4,0,.9-.3,1-.7.2-.4,0-1-.5-1Z" style="fill:#243951; stroke-width:0px;"/><path d="m69.9,23.4c-1.1,1.6-3.5,1.9-5.3.6-1.8-1.3-2.3-3.6-1.2-5.2,1.1-1.6,3.5-1.9,5.3-.6,1.8,1.3,2.3,3.6,1.2,5.2Z" style="fill:#223249; stroke-width:0px;"/><path d="m76.6,27.9c-1.2,1.7-3.6,2-5.5.7-1.8-1.3-2.3-3.7-1.1-5.4,1.2-1.7,3.6-2,5.5-.7s2.3,3.7,1.1,5.4Z" style="fill:#223249; stroke-width:0px;"/><path d="m78.8,33.4c-1.1,1.6-3.4,1.8-5.1.6-1.7-1.2-2.2-3.5-1.1-5s3.4-1.8,5.1-.6c1.7,1.2,2.2,3.5,1.1,5Z" style="fill:#223249; stroke-width:0px;"/><path d="m80.3,41.2c-.9,1.3-2.7,1.7-3.8.9s-1.4-2.6-.4-3.9,2.7-1.7,3.8-.9c1.2.8,1.4,2.6.4,3.9Z" style="fill:#223249; stroke-width:0px;"/><path d="m80.5,37.8c-.9,1.3-2.7,1.7-3.8.9-1.2-.8-1.4-2.6-.4-3.9s2.7-1.7,3.8-.9c1.2.8,1.4,2.6.4,3.9Z" style="fill:#223249; stroke-width:0px;"/><path d="m73.2,48.2c-1,1.4-3.2,1.5-5,.3-1.8-1.3-2.4-3.4-1.4-4.8,1-1.4,3.2-1.5,5-.3,1.8,1.3,2.4,3.4,1.4,4.8Z" style="fill:#223249; stroke-width:0px;"/><path d="m65.8,46.7c-1,1.4-3.1,1.5-4.9.2s-2.3-3.3-1.4-4.7c1-1.4,3.1-1.5,4.9-.2,1.7,1.2,2.3,3.3,1.4,4.7Z" style="fill:#223249; stroke-width:0px;"/><path d="m59.7,41.9c-1.1,1.5-3.4,1.8-5.1.6-1.7-1.2-2.2-3.4-1.1-5,1.1-1.5,3.4-1.8,5.1-.6,1.7,1.2,2.2,3.4,1.1,5Z" style="fill:#223249; stroke-width:0px;"/><path d="m55.4,36.3c-1.1,1.6-3.3,2-4.8.9-1.5-1.1-1.8-3.3-.7-4.9,1.1-1.6,3.3-2,4.8-.9,1.5,1.1,1.8,3.3.7,4.9Z" style="fill:#223249; stroke-width:0px;"/><path d="m53.9,30.2c-1.1,1.5-3.3,1.9-4.8.8-1.6-1.1-1.9-3.3-.8-4.8,1.1-1.5,3.3-1.9,4.8-.8,1.6,1.1,1.9,3.3.8,4.8Z" style="fill:#223249; stroke-width:0px;"/><path d="m57.4,24.2c-1.1,1.6-3.3,1.9-4.8.8-1.5-1.1-1.9-3.3-.8-4.8s3.3-1.9,4.8-.8c1.5,1.1,1.9,3.3.8,4.8Z" style="fill:#223249; stroke-width:0px;"/><path d="m62.7,21.7c-.9,1.3-2.7,1.5-4.1.5-1.4-1-1.8-2.8-.9-4.1.9-1.3,2.7-1.5,4.1-.5,1.4,1,1.8,2.8.9,4.1Z" style="fill:#223249; stroke-width:0px;"/><path d="m76.7,45.6c-.9,1.3-2.7,1.5-4.1.5-1.4-1-1.8-2.8-.9-4.1s2.7-1.5,4.1-.5c1.4,1,1.8,2.8.9,4.1Z" style="fill:#223249; stroke-width:0px;"/><path d="m67.3,45c1-1.4,3.2-1.7,5-.7,0-.4.2-.8.5-1.2.4-.6,1-.9,1.6-1.1.5-.9,1.5-1.2,2.5-1.4,0-.6.3-1.2.7-1.8,0,0,0,0,.1-.1-.7-1-.7-2.5.1-3.7-1,0-2-.2-2.9-.8-1.8-1.3-2.4-3.6-1.4-5.3-.5-.1-1.1-.4-1.5-.7-1.8-1.3-2.5-3.7-1.6-5.5-1.4,1.5-3.8,1.6-5.7.3-1.1-.8-1.7-1.9-1.9-3,0,0,0,.2-.2.3-1,1.4-3.1,1.7-4.6.6-.2-.2-.4-.4-.6-.6.1.9,0,1.9-.7,2.8-1.3,1.8-6.7,0-4.9,1.3,1.8,1.3,2.2,3.7.9,5.4-.2.3-.5.6-.8.8.6,0,1.2.3,1.7.6,1.7,1.2,2.1,3.6.8,5.4,1.1-.3,2.4,0,3.5.8,1.9,1.4,2.5,3.9,1.2,5.6-1.1,1.6,3.4-1.3,5.3.1,1.9,1.4,1.6,3.5,2.7,1.9Z" style="fill:#09182b; stroke-width:0px;"/><path d="m68.7,22.1c0,0,.1,0,.2,0,.3-.3.4-.7.4-1.1h0c0-.3,0-.8-.3-1.1-.3-.4-.6-.6-1-.9-.3-.2-.6-.4-.9-.5s-.8,0-.9.4c0,0,0,0,0,.1,0,0,0,0,0,.1.2.4.6.6,1,.9.6.5,1,1.1,1.3,1.8,0,.1.1.3.3.3Z" style="fill:#1e3c59; stroke-width:0px;"/><path d="m61.6,19.1c.1,0,.1-.2.1-.3,0-.5-.5-1-1-1.1-.5-.1-1.1,0-1.5.5l.2-.4c-.1,0-.2.2-.2.4,0,.2.1.3.3.3.2,0,.5,0,.7-.1.2,0,.4,0,.5,0,.3.1.5.4.7.6,0,0,.1,0,.2,0Z" style="fill:#1e3c59; stroke-width:0px;"/><path d="m54.3,20c.4-.2.9-.2,1.2,0,0,0,.2.2.3.2.1,0,.2-.2.2-.3,0-.1,0-.2-.2-.3-.4-.4-1.1-.5-1.7-.3-.2,0-.4.1-.6.2-.2.1-.3.3-.5.5-.2.2-.3.5-.3.7h0c0,.1.1.2.2.2s.2,0,.3-.2c.3-.3.6-.6,1-.8Z" style="fill:#1e3c59; stroke-width:0px;"/><path d="m75.2,27c.3,0,.6-.2.7-.5.1-.3,0-.6.2-.9,0-.2.2-.4.2-.7,0-.2,0-.5-.2-.6h-.1c0,0,0,0,0-.1-.2-.2-.4-.5-.6-.7-.2-.2-.6-.4-.9-.3-.3.1-.4.5-.4.8,0,.3.2.6.3.9.2.5.1,1.1.3,1.6,0,.2.3.5.5.5Z" style="fill:#1e3c59; stroke-width:0px;"/><path d="m78.1,29.7c-.2-.3-.4-.7-.7-.8-.3-.2-.8-.2-1,0-.1,0-.2.2-.2.4,0,.2,0,.3.2.4.6.9,1.2,1.9,1.7,2.9h0c.1,0,.2,0,.3-.2.4-.8.2-1.8-.2-2.7Z" style="fill:#1e3c59; stroke-width:0px;"/><path d="m51.5,25.6s-.3,0-.5,0c-.2,0-.4,0-.6.1-.6.2-1.2.5-1.4,1.1,0,.2-.1.5-.1.8,0,.2,0,.5,0,.7,0,.1.1.3.2.4.2.1.4,0,.6,0s.3-.3.4-.5c.3-.5.7-.9,1.1-1.3.2-.2.4-.3.4-.5,0-.2,0-.5-.2-.6Z" style="fill:#1e3c59; stroke-width:0px;"/><path d="m52.6,36c0-.2-.1-.3-.2-.4-.2-.3-.3-.7-.3-1,0-.6.2-1.2,0-1.8,0-.1-.2-.2-.4-.2-.2,0-.3,0-.5.1-.3.2-.5.4-.7.6,0,0-.1.2-.2.3,0,.1,0,.3,0,.4,0,.5.2,1,.3,1.5,0,.1,0,.3.1.4.2.4.7.6,1.2.7.2,0,.4,0,.5,0,.1-.1.1-.3,0-.5Z" style="fill:#1e3c59; stroke-width:0px;"/><path d="m52.2,32.7s0,0,0,0c0,0,0,0,0,0h0Z" style="fill:#1e3c59; stroke-width:0px;"/><path d="m57,41.3c0-.4-.4-.8-.5-1.2-.1-.5,0-1.1.2-1.5h-.2c-.4,0-.8,0-1.2,0-.2,0-.4,0-.6.1-.2.1-.3.3-.3.5-.2.5-.1,1,0,1.5.2.5.5,1.1,1,1.3.4.2.9.1,1.3-.1,0,0,.1,0,.1-.1,0-.1,0-.3,0-.5Z" style="fill:#1e3c59; stroke-width:0px;"/><path d="m63.5,44.5c-.2,0-.5,0-.7,0-.6,0-1.2.3-1.7.6h0c0,.3.2.5.4.6.4.2.8.4,1.2.5.1,0,.2,0,.4,0,.2,0,.3-.1.4-.2.3-.2.5-.5.5-.9,0-.2-.2-.4-.5-.5Z" style="fill:#1e3c59; stroke-width:0px;"/><path d="m80,36.5c0,.4-.2.7-.1,1.1,0,0,0,0,0,0,0,0,0,0,.1,0,.5-.3.7-1,.8-1.5,0-.2,0-.4,0-.6-.1-.4-.6-.7-1-.8v.4c.2.4.3.9.2,1.4Z" style="fill:#1e3c59; stroke-width:0px;"/><path d="m78.5,41.8c0,.1.2.1.3,0,.9-.3,1.5-1.3,1.4-2.2h-.2c-.5.6-.9,1.3-1.4,2,0,0,0,.1,0,.2Z" style="fill:#1e3c59; stroke-width:0px;"/><path d="m76.6,43.7c-.3.2-.6.4-.9.6-.2,0-.4.1-.5.2-.2,0-.3.2-.4.3-.2.1-.3.3-.3.5,0,.3.3.5.6.5.5,0,1.1-.2,1.4-.7.3-.4.5-1,.5-1.5h-.3Z" style="fill:#1e3c59; stroke-width:0px;"/><path d="m72.2,45.7s-1.2.5-1.8.7c-.4.1-.6.5-.8.8,0,0,0,.1,0,.2,0,0,0,.2,0,.3.3.5.9.8,1.5.8.1,0,.3,0,.4,0,.1,0,.2-.1.4-.2.4-.3.8-.7.9-1.2,0-.5-.3-.9-.6-1.3Z" style="fill:#1e3c59; stroke-width:0px;"/><path d="m64.6,26.7c-1,1.4-3.1,1.6-4.8.4-1.7-1.2-2.2-3.3-1.2-4.7,1-1.4,3.1-1.6,4.8-.4,1.7,1.2,2.2,3.3,1.2,4.7Z" style="fill:#243951; stroke-width:0px;"/><path d="m69.6,30.3c-1.1,1.5-3.2,1.8-4.8.7-1.6-1.1-2-3.3-.9-4.8,1.1-1.5,3.2-1.8,4.8-.7,1.6,1.1,2,3.3.9,4.8Z" style="fill:#243951; stroke-width:0px;"/><path d="m60.8,35.7c-1.1,1.5-3.1,2-4.4,1.1-1.3-.9-1.5-3-.4-4.5,1.1-1.5,3.1-2,4.4-1.1,1.3.9,1.5,3,.4,4.5Z" style="fill:#243951; stroke-width:0px;"/><path d="m66.1,39.8c-1.2,1.7-3.5,2.1-5.2.9s-2.1-3.5-.9-5.2c1.2-1.7,3.5-2.1,5.2-.9,1.7,1.2,2.1,3.5.9,5.2Z" style="fill:#243951; stroke-width:0px;"/><path d="m59.6,30.6c-1.1,1.5-3.4,1.8-5,.6s-2.1-3.4-1-5,3.4-1.8,5-.6c1.7,1.2,2.1,3.4,1,5Z" style="fill:#243951; stroke-width:0px;"/><path d="m74,32.6c-.9,1.3-2.7,1.5-4.1.5-1.4-1-1.8-2.8-.9-4.1.9-1.3,2.7-1.5,4.1-.5,1.4,1,1.8,2.8.9,4.1Z" style="fill:#243951; stroke-width:0px;"/><path d="m75.5,38.3c-.9,1.3-2.7,1.5-4.1.5-1.4-1-1.8-2.8-.9-4.1.9-1.3,2.7-1.5,4.1-.5,1.4,1,1.8,2.8.9,4.1Z" style="fill:#243951; stroke-width:0px;"/><path d="m69.6,42.9c-.9,1.3-2.7,1.5-4.1.5-1.4-1-1.8-2.8-.9-4.1s2.7-1.5,4.1-.5c1.4,1,1.8,2.8.9,4.1Z" style="fill:#243951; stroke-width:0px;"/><path d="m73.4,41.9c-.9,1.3-2.7,1.5-4.1.5-1.4-1-1.8-2.8-.9-4.1s2.7-1.5,4.1-.5c1.4,1,1.8,2.8.9,4.1Z" style="fill:#243951; stroke-width:0px;"/><path d="m71,32.3c-.7-.7-.8-2.1-.8-3.2-1.7,1.3-2.8,1.1-4.1.1-1.3-.9-1.8-2-1.3-3.9-1.6.9-4.6.9-6.2.3,0,0,0,0,0,0,.5,1.6.3,3.1-1,4.9,0,.1-.8.9-.8,1,.4,0,1.7.5,2,.7,1.1.8,1.5,2,1.2,3.4,1.7-.7,2.9-.7,4.2.3,1.4,1,2.2,2,1.5,4.2.7-.2,1.9.2,2.6.5,0-.1,0-1.2,0-1.3.8-1.1,1.2-2.5,3.6-1.9-.2-1.2-.6-2.3.6-3.4.9-.8-.1-.5-1.4-1.8Z" style="fill:#09182b; stroke-width:0px;"/><path d="m65,32.4c-1.2,1.7-3.5,2.1-5.2.9-1.7-1.2-2.1-3.5-.9-5.2s3.5-2.1,5.2-.9c1.7,1.2,2.1,3.5.9,5.2Z" style="fill:#1e3c59; stroke-width:0px;"/><path d="m70.6,36.6c-1.1,1.5-3.4,1.8-5,.6-1.7-1.2-2.1-3.4-1-5s3.4-1.8,5-.6c1.7,1.2,2.1,3.4,1,5Z" style="fill:#1e3c59; stroke-width:0px;"/><path d="m68.6,28.3c.3-.2.4-.6.4-.9,0-.2,0-.4-.1-.6v.3c.2,0,.2-.2.2-.2,0,0,0-.1-.1-.2-.2-.2-.5-.5-.8-.7-.2-.2-.4-.3-.6-.3-.2,0-.4.1-.6.3-.1,0-.2.2-.3.3,0,.2,0,.4,0,.5,0,.3.1.6.3.8.1.2.2.3.4.4.2.2.4.3.6.4.2,0,.5,0,.7,0Z" style="fill:#234968; stroke-width:0px;"/><path d="m73.3,30.8c0-.3,0-.6-.2-1,0,0-.4-.3-.6-.5,0,0-.1,0-.2,0-.2,0-.3.1-.4.3,0,.2,0,.5,0,.7,0,.3.2.7.3,1,0,.2.2.5.4.6,0,0,0,0,.1,0,0,0,.1,0,.2-.1.2-.2.3-.4.4-.6,0-.1,0-.2,0-.3Z" style="fill:#234968; stroke-width:0px;"/><path d="m63.4,23.2s-.2-.2-.3-.4c-.1-.2-.3-.3-.5-.4-.3-.2-.6-.3-.9-.3s-.7,0-.9.3c0,.1-.1.2,0,.4,0,0,.1.1.2.2.4.3.9.6,1.3.9.3.2.6.4.9.5,0,0,.1,0,.2,0,0,0,0,0,.1,0,.2-.3,0-.7,0-1Z" style="fill:#234968; stroke-width:0px;"/><path d="m56.9,26.1h-.2c-.5-.3-1.2-.2-1.7,0-.5.3-.8.9-.8,1.6,0,.2,0,.4.2.5,0,0,.2.2.3.2.2.1.4.2.5.1,0,0,.1,0,.2-.1.5-.6.8-1.2,1.3-1.7.1,0,.2-.2.3-.3,0-.1.1-.3,0-.4Z" style="fill:#234968; stroke-width:0px;"/><path d="m73.6,37.1c0,.1-.2.3,0,.5,0,.2.3.2.6.2,0,0,.2,0,.3,0,0,0,.1-.1.1-.2.2-.2.3-.5.4-.8,0-.1,0-.2,0-.3,0,0,0-.2,0-.3-.1-.3-.3-.6-.6-.7h.2c0,0-.2-.1-.3-.2,0,0,0,0,0,0,0,0,0,0,0,0-.2.4-.2.8-.2,1.2,0,.2-.1.5-.2.7Z" style="fill:#234968; stroke-width:0px;"/><path d="m72.1,41c.2-.2.3-.5.3-.8,0-.3,0-.6-.3-.8h-.1c-.1.5-.4.7-.8.8-.1,0-.2,0-.3,0,0,0-.1.1-.2.2-.2.3,0,.7.2.9.3.2.7.2.9,0,.1,0,.2-.2.3-.4Z" style="fill:#234968; stroke-width:0px;"/><path d="m57.7,34.5c-.2-.4-.4-.8-.4-1.2h0c-.6.3-.9,1-.7,1.6.2.6.7.9,1.2,1.3.1,0,.2.2.4.1.2,0,.2-.2.2-.4,0-.5-.4-.9-.6-1.3Z" style="fill:#234968; stroke-width:0px;"/><path d="m64.1,39.2c-.1-.1-.3-.2-.5-.3-.6-.3-1.2-.9-1.3-1.5h-.5c-.3.2-.3.6-.2.9.2.8.7,1.5,1.4,1.8.3.1.6.2.9.1.3,0,.5-.3.5-.6,0-.2-.1-.3-.3-.5Z" style="fill:#234968; stroke-width:0px;"/><path d="m68.4,41.9c0-.1-.2-.1-.3-.1-.5,0-1.1,0-1.6,0-.3,0-.6,0-.8.2,0,0-.1.2-.1.3,0,0,0,.1,0,.1.5.6,1.4.9,2.1.6.2,0,.4-.2.5-.4.1-.2.2-.4.1-.6v-.2Z" style="fill:#234968; stroke-width:0px;"/><path d="m62,31.3c0-.3-.4-.5-.5-.8-.1-.3,0-.7.1-1.1.2-.5.4-1,.8-1.2-.2-.2-.6-.3-.6-.3-.5,0-1,.2-1.3.5-.4.3-.6.8-.6,1.3,0,.3.1.6.3.9.3.7.8,1.2,1.5,1.5,0,0,.2,0,.2,0,0,0,0-.1,0-.2,0-.2,0-.4,0-.6Z" style="fill:#2d567f; stroke-width:0px;"/><path d="m69.5,33.8c-.2-.6-.4-1.1-.8-1.5-.3-.2-.7-.3-1.1-.3-.4,0-.9,0-1.2.2,0,0,0,0,0,.2,0,0,0,0,0,.1.3.3.7.6,1.1.9.3.2.8.4.9.8.1.4,0,.9.2,1.1.2.2.5.2.7,0,.2-.1.3-.4.3-.7,0-.3,0-.5-.1-.7Z" style="fill:#2d567f; stroke-width:0px;"/><path d="m69,32.5l-.6-.6c.1.1.3.2.4.4.1,0,.2.2.3.2Z" style="fill:#214868; stroke-width:0px;"/><g style="opacity:.5;"><path d="m105.4,88.3c.8-.7,1.7-1.5,2.5-2.2.1-.1.3-.3.4-.5.2-.4-.1-.8-.5-1.1-1.1,1.1-1.9,2.3-2.4,3.8Z" style="fill:#cda324; stroke-width:0px;"/></g><g style="opacity:.5;"><path d="m107.3,84.2c.2.1.3.2.5.3,0,0,.1-.1.2-.2-.6-.5-1.2-.9-1.9-1.1.4.4.8.7,1.3,1Z" style="fill:#cda324; stroke-width:0px;"/></g><g style="opacity:.5;"><path d="m107.2,67.2c-.9.4-1.6,1.1-2.4,1.6-.8.5-1.8.9-2.7.7,1.1-1.8,2.8-3.2,4.1-5,1.7-2.3,2.7-5.2,2.7-8.1-.2,2.3-.8,4.6-2.4,6.2-1.2,1.2-2.8,1.8-4.3,2.7-1,.6-1.9,1.5-2.4,2.5v-.6c-.3,1.2-.6,2.5-1,3.7-.2.5-.4,1.1-.3,1.7.1,1,1,1.8,1.7,2.6.6.8,1.1,1.7,1.3,2.7.4,1.5.3,3.3,1.6,4.2.7.5,1.6.6,2.4.8.3,0,.5.1.8.2-.8-.7-1.4-1.6-1.8-2.6-.3-.8-.5-1.6-.8-2.4-.5-1.1-1.2-2.2-2.1-3,2.3,1.1,4.6,2.2,7,2.6,1.3.2,2.8.3,3.9,1.1-1.9-1.2-3.6-2.7-5.5-3.9-1.3-.8-2.7-1.5-4.2-1.9.4,0,.8-.1,1.2-.2,1.5-.4,2.9-1,4.2-1.9,1.3-.9,2.5-2,3.8-2.9.7-.5,1.5-1,2.4-1.2-2.3,0-4.7-.6-6.8.4Z" style="fill:#cda324; stroke-width:0px;"/></g><g style="opacity:.5;"><path d="m116,66.5c-.7,0-1.4.1-2,.3.7,0,1.4-.1,2-.3Z" style="fill:#cda324; stroke-width:0px;"/></g><path d="m71.7,70.2c.7.2,1.5.2,2.2.1,4.4-.1,8.9-.7,13.2-1.7-1.9.1-3.9-.5-5.8-.2-.6.1-1.3.3-1.9,0-.7-.2-1-.9-1.5-1.4-1.1-1.2-2.8-1.6-4.5-1.7-1.3-.1-2.6-.1-3.9,0,1.8-.8,3.5-1.8,4.7-3.4.7-.9,1.1-1.9,1.8-2.8.8-1.1,1.8-2,2.9-2.8,2.1-1.8,4.3-3.6,6.4-5.4-1.7.8-3.5,1.2-5.3,1.4-.7,0-1.4,0-2,.4-.6.3-1.1.8-1.7,1.3-.6.4-1.3.7-2,.4.3-.5.5-1.1.8-1.6-.9,1.4-2.1,2.5-3.5,3.1-.6.3-1.3.5-1.9.9-1,.7-1.5,2-2.6,2.5,2.2-2.2,4.5-4.8,4.4-7.9,0-1.3-.5-2.5-1-3.7-.9-2.1-1.9-4.2-3-6.2.6,2.6,1.1,5.2,1,7.9-.2,2.6-1.2,5.4-3.2,7-.7.6-1.5,1-2.1,1.6s-1.1,1.5-.9,2.4l-.4-.8c-.5.8-.5,1.9-.2,2.8.3.9.9,1.7,1.5,2.5,2,2.8,3.8,5.9,5.2,9.1.4.9.8,1.8,1.7,2.3.8.5,1.7.5,2.6.4.8,0,1.5,0,2.3,0-.9,1.7-1.4,3.6-1.4,5.6,1.3-1.9,2.5-3.8,3.8-5.7.4-.6.8-1.3.4-1.9-.4-.7-1.3-.6-2.1-.7-.9-.2-1.6-.8-2.4-1.3-1.1-.9-2.2-1.9-3.3-2.8.5.2.9.4,1.4.6Z" style="fill:#a66740; stroke-width:0px;"/><g style="opacity:.5;"><path d="m72.6,80.4c.6-.9,1.3-1.9,1.9-2.8.1-.2.2-.3.2-.5,0-.4-.3-.7-.7-.9-.8,1.3-1.3,2.8-1.4,4.3Z" style="fill:#cda324; stroke-width:0px;"/></g><g style="opacity:.5;"><path d="m73.4,75.9c.2,0,.4.1.6.2,0,0,0-.1.1-.2-.7-.3-1.4-.5-2.1-.6.5.3,1,.5,1.5.6Z" style="fill:#cda324; stroke-width:0px;"/></g><g style="opacity:.5;"><path d="m69,59.6c-.7.6-1.3,1.5-1.9,2.2-.6.7-1.5,1.4-2.5,1.4.6-2.1,1.9-3.8,2.7-5.8,1.1-2.7,1.3-5.7.5-8.5.4,2.2.4,4.7-.7,6.6-.9,1.4-2.3,2.4-3.5,3.7-.8.9-1.5,1.9-1.7,3.1v-.6c0,1.3-.2,2.6-.2,3.9,0,.6,0,1.2.2,1.7.4,1,1.4,1.4,2.3,2.1.8.6,1.5,1.4,2,2.3.7,1.3,1.1,3.1,2.6,3.7.8.3,1.7.1,2.5.1.3,0,.5,0,.8,0-.9-.5-1.8-1.2-2.5-2.1-.5-.7-.9-1.4-1.4-2.1-.7-1-1.7-1.8-2.8-2.4,2.5.5,5,.9,7.5.7,1.4-.1,2.8-.4,4,0-2.2-.6-4.2-1.6-6.3-2.3-1.5-.5-3-.8-4.5-.7.4-.1.7-.3,1.1-.5,1.4-.8,2.6-1.8,3.6-2.9,1-1.2,1.9-2.6,2.9-3.8.6-.7,1.2-1.3,2-1.8-2.2.7-4.7.6-6.5,2.1Z" style="fill:#cda324; stroke-width:0px;"/></g><g style="opacity:.5;"><path d="m77.3,56.6c-.7.2-1.3.5-1.9.8.7-.2,1.3-.5,1.9-.8Z" style="fill:#cda324; stroke-width:0px;"/></g><path d="m68.8,69.9c.2-.5.2-1.1,0-1.6-.5-1.5-3.8-3.3-3.1-3.5,1.4-.5,2.1-2.1,1.5-3.6-.5-1.5-2.1-2.4-3.4-1.9-1.4.5,1.2-.4,2.4-.8,1.3-.5,2-2.1,1.4-3.7-.6-1.6-2.1-2.6-3.4-2.1-.8.3-1.4,1-1.5,1.9-.7-1.5-2.5-2.2-4.2-1.7-.4.2-.8.4-1.2.7,0-.1,0-.2,0-.3-.6-1.8-2.7-2.7-4.7-2-.1,0-.2,0-.3.1-.7-.7-1.8-.9-2.7-.6-.8.3-1.4.9-1.7,1.7-.6-.2-1.3-.3-1.9,0-.9.3-1.6,1.1-1.9,2-.6-.2-1.3-.3-1.9,0-1.1.4-1.9,1.5-2,2.6-.4,0-.8,0-1.3.2-1.4.5-2.2,1.7-2,3-.6-.2-1.2-.2-1.8,0-1.3.5-2.1,1.8-1.9,3.2-.1,0-.3,0-.4.1-1.5.5-2.3,2.2-1.8,3.7.2.7.7,1.2,1.2,1.5-1.6,1-2.5,2.8-1.9,4.5.4,1.3,1.6,2.2,3,2.4-.4.7-.5,1.6-.2,2.5.3.8.9,1.4,1.6,1.8,0,.1,0,.3,0,.4.3.8.8,1.4,1.4,1.7,0,.3,0,.5,0,.8.4,1.3,2,1.9,3.5,1.4.4-.1.7-.3.9-.5,0,0,0,0,.1,0-.2.4-.3.9-.2,1.3.4,1.2,2.5,1.6,4.8.9.6,1,2,1.5,3.4,1,.7-.2,1.2-.6,1.6-1.1.9.6,2.2.8,3.4.3,1.9-.6,3-2.4,2.5-3.9,0-.3-.2-.5-.4-.7.1,0,.3-.2.4-.3,0,.4,0,.9.1,1.3.6,1.7,2.6,2.6,4.5,1.9,1.9-.6,3-2.6,2.4-4.3,0-.1,0-.2-.1-.3,0,0,0,0,.1,0,.7,1,2.3,1.4,3.8.9,1.8-.6,2.9-2.3,2.4-3.7-.2-.5-.6-1-1-1.3.5,0,1,0,1.6-.2,1.9-.6,3-2.3,2.5-3.8-.4-1.3-2-2-3.6-1.7Z" style="fill:#000b13; stroke-width:0px;"/><path d="m67.7,54.6c.6,1.6,0,3.3-1.4,3.7-1.3.5-2.9-.5-3.4-2.1-.6-1.6,0-3.3,1.4-3.7,1.3-.5,2.9.5,3.4,2.1Z" style="fill:#131f30; stroke-width:0px;"/><path d="m57.2,53.1c.6,1.8-.5,3.8-2.5,4.5-2,.7-4.1-.2-4.7-2-.6-1.8.5-3.8,2.5-4.5,2-.7,4.1.2,4.7,2Z" style="fill:#131f30; stroke-width:0px;"/><path d="m63.1,54.3c.6,1.8-.4,3.7-2.3,4.3-1.8.6-3.8-.3-4.4-2-.6-1.8.4-3.7,2.3-4.3,1.8-.6,3.8.3,4.4,2Z" style="fill:#192538; stroke-width:0px;"/><path d="m72.5,71.6c.5,1.5-.6,3.2-2.5,3.8s-3.8,0-4.3-1.5c-.5-1.5.6-3.2,2.5-3.8,1.9-.6,3.8,0,4.3,1.5Z" style="fill:#192538; stroke-width:0px;"/><path d="m56.2,82.1c.5,1.5-.6,3.3-2.5,3.9-1.9.6-3.9,0-4.4-1.6-.5-1.5.6-3.3,2.5-3.9,1.9-.6,3.9,0,4.4,1.6Z" style="fill:#131f30; stroke-width:0px;"/><path d="m69.4,76.9c.5,1.4-.6,3.1-2.4,3.7s-3.7,0-4.1-1.5c-.5-1.4.6-3.1,2.4-3.7,1.8-.6,3.7,0,4.1,1.5Z" style="fill:#131f30; stroke-width:0px;"/><path d="m48.9,82.1c.4,1.2-1.1,2.9-3.4,3.7-2.3.8-4.5.4-4.9-.8s1.1-2.9,3.4-3.7c2.3-.8,4.5-.4,4.9.8Z" style="fill:#131f30; stroke-width:0px;"/><path d="m63.3,80.1c.6,1.7-.5,3.6-2.4,4.3-1.9.6-3.9-.2-4.5-1.9-.6-1.7.5-3.6,2.4-4.3,1.9-.6,3.9.2,4.5,1.9Z" style="fill:#192538; stroke-width:0px;"/><path d="m49.5,54.3c.5,1.6-.3,3.3-1.8,3.8-1.5.5-3.2-.4-3.8-2s.3-3.3,1.8-3.8c1.5-.5,3.2.4,3.8,2Z" style="fill:#131f30; stroke-width:0px;"/><path d="m38.8,62.1c.5,1.6-.3,3.3-1.8,3.8-1.5.5-3.2-.4-3.8-2-.5-1.6.3-3.3,1.8-3.8,1.5-.5,3.2.4,3.8,2Z" style="fill:#131f30; stroke-width:0px;"/><path d="m45.8,56.3c.5,1.6-.3,3.3-1.8,3.8-1.5.5-3.2-.4-3.8-2-.5-1.6.3-3.3,1.8-3.8,1.5-.5,3.2.4,3.8,2Z" style="fill:#192538; stroke-width:0px;"/><path d="m42.4,58.6c.5,1.4-.4,2.9-1.9,3.4-1.5.5-3.1-.2-3.6-1.5-.5-1.4.4-2.9,1.9-3.4,1.5-.5,3.1.2,3.6,1.5Z" style="fill:#192538; stroke-width:0px;"/><path d="m36.4,65.3c.5,1.5-.3,3.2-1.8,3.7-1.5.5-3.2-.3-3.7-1.9-.5-1.5.3-3.2,1.8-3.7,1.5-.5,3.2.3,3.7,1.9Z" style="fill:#192538; stroke-width:0px;"/><path d="m40.2,78.3c.5,1.6-.3,3.3-1.8,3.8-1.5.5-3.2-.4-3.8-2-.5-1.6.3-3.3,1.8-3.8,1.5-.5,3.2.4,3.8,2Z" style="fill:#131f30; stroke-width:0px;"/><path d="m38.6,76.1c.5,1.6-.3,3.3-1.8,3.9s-3.3-.3-3.8-1.9c-.5-1.6.3-3.3,1.8-3.9,1.6-.5,3.3.3,3.8,1.9Z" style="fill:#192538; stroke-width:0px;"/><path d="m41.6,80.9c.4,1.3-.4,2.7-2,3.2s-3.1,0-3.5-1.4c-.4-1.3.4-2.7,2-3.2,1.5-.5,3.1,0,3.5,1.4Z" style="fill:#192538; stroke-width:0px;"/><path d="m50.7,83.6c.4,1.3-.4,2.7-2,3.2s-3.1,0-3.5-1.4c-.4-1.3.4-2.7,2-3.2,1.5-.5,3.1,0,3.5,1.4Z" style="fill:#192538; stroke-width:0px;"/><path d="m38.1,70.5c.7,2-.6,4.1-2.8,4.9-2.2.7-4.5-.2-5.2-2.2-.7-2,.6-4.1,2.8-4.9,2.2-.7,4.5.2,5.2,2.2Z" style="fill:#192538; stroke-width:0px;"/><path d="m52.9,52.4c.5,1.5-.3,3.1-1.7,3.6-1.4.5-3-.3-3.5-1.8-.5-1.5.3-3.1,1.7-3.6,1.4-.5,3,.3,3.5,1.8Z" style="fill:#192538; stroke-width:0px;"/><path d="m64.7,56.1c-.3-.4-.5-.8-1-.9-.5,0-.9.3-1.2.7-.5.6-1.1,1.1-1.9,1.3-1,.3-2.1-.1-2.9-.8-.8-.7-1.4-1.6-2-2.5-.2.7-1.2,1-1.9.7-.7-.3-1.2-1-1.6-1.6-.2,1.1-1.4,1.9-2.6,2-1.1,0-2.3-.3-3.4-.7-1,.3-1,1.8-1.4,2.8-.5,1.1-1.8,1.7-2.9,1.3-.5-.2-1.1-.6-1.6-.3-.3.1-.4.4-.6.7-.5,1-1.2,1.9-2,2.7-.2.2-.4.4-.7.5-.3,0-.6,0-.9,0-.7.2-.9,1-1.1,1.7-.4,1.7-1.2,3.2-2.3,4.5.8-.2,1.6.5,1.8,1.3.2.8-.2,1.7-.6,2.4-.4.7-.9,1.4-1.1,2.3,0,.1,0,1.3.2,1.4.1.1.2-.9.4-.9.8,0,1.2,1,1.5,1.7.2.8.5,1.7,1.2,2,.3.1.6.2.9.3.3.1.6.5.5.8,0,.2-.3.4-.5.5-.2.2-.3.5,0,.6.9-.4,1.9-.2,2.7.4.7.6,1.1,1.7.9,2.6.9.2,1.8-.7,2.8-.6,1,0,1.6,1.2,1.7,2.2.4-.7,1.2-1,2-.9s1.5.5,2.2.8c.2.1.5.2.6,0,0,0,0-.2,0-.3,0-1.1.8-2,1.8-2.3,1-.3,2.1-.2,3.1.2.7.3,1.8.6,2.2-.1.2-.3.1-.7.2-1.1.2-.6.7-.9,1.2-1.2.9-.5,1.9-1,2.9-.6.4.2.8.5,1.2.4.7-.1.7-1.1.9-1.7.2-.6.7-1.1,1.3-1.3.4-.1.9-.1,1.3-.3.4-.1.8-.5.7-1,0-.3-.3-.6-.4-.9-.3-.8.3-1.6.9-2,.7-.4,1.4-.7,1.9-1.4.2-.3.4-.7.3-1.1-.1-.3-.4-.6-.7-.8-.8-.5-1.7-1-2.6-1.3-1.1-.3-2.3-.6-2.8-1.6-.6-1.1.2-2.4.8-3.6.7-1.4,1-2.9,1-4.4,0,0-.2-.5.4-.8.6-.3,1.3-.7,1.3-1.4-.8.2-1.7,0-2.2-.7Z" style="fill:#09182b; stroke-width:0px;"/><path d="m32.4,64.3c-.2,0-.5.1-.7.3-.1.2-.2.4-.1.7,0,.2,0,.3,0,.5,0,0,0,.2,0,.2,0,.1.3,0,.4,0,.6-.2,1-.6,1.5-1,.2-.2.5-.5.4-.8-.5,0-1.1,0-1.6,0Z" style="fill:#243951; stroke-width:0px;"/><path d="m34,64.2s0,0,0,0c0,0,.1,0,.2,0h-.2Z" style="fill:#243951; stroke-width:0px;"/><path d="m38.2,57.7c-.2,0-.5.1-.7.3-.1.2-.2.4-.1.7,0,.2,0,.3,0,.5,0,0,0,.2,0,.2,0,.1.3,0,.4,0,.6-.2,1-.6,1.5-1,.2-.2.5-.5.4-.8-.5,0-1.1,0-1.6,0Z" style="fill:#243951; stroke-width:0px;"/><path d="m39.8,57.6s0,0,0,0c0,0,.1,0,.2,0h-.2Z" style="fill:#243951; stroke-width:0px;"/><path d="m33,69.6c-.5-.2-1.1,0-1.5.4-.3.4-.4,1-.4,1.6,0,0,0,.1,0,.2,0,0,.1,0,.2,0,.5,0,1.1-.1,1.5-.5.4-.4.6-.9.5-1.5l-.3-.4Z" style="fill:#243951; stroke-width:0px;"/><path d="m42.8,54.9c-.3,0-.6.2-.7.5,0,.2.1.4.3.5.2,0,.4,0,.7,0,.2,0,.4,0,.6,0,0,0,.2,0,.2,0,0,0,0-.2,0-.2v-.2c0-.2-.2-.5-.4-.5-.2,0-.5,0-.7,0Z" style="fill:#243951; stroke-width:0px;"/><path d="m49.6,52.9c.3,0,.5,0,.8-.1.1,0,.3,0,.4-.1.2,0,.4-.1.5-.3.1-.2.1-.4,0-.5l-.6-.2c-.2-.3-.7-.3-1-.1-.2,0-.5.2-.6.3-.2.2-.3.4-.2.7,0,.3.4.4.6.4Z" style="fill:#243951; stroke-width:0px;"/><path d="m54.3,51.5l-.3.5c.2.4.5.7.8.9.2.2.6.3.7,0,.1-.1.1-.3,0-.4,0-.1-.2-.3-.3-.4-.3-.3-.6-.6-1-.6Z" style="fill:#243951; stroke-width:0px;"/><path d="m62,54.1s0,0,0-.1c0,0,0,0,0-.1-.6-.4-1.3-.7-2-.9-.2,0-.3,0-.5,0-.4,0-.8.3-1.2.3h0c.2.5.6.9,1.1,1,.3,0,.6,0,.9,0,.4,0,.8,0,1.2,0,.2,0,.4,0,.6-.1Z" style="fill:#243951; stroke-width:0px;"/><path d="m65.3,53.2c-.3-.1-.6-.2-.9-.1l.2.7c.2.2.2.4.4.6.1.2.3.3.6.3.3,0,.5-.5.4-.8-.1-.3-.4-.5-.7-.7Z" style="fill:#243951; stroke-width:0px;"/><path d="m33.9,76.3l-.3.4c-.1.3-.1.7,0,1,.2.3.5.5.9.6,0,0,0,0,.1,0,0,0,0-.2,0-.3-.3-.6-.5-1.2-.8-1.7Z" style="fill:#243951; stroke-width:0px;"/><path d="m37.6,81.3l.2.3c-.2-.1-.5,0-.6.2-.1.2-.1.5,0,.7,0,.1.2.2.3.3.3.2.7.2,1,.2,0,0,.1,0,.2,0,0,0,0-.1,0-.2,0-.6-.5-1.2-1.1-1.4Z" style="fill:#243951; stroke-width:0px;"/><path d="m47.7,85c-.4,0-.9,0-1.3,0l.3.2c.5.5,1.3.6,2,.3.2,0,.3-.2.3-.4,0,0,0,0-.1-.1-.3-.2-.8-.2-1.2-.2Z" style="fill:#243951; stroke-width:0px;"/><path d="m61.8,81.3c0,0-.1,0-.2,0-.9.3-1.9.6-2.8.5l-.4.6c.9.5,2,.7,3,.4.2,0,.4-.1.6-.3.2-.3,0-.7-.1-1.1,0,0,0-.1-.1-.1Z" style="fill:#243951; stroke-width:0px;"/><path d="m69.9,71.6c-.1.1-.2.3-.2.5-.3.8-.8,1.5-1.4,2l-.9.5c.6-.1,1.1,0,1.7-.1.8-.1,1.5-.7,1.9-1.4.2-.4.3-.9,0-1.2-.2-.4-.8-.5-1.1-.2Z" style="fill:#243951; stroke-width:0px;"/><path d="m47.2,59.2c.6,1.9-.5,3.9-2.6,4.7s-4.3-.2-4.9-2.1c-.6-1.9.5-4,2.6-4.7,2.1-.7,4.3.2,4.9,2.1Z" style="fill:#223249; stroke-width:0px;"/><path d="m54.7,56.5c.7,2-.5,4.1-2.6,4.8-2.1.7-4.4-.3-5-2.2-.7-2,.5-4.1,2.6-4.8,2.1-.7,4.4.3,5,2.2Z" style="fill:#223249; stroke-width:0px;"/><path d="m60.4,57.8c.6,1.8-.5,3.8-2.5,4.5-2,.7-4.1-.3-4.7-2.1-.6-1.8.5-3.8,2.5-4.5,2-.7,4.1.3,4.7,2.1Z" style="fill:#223249; stroke-width:0px;"/><path d="m67.6,61.2c.5,1.5-.2,3.2-1.5,3.6-1.4.5-2.9-.4-3.4-1.9-.5-1.5.2-3.2,1.5-3.6,1.4-.5,2.9.4,3.4,1.9Z" style="fill:#223249; stroke-width:0px;"/><path d="m65,59c.5,1.5-.2,3.2-1.5,3.6-1.4.5-2.9-.4-3.4-1.9s.2-3.2,1.5-3.6c1.4-.5,2.9.4,3.4,1.9Z" style="fill:#223249; stroke-width:0px;"/><path d="m69.2,71.1c.6,1.6-.6,3.5-2.7,4.2s-4.1,0-4.7-1.7c-.6-1.6.6-3.5,2.7-4.2,2-.7,4.1,0,4.7,1.7Z" style="fill:#223249; stroke-width:0px;"/><path d="m63.6,76.1c.5,1.6-.6,3.4-2.6,4.1-2,.7-4.1,0-4.6-1.6-.5-1.6.6-3.4,2.6-4.1,2-.7,4.1,0,4.6,1.6Z" style="fill:#223249; stroke-width:0px;"/><path d="m56.2,78.3c.6,1.8-.5,3.8-2.5,4.5-2,.7-4.1-.2-4.7-2-.6-1.8.5-3.8,2.5-4.5,2-.7,4.1.2,4.7,2Z" style="fill:#223249; stroke-width:0px;"/><path d="m49.1,78.5c.6,1.9-.3,3.9-2.1,4.5-1.8.6-3.7-.4-4.4-2.3s.3-3.9,2.1-4.5c1.8-.6,3.7.4,4.4,2.3Z" style="fill:#223249; stroke-width:0px;"/><path d="m43.2,76.2c.6,1.8-.4,3.8-2.2,4.4s-3.8-.3-4.4-2.1c-.6-1.8.4-3.8,2.2-4.4,1.8-.6,3.8.3,4.4,2.1Z" style="fill:#223249; stroke-width:0px;"/><path d="m40.5,69.8c.6,1.8-.3,3.8-2.1,4.4-1.8.6-3.8-.4-4.4-2.2-.6-1.8.3-3.8,2.1-4.4,1.8-.6,3.8.4,4.4,2.2Z" style="fill:#223249; stroke-width:0px;"/><path d="m41.5,64.1c.5,1.5-.4,3.1-2,3.6-1.6.5-3.3-.2-3.8-1.7-.5-1.5.4-3.1,2-3.6,1.6-.5,3.3.2,3.8,1.7Z" style="fill:#223249; stroke-width:0px;"/><path d="m69.1,66.6c.5,1.5-.4,3.1-2,3.6-1.6.5-3.3-.2-3.8-1.7-.5-1.5.4-3.1,2-3.6,1.6-.5,3.3.2,3.8,1.7Z" style="fill:#223249; stroke-width:0px;"/><path d="m63.1,74c-.6-1.7.5-3.6,2.4-4.5-.3-.3-.5-.7-.7-1.1-.2-.6-.2-1.3,0-1.9-.4-.9,0-1.9.4-2.8-.5-.4-.8-.9-1.1-1.6,0,0,0-.1,0-.2-1.2,0-2.4-.9-2.9-2.2-.5.8-1.3,1.5-2.3,1.8-2.1.7-4.3-.2-5.1-2-.4.4-.9.6-1.5.8-2.1.7-4.4-.1-5.4-1.9.4,2-.9,4.1-3.1,4.8-1.2.4-2.5.3-3.6-.2,0,.1.1.2.1.3.6,1.6-.4,3.5-2.2,4.1-.3,0-.6.1-.8.2.8.5,1.5,1.2,1.9,2.2.7,2-3.9,5.4-1.8,4.8,2-.7,4.3.4,5,2.4.1.4.2.7.2,1.1.4-.5.9-.8,1.5-1,2-.7,4.1.4,4.9,2.5.5-1.1,1.4-2,2.7-2.4,2.2-.8,4.6.3,5.3,2.3.6,1.9.9-3.5,3.2-4.3,2.2-.8,3.7.8,3.1-1.1Z" style="fill:#09182b; stroke-width:0px;"/><path d="m45.3,59.4c0,0,0-.1,0-.2,0-.4-.3-.7-.6-.9h.1c-.3-.3-.8-.4-1.2-.4s-.9.1-1.3.3c-.3.1-.7.2-.9.5-.2.3-.4.7-.2,1,0,0,0,0,0,0,0,0,0,0,.1,0,.4,0,.9-.1,1.3-.3.7-.2,1.5-.2,2.2,0,.1,0,.3,0,.4,0Z" style="fill:#1e3c59; stroke-width:0px;"/><path d="m38.8,63.5c0-.1,0-.2-.1-.3-.5-.3-1.1-.2-1.5.2-.4.4-.6,1-.5,1.5l-.2-.4c0,.2,0,.3.2.4.1,0,.3,0,.4,0,.2-.1.2-.4.3-.7,0-.2.2-.3.3-.4.3-.2.6-.1.9-.2,0,0,.1,0,.1-.1Z" style="fill:#1e3c59; stroke-width:0px;"/><path d="m35.2,69.9c0-.4.3-.8.7-1,.1,0,.3,0,.3-.2,0-.1,0-.2-.1-.3-.1,0-.2,0-.4,0-.6.1-1,.6-1.3,1.2,0,.2-.2.4-.2.6,0,.2,0,.4.1.7,0,.3.2.5.4.7h0c0,0,.2,0,.3-.1,0,0,0-.2,0-.3,0-.4-.1-.9,0-1.3Z" style="fill:#1e3c59; stroke-width:0px;"/><path d="m53.2,57c.2-.2.1-.6,0-.9-.2-.3-.4-.4-.6-.7-.1-.2-.2-.4-.4-.6-.2-.2-.4-.3-.6-.2v.2c0,0-.1,0-.2,0-.3,0-.6,0-.9,0-.3,0-.7.2-.8.5,0,.3.1.6.4.8s.6.2.9.3c.5.2,1,.5,1.5.7.3,0,.6,0,.8-.1Z" style="fill:#1e3c59; stroke-width:0px;"/><path d="m57,56.2c-.4,0-.8,0-1.1,0-.3.1-.6.5-.6.9,0,.1,0,.3.2.4.1,0,.3,0,.4.1,1.1,0,2.2.1,3.3.3h0c0,0,0-.2,0-.4-.5-.8-1.4-1.3-2.3-1.4Z" style="fill:#1e3c59; stroke-width:0px;"/><path d="m38.1,75.5s-.2.2-.3.4c-.1.1-.2.3-.2.5-.2.6-.3,1.3,0,1.8.1.2.3.4.5.5.2.1.4.3.6.3.1,0,.3,0,.4,0,.2,0,.3-.3.3-.5,0-.2,0-.4-.2-.6-.2-.5-.3-1.1-.4-1.6,0-.2,0-.5-.2-.7-.1-.2-.4-.3-.6-.2Z" style="fill:#1e3c59; stroke-width:0px;"/><path d="m47.2,80.6c-.2,0-.3,0-.5,0-.4,0-.7-.2-1-.4-.5-.3-.9-.8-1.4-1.1-.1,0-.3,0-.4.2-.1.1-.1.3-.2.5,0,.3,0,.6,0,.9,0,.1,0,.2.1.3,0,.1.2.2.3.2.4.2.9.4,1.3.6.1,0,.3.1.4.1.5,0,.9-.2,1.2-.5.1-.1.3-.3.2-.5,0-.2-.2-.3-.3-.3Z" style="fill:#1e3c59; stroke-width:0px;"/><path d="m44.3,79s0,0,0,0c0,0,0,0,0,0h0Z" style="fill:#1e3c59; stroke-width:0px;"/><path d="m54.1,80.1c-.4-.2-.8-.2-1.2-.3-.5-.2-.9-.6-1.1-1.1h-.2c-.2.4-.4.8-.6,1.1-.1.2-.2.4-.2.6,0,.2,0,.4.2.6.3.4.8.7,1.3.9.5.2,1.2.2,1.6,0,.4-.2.6-.7.6-1.1,0,0,0-.1,0-.2,0-.2-.2-.3-.4-.3Z" style="fill:#1e3c59; stroke-width:0px;"/><path d="m60.5,76.7c-.2.1-.3.3-.4.5-.3.5-.5,1.1-.5,1.7h0c.2.2.4.1.6,0,.4-.2.8-.4,1.1-.7,0,0,.2-.2.2-.3,0-.1,0-.3,0-.5,0-.4-.1-.8-.5-.9-.2,0-.5,0-.7,0Z" style="fill:#1e3c59; stroke-width:0px;"/><path d="m63.7,58.7c.3.3.5.6.8.8,0,0,0,0,.1,0,0,0,0,0,0-.1,0-.6-.4-1.1-.8-1.5-.1-.2-.3-.3-.5-.4-.4-.2-.9,0-1.2.4l.3.2c.5,0,1,.3,1.3.7Z" style="fill:#1e3c59; stroke-width:0px;"/><path d="m67,63c.1,0,.2,0,.2-.2.2-.9-.2-2-1-2.4h-.2c.3.9.6,1.7.8,2.5,0,0,0,.1.1.1Z" style="fill:#1e3c59; stroke-width:0px;"/><path d="m67.5,65.6c0,.4,0,.7,0,1.1,0,.2-.1.4-.2.6,0,.2,0,.4,0,.5,0,.2,0,.4.2.6.2.2.6,0,.8-.2.3-.4.4-1,.3-1.5-.2-.5-.5-.9-1-1.3v.3Z" style="fill:#1e3c59; stroke-width:0px;"/><path d="m66.5,70.3s-.3,1.3-.5,1.8c-.1.4,0,.8.2,1.1,0,0,0,.2.1.2,0,0,.2,0,.3,0,.6,0,1.2-.3,1.6-.8,0-.1.2-.2.2-.4,0-.1,0-.3,0-.4,0-.5,0-1.1-.5-1.4-.4-.3-.9-.3-1.4-.3Z" style="fill:#1e3c59; stroke-width:0px;"/><path d="m46.7,65.5c.6,1.6-.6,3.5-2.5,4.1-1.9.7-3.9-.1-4.5-1.7-.6-1.6.6-3.5,2.5-4.1,1.9-.7,3.9.1,4.5,1.7Z" style="fill:#243951; stroke-width:0px;"/><path d="m52.5,63.5c.6,1.8-.4,3.7-2.2,4.3-1.8.6-3.8-.3-4.4-2.1-.6-1.8.4-3.7,2.2-4.3,1.8-.6,3.8.3,4.4,2.1Z" style="fill:#243951; stroke-width:0px;"/><path d="m51.8,73.8c.6,1.8-.1,3.7-1.7,4.2-1.5.5-3.3-.5-3.9-2.3-.6-1.8.1-3.7,1.7-4.2,1.5-.5,3.3.5,3.9,2.3Z" style="fill:#243951; stroke-width:0px;"/><path d="m58.2,71.9c.7,2-.4,4.1-2.4,4.7-2,.7-4.1-.4-4.8-2.3s.4-4.1,2.4-4.7c2-.7,4.1.4,4.8,2.3Z" style="fill:#243951; stroke-width:0px;"/><path d="m46.9,71.8c.6,1.8-.5,3.8-2.4,4.5-2,.7-4-.3-4.6-2.1-.6-1.8.5-3.8,2.4-4.5,2-.7,4,.3,4.6,2.1Z" style="fill:#243951; stroke-width:0px;"/><path d="m57,61.3c.5,1.5-.4,3.1-2,3.6-1.6.5-3.3-.2-3.8-1.7-.5-1.5.4-3.1,2-3.6,1.6-.5,3.3.2,3.8,1.7Z" style="fill:#243951; stroke-width:0px;"/><path d="m62.5,63.4c.5,1.5-.4,3.1-2,3.6-1.6.5-3.3-.2-3.8-1.7-.5-1.5.4-3.1,2-3.6,1.6-.5,3.3.2,3.8,1.7Z" style="fill:#243951; stroke-width:0px;"/><path d="m62.8,70.8c.5,1.5-.4,3.1-2,3.6-1.6.5-3.3-.2-3.8-1.7-.5-1.5.4-3.1,2-3.6,1.6-.5,3.3.2,3.8,1.7Z" style="fill:#243951; stroke-width:0px;"/><path d="m64.2,67.2c.5,1.5-.4,3.1-2,3.6-1.6.5-3.3-.2-3.8-1.7-.5-1.5.4-3.1,2-3.6,1.6-.5,3.3.2,3.8,1.7Z" style="fill:#243951; stroke-width:0px;"/><path d="m54.9,63.5c-1,.1-2.1-.5-3.1-1.2,0,2.1-.7,2.9-2.3,3.4-1.5.5-2.7.3-3.9-1.3-.2,1.8-1.9,4.3-3.4,5.3,0,0,0,0,0,0,1.6.5,2.7,1.6,3.4,3.7,0,.1.3,1.1.3,1.3.3-.4,1.4-1.1,1.8-1.2,1.3-.4,2.4,0,3.5,1,.5-1.8,1.1-2.7,2.7-3.2,1.6-.6,2.9-.6,4.3,1.2.3-.7,1.3-1.4,1.9-1.8,0-.1-.9-.7-1-.8-.4-1.2-1.4-2.4.5-4-1.1-.6-2.2-.9-2.4-2.4-.1-1.1-.5-.2-2.3,0Z" style="fill:#09182b; stroke-width:0px;"/><path d="m51.5,68.5c.7,2-.4,4.1-2.4,4.7-2,.7-4.1-.4-4.8-2.3-.7-2,.4-4.1,2.4-4.7,2-.7,4.1.4,4.8,2.3Z" style="fill:#1e3c59; stroke-width:0px;"/><path d="m58.2,66.4c.6,1.8-.5,3.8-2.4,4.5-2,.7-4-.3-4.6-2.1-.6-1.8.5-3.8,2.4-4.5,2-.7,4,.3,4.6,2.1Z" style="fill:#1e3c59; stroke-width:0px;"/><path d="m50.3,63.1c0-.3-.2-.7-.5-.8-.2-.1-.4-.2-.5-.2h.3s0,0-.2-.1c0,0-.2,0-.2,0-.3,0-.7.1-1,.2-.2,0-.5.1-.6.3-.1.2-.1.4-.1.6,0,.1,0,.3,0,.4,0,.2.3.2.4.3.3.1.5.2.8.3.2,0,.4,0,.6,0,.2,0,.5-.1.6-.3.2-.1.3-.4.3-.6Z" style="fill:#234968; stroke-width:0px;"/><path d="m55.1,60.8c-.3-.2-.6-.3-.9-.4,0,0-.4.1-.8.2,0,0-.1,0-.2,0-.1.1,0,.3,0,.5.1.2.4.3.6.3.3.1.6.2,1,.4.2,0,.5.2.7,0,0,0,0,0,0,0,0,0,0-.1,0-.2,0-.2-.1-.5-.3-.6,0,0-.2-.1-.3-.2Z" style="fill:#234968; stroke-width:0px;"/><path d="m43.1,64.4s-.3,0-.5,0c-.2,0-.4,0-.6.2-.3.1-.6.3-.8.5-.2.2-.3.6-.3.9,0,.1.1.3.2.3,0,0,.2,0,.3,0,.5-.2,1-.4,1.5-.6.3-.1.6-.2.9-.5,0,0,0,0,0-.1,0,0,0,0,0-.1-.1-.3-.5-.5-.9-.6Z" style="fill:#234968; stroke-width:0px;"/><path d="m41.7,71.3v.2c-.7.2-1.1.8-1.1,1.4,0,.6.3,1.2.8,1.6.2.1.3.2.5.2.1,0,.2,0,.3,0,.2,0,.4-.2.4-.4,0,0,0-.1,0-.2-.2-.7-.6-1.4-.6-2.1,0-.1,0-.3,0-.4,0-.1-.2-.2-.3-.3Z" style="fill:#234968; stroke-width:0px;"/><path d="m60.4,64.2c0,.1.2.3.3.3.2,0,.4-.1.5-.3,0,0,0-.2,0-.3,0,0,0-.1,0-.2-.1-.3-.2-.6-.4-.8,0,0-.1-.2-.2-.3,0,0-.2,0-.3-.1-.3,0-.7,0-1,.1h.2c-.1-.2-.3-.1-.4,0,0,0,0,0,0,0,0,0,0,0,0,0,.2.4.6.6.8.9.2.2.3.4.4.6Z" style="fill:#234968; stroke-width:0px;"/><path d="m62.6,67.7c-.1-.3-.3-.5-.5-.7-.2-.2-.5-.3-.8-.2v.2c.2.3.2.7,0,1,0,.1-.1.2-.1.3,0,0,0,.2,0,.2.1.3.5.5.9.4.3,0,.6-.4.5-.8,0-.2,0-.3-.1-.5Z" style="fill:#234968; stroke-width:0px;"/><path d="m49,75.6c-.4,0-.9-.2-1.3-.4h0c0,.6.3,1.3.9,1.5.6.2,1.2,0,1.7-.2.1,0,.3-.1.3-.2,0-.2,0-.3-.2-.4-.4-.3-.9-.2-1.4-.2Z" style="fill:#234968; stroke-width:0px;"/><path d="m56.5,73.2c-.2,0-.3.1-.5.2-.6.3-1.4.5-2,.2l-.2.4c0,.3.3.6.6.7.7.3,1.6.3,2.3-.1.3-.1.5-.3.6-.6.1-.3,0-.6-.2-.8-.2,0-.4,0-.5,0Z" style="fill:#234968; stroke-width:0px;"/><path d="m61.2,71.2c-.1,0-.2,0-.3.2-.3.4-.6.9-.9,1.3-.2.2-.3.5-.3.8,0,.1,0,.2.2.3,0,0,.1,0,.2,0,.8,0,1.5-.6,1.7-1.4,0-.2,0-.4,0-.6,0-.2-.2-.4-.4-.4h-.1Z" style="fill:#234968; stroke-width:0px;"/><path d="m48.9,70.3c-.3,0-.6,0-.9,0-.4,0-.6-.4-.8-.7-.3-.4-.6-.9-.5-1.4-.3,0-.6.3-.6.3-.2.4-.4.9-.4,1.4,0,.5.2,1,.6,1.2.3.2.6.3.9.3.7.1,1.5,0,2.1-.3,0,0,.2-.1.2-.2,0,0,0-.1,0-.2-.1-.2-.3-.3-.5-.4Z" style="fill:#2d567f; stroke-width:0px;"/><path d="m55.3,65.7c-.6-.2-1.1-.3-1.7-.2-.3.1-.6.4-.9.7-.3.3-.6.7-.5,1.1,0,0,0,.1,0,.2,0,0,0,0,.1,0,.5,0,.9-.2,1.4-.4.4-.2.7-.4,1.1-.3.4.1.7.5,1.1.5.2,0,.4-.3.4-.6,0-.3-.2-.5-.3-.6-.2-.2-.4-.2-.7-.3Z" style="fill:#2d567f; stroke-width:0px;"/><path d="m54,65.3l-.9.2c.2,0,.3,0,.5,0,.1,0,.2,0,.4,0Z" style="fill:#214868; stroke-width:0px;"/><path d="m102.2,75.6c.3-.5.4-1,.4-1.6-.2-1.6-3-4.1-2.2-4.1,1.4-.2,2.5-1.6,2.3-3.2-.2-1.6-1.5-2.8-2.9-2.6-1.4.2,1.2-.1,2.5-.3,1.4-.2,2.4-1.7,2.2-3.4-.2-1.7-1.5-2.9-2.9-2.8-.9,0-1.6.7-1.9,1.5-.4-1.6-2-2.7-3.8-2.5-.5,0-.9.2-1.3.4,0-.1,0-.2,0-.3-.2-1.9-2.1-3.2-4.2-3-.1,0-.2,0-.4,0-.6-.8-1.5-1.3-2.5-1.2-.9,0-1.6.6-2,1.3-.5-.4-1.2-.6-1.9-.5-1,.1-1.8.7-2.3,1.6-.5-.3-1.2-.5-1.9-.5-1.2.1-2.2,1-2.5,2.2-.4-.1-.8-.2-1.3-.1-1.4.2-2.5,1.2-2.6,2.5-.5-.3-1.1-.4-1.7-.4-1.4.2-2.4,1.3-2.6,2.7-.1,0-.3,0-.5,0-1.6.2-2.8,1.6-2.6,3.3,0,.7.4,1.3.9,1.8-1.8.6-3,2.2-2.8,4,.2,1.4,1.1,2.5,2.5,3-.6.6-.9,1.5-.8,2.4,0,.9.5,1.6,1.2,2.1,0,.1,0,.3,0,.4,0,.8.5,1.5,1,2,0,.2-.1.5,0,.8.1,1.3,1.6,2.3,3.1,2.1.4,0,.7-.1,1-.3,0,0,0,0,.1,0-.3.4-.5.8-.4,1.2.1,1.3,2.1,2.1,4.5,1.9.3,1.1,1.6,1.9,3.1,1.7.7,0,1.3-.4,1.8-.8.7.8,1.9,1.2,3.3,1.1,2-.2,3.5-1.7,3.3-3.3,0-.3-.1-.5-.2-.8.1,0,.3-.1.4-.2-.1.4-.2.9-.2,1.3.2,1.8,2,3.1,4,2.9,2-.2,3.5-1.9,3.3-3.7,0-.1,0-.2,0-.3,0,0,.1,0,.2,0,.5,1.1,1.9,1.9,3.5,1.7,1.9-.2,3.3-1.6,3.1-3.1,0-.6-.3-1.1-.7-1.5.5.1,1,.2,1.6.1,2-.2,3.4-1.6,3.3-3.2-.2-1.4-1.5-2.3-3.2-2.4Z" style="fill:#000b13; stroke-width:0px;"/><path d="m104.3,60.4c.2,1.7-.8,3.2-2.2,3.4-1.4.2-2.7-1.1-2.9-2.8s.8-3.2,2.2-3.4c1.4-.2,2.7,1.1,2.9,2.8Z" style="fill:#131f30; stroke-width:0px;"/><path d="m94.5,56.7c.2,1.9-1.3,3.6-3.4,3.8-2.1.2-4-1.1-4.2-3s1.3-3.6,3.4-3.8c2.1-.2,4,1.1,4.2,3Z" style="fill:#131f30; stroke-width:0px;"/><path d="m100,59.1c.2,1.8-1.2,3.5-3.1,3.7-1.9.2-3.7-1.1-3.9-2.9-.2-1.8,1.2-3.5,3.1-3.7,1.9-.2,3.7,1.1,3.9,2.9Z" style="fill:#192538; stroke-width:0px;"/><path d="m105.4,78c.2,1.5-1.3,3-3.3,3.2s-3.7-.9-3.9-2.4c-.2-1.5,1.3-3,3.3-3.2,2-.2,3.7.9,3.9,2.4Z" style="fill:#192538; stroke-width:0px;"/><path d="m87.2,84.8c.2,1.6-1.3,3.1-3.3,3.3-2,.2-3.8-.9-3.9-2.5-.2-1.6,1.3-3.1,3.3-3.3,2-.2,3.8.9,3.9,2.5Z" style="fill:#131f30; stroke-width:0px;"/><path d="m101.2,82.5c.2,1.5-1.2,2.9-3.1,3.1-1.9.2-3.6-.9-3.7-2.4-.2-1.5,1.2-2.9,3.1-3.1,1.9-.2,3.6.8,3.7,2.4Z" style="fill:#131f30; stroke-width:0px;"/><path d="m80.1,83.2c.1,1.3-1.7,2.6-4.1,2.8-2.4.3-4.5-.6-4.6-1.9s1.7-2.6,4.1-2.8c2.4-.3,4.5.6,4.6,1.9Z" style="fill:#131f30; stroke-width:0px;"/><path d="m94.5,84.4c.2,1.8-1.3,3.4-3.3,3.7s-3.8-1.1-4-2.9c-.2-1.8,1.3-3.4,3.3-3.7,2-.2,3.8,1.1,4,2.9Z" style="fill:#192538; stroke-width:0px;"/><path d="m86.7,56.2c.2,1.7-1,3.2-2.6,3.4-1.6.2-3.1-1-3.2-2.7s1-3.2,2.6-3.4c1.6-.2,3.1,1,3.2,2.7Z" style="fill:#131f30; stroke-width:0px;"/><path d="m74.5,61.4c.2,1.7-1,3.2-2.6,3.4s-3.1-1-3.2-2.7c-.2-1.7,1-3.2,2.6-3.4,1.6-.2,3.1,1,3.2,2.7Z" style="fill:#131f30; stroke-width:0px;"/><path d="m82.6,57.3c.2,1.7-1,3.2-2.6,3.4-1.6.2-3.1-1-3.2-2.7-.2-1.7,1-3.2,2.6-3.4,1.6-.2,3.1,1,3.2,2.7Z" style="fill:#192538; stroke-width:0px;"/><path d="m78.8,58.9c.2,1.4-1,2.7-2.6,2.9-1.6.2-3-.8-3.2-2.3-.2-1.4,1-2.7,2.6-2.9,1.6-.2,3,.8,3.2,2.3Z" style="fill:#192538; stroke-width:0px;"/><path d="m71.5,64c.2,1.6-1,3.1-2.6,3.3s-3.1-1-3.2-2.6c-.2-1.6,1-3.1,2.6-3.3s3.1,1,3.2,2.6Z" style="fill:#192538; stroke-width:0px;"/><path d="m72.4,77.7c.2,1.7-1,3.2-2.6,3.4-1.6.2-3.1-1-3.2-2.7-.2-1.7,1-3.2,2.6-3.4,1.6-.2,3.1,1,3.2,2.7Z" style="fill:#131f30; stroke-width:0px;"/><path d="m71.3,75.1c.2,1.7-1,3.2-2.6,3.4-1.6.2-3.1-1-3.3-2.7s1-3.2,2.6-3.4c1.6-.2,3.1,1,3.3,2.7Z" style="fill:#192538; stroke-width:0px;"/><path d="m73.2,80.4c.1,1.3-1,2.5-2.6,2.7-1.6.2-3-.8-3.1-2.1-.1-1.3,1-2.5,2.6-2.7,1.6-.2,3,.8,3.1,2.1Z" style="fill:#192538; stroke-width:0px;"/><path d="m81.5,85.1c.1,1.3-1,2.5-2.6,2.7s-3-.8-3.1-2.1c-.1-1.3,1-2.5,2.6-2.7,1.6-.2,3,.8,3.1,2.1Z" style="fill:#192538; stroke-width:0px;"/><path d="m72,69.5c.2,2.1-1.5,3.9-3.8,4.2-2.3.3-4.4-1.2-4.6-3.3-.2-2.1,1.5-3.9,3.8-4.2,2.3-.3,4.4,1.2,4.6,3.3Z" style="fill:#192538; stroke-width:0px;"/><path d="m90.4,55.1c.2,1.6-.9,3-2.4,3.1s-2.9-1-3.1-2.5c-.2-1.6.9-3,2.4-3.1,1.5-.2,2.9,1,3.1,2.5Z" style="fill:#192538; stroke-width:0px;"/><path d="m101.1,61.2c-.2-.4-.3-.9-.8-1.1-.4-.2-.9.1-1.3.4-.6.5-1.3.9-2.1.9-1,0-2-.6-2.7-1.4-.7-.8-1-1.8-1.4-2.8-.4.7-1.4.7-2,.3-.6-.5-.9-1.2-1.2-1.9-.5,1.1-1.8,1.5-2.9,1.4-1.1-.2-2.2-.8-3.1-1.4-1.1,0-1.3,1.6-2,2.5-.7,1-2.1,1.2-3.1.6-.5-.3-1-.8-1.5-.6-.3,0-.5.3-.7.6-.7.9-1.6,1.6-2.5,2.2-.2.2-.5.3-.8.3-.3,0-.6-.1-.9-.1-.7,0-1.1.8-1.4,1.4-.8,1.5-1.9,2.9-3.2,3.9.8,0,1.5.8,1.5,1.7,0,.8-.5,1.6-1.1,2.2-.6.6-1.2,1.2-1.5,2,0,.1-.2,1.3-.1,1.4,0,.2.4-.8.5-.8.8.3,1,1.2,1.1,2,0,.8.1,1.7.8,2.2.3.2.6.3.9.5.3.2.5.6.3.9-.1.2-.4.3-.6.4s-.4.4-.2.6c.9-.2,1.9.2,2.5,1,.6.8.7,1.9.3,2.7.9.4,1.9-.3,2.8,0,.9.3,1.3,1.5,1.2,2.5.5-.6,1.4-.7,2.1-.4s1.3.8,1.9,1.3c.2.1.4.3.6.1,0,0,0-.2.1-.3.2-1,1.2-1.8,2.2-1.9,1-.1,2.1.3,3,.9.7.4,1.6.9,2.1.3.2-.3.3-.7.5-1,.3-.5.9-.7,1.4-.9,1-.3,2.1-.6,3,0,.4.2.7.6,1.1.6.7,0,.9-.9,1.3-1.5.3-.6.9-.9,1.6-1,.4,0,.9,0,1.3,0,.4,0,.9-.3.9-.8,0-.3-.2-.6-.2-1-.1-.8.6-1.5,1.3-1.8.7-.3,1.6-.4,2.2-.9.3-.2.6-.6.5-1,0-.3-.3-.6-.5-.9-.7-.7-1.4-1.3-2.3-1.8-1-.5-2.1-1.1-2.4-2.2-.3-1.2.8-2.3,1.6-3.3,1-1.2,1.6-2.6,2-4.1,0,0,0-.5.6-.7.6-.2,1.4-.4,1.5-1.1-.8,0-1.6-.4-2-1.1Z" style="fill:#09182b; stroke-width:0px;"/><path d="m67.8,62.3c-.2,0-.5,0-.7.2-.2.1-.2.4-.3.6,0,.1,0,.3,0,.5,0,0,0,.2,0,.2,0,.1.3.2.4.1.6,0,1.1-.4,1.7-.6.3-.1.6-.4.6-.7-.5-.2-1.1-.3-1.6-.3Z" style="fill:#243951; stroke-width:0px;"/><path d="m69.4,62.5s0,0,0,0c0,0,.1,0,.2,0h-.2Z" style="fill:#243951; stroke-width:0px;"/><path d="m74.9,57.1c-.2,0-.5,0-.7.2-.2.1-.2.4-.3.6,0,.1,0,.3,0,.5,0,0,0,.2,0,.2,0,.1.3.2.4.1.6,0,1.1-.4,1.7-.6.3-.1.6-.4.6-.7-.5-.2-1.1-.3-1.6-.3Z" style="fill:#243951; stroke-width:0px;"/><path d="m76.5,57.4s0,0,0,0c0,0,.1,0,.2,0h-.2Z" style="fill:#243951; stroke-width:0px;"/><path d="m67.3,67.5c-.4-.3-1.1-.2-1.5.1-.4.4-.6.9-.7,1.5,0,0,0,.1,0,.2,0,0,.1.1.2.1.5.2,1.1.1,1.5-.2s.7-.8.8-1.3l-.2-.4Z" style="fill:#243951; stroke-width:0px;"/><path d="m80,55.4c-.3,0-.7,0-.8.4,0,.2,0,.5.2.6.2.1.4.2.6.2.2,0,.4,0,.6,0,0,0,.2,0,.2,0s.1-.1,0-.2v-.2c0-.2,0-.5-.2-.6-.2-.1-.4-.2-.7-.2Z" style="fill:#243951; stroke-width:0px;"/><path d="m87.1,54.8c.3,0,.5,0,.8,0,.1,0,.3,0,.5,0,.2,0,.4,0,.6-.2.2-.1.2-.4,0-.5l-.5-.3c-.2-.3-.6-.4-.9-.4-.2,0-.5,0-.7.2-.2.1-.3.4-.3.6,0,.3.3.5.5.6Z" style="fill:#243951; stroke-width:0px;"/><path d="m92,54.5l-.3.4c0,.4.3.8.6,1.1.2.2.5.4.7.2.1,0,.2-.3.1-.4,0-.2-.1-.3-.2-.4-.2-.3-.5-.7-.9-.8Z" style="fill:#243951; stroke-width:0px;"/><path d="m99,58.7c0,0,.1,0,.1-.1,0,0,0,0,0-.1-.5-.5-1.1-1-1.8-1.3-.1,0-.3-.2-.5-.2-.4,0-.8.1-1.3,0h0c0,.5.4,1,.9,1.2.3.1.6.2.9.2.4,0,.8.1,1.2.2.2,0,.4,0,.6,0Z" style="fill:#243951; stroke-width:0px;"/><path d="m102.4,58.5c-.2-.2-.5-.3-.8-.3v.7c.2.2.2.4.3.6,0,.2.3.4.5.4.3,0,.6-.3.6-.7,0-.3-.3-.6-.6-.8Z" style="fill:#243951; stroke-width:0px;"/><path d="m66.7,74.3l-.4.3c-.2.3-.3.7-.2,1,.1.3.4.6.7.7,0,0,0,0,.1,0,0,0,0-.2,0-.3-.1-.6-.3-1.2-.4-1.9Z" style="fill:#243951; stroke-width:0px;"/><path d="m69.2,80v.3c0-.2-.4-.1-.6,0-.2.2-.2.4-.1.7,0,.1.2.3.3.4.3.2.6.4.9.4,0,0,.1,0,.2,0,0,0,0,0,0-.1.1-.6-.2-1.3-.7-1.6Z" style="fill:#243951; stroke-width:0px;"/><path d="m78.3,85.8c-.4,0-.8-.1-1.3-.2l.3.3c.4.6,1.2.9,1.9.8.2,0,.4-.1.3-.3,0,0,0-.1,0-.2-.3-.3-.7-.4-1.1-.4Z" style="fill:#243951; stroke-width:0px;"/><path d="m92.8,85.2s-.1,0-.2,0c-1,0-2,.2-2.9,0l-.5.5c.8.7,1.8,1.1,2.9,1.1.2,0,.5,0,.6-.2.3-.3.2-.7.1-1.1,0,0,0-.1,0-.2Z" style="fill:#243951; stroke-width:0px;"/><path d="m102.8,77.5c-.1.1-.2.3-.3.4-.4.7-1.1,1.3-1.8,1.6l-1,.3c.6,0,1.1.2,1.7.2.8,0,1.6-.3,2.1-1,.3-.3.5-.8.3-1.2-.1-.4-.7-.7-1-.4Z" style="fill:#243951; stroke-width:0px;"/><path d="m83.3,60.5c.2,2-1.4,3.7-3.6,4s-4.1-1.1-4.4-3.1c-.2-2,1.4-3.7,3.6-4,2.2-.2,4.1,1.1,4.4,3.1Z" style="fill:#223249; stroke-width:0px;"/><path d="m91.2,59.4c.2,2.1-1.4,3.9-3.6,4.2-2.2.2-4.2-1.2-4.4-3.3s1.4-3.9,3.6-4.2c2.2-.2,4.2,1.2,4.4,3.3Z" style="fill:#223249; stroke-width:0px;"/><path d="m96.6,62c.2,1.9-1.3,3.6-3.4,3.9-2.1.2-3.9-1.1-4.1-3-.2-1.9,1.3-3.6,3.4-3.9,2.1-.2,3.9,1.1,4.1,3Z" style="fill:#223249; stroke-width:0px;"/><path d="m102.9,66.8c.2,1.6-.9,3-2.3,3.2-1.4.2-2.8-1-2.9-2.6-.2-1.6.8-3,2.3-3.2,1.4-.2,2.8,1,2.9,2.6Z" style="fill:#223249; stroke-width:0px;"/><path d="m100.8,64.1c.2,1.6-.8,3-2.3,3.2-1.4.2-2.8-1-2.9-2.6-.2-1.6.9-3,2.3-3.2,1.4-.2,2.8,1,2.9,2.6Z" style="fill:#223249; stroke-width:0px;"/><path d="m102.3,76.8c.2,1.7-1.4,3.3-3.5,3.5-2.1.2-4-1-4.2-2.7-.2-1.7,1.4-3.3,3.5-3.5,2.1-.2,4,1,4.2,2.7Z" style="fill:#223249; stroke-width:0px;"/><path d="m95.7,80.6c.2,1.7-1.4,3.2-3.5,3.4-2.1.2-3.9-.9-4.1-2.6s1.4-3.2,3.5-3.4c2.1-.2,3.9.9,4.1,2.6Z" style="fill:#223249; stroke-width:0px;"/><path d="m88,81.1c.2,1.9-1.3,3.6-3.4,3.8-2.1.2-3.9-1.1-4.1-3s1.3-3.6,3.4-3.8c2.1-.2,3.9,1.1,4.1,3Z" style="fill:#223249; stroke-width:0px;"/><path d="m81.1,79.7c.2,2-1.1,3.7-3,3.9s-3.6-1.2-3.8-3.2c-.2-2,1.1-3.7,3-3.9,1.9-.2,3.6,1.2,3.8,3.2Z" style="fill:#223249; stroke-width:0px;"/><path d="m75.8,76.2c.2,1.9-1.2,3.6-3.1,3.8s-3.6-1.1-3.8-3c-.2-1.9,1.2-3.6,3.1-3.8,1.9-.2,3.6,1.1,3.8,3Z" style="fill:#223249; stroke-width:0px;"/><path d="m74.5,69.4c.2,1.9-1.1,3.6-3,3.8-1.9.2-3.6-1.2-3.8-3.1-.2-1.9,1.1-3.6,3-3.8,1.9-.2,3.6,1.2,3.8,3.1Z" style="fill:#223249; stroke-width:0px;"/><path d="m76.8,64c.2,1.5-1.1,2.9-2.7,3.1-1.7.2-3.2-.9-3.3-2.4-.2-1.5,1.1-2.9,2.7-3.1,1.7-.2,3.2.9,3.3,2.4Z" style="fill:#223249; stroke-width:0px;"/><path d="m103.1,72.5c.2,1.5-1.1,2.9-2.7,3.1-1.7.2-3.2-.9-3.3-2.4-.2-1.5,1.1-2.9,2.7-3.1,1.7-.2,3.2.9,3.3,2.4Z" style="fill:#223249; stroke-width:0px;"/><path d="m95.7,78.3c-.2-1.7,1.3-3.4,3.3-3.9-.2-.4-.4-.8-.4-1.2,0-.7.1-1.3.4-1.9-.2-1,.3-1.9,1-2.7-.4-.5-.6-1.1-.7-1.8,0,0,0-.1,0-.2-1.2-.3-2.2-1.4-2.4-2.8-.7.7-1.6,1.2-2.7,1.3-2.2.2-4.2-1.1-4.6-3-.5.2-1,.4-1.6.5-2.3.2-4.3-1.1-4.8-3,0,2-1.7,3.8-4,4-1.3.1-2.5-.2-3.4-.9,0,.1,0,.2,0,.3.2,1.7-1.2,3.3-3.1,3.5-.3,0-.6,0-.8,0,.7.6,1.2,1.5,1.3,2.5.2,2.1-4.9,4.5-2.8,4.2s4.1,1.3,4.3,3.4c0,.4,0,.7,0,1.1.5-.4,1.1-.6,1.7-.7,2.1-.2,3.9,1.3,4.2,3.5.7-1,1.8-1.6,3.1-1.8,2.3-.3,4.4,1.3,4.6,3.4.2,2,1.7-3.2,4-3.5,2.4-.3,3.5,1.6,3.3-.4Z" style="fill:#09182b; stroke-width:0px;"/><path d="m81.5,60.3c0,0,0-.1,0-.2,0-.4-.1-.8-.4-1.1h.1c-.2-.3-.7-.5-1.1-.6-.4,0-.9,0-1.3,0-.4,0-.7,0-1,.3-.3.2-.5.6-.4.9,0,0,0,0,0,0s0,0,0,0c.4.1.9,0,1.3,0,.8,0,1.5.1,2.2.5.1,0,.3.2.4,0Z" style="fill:#1e3c59; stroke-width:0px;"/><path d="m74.3,62.8c0,0,0-.2,0-.3-.4-.4-1.1-.4-1.5-.2-.5.3-.8.8-.8,1.4v-.4c-.2.1-.1.3,0,.4.1.1.3.1.4,0,.2-.1.3-.4.4-.6.1-.2.2-.3.4-.3.3,0,.6,0,.9,0,0,0,.1,0,.1,0Z" style="fill:#1e3c59; stroke-width:0px;"/><path d="m69.4,68.3c.2-.4.5-.7.9-.8.1,0,.3,0,.3,0,0,0,0-.2,0-.3s-.2-.1-.3-.1c-.6,0-1.1.4-1.5.9-.1.2-.3.4-.3.6,0,.2,0,.5,0,.7,0,.3,0,.6.2.8h0c0,0,.2,0,.3,0,0,0,0-.2,0-.3,0-.4,0-.9.2-1.3Z" style="fill:#1e3c59; stroke-width:0px;"/><path d="m89.6,59.6c.3-.2.3-.6.1-.9s-.3-.5-.5-.8c-.1-.2-.2-.4-.3-.6-.1-.2-.4-.4-.6-.3h0c0,0,0,0-.2,0-.3,0-.6-.1-.8-.1-.3,0-.7,0-.9.3-.2.3,0,.6.2.9.2.2.5.3.8.5.5.3.8.7,1.3,1,.2.1.5.2.8,0Z" style="fill:#1e3c59; stroke-width:0px;"/><path d="m93.6,59.7c-.3-.1-.7-.2-1.1-.2-.4,0-.7.3-.8.7,0,.1,0,.3,0,.4.1.1.3.2.4.2,1.1.3,2.1.6,3.2,1h0c.1,0,0-.2,0-.3-.3-.9-1.1-1.5-1.9-1.9Z" style="fill:#1e3c59; stroke-width:0px;"/><path d="m71,74.4s-.2.2-.4.3c-.2.1-.3.3-.4.5-.3.5-.5,1.2-.3,1.8,0,.2.2.4.4.6.1.2.3.3.5.5.1,0,.3.1.4.1.2,0,.3-.2.4-.4,0-.2,0-.4,0-.6,0-.6-.1-1.1,0-1.7,0-.2,0-.5,0-.7,0-.2-.3-.4-.5-.4Z" style="fill:#1e3c59; stroke-width:0px;"/><path d="m78.8,81.4c-.1,0-.3-.1-.5-.2-.3-.1-.7-.3-.9-.6-.4-.4-.7-1-1.1-1.4-.1,0-.3,0-.4,0-.1.1-.2.3-.3.4-.1.3-.2.6-.1.9,0,.1,0,.2,0,.3,0,.1.2.2.3.3.4.3.8.6,1.2.9.1,0,.2.2.4.2.4.2.9,0,1.3-.3.2-.1.3-.2.3-.4,0-.2,0-.3-.2-.4Z" style="fill:#1e3c59; stroke-width:0px;"/><path d="m76.2,79.2s0,0,0,0c0,0,0,0,0,0h0Z" style="fill:#1e3c59; stroke-width:0px;"/><path d="m85.6,82.4c-.4-.2-.8-.3-1.1-.6-.4-.3-.8-.8-.8-1.3h-.2c-.3.3-.5.6-.8.9-.1.1-.3.3-.3.5,0,.2,0,.4,0,.6.2.5.6.9,1,1.1.5.3,1.1.5,1.6.3.4-.1.8-.5.9-.9,0,0,0-.1,0-.2,0-.2-.2-.3-.3-.4Z" style="fill:#1e3c59; stroke-width:0px;"/><path d="m92.6,80.5c-.2,0-.4.2-.6.4-.4.4-.7,1-.9,1.6h0c.2.2.4.2.6.2.4,0,.9-.3,1.2-.5.1,0,.2-.1.3-.2.1-.1.1-.3.2-.4,0-.3,0-.8-.2-1-.2-.1-.4-.1-.7,0Z" style="fill:#1e3c59; stroke-width:0px;"/><path d="m99.5,63.5c.2.3.3.7.6.9,0,0,0,0,.1,0,0,0,0,0,0,0,.2-.6-.2-1.1-.4-1.7-.1-.2-.2-.4-.4-.5-.4-.3-.9,0-1.3,0l.2.3c.5.2.9.5,1.1.9Z" style="fill:#1e3c59; stroke-width:0px;"/><path d="m101.9,68.5c0,0,.2,0,.3-.1.4-.8.2-1.9-.4-2.6h-.2c.1.9.2,1.8.3,2.6,0,0,0,.1,0,.2Z" style="fill:#1e3c59; stroke-width:0px;"/><path d="m101.8,71.2c0,.4-.1.7-.3,1,0,.2-.2.3-.3.5,0,.2,0,.4-.1.5,0,.2,0,.4.1.6.2.2.6.2.8,0,.4-.3.6-.9.6-1.4,0-.5-.3-1-.7-1.4l-.2.2Z" style="fill:#1e3c59; stroke-width:0px;"/><path d="m99.8,75.5s-.6,1.2-.9,1.7c-.2.3-.1.8,0,1.2,0,0,0,.2,0,.2,0,0,.2.1.3.1.6.2,1.2,0,1.7-.4.1,0,.2-.2.3-.3,0-.1,0-.3.1-.4,0-.5.1-1.1-.2-1.5-.3-.4-.8-.5-1.3-.6Z" style="fill:#1e3c59; stroke-width:0px;"/><path d="m81.5,66.5c.2,1.7-1.3,3.3-3.3,3.5-2,.2-3.8-1-4-2.7s1.3-3.3,3.3-3.5c2-.2,3.8,1,4,2.7Z" style="fill:#243951; stroke-width:0px;"/><path d="m87.6,65.8c.2,1.9-1.2,3.5-3.1,3.7-1.9.2-3.6-1.1-3.8-3-.2-1.9,1.2-3.5,3.1-3.7,1.9-.2,3.6,1.1,3.8,3Z" style="fill:#243951; stroke-width:0px;"/><path d="m84.7,75.7c.2,1.9-.9,3.6-2.5,3.7-1.6.2-3.1-1.2-3.3-3.1-.2-1.9.9-3.6,2.5-3.7,1.6-.2,3.1,1.2,3.3,3.1Z" style="fill:#243951; stroke-width:0px;"/><path d="m91.4,75.3c.2,2.1-1.3,3.9-3.3,4.1-2.1.2-3.9-1.2-4.1-3.3-.2-2.1,1.3-3.9,3.3-4.1,2.1-.2,3.9,1.3,4.1,3.3Z" style="fill:#243951; stroke-width:0px;"/><path d="m80.4,72.8c.2,1.9-1.3,3.6-3.3,3.8-2.1.2-3.9-1.1-4.1-3-.2-1.9,1.3-3.6,3.3-3.8,2-.2,3.9,1.1,4.1,3Z" style="fill:#243951; stroke-width:0px;"/><path d="m92.5,64.6c.2,1.5-1.1,2.9-2.7,3.1s-3.2-.9-3.3-2.4c-.2-1.5,1.1-2.9,2.7-3.1,1.7-.2,3.2.9,3.3,2.4Z" style="fill:#243951; stroke-width:0px;"/><path d="m97.4,67.8c.2,1.5-1.1,2.9-2.7,3.1-1.7.2-3.2-.9-3.3-2.4-.2-1.5,1.1-2.9,2.7-3.1,1.7-.2,3.2.9,3.3,2.4Z" style="fill:#243951; stroke-width:0px;"/><path d="m96.1,75.2c.2,1.5-1.1,2.9-2.7,3.1-1.7.2-3.2-.9-3.3-2.4-.2-1.5,1.1-2.9,2.7-3.1,1.7-.2,3.2.9,3.3,2.4Z" style="fill:#243951; stroke-width:0px;"/><path d="m98.2,71.9c.2,1.5-1.1,2.9-2.7,3.1-1.7.2-3.2-.9-3.3-2.4-.2-1.5,1.1-2.9,2.7-3.1,1.7-.2,3.2.9,3.3,2.4Z" style="fill:#243951; stroke-width:0px;"/><path d="m90,66.3c-1-.1-2-1-2.7-1.8-.4,2.1-1.3,2.7-3,2.9-1.6.2-2.7-.2-3.5-2.1-.5,1.7-2.8,3.8-4.4,4.4,0,0,0,0,0,0,1.4.8,2.3,2.1,2.5,4.4,0,.1,0,1.2,0,1.3.3-.3,1.6-.8,2-.8,1.3-.1,2.4.5,3.2,1.8.8-1.6,1.7-2.4,3.3-2.6,1.7-.2,3,0,3.9,2.1.4-.6,1.6-1.1,2.2-1.4,0-.1-.8-.9-.8-1-.1-1.3-.8-2.6,1.4-3.8-.9-.8-2-1.3-1.8-2.9.1-1.1-.4-.2-2.2-.5Z" style="fill:#09182b; stroke-width:0px;"/><path d="m85.6,70.5c.2,2.1-1.3,3.9-3.3,4.1-2.1.2-3.9-1.2-4.1-3.3-.2-2.1,1.3-3.9,3.3-4.1,2.1-.2,3.9,1.3,4.1,3.3Z" style="fill:#1e3c59; stroke-width:0px;"/><path d="m92.6,69.8c.2,1.9-1.3,3.6-3.3,3.8-2.1.2-3.9-1.1-4.1-3-.2-1.9,1.3-3.6,3.3-3.8,2.1-.2,3.9,1.1,4.1,3Z" style="fill:#1e3c59; stroke-width:0px;"/><path d="m85.6,65c0-.3,0-.7-.3-.9-.1-.1-.3-.2-.5-.3h.3s0,0-.1,0c0,0-.2,0-.2,0-.3,0-.7,0-1,0-.2,0-.5,0-.7.2-.2.1-.2.4-.2.6,0,.1,0,.3,0,.4,0,.2.2.3.4.4.2.2.5.3.7.4.2,0,.4,0,.6,0,.2,0,.5,0,.7-.1.2-.1.4-.3.5-.5Z" style="fill:#234968; stroke-width:0px;"/><path d="m90.7,63.8c-.2-.2-.5-.4-.8-.6,0,0-.4,0-.8,0,0,0-.1,0-.2,0-.2,0-.2.3,0,.5.1.2.3.3.5.5.3.2.6.4.9.6.2.1.5.3.7.2,0,0,0,0,0,0,0,0,0-.1,0-.2,0-.2,0-.5-.1-.7,0,0-.1-.2-.2-.2Z" style="fill:#234968; stroke-width:0px;"/><path d="m78.2,64.7s-.3,0-.5,0c-.2,0-.4,0-.6,0-.3,0-.6.1-.9.3-.3.2-.5.5-.4.8,0,.1,0,.3.2.3,0,0,.2,0,.3,0,.5,0,1-.1,1.5-.2.3,0,.7,0,1-.3,0,0,0,0,.1,0,0,0,0,0,0-.1,0-.4-.4-.6-.7-.7Z" style="fill:#234968; stroke-width:0px;"/><path d="m75.4,71.1v.2c-.7.1-1.3.6-1.4,1.2-.2.6,0,1.3.4,1.7.1.1.3.3.5.3.1,0,.2,0,.3,0,.2,0,.4,0,.5-.3,0,0,0-.1,0-.2,0-.7-.2-1.5-.1-2.2,0-.1,0-.3,0-.4,0-.1-.1-.3-.2-.3Z" style="fill:#234968; stroke-width:0px;"/><path d="m95.2,68.2c0,.2,0,.3.2.4.2,0,.4,0,.5-.2,0,0,.1-.1.1-.2,0,0,0-.1,0-.2,0-.3-.1-.6-.2-.9,0-.1,0-.2-.1-.3,0,0-.1-.1-.2-.2-.3-.2-.6-.2-1-.1h.2c-.1-.2-.3-.1-.4,0,0,0,0,0,0,0,0,0,0,0,0,0,.1.4.4.7.6,1,.1.2.2.4.3.7Z" style="fill:#234968; stroke-width:0px;"/><path d="m96.6,72.1c0-.3-.1-.6-.3-.8-.2-.2-.5-.4-.8-.3v.2c.1.3,0,.7-.2,1,0,0-.2.2-.2.3,0,0,0,.2,0,.2,0,.3.4.6.8.6.3,0,.6-.3.7-.6,0-.2,0-.3,0-.5Z" style="fill:#234968; stroke-width:0px;"/><path d="m81.6,76.9c-.4-.1-.8-.3-1.2-.6h0c-.2.6,0,1.3.6,1.6.5.3,1.1.2,1.7.2.1,0,.3,0,.4-.2,0-.1,0-.3-.1-.5-.3-.4-.9-.4-1.4-.5Z" style="fill:#234968; stroke-width:0px;"/><path d="m89.4,76.1c-.2,0-.4,0-.5.1-.7.2-1.5.2-2-.3l-.3.3c-.1.3.2.6.4.8.7.5,1.5.6,2.3.4.3,0,.6-.2.7-.5.2-.2.2-.6,0-.8-.1-.1-.3-.2-.5-.1Z" style="fill:#234968; stroke-width:0px;"/><path d="m94.5,75.3c-.1,0-.2,0-.3.1-.4.4-.8.7-1.2,1.1-.2.2-.4.4-.5.7,0,.1,0,.2.1.3,0,0,.1,0,.2,0,.8.1,1.6-.3,2-1,0-.2.1-.4.1-.6,0-.2-.1-.4-.3-.5v-.2Z" style="fill:#234968; stroke-width:0px;"/><path d="m82.7,71.6c-.3-.2-.6-.1-.9-.3-.3-.2-.5-.5-.6-.9-.2-.5-.4-1-.2-1.5-.3,0-.7.2-.7.2-.3.4-.6.8-.7,1.3,0,.5,0,1,.4,1.4.2.2.5.4.8.5.7.3,1.4.4,2.1.1,0,0,.2,0,.2-.1,0,0,0-.1,0-.2-.1-.2-.2-.4-.4-.5Z" style="fill:#2d567f; stroke-width:0px;"/><path d="m89.9,68.5c-.5-.3-1.1-.5-1.6-.6-.4,0-.7.3-1,.5-.4.2-.7.6-.8,1,0,0,0,.1,0,.2,0,0,0,0,.1,0,.5,0,1,0,1.4-.1.4,0,.8-.2,1.2,0,.3.2.5.7.9.7.3,0,.5-.2.5-.5,0-.2,0-.5-.2-.7-.2-.2-.4-.3-.6-.5Z" style="fill:#2d567f; stroke-width:0px;"/><path d="m88.7,67.9h-.9c.2,0,.3,0,.5,0,.1,0,.2,0,.4,0Z" style="fill:#214868; stroke-width:0px;"/><path d="m80.7,68.7c-.5.4-.9.9-.6,1.6.2.6.6-.4,1.3-.5.4,0,.9,0,1.1.2.6.4,1.2-.7.5-1.1-.7-.4-1.5-.7-2.2-.2Z" style="fill:#a6c6e7; stroke-width:0px;"/><path d="m62.4,28.3c-.6-.1-1.3,0-1.6.5-.3.6.7.3,1.2.7.3.3.5.7.5,1,0,.7,1.3.5,1.2-.4,0-.8-.4-1.6-1.3-1.8Z" style="fill:#a6c6e7; stroke-width:0px;"/><path d="m88.2,67.7c-.5.1-.9.4-1,.9,0,.5.6,0,1.1,0,.3.1.6.3.7.5.3.5,1.1,0,.7-.7-.3-.5-.9-1-1.5-.9Z" style="fill:#a6c6e7; stroke-width:0px;"/><path d="m61.9,22.6c-.8-.9-2.5-.3-2.5,1,0,.5.9-.7,1.5-.3.8.6,1.5-.1,1-.6Z" style="fill:#a6c6e7; stroke-width:0px;"/><path d="m80.4,58.3c-.8-.9-2.5-.3-2.5,1,0,.5.9-.7,1.5-.3.8.6,1.5-.1,1-.6Z" style="fill:#a6c6e7; stroke-width:0px;"/><path d="m68.2,27c.2-.8-.7-1.6-1.5-1.2-.3.2.7.3.7.8,0,.7.6.8.7.4Z" style="fill:#a6c6e7; stroke-width:0px;"/><path d="m90.1,64.2c.2-.8-.7-1.6-1.5-1.2-.3.2.7.3.7.8,0,.7.6.8.7.4Z" style="fill:#a6c6e7; stroke-width:0px;"/><path d="m67.4,20.8c.4.5,1.2.2.9-.2-.2-.3-.4-.4-.7-.7-.5-.4-1.3,0-.7.4.2.2.4.3.5.5Z" style="fill:#a6c6e7; stroke-width:0px;"/><path d="m74.5,24c-.3-.4-1.2-.2-.9.4.2.4.4.6.6.9.2.3,1,0,1-.3,0-.5-.4-.7-.7-1Z" style="fill:#a6c6e7; stroke-width:0px;"/><path d="m86.9,57.5c-.3-.4-1.2-.2-.9.4.2.4.4.6.6.9.2.3,1,0,1-.3,0-.5-.4-.7-.7-1Z" style="fill:#a6c6e7; stroke-width:0px;"/><path d="m55.1,27.9c0,0,.1.2.2.2.4.5,1.1-.7.7-1.2,0,0-.1-.2-.2-.2-.4-.5-1.1.7-.7,1.2Z" style="fill:#a6c6e7; stroke-width:0px;"/><path d="m83.6,64.8c0,0,.1.2.2.2.4.5,1.1-.7.7-1.2,0,0-.1-.2-.2-.2-.4-.5-1.1.7-.7,1.2Z" style="fill:#a6c6e7; stroke-width:0px;"/><path d="m60.8,19.3c0,0,.2,0,.3-.1.6-.3-.4-1.2-.9-1,0,0-.2,0-.3.1-.6.3.4,1.2.9,1Z" style="fill:#a6c6e7; stroke-width:0px;"/><path d="m53.5,20.3c0,.1,0,.2,0,.3-.1.6,1.2.4,1.3-.1,0-.1,0-.2,0-.3.1-.6-1.2-.4-1.3.1Z" style="fill:#a6c6e7; stroke-width:0px;"/><path d="m50.1,28c0,0,.2.1.3.2.6.3.8-1,.3-1.3,0,0-.2-.1-.3-.2-.6-.3-.8,1-.3,1.3Z" style="fill:#a6c6e7; stroke-width:0px;"/><path d="m51.8,34.6c0,0,.1.1.1.2.3.4.8-.5.5-.8,0,0-.1-.1-.1-.2-.3-.4-.8.5-.5.8Z" style="fill:#a6c6e7; stroke-width:0px;"/><path d="m72.5,63.6c0,0,.1.1.1.2.3.4.8-.5.5-.8,0,0-.1-.1-.1-.2-.3-.4-.8.5-.5.8Z" style="fill:#a6c6e7; stroke-width:0px;"/><path d="m75,73.1c0,0,.1.1.1.2.3.4.8-.5.5-.8,0,0-.1-.1-.1-.2-.3-.4-.8.5-.5.8Z" style="fill:#a6c6e7; stroke-width:0px;"/><path d="m86.5,76.4c0,0,.1.1.1.2.3.4.8-.5.5-.8,0,0-.1-.1-.1-.2-.3-.4-.8.5-.5.8Z" style="fill:#a6c6e7; stroke-width:0px;"/><path d="m69.7,68.3c0,0,0,.2,0,.2,0,.5.9,0,.9-.4,0,0,0-.2,0-.2,0-.5-.9,0-.9.4Z" style="fill:#a6c6e7; stroke-width:0px;"/><path d="m93,61.7c0,0,.2,0,.2,0,.5,0,0-.9-.4-.9,0,0-.2,0-.2,0-.5,0,0,.9.4.9Z" style="fill:#a6c6e7; stroke-width:0px;"/><path d="m57.2,34.2s0,0-.1,0c-.3.1.2.9.6.7,0,0,0,0,.1,0,.3-.1-.2-.9-.6-.7Z" style="fill:#a6c6e7; stroke-width:0px;"/><path d="m61.6,38.2s0,0-.1,0c-.3.1.2.9.6.7,0,0,0,0,.1,0,.3-.1-.2-.9-.6-.7Z" style="fill:#a6c6e7; stroke-width:0px;"/><path d="m56.5,40s0,0,0,0c-.2,0,.1.5.4.4,0,0,0,0,0,0,.2,0-.1-.5-.4-.4Z" style="fill:#a6c6e7; stroke-width:0px;"/><path d="m70.6,39.7s0,0,0,0c-.2,0,.1.5.4.4,0,0,0,0,0,0,.2,0-.1-.5-.4-.4Z" style="fill:#a6c6e7; stroke-width:0px;"/><path d="m72.5,30.1c0,0,0,0-.1,0-.3,0-.3.9.1,1,0,0,0,0,.1,0,.3,0,.3-.9-.1-1Z" style="fill:#a6c6e7; stroke-width:0px;"/><path d="m68.6,33.3c-.1-.5-1.5-.2-1.3.4,0,.3.2.7.3,1,.2.5,1.5.1,1.3-.4-.1-.3-.2-.6-.3-1Z" style="fill:#a6c6e7; stroke-width:0px;"/><path d="m77.5,64.9c-.1-.5-1.5-.2-1.3.4,0,.3.2.6.3,1,.2.5,1.5.1,1.3-.4-.1-.3-.2-.6-.3-1Z" style="fill:#a6c6e7; stroke-width:0px;"/><path d="m46.5,68.1c-.4.5-.6,1.1-.2,1.7.3.5.5-.5,1.1-.8.4-.1.9-.1,1.1,0,.7.2,1-.9.2-1.2-.7-.3-1.7-.3-2.2.3Z" style="fill:#a6c6e7; stroke-width:0px;"/><path d="m53.5,65.3c-.4.2-.8.6-.7,1.1,0,.5.5-.2,1.1-.2.3,0,.7.2.8.3.4.4,1-.4.5-.8-.4-.4-1.1-.8-1.7-.5Z" style="fill:#a6c6e7; stroke-width:0px;"/><path d="m43.6,58.1c-1-.6-2.5.3-2.2,1.5.1.5.7-.9,1.4-.7.9.4,1.4-.5.8-.9Z" style="fill:#a6c6e7; stroke-width:0px;"/><path d="m54.5,61.5c0-.8-1.1-1.4-1.7-.8-.3.3.8,0,.9.6,0,.7.8.7.8.2Z" style="fill:#a6c6e7; stroke-width:0px;"/><path d="m49.7,55.8c-.4-.3-1.2.1-.8.6.3.3.5.5.8.8.3.2,1-.2.9-.5-.2-.4-.5-.6-.9-.8Z" style="fill:#a6c6e7; stroke-width:0px;"/><path d="m48.3,63.6c0,0,.2.1.3.2.5.4.9-.9.4-1.3,0,0-.2-.1-.3-.2-.5-.4-.9.9-.4,1.3Z" style="fill:#a6c6e7; stroke-width:0px;"/><path d="m37.3,65.1c0,0,.1,0,.2.1.4.3.6-.7.3-.9,0,0-.1,0-.2-.1-.4-.3-.6.7-.3.9Z" style="fill:#a6c6e7; stroke-width:0px;"/><path d="m42,73.7c0,0,.1,0,.2.1.4.3.6-.7.3-.9,0,0-.1,0-.2-.1-.4-.3-.6.7-.3.9Z" style="fill:#a6c6e7; stroke-width:0px;"/><path d="m54,74.1c0,0,.1,0,.2.1.4.3.6-.7.3-.9,0,0-.1,0-.2-.1-.4-.3-.6.7-.3.9Z" style="fill:#a6c6e7; stroke-width:0px;"/><path d="m35.7,70.4c0,0,0,.1,0,.2.2.4.9-.2.8-.6,0,0,0-.1,0-.2-.2-.4-.9.2-.8.6Z" style="fill:#a6c6e7; stroke-width:0px;"/><path d="m56.7,58.3c0,0,.1,0,.2,0,.4-.2-.2-.9-.6-.8,0,0-.1,0-.2,0-.4.2.2.9.6.8Z" style="fill:#a6c6e7; stroke-width:0px;"/><path d="m42.5,65.2c-.3-.5-1.5.2-1.2.7.2.3.3.6.5.9.3.5,1.5-.2,1.2-.7-.2-.3-.4-.6-.5-.9Z" style="fill:#a6c6e7; stroke-width:0px;"/><text transform="translate(44.8 104.2) rotate(16.4)" style="fill:#163768; font-family:MyriadPro-Regular, &apos;Myriad Pro&apos;; font-size:19.8px;"><tspan x="0" y="0">А</tspan></text><text transform="translate(58 107.9) rotate(7.5)" style="fill:#163768; font-family:MyriadPro-Regular, &apos;Myriad Pro&apos;; font-size:19.8px;"><tspan x="0" y="0">ж</tspan></text><text transform="translate(72.3 109.7) rotate(-.4)" style="fill:#163768; font-family:MyriadPro-Regular, &apos;Myriad Pro&apos;; font-size:19.8px;"><tspan x="0" y="0">ы</tspan></text><text transform="translate(86.6 109.5) rotate(-7.7)" style="fill:#163768; font-family:MyriadPro-Regular, &apos;Myriad Pro&apos;; font-size:19.8px;"><tspan x="0" y="0">н</tspan></text><text transform="translate(98.7 107.9) rotate(-16.3)" style="fill:#163768; font-family:MyriadPro-Regular, &apos;Myriad Pro&apos;; font-size:19.8px;"><tspan x="0" y="0">ы</tspan></text></g></svg>