<?xml version="1.0" encoding="UTF-8"?><svg id="_Слой_2" xmlns="http://www.w3.org/2000/svg" viewBox="0 0 112.3 140.2"><g id="_парэ́чкі"><path d="m60.7,74.7c1.3.2,2.6.2,3.9,0l4.3-.3c.2,3.6,1.5,7.1,3.7,10l1.9,2.6c.6.8,1.2,1.5,1.9,2.2,2.1,2.1,3.7,4.5,4.9,7.2,1.1-2.7,2.7-5.2,4.7-7.4.7-.7,1.3-1.5,1.9-2.3l1.8-2.6c2.1-3,3.3-6.5,3.4-10.1l4.3.2c1.3,0,2.6,0,3.9-.2l3.9-.6v-3.4c0-2-.2-4-.6-5.9,0-.4-.1-.9-.2-1.3-.5-3-1.5-6-2.9-8.7,0,0,0,0,0-.1-1.1-2-2.5-3.8-4.2-5.2l-.4-.4c-2-1.6-4.5-2.3-7-1.8h0c-2.2.4-4.1,1.7-5.3,3.5l-2,3.8c-.3.7-1,1-1.8,1-.7,0-1.4-.3-1.8-.9l-2.1-3.8c-1.3-1.8-3.2-3-5.4-3.4h0c-2.5-.4-5,.4-7,2l-.4.4c-1.7,1.5-3.1,3.3-4.1,5.3h0c-1.4,2.9-2.3,5.8-2.7,8.9,0,.4-.1.9-.2,1.3-.3,2-.4,3.9-.4,5.9v3.4s4,.5,4,.5Z" style="fill:#23a009; stroke-width:0px;"/><path d="m80.7,55.1h0c.7,0,1.4-.3,1.8-1l2-3.8c1.2-1.8,3.1-3.1,5.3-3.5h0c2.5-.4,5.1.2,7,1.8l.4.4c1.7,1.4,3.2,3.2,4.2,5.2,0,0,0,0,0,.1,1.4,2.7,2.4,5.6,2.9,8.7,0,.4.1.9.2,1.3.3,2,.5,3.9.5,5.9v3.4s-3.8.6-3.8.6c-1.3.2-2.6.3-3.9.2l-4.3-.2h0c-.1,3.6-1.3,7.1-3.4,10.1l-1.8,2.6c-.6.8-1.2,1.6-1.9,2.3h0c-2,2.1-3.6,4.6-4.7,7.4h0l-.6-41.5Z" style="fill:#23a009; stroke-width:0px;"/><path d="m99.2,70.2c-.1-.1-.3-.3-.4-.1,0,0,0,0,0,.1,0,1.4,0,2.8.3,4.1.8,0,1.5,0,2.3-.2l2.2-.3c-1.7-.8-3.2-2.1-4.3-3.6Z" style="fill:#8ca101; stroke-width:0px;"/><path d="m83,85.7c0-.2-.3-.5-.5-.4-.2,0-.2.3-.2.5,0,1.5,0,3.1.3,4.6,0,.5.2.9.2,1.4,0,.4,0,.8,0,1.2,0,.3,0,.6,0,.8.7-1.2,1.5-2.3,2.3-3.4,0-.2-.1-.3-.2-.5-.6-1.4-1.2-2.8-1.8-4.2Z" style="fill:#8ca101; stroke-width:0px;"/><path d="m85.9,79.4c-.7-1.6-1.8-3.3-3.5-3.8.7,1.4.8,3,.3,4.4-.1.4-.2.9.1,1.1.1,0,.2,0,.3,0,.5,0,.9.5,1.2.9,1.5,1.9,2.2,4.4,2,6.8.6-.6,1.1-1.3,1.6-1.9l.2-.4c0-.5-.1-1-.3-1.5-.5-2-1.1-3.9-1.9-5.7Z" style="fill:#8ca101; stroke-width:0px;"/><path d="m89.1,72.7c-.1-.4-.2-.9-.5-1.3-.2-.4-.5-.8-.8-1.1-.6-.8-1.2-1.5-1.8-2.3-.4-.5-.9-1.1-1.5-1.5-.6-.4-1.4-.5-2-.1.3,1.1.4,2.2.3,3.3-.2,1.1-.5,2.3.2,3.1.3.3.8.5,1.2.7.6.2,1.1.4,1.7.6.3.1.6.2.9.5.3.3.4.8.5,1.2.3.9.8,1.8,1,2.7.1.5.1,1,.2,1.5.1,1.6.4,3.2.9,4.7l.4-.5c.6-.9,1.2-1.9,1.7-2.9,0,0,0-.1,0-.2-.7-2.8-1.4-5.7-2.2-8.5Z" style="fill:#8ca101; stroke-width:0px;"/><path d="m95.7,66.8c0-.2.1-.3.1-.5,0-.1,0-.2-.2-.4-.4-.7-.9-1.3-1.5-1.8-.7,3.1.2,6.2,1.1,9.2,0,.3.2.6.3.8h1.8c0,0,0,0,0,0-.9-1.4-1.3-3-1.7-4.6-.2-.9-.5-1.9-.1-2.9Z" style="fill:#8ca101; stroke-width:0px;"/><path d="m89.6,67.2c.2.4.4.8.7,1.2.6.7,1.1,1.5,1.7,2.2,0-.1-.1-.3-.2-.4-.2-.6-.2-1.3-.2-1.9,0-1.6,0-3.2.2-4.8,0-.2,0-.5,0-.7,0-.2-.2-.3-.3-.4-.4-.4-.9-.8-1.3-1.2-.9,1.4-.8,3.2-.7,4.9,0,.4,0,.8.2,1.1Z" style="fill:#8ca101; stroke-width:0px;"/><path d="m84.2,63.4c0,.2.3.3.4.3.7.4,1.4.8,2,1.2-.4-1.3-.3-2.8.3-4,.3-.5.6-1,.5-1.6-.1-.5-.6-.8-1.1-1.1-.4-.2-.7-.4-1.1-.6-.1,0-.2-.1-.4,0-.1,0-.1.2-.2.3-.2.8-.3,1.7-.5,2.5-.2.9-.3,1.7-.2,2.6,0,.1,0,.2,0,.4Z" style="fill:#8ca101; stroke-width:0px;"/><path d="m101.6,67c-.4-.1-.9-.3-1.2,0,2,1.2,3.1,3.5,4.7,5.1v-1.9c0-.6,0-1.3-.1-1.9-.1,0-.2,0-.3-.1-1-.4-2.1-.7-3.1-1.1Z" style="fill:#8ca101; stroke-width:0px;"/><path d="m96.2,62.1c0,0,0,.2.2.2.5.5,1,.9,1.5,1.4.1.1.3.3.5.4.3.2.7.2,1.1.2,2,0,3.9.8,5.5,2,0-.7-.2-1.4-.3-2.1,0-.2,0-.4,0-.6-2.5-.7-5.1-1.3-7.6-1.8-.3,0-.7,0-.6.3Z" style="fill:#8ca101; stroke-width:0px;"/><path d="m97.7,57.5c-.6-.1-1.2-.3-1.8-.3-.5,0-1.1.2-1.6.3-.7.2-1.5.4-2.2.6,0,0-.1,0-.1,0,0,0,0,.2.1.3.6.5,1.3,1.1,1.9,1.6.1,0,.2.2.3.2.3,0,.5,0,.8-.2,1.3-.6,2.8-.3,4.2.2,1.3.5,2.6,1.3,3.9,1.7.4.1.8.3,1.2.4-.2-1-.4-2-.7-3-.7-.6-1.6-.9-2.6-1.1-1.1-.3-2.2-.5-3.4-.8Z" style="fill:#8ca101; stroke-width:0px;"/><path d="m94.6,52.1c-1.2,0-2.3.5-3.4.9-1.2.5-2.4,1-3.6,1.5-.1,0-.2.1-.3.2,0,.2,0,.3.2.5.6.6,1.3,1.2,2.1,1.2.5,0,.9-.2,1.4-.3,1.6-.6,3.3-1.2,5-1.2,2.5,0,4.8,1.1,6.9,2.5-.4-1.1-.9-2.1-1.4-3.1,0,0,0,0,0-.1-.1-.2-.3-.4-.4-.7-.5-.1-1-.2-1.5-.2-1.7-.3-3.3-1.2-5-1.2Z" style="fill:#8ca101; stroke-width:0px;"/><path d="m89.8,47.7c-.3,0-.7,0-1,.3-.4.2-.6.6-.9,1-.7.8-1.8,1.3-2.6,2-.4.3-.7.8-.8,1.3,0,.5.5,1.1,1,.9.2,0,.4-.2.6-.4,1.4-1.4,3.3-2.1,5.2-2.5.9-.2,1.9-.4,2.8-.3.9,0,1.8.4,2.7.7.9.3,1.8.7,2.6,1,.1,0,.3.1.4.2-.8-1-1.7-2-2.7-2.9l-.4-.3c-2.2-.9-4.6-1.2-6.9-1Z" style="fill:#8ca101; stroke-width:0px;"/><path d="m58.5,72.4c-1.6,1.4-.9,1.3.5.3,1.9-1.3,3.2-2.9,5.4-5.5.1,1.5.3,3.6-.2,5.2-.5,1.6,0,1.5.2.8,1.1-2.8,1.2-4.1.7-6.5,0,0,2-2.3,2.8-3.1.9,1,1,5.4.5,7.2-.9,3-.2,2.9.5.7.5-1.6.7-2.2.7-3.9,0-1.9-.3-3.4-.8-4.8,0,0,1-1,1.3-1.2.7-.6,1.6-1.3,2.4-1.8.8,2.9.8,5,1,5.9.2.8.1,1.9.3,2.4-1.4,1.5-2.6,3.7-3.1,6.5-.6,3.7,0,3.9.8.3.9-4.7,4.7-7.8,8.9-10,0,3.1,0,5.6.1,8.7-3,.4-6,4-6.4,7.4-.5,4,.3,3.5.7.1.4-2.9,2.9-5.7,5.8-6.5,0,2.6.1,5.1.1,7.7-2,1-2.9,2.8-3.1,4.8-.2,2.2.3,2.6.5.3.2-1.6,1.3-3.7,2.6-3.9.1,5.4.3,6.1.3,11.5,0,.2.2.4.4.5h0s0,0,0,0c.2-.1.4-.3.4-.5-.1-5.4,0-6.1,0-11.5,1.3.1,2.5,2.2,2.7,3.8.3,2.3.8,1.8.5-.4-.3-2-1.2-3.7-3.2-4.7,0-2.6,0-5.1,0-7.7,2.9.7,5.5,3.5,6,6.4.5,3.3,1.3,3.9.7-.1-.5-3.5-3.6-6.9-6.6-7.3,0-3.1,0-5.6,0-8.7,4.2,2.1,8.1,5.1,9.1,9.8.8,3.6,1.5,3.4.7-.3-.6-2.8-1.9-4.9-3.3-6.4.1-.5,0-1.6.2-2.4.2-.9.2-3,.9-5.9.8.5,1.7,1.2,2.4,1.8.3.2,1.3,1.2,1.3,1.2-.5,1.5-.7,2.9-.7,4.9,0,1.7.2,2.3.8,3.9.8,2.2,1.5,2.3.5-.7-.6-1.8-.6-6.2.3-7.2.8.8,2.9,3.1,2.9,3.1-.4,2.4-.3,3.8.9,6.5.3.7.7.8.2-.8-.5-1.6-.4-3.6-.4-5.1,2.3,2.5,3.6,4.1,5.5,5.3,1.5.9,2.1,1,.5-.3-2.1-1.7-3.5-3.7-5.1-5.8,1.3,0,2.4,0,3.5.5,1.4.6,2.9,1.2,1.2,0-1.5-1-3.2-1.4-4.9-1.3,0,0-.2,0-.4,0,0-.1-.2-.2-.3-.3-.9-1.1-1.6-1.8-2.6-2.8,2.1-1.2,6.6,0,7.9,1.1.3.3.5,0,.1-.5-.9-.9-3.2-1.5-4.6-1.6-1.8-.2-2.3-.1-3.8.3,0,0-.2,0-.4.1-.4-.4-.9-.8-1.4-1.2-.8-.7-1.7-1.3-2.6-2,1.2-.4,2.1-.9,3.4-1.2,2.1-.5,4.4-.8,6.4.3,1.6.9,2.1.8.8-.2-1.5-1.2-3.9-1.7-5.7-1.3-1.4.3-1.8.3-3.3.7-1,.3-1.6.5-2.5.9-.8-.6-1.7-1.1-2.5-1.8-.2-.2-.4-.3-.6-.5.4-.5.8-1,1.3-1.3.9-.5,1.6-1,2.7-1.4,2-.8,4-1.4,6.1-.6,2.3,1,2.8.7,1.1-.3-1.9-1.1-3.2-1.2-5.2-.8-.9.2-2.3.7-3.1,1.2-1.3.7-2.1,1-3.7,2.3-.6-.7-1.2-1.4-1.7-2.1l-.8,1.6c.5.6,1,1.2,1.6,1.8-1,1.5-1.3,2.9-1.5,4.4-.2,1.2,0,2.3.2,3.5-.2,0-1.3-.6-1.5-.6,0-2.6,0-5.2-.2-7.8-.2,0-.4,0-.6,0h0c-.2,0-.5,0-.6,0,0,2.6,0,5.2,0,7.8-.2,0-1.3.6-1.4.7.1-1.2.3-2.3.1-3.5-.2-1.4-.6-2.8-1.6-4.3.6-.6,1.1-1.2,1.6-1.8l-.9-1.6c-.5.7-1.1,1.5-1.7,2.2-1.7-1.3-2.5-1.6-3.8-2.2-.9-.4-2.2-.9-3.1-1.1-2-.4-3.3-.3-5.2.9-1.7,1-1.1,1.3,1.1.3,2-.9,4.1-.4,6.1.4,1.1.4,1.8.8,2.8,1.3.5.3.9.7,1.4,1.2-.2.2-.4.4-.6.5-.8.6-1.6,1.2-2.4,1.8-1-.4-1.5-.6-2.5-.9-1.5-.4-1.9-.4-3.3-.7-1.8-.4-4.3.2-5.7,1.4-1.2,1-.7,1.2.8.2,2-1.2,4.3-.9,6.4-.5,1.2.2,2.2.7,3.4,1.1-.9.6-1.7,1.3-2.6,2-.5.4-.9.8-1.3,1.2-.2,0-.3,0-.4,0-1.5-.4-2-.4-3.8-.2-1.3.2-3.7.9-4.5,1.8-.4.5-.2.8.1.5,1.4-1.1,5.7-2.5,7.9-1.3-1,1-1.7,1.8-2.5,2.9,0,.1-.2.2-.3.4-.1,0-.3,0-.4,0-1.8,0-3.5.4-4.9,1.4-1.7,1.3-.2.6,1.2,0,1.1-.5,2.2-.6,3.5-.6-1.5,2.1-2.8,4.2-4.9,5.9Zm24.8-11c0-2,1.1-4.6,1.6-5,.6.4,2.6,1.8,3.2,2.2-.5,3-.6,6-.3,8.7,0,0-3-2.7-4.7-3.6.4-1.1.2-1.8.2-2.3Zm-6.8-4.9c.5.4,1.7,2.9,1.7,4.9,0,.5-.1,1.2.3,2.3-1.7.9-4.6,3.7-4.6,3.7.2-2.7,0-5.7-.6-8.7.6-.4,2.6-1.8,3.2-2.3Z" style="fill:#169703; stroke-width:0px;"/><path d="m62.7,70.8c0-.1.3-.3.4-.1,0,0,0,0,0,.1,0,1.4.1,2.8-.2,4.1-.8,0-1.5,0-2.3-.1l-2.2-.3c1.7-.9,3.1-2.2,4.2-3.7Z" style="fill:#8ca101; stroke-width:0px;"/><path d="m79.3,85.7c0-.2.3-.5.5-.4.2,0,.2.3.3.5.1,1.5,0,3.1-.2,4.6,0,.5-.1.9-.2,1.4,0,.4,0,.8,0,1.2,0,.3,0,.6,0,.8-.7-1.2-1.5-2.3-2.4-3.3,0-.2.1-.3.2-.5.6-1.4,1.1-2.8,1.7-4.3Z" style="fill:#8ca101; stroke-width:0px;"/><path d="m76.2,79.5c.7-1.6,1.7-3.4,3.4-3.9-.6,1.4-.7,3-.2,4.4.1.4.3.9,0,1.1-.1,0-.2,0-.3,0-.5,0-.9.5-1.1.9-1.4,2-2.1,4.4-1.8,6.8-.6-.6-1.1-1.2-1.6-1.9l-.3-.3c0-.5.1-1,.2-1.5.4-2,1-3.9,1.8-5.8Z" style="fill:#8ca101; stroke-width:0px;"/><path d="m72.9,72.9c.1-.4.2-.9.4-1.3.2-.4.5-.8.8-1.1.6-.8,1.2-1.5,1.8-2.3.4-.6.9-1.1,1.5-1.5.6-.4,1.4-.5,2-.2-.3,1.1-.4,2.2-.2,3.3.2,1.1.6,2.3-.1,3.1-.3.4-.8.5-1.2.7-.6.2-1.1.4-1.7.7-.3.1-.6.2-.9.5-.3.3-.3.8-.4,1.2-.2.9-.8,1.8-1,2.8-.1.5-.1,1-.1,1.5,0,1.6-.3,3.2-.7,4.7l-.4-.5c-.7-.9-1.2-1.9-1.7-2.9,0,0,0-.1,0-.2.6-2.8,1.3-5.7,2-8.5Z" style="fill:#8ca101; stroke-width:0px;"/><path d="m66.1,67.3c0-.2-.1-.3-.1-.5,0-.1,0-.2.1-.4.4-.7.9-1.3,1.4-1.8.8,3,0,6.2-.9,9.3,0,.3-.2.6-.3.8h-1.8c0,.1,0,.1,0,.1.8-1.4,1.2-3.1,1.5-4.7.2-.9.4-2,0-2.9Z" style="fill:#8ca101; stroke-width:0px;"/><path d="m72.1,67.5c-.1.4-.4.8-.7,1.2-.5.8-1.1,1.5-1.6,2.3,0-.1.1-.3.1-.4.2-.6.2-1.3.2-1.9,0-1.6,0-3.2-.3-4.8,0-.2,0-.5,0-.7,0-.2.2-.3.3-.4.4-.4.8-.8,1.3-1.2.9,1.4.9,3.2.8,4.8,0,.4,0,.8-.2,1.1Z" style="fill:#8ca101; stroke-width:0px;"/><path d="m77.5,63.5c0,.2-.2.3-.4.4-.7.4-1.3.8-2,1.2.4-1.3.2-2.8-.4-3.9-.3-.5-.7-1-.6-1.6.1-.5.6-.8,1.1-1.1.3-.2.7-.4,1-.6.1,0,.2-.1.4,0,.1,0,.2.2.2.3.2.8.4,1.6.6,2.5.2.9.4,1.7.3,2.6,0,.1,0,.2,0,.4Z" style="fill:#8ca101; stroke-width:0px;"/><path d="m60.2,67.6c.4-.1.8-.3,1.2,0-1.9,1.3-3,3.6-4.6,5.2v-1.9c0-.6,0-1.3,0-1.9.1,0,.2,0,.3-.1,1-.4,2.1-.8,3.1-1.2Z" style="fill:#8ca101; stroke-width:0px;"/><path d="m65.4,62.6c0,0,0,.2-.2.3-.5.5-.9,1-1.4,1.5-.1.1-.3.3-.5.4-.3.2-.7.2-1.1.2-2,.1-3.9.9-5.4,2.1,0-.7.1-1.4.2-2.1,0-.2,0-.4,0-.6,2.5-.8,5-1.5,7.6-2,.3,0,.7,0,.6.3Z" style="fill:#8ca101; stroke-width:0px;"/><path d="m63.8,58c.6-.2,1.2-.3,1.8-.3.5,0,1.1.1,1.6.2.7.2,1.5.3,2.2.5,0,0,.1,0,.1,0,0,0,0,.2-.1.3-.6.6-1.2,1.1-1.9,1.7,0,0-.2.2-.3.2-.3,0-.5,0-.8-.2-1.3-.6-2.8-.3-4.2.3s-2.5,1.3-3.9,1.8c-.4.1-.8.3-1.2.4.2-1,.4-2,.6-3,.7-.6,1.6-.9,2.5-1.2,1.1-.3,2.2-.6,3.3-.9Z" style="fill:#8ca101; stroke-width:0px;"/><path d="m66.8,52.5c1.2,0,2.3.4,3.4.8,1.2.5,2.4.9,3.6,1.4.1,0,.3.1.3.2,0,.2,0,.3-.2.5-.6.6-1.3,1.2-2.1,1.3-.5,0-.9-.1-1.4-.3-1.6-.6-3.3-1.1-5-1.1-2.5,0-4.8,1.3-6.8,2.7.4-1.1.8-2.1,1.3-3.1,0,0,0,0,0-.1.1-.2.2-.4.4-.7.5-.1,1-.2,1.5-.3,1.7-.3,3.2-1.3,4.9-1.3Z" style="fill:#8ca101; stroke-width:0px;"/><path d="m71.4,47.9c.3,0,.7,0,1,.2.4.2.6.6.9,1,.7.8,1.8,1.3,2.6,2,.4.3.8.8.8,1.3,0,.5-.4,1.1-.9.9-.2,0-.4-.2-.6-.4-1.4-1.3-3.4-2-5.3-2.4-.9-.2-1.9-.3-2.8-.2-.9.1-1.8.5-2.7.8-.9.4-1.7.7-2.6,1.1-.1,0-.3.1-.4.2.8-1.1,1.6-2.1,2.6-2.9l.4-.4c2.2-.9,4.5-1.4,6.9-1.2Z" style="fill:#8ca101; stroke-width:0px;"/><path d="m80.7,55.1h0c-.7,0-1.4-.3-1.8-.9l-2.1-3.8c-1.3-1.8-3.2-3-5.4-3.4h0c-2.5-.4-5,.4-7,2l-.4.4c-1.7,1.5-3.1,3.3-4.1,5.3h0c-1.4,2.9-2.3,5.8-2.7,8.9,0,.4-.1.9-.2,1.3-.3,2-.4,3.9-.4,5.9v3.4s3.9.5,3.9.5c1.3.2,2.6.2,3.9,0l4.3-.3h0c.2,3.6,1.5,7.1,3.7,10l1.9,2.6c.6.8,1.2,1.5,1.9,2.2h0c2.1,2.1,3.7,4.5,4.9,7.2h0l-.6-41.5Z" style="fill:#057e01; isolation:isolate; opacity:.5; stroke-width:0px;"/><path d="m30.2,39.2c.4-1.2,1-2.4,1.7-3.5l2.2-3.7c-3.1-1.9-5.6-4.6-7.3-7.8l-1.4-2.9c-.4-.9-.8-1.8-1.1-2.7-.9-2.8-2.4-5.4-4.3-7.6,2.9.3,5.9,0,8.7-.9.9-.3,1.9-.5,2.9-.6l3.2-.5c3.6-.5,7.3,0,10.6,1.5l1.8-3.9c.5-1.2,1.2-2.3,1.9-3.4l2.3-3.2,3,1.6c1.8.9,3.4,2,5.1,3.1.3.2.7.5,1.1.8,2.5,1.8,4.7,4,6.4,6.5,0,0,0,0,0,0,1.3,1.8,2.2,3.9,2.7,6.1v.5c.7,2.5.1,5.1-1.4,7.1h0c-1.3,1.8-3.3,2.9-5.5,3.1h-4.3c-.7,0-1.4.5-1.7,1.2-.4.6-.4,1.4,0,2l2.4,3.5c1.1,1.9,1.3,4.2.6,6.3h0c-.8,2.4-2.6,4.3-4.9,5.3l-.5.2c-2.1.9-4.3,1.3-6.6,1.3h-.1c-3.1,0-6.1-.6-9-1.6-.4-.1-.8-.3-1.2-.4-1.9-.7-3.7-1.4-5.5-2.4l-3-1.6,1.3-3.7Z" style="fill:#23a009; stroke-width:0px;"/><path d="m56.8,30.1h0c.3-.7.9-1.1,1.7-1.1h4.3c2.2-.3,4.2-1.4,5.5-3.2h0c1.5-2,2.1-4.6,1.5-7.1v-.5c-.6-2.2-1.5-4.3-2.8-6.1,0,0,0,0,0,0-1.8-2.5-3.9-4.7-6.4-6.5-.4-.3-.7-.5-1.1-.8-1.6-1.2-3.3-2.2-5.1-3.1L51.3,0l-2.3,3.2c-.8,1.1-1.4,2.2-1.9,3.4l-1.8,3.9h0c-3.3-1.5-7-2-10.6-1.5l-3.2.5c-1,.1-1.9.3-2.9.6h0c-2.8.8-5.8,1.1-8.7.9h0l36.8,19.2Z" style="fill:#23a009; stroke-width:0px;"/><path d="m51.6,6.9c0,.2,0,.4,0,.4,0,0,0,0-.1,0-1.2-.6-2.5-1.2-3.5-2.1.4-.7.8-1.3,1.2-1.9l1.3-1.8c0,1.9.4,3.8,1.2,5.5Z" style="fill:#8ca101; stroke-width:0px;"/><path d="m30.5,14.3c.2.2.3.5.1.7-.1.1-.4,0-.6,0-1.4-.6-2.7-1.4-4-2.3-.4-.3-.7-.6-1.1-.8-.3-.2-.7-.4-1.1-.5-.3-.1-.5-.2-.8-.3,1.4,0,2.7-.2,4.1-.5.1.1.2.2.3.4,1,1.2,2,2.3,2.9,3.5Z" style="fill:#8ca101; stroke-width:0px;"/><path d="m37.4,14.6c1.1,1.4,2.2,3.1,1.8,4.8-.9-1.2-2.3-2-3.8-2.2-.4,0-.9-.2-.9-.6,0-.1,0-.2,0-.3.2-.5,0-1-.3-1.4-1.1-2.2-2.9-3.9-5.1-4.9.8-.2,1.6-.4,2.4-.5h.4c.4.2.8.5,1.2.8,1.5,1.3,3,2.7,4.2,4.3Z" style="fill:#8ca101; stroke-width:0px;"/><path d="m44.8,14.8c.3.3.7.6.9,1,.3.4.5.8.6,1.2.4.9.8,1.8,1.2,2.7.3.6.6,1.3.6,2s-.2,1.5-.8,1.8c-.8-.8-1.8-1.4-2.8-1.7-1-.3-2.3-.6-2.7-1.6-.2-.4-.1-.9,0-1.4,0-.6.2-1.2.2-1.8,0-.3,0-.7,0-1-.2-.4-.5-.7-.9-1-.7-.7-1.2-1.5-2-2.2-.4-.3-.8-.6-1.3-.8-1.4-.8-2.6-1.8-3.8-2.9h.7c1.1-.3,2.2-.3,3.3-.3,0,0,.1,0,.2.1,2.2,1.9,4.4,3.8,6.5,5.8Z" style="fill:#8ca101; stroke-width:0px;"/><path d="m53,11.5c.2,0,.3,0,.5.1.1,0,.2.2.2.3.4.7.7,1.4.9,2.1-3.1-.7-5.5-3-7.7-5.2-.2-.2-.4-.4-.6-.7l.7-1.6s0,0,0,0c.8,1.4,2.1,2.5,3.4,3.6.7.6,1.5,1.3,2.5,1.4Z" style="fill:#8ca101; stroke-width:0px;"/><path d="m50,16.7c-.3-.3-.5-.8-.7-1.2-.4-.8-.8-1.7-1.2-2.5,0,.1.2.2.3.3.5.4,1,.8,1.6,1.1,1.4.8,2.9,1.4,4.3,2,.2,0,.4.2.6.3.1.1.2.3.2.5.2.6.3,1.1.5,1.7-1.7.2-3.2-.7-4.6-1.6-.3-.2-.7-.4-.9-.7Z" style="fill:#8ca101; stroke-width:0px;"/><path d="m50.9,23.3c-.1-.2-.1-.3-.1-.5,0-.8,0-1.6-.1-2.3,1,1,2.3,1.5,3.7,1.5.6,0,1.2-.1,1.6.3.4.3.4.9.5,1.5,0,.4,0,.8,0,1.2,0,.1,0,.3-.1.3-.1,0-.2,0-.4,0-.8-.2-1.6-.5-2.4-.7-.8-.2-1.7-.5-2.4-1-.1,0-.2-.1-.3-.2Z" style="fill:#8ca101; stroke-width:0px;"/><path d="m55.5,6.2c0,.4-.2.9-.5,1-.2-2.3-1.7-4.3-2.4-6.5l1.7.9c.6.3,1.1.6,1.7.9,0,.1,0,.2,0,.4-.1,1.1-.3,2.2-.4,3.3Z" style="fill:#8ca101; stroke-width:0px;"/><path d="m57.5,13.1c0,0-.1-.2-.1-.3-.2-.6-.4-1.3-.6-1.9,0-.2-.1-.4-.1-.6,0-.4.2-.7.3-1,.8-1.8,1.1-3.8.7-5.8.6.4,1.2.8,1.7,1.2.2.1.3.2.5.4-.5,2.6-1.1,5.1-1.8,7.6,0,.3-.3.6-.5.4Z" style="fill:#8ca101; stroke-width:0px;"/><path d="m62.3,14c-.1.6-.3,1.2-.6,1.8-.3.5-.6.9-1,1.3-.5.6-1,1.1-1.5,1.7,0,0,0,0-.1,0-.1,0-.2-.1-.2-.2-.2-.8-.4-1.6-.6-2.4,0-.1,0-.3,0-.4,0-.3.3-.4.5-.6,1.1-.9,1.6-2.4,1.7-3.8.1-1.4,0-2.9.2-4.3,0-.4.1-.8.2-1.2.8.6,1.6,1.3,2.3,2,.2.9,0,1.9-.2,2.8-.3,1.1-.5,2.3-.8,3.4Z" style="fill:#8ca101; stroke-width:0px;"/><path d="m65.7,19.1c-.5,1.1-1.5,1.8-2.4,2.6-1,.8-2,1.7-2.9,2.5,0,0-.2.2-.3.2-.2,0-.3-.2-.3-.4-.2-.8-.5-1.7-.1-2.5.2-.4.6-.8.9-1.1,1.3-1.1,2.5-2.4,3.3-3.9,1.1-2.2,1.1-4.8.9-7.3.8.8,1.5,1.7,2.1,2.7,0,0,0,0,0,0,.1.2.3.4.4.6-.1.5-.3,1-.5,1.4-.5,1.6-.4,3.5-1.2,5Z" style="fill:#8ca101; stroke-width:0px;"/><path d="m67.5,25.3c-.2.3-.4.6-.7.8-.4.2-.9.3-1.3.3-1.1.2-2,1-3,1.4-.5.2-1,.3-1.5,0s-.7-.9-.4-1.3c.2-.2.4-.3.6-.3,1.8-.6,3.3-2,4.6-3.5.6-.7,1.2-1.5,1.5-2.4.3-.9.4-1.8.5-2.7.1-.9.2-1.9.3-2.8,0-.1,0-.3,0-.4.6,1.2,1,2.4,1.3,3.7v.5c0,2.3-.8,4.6-2.1,6.6Z" style="fill:#8ca101; stroke-width:0px;"/><path d="m38.8,40.5c-.6,1.2-1.1,2.1-2.1,2.9-1.1.9-2.4,2-.6,1,1.6-.8,2.7-2.1,3.5-3.7,0,0,0-.2.1-.3.1,0,.3,0,.4,0,1.4-.3,2.4-.5,3.7-1,0,2.5-3.1,5.8-4.7,6.5-.4.2-.2.5.4.3,1.2-.3,2.9-2.1,3.6-3.3,1-1.5,1.2-2,1.5-3.5,0,0,0-.2,0-.4.6-.2,1.1-.4,1.7-.6,1-.4,2-.9,3-1.4-.2,1.3-.2,2.3-.6,3.5-.6,2.1-1.3,4.2-3.3,5.4-1.6.9-1.7,1.4-.2.8,1.7-.7,3.3-2.6,3.8-4.4.4-1.4.6-1.8.9-3.2.2-1,.3-1.6.4-2.6.9-.5,1.8-.9,2.7-1.3.3-.1.5-.2.8-.3.2.6.5,1.2.5,1.8,0,1.1,0,1.9,0,3.1-.2,2.2-.7,4.2-2.4,5.6-1.9,1.5-1.9,2.1-.3,1.1,1.9-1.2,2.5-2.2,3.1-4.2.3-.9.4-2.3.5-3.3,0-1.5.1-2.3-.2-4.4.9-.2,1.8-.4,2.7-.5l-1-1.5c-.8.1-1.6.3-2.3.6-.8-1.6-1.9-2.5-3.1-3.4-1-.7-2-1-3.2-1.5.1-.1,1.1-.9,1.3-1,2.3,1.2,4.6,2.4,7,3.6,0-.1.1-.4.2-.6h0c0-.2.2-.4.3-.5-2.3-1.2-4.6-2.5-6.9-3.7,0-.2,0-1.4,0-1.6,1,.7,1.9,1.4,3,1.8,1.4.5,2.8.8,4.6.6.2.8.5,1.5.9,2.3h1.8c-.4-.8-.8-1.7-1.1-2.5,1.9-.9,2.6-1.4,3.7-2.3.8-.6,1.9-1.5,2.4-2.2,1.3-1.6,1.8-2.8,1.7-5-.1-1.9-.6-1.6-.8.8-.1,2.2-1.6,3.8-3.2,5.2-.9.8-1.6,1.2-2.5,1.8-.5.3-1.1.5-1.7.6,0-.3-.1-.5-.2-.8-.2-1-.3-2-.5-3,.8-.6,1.2-1.1,2-1.8,1-1.1,1.2-1.5,2.1-2.6,1.2-1.4,1.8-3.9,1.4-5.7-.3-1.6-.7-1.2-.6.6.1,2.3-1.2,4.2-2.6,5.8-.8,1-1.6,1.6-2.6,2.5-.2-1.1-.3-2.2-.6-3.2-.1-.6-.3-1.2-.4-1.8.1-.1.2-.2.3-.3,1-1.1,1.3-1.6,2-3.3.5-1.3,1-3.7.6-4.8-.2-.6-.6-.6-.5-.1.4,1.7-.5,6.2-2.6,7.6-.4-1.3-.7-2.3-1.3-3.6,0-.1-.1-.3-.2-.4,0-.1.2-.2.2-.3.9-1.5,1.3-3.2,1.1-5-.3-2.1-.4-.4-.5,1,0,1.2-.5,2.2-1.2,3.4-1.2-2.3-2.3-4.5-2.9-7.1-.4-2-.7-1.4-.5.3.2,2.3,1.1,4.2,2.3,7.3-1.4-.6-3.3-1.4-4.4-2.6-1.2-1.2-1.2-.8-.8-.2,1.9,2.3,3.1,3,5.4,3.7,0,0,1.1,2.8,1.4,3.9-1.3.3-5.2-1.7-6.6-3-2.2-2.3-2.5-1.6-.9.1,1.2,1.2,1.6,1.7,3.1,2.5,1.7.9,3.1,1.4,4.6,1.6,0,0,.4,1.4.5,1.7.2.9.4,2,.5,2.9-2.9-.7-4.7-1.6-5.6-1.9-.8-.2-1.8-.8-2.3-.9-.7-1.9-2-4-4.2-5.8-2.9-2.3-3.5-1.8-.6.5,3.8,3,4.6,7.8,4.6,12.6-2.8-1.4-5-2.6-7.8-4,1-2.9-.6-7.2-3.5-9.2-3.3-2.4-3.2-1.4-.4.5,2.3,1.7,3.7,5.2,3,8.2-2.3-1.2-4.6-2.4-6.9-3.5,0-2.3-1.1-3.9-2.7-5-1.8-1.2-2.4-1-.5.3,1.3.9,2.7,2.9,2.2,4.2-4.8-2.5-5.5-2.6-10.2-5.2-.2,0-.4,0-.6.2h0s0,0,0,0c0,.3,0,.5.2.6,4.8,2.5,5.3,2.9,10.1,5.4-.7,1.1-3.2,1.2-4.6.6-2.1-.8-2-.2,0,.6,1.9.7,3.9.7,5.7-.6,2.3,1.2,4.5,2.4,6.8,3.6-2,2.2-5.7,3.2-8.4,2.2-3.2-1.1-4-.7-.2.7,3.3,1.2,7.8,0,9.6-2.4,2.7,1.5,5,2.6,7.7,4.1-3.9,2.7-8.3,4.8-12.9,3.4-3.5-1-3.7-.3,0,.8,2.7.8,5.2.7,7.2.2.4.4,1.4.8,2,1.3.7.6,2.6,1.6,4.8,3.5-.8.4-1.8.9-2.7,1.3-.3.1-1.7.6-1.7.6-1.1-1.1-2.3-2-4-2.9-1.5-.8-2.1-.9-3.8-1.2-2.4-.3-2.7.2.4.8,1.9.3,5.8,2.4,6.2,3.7-1.1.3-4.1,1.1-4.1,1.1-2-1.5-3.2-2.1-6.2-2.3-.7,0-1,.3.6.5,1.6.3,3.4,1.3,4.7,2.1-3.3.8-5.3,1.2-7.3,2.3-1.5.8-1.9,1.4,0,.6,2.5-1,5-1.3,7.5-1.7Zm11.4-16.4c0-1.9-1.1-5.8-1.1-5.8,2.3,1.5,5,2.7,7.9,3.6,0,.7.4,3.2.5,3.9-.5.2-3.4.1-5.2-.8-.4-.2-1-.7-2.2-.9Zm0,11c-2.4-1.8-5-3.4-7.5-4.4,0,0,3.8-1.3,5.4-2.4.8.9,1.5,1.1,1.9,1.3,1.8.9,3.5,3.2,3.6,3.8-.7.3-2.8,1.5-3.5,1.8Z" style="fill:#169703; stroke-width:0px;"/><path d="m34.7,39.2c.2,0,.4-.2.3-.3,0,0,0,0,0,0-1.2-.7-2.4-1.4-3.7-1.7-.3.7-.6,1.4-.9,2.1l-.8,2.1c1.5-1.1,3.3-1.8,5.2-2.1Z" style="fill:#8ca101; stroke-width:0px;"/><path d="m28.8,17.6c.2,0,.6,0,.6-.3,0-.2-.2-.3-.3-.4-1.3-.8-2.7-1.4-4.2-1.9-.4-.1-.9-.3-1.3-.5-.4-.2-.7-.4-1-.6-.2-.1-.5-.3-.7-.4.7,1.2,1.4,2.4,1.9,3.7.2,0,.3,0,.5,0,1.5.1,3,.3,4.6.4Z" style="fill:#8ca101; stroke-width:0px;"/><path d="m33,23.1c1.8.1,3.8,0,5-1.3-1.5,0-3-.7-4-1.9-.3-.3-.7-.6-1-.4,0,0-.2.2-.2.3-.3.4-.8.5-1.3.6-2.4.4-4.9-.2-6.9-1.4.3.8.6,1.5,1,2.3l.2.4c.5.2.9.3,1.4.5,1.9.5,3.9.9,6,1Z" style="fill:#8ca101; stroke-width:0px;"/><path d="m37.3,29.1c.4,0,.9.2,1.3.2.5,0,.9,0,1.4-.2,1-.2,1.9-.4,2.9-.5.7-.1,1.4-.3,2-.6.6-.4,1.1-1,1.1-1.7-1.1-.2-2.1-.7-3-1.3-.9-.7-1.8-1.6-2.8-1.3-.5.1-.8.4-1.2.8-.5.4-.9.8-1.4,1.2-.2.2-.5.5-.8.5-.4.1-.9,0-1.3-.2-1-.2-2-.1-2.9-.4-.5-.1-1-.4-1.4-.6-1.4-.7-3-1.1-4.5-1.5l.3.6c.5,1,1.1,2,1.8,2.8,0,0,.1,0,.2,0,2.8.7,5.7,1.4,8.5,2.1Z" style="fill:#8ca101; stroke-width:0px;"/><path d="m39.3,37.7c.1.1.2.3.4.3.1,0,.3,0,.4,0,.8,0,1.5-.2,2.3-.5-2.3-2.1-5.6-2.8-8.7-3.4-.3,0-.6-.1-.9,0l-.9,1.6s0,0,0,0c1.6-.1,3.3.3,4.9.7.9.2,1.9.5,2.6,1.2Z" style="fill:#8ca101; stroke-width:0px;"/><path d="m41.9,32.2c-.5,0-.9,0-1.4,0-.9.1-1.8.3-2.7.4.1,0,.3,0,.4,0,.6.1,1.2.4,1.8.7,1.4.7,2.8,1.5,4.1,2.4.2.1.4.3.6.3.2,0,.4,0,.5,0,.6-.2,1.1-.4,1.7-.6-.8-1.5-2.4-2.2-4-2.9-.4-.2-.7-.3-1.1-.4Z" style="fill:#8ca101; stroke-width:0px;"/><path d="m47.8,29.3c-.2,0-.3.1-.5.2-.7.4-1.3.8-2,1.2,1.3.2,2.6,1,3.3,2.2.3.5.6,1.1,1.2,1.2.5.1,1-.2,1.4-.5.3-.2.7-.4,1-.7.1,0,.2-.2.2-.3,0-.1-.1-.2-.2-.3-.7-.5-1.3-1.1-2-1.6-.7-.6-1.4-1.1-2.2-1.4-.1,0-.2,0-.4,0Z" style="fill:#8ca101; stroke-width:0px;"/><path d="m36.4,42.8c.3-.3.6-.6.5-1-2,1.2-4.5,1.1-6.7,1.8l1.7.9c.6.3,1.1.6,1.7.8,0,0,.2-.2.3-.2.8-.7,1.7-1.5,2.5-2.2Z" style="fill:#8ca101; stroke-width:0px;"/><path d="m43.2,40.5c0,0-.2,0-.3,0-.6.2-1.3.4-1.9.6-.2,0-.4.1-.6.2-.3.2-.5.5-.7.9-1,1.7-2.5,3.1-4.3,3.9.6.3,1.3.5,2,.7.2,0,.4.1.6.2,1.8-1.9,3.6-3.8,5.2-5.9.2-.2.3-.6,0-.7Z" style="fill:#8ca101; stroke-width:0px;"/><path d="m46.6,43.9c.4-.5.8-.9,1.1-1.5.2-.5.4-1,.5-1.5.2-.7.4-1.5.5-2.2,0,0,0-.1,0-.1,0,0-.2,0-.3,0-.8.3-1.6.6-2.3.9-.1,0-.2,0-.3.2-.2.2-.2.5-.2.8,0,1.4-1,2.7-2.1,3.6s-2.3,1.7-3.4,2.6c-.3.3-.6.6-.9.8,1,.3,1.9.6,2.9.8.8-.3,1.6-1,2.2-1.7.8-.9,1.5-1.7,2.3-2.6Z" style="fill:#8ca101; stroke-width:0px;"/><path d="m52.8,43.8c.6-1,.7-2.3.8-3.4.1-1.3.2-2.6.4-3.8,0-.1,0-.3,0-.4-.1-.1-.3,0-.5,0-.8.3-1.7.6-2.1,1.3-.2.4-.3.9-.4,1.4-.2,1.7-.5,3.4-1.3,4.9-1.2,2.2-3.3,3.7-5.5,4.9,1.1.1,2.3.2,3.4.2,0,0,0,0,.1,0,.3,0,.5,0,.8,0,.3-.4.6-.8.9-1.2,1-1.4,2.6-2.3,3.4-3.8Z" style="fill:#8ca101; stroke-width:0px;"/><path d="m59,41.7c.1-.3.3-.7.2-1,0-.4-.3-.8-.4-1.3-.4-1-.3-2.2-.6-3.2-.1-.5-.3-1-.8-1.3-.5-.3-1.2,0-1.3.4,0,.2,0,.5,0,.7.5,1.9.2,3.9-.3,5.8-.2.9-.5,1.8-1.1,2.6-.5.8-1.2,1.4-1.9,2-.7.6-1.4,1.2-2.1,1.8-.1,0-.2.2-.3.3,1.3-.2,2.6-.5,3.8-1l.5-.2c1.8-1.5,3.3-3.4,4.1-5.6Z" style="fill:#8ca101; stroke-width:0px;"/><path d="m56.8,30.1h0c-.4.6-.4,1.4,0,2l2.4,3.5c1.1,1.9,1.3,4.2.6,6.3h0c-.8,2.4-2.6,4.3-4.9,5.3l-.5.2c-2.1.9-4.3,1.3-6.6,1.3h-.1c-3.1,0-6.1-.6-9-1.6-.4-.1-.8-.3-1.2-.4-1.9-.7-3.7-1.4-5.5-2.4l-3-1.6,1.3-3.7c.4-1.2,1-2.4,1.7-3.5l2.2-3.7h0c-3.1-1.9-5.6-4.6-7.3-7.8l-1.4-2.9c-.4-.9-.8-1.8-1.1-2.7h0c-.9-2.8-2.4-5.4-4.3-7.6h0l36.8,19.2Z" style="fill:#057e01; isolation:isolate; opacity:.5; stroke-width:0px;"/><path d="m31.1,87.4c-.3-.9-.6-1.8-.8-2.7l-.5-3.1c-2.6.5-5.2.2-7.7-.8l-2.1-.9c-.7-.3-1.3-.6-1.9-1-1.8-1.1-3.8-1.8-5.9-2.2,1.7-1.2,3.2-2.8,4.3-4.6.4-.6.8-1.2,1.3-1.7l1.5-1.8c1.7-2,4-3.4,6.5-4.2l-.9-3c-.3-.9-.4-1.8-.5-2.8l-.3-2.8,2.4-.6c1.4-.3,2.8-.6,4.2-.7.3,0,.6,0,.9,0,2.2-.2,4.4,0,6.6.5,0,0,0,0,0,0,1.6.4,3.1,1.1,4.4,2.1l.3.2c1.5,1.1,2.4,2.8,2.5,4.6h0c.1,1.6-.4,3.2-1.5,4.3l-2.3,2c-.4.3-.5.9-.4,1.4,0,.5.4,1,1,1.1l3,.8c1.5.6,2.7,1.7,3.3,3.2h0c.7,1.7.6,3.6-.2,5.2l-.2.4c-.7,1.5-1.8,2.7-3,3.8h0c-1.7,1.5-3.6,2.6-5.7,3.5-.3.1-.6.2-.9.3-1.3.5-2.7,1-4.1,1.3l-2.4.6-1-2.7Z" style="fill:#23a009; stroke-width:0px;"/><path d="m41.3,69.9h0c-.2-.5,0-1.1.4-1.4l2.3-2c1.1-1.2,1.6-2.7,1.5-4.3h0c-.1-1.8-1-3.5-2.5-4.6l-.3-.2c-1.3-1-2.8-1.7-4.4-2.1,0,0,0,0,0,0-2.2-.5-4.4-.7-6.6-.5-.3,0-.6,0-.9,0-1.4.1-2.8.3-4.2.7l-2.4.6.3,2.8c0,.9.3,1.9.5,2.8l.9,3h0c-2.5.7-4.8,2.2-6.5,4.2l-1.5,1.8c-.5.5-.9,1.1-1.3,1.7h0c-1.1,1.8-2.6,3.3-4.3,4.6h0l29.1-6.9Z" style="fill:#23a009; stroke-width:0px;"/><path d="m27.4,59.7c.1,0,.2.2.2.3,0,0,0,0,0,0-1,.3-1.9.5-2.9.5-.1-.5-.2-1.1-.3-1.6l-.2-1.6c.9,1,2,1.9,3.2,2.4Z" style="fill:#8ca101; stroke-width:0px;"/><path d="m19.5,73.7c.2,0,.4.1.4.3,0,.1-.2.2-.3.3-1.1.3-2.1.5-3.3.6-.3,0-.7,0-1,.1-.3,0-.6.1-.8.2-.2,0-.4.1-.6.2.7-.7,1.4-1.4,2-2.2.1,0,.2,0,.4,0,1.1.2,2.2.3,3.3.5Z" style="fill:#8ca101; stroke-width:0px;"/><path d="m23.4,70.6c1.3.2,2.7.7,3.2,1.8-1.1-.2-2.2,0-3.1.6-.2.2-.6.3-.8.1,0,0,0-.2-.1-.2-.1-.3-.5-.5-.8-.7-1.6-.7-3.5-.8-5.1-.2.3-.5.7-1,1.1-1.4l.2-.2c.4,0,.7,0,1.1,0,1.5,0,2.9.1,4.3.4Z" style="fill:#8ca101; stroke-width:0px;"/><path d="m27.5,67.2c.3,0,.6,0,1,0,.3,0,.6.2.9.4.6.3,1.3.6,1.9.9.5.2.9.4,1.3.8.4.4.6.9.4,1.4-.8,0-1.6,0-2.4.4-.7.3-1.5.8-2.2.4-.3-.2-.5-.5-.7-.7-.2-.4-.5-.7-.7-1.1-.1-.2-.3-.4-.5-.5-.3-.2-.6-.1-.9-.1-.7,0-1.4-.3-2.1-.2-.4,0-.7,0-1.1.1-1.1.2-2.3.3-3.4.2l.3-.4c.5-.6,1.1-1.2,1.7-1.7,0,0,.1,0,.2,0,2.1,0,4.2,0,6.3,0Z" style="fill:#8ca101; stroke-width:0px;"/><path d="m30.4,61.5c.1,0,.2-.1.3-.2,0,0,.2,0,.3,0,.5.2,1,.4,1.5.7-2,1-4.4.9-6.7.8-.2,0-.4,0-.6,0l-.4-1.2s0,0,0,0c1.1.4,2.3.4,3.5.4.7,0,1.4,0,2-.4Z" style="fill:#8ca101; stroke-width:0px;"/><path d="m31.2,65.8c-.3,0-.6-.2-1-.3-.6-.3-1.2-.5-1.8-.8.1,0,.2,0,.3,0,.5,0,.9,0,1.4-.2,1.1-.2,2.2-.6,3.3-.9.2,0,.3-.1.5,0,.1,0,.2,0,.4.1.4.2.7.5,1.1.7-.8.9-2.1,1.1-3.3,1.3-.3,0-.5,0-.8,0Z" style="fill:#8ca101; stroke-width:0px;"/><path d="m34.9,68.9c-.1,0-.2-.1-.3-.2-.4-.4-.8-.8-1.2-1.2,1,0,2-.3,2.7-.9.3-.3.6-.6,1-.6.4,0,.7.3.9.6.2.2.4.4.6.6,0,0,.1.1.1.2s-.1.1-.2.2c-.6.3-1.1.5-1.7.8-.6.3-1.2.5-1.8.6,0,0-.2,0-.3,0Z" style="fill:#8ca101; stroke-width:0px;"/><path d="m29.3,57.4c.2.2.3.6.2.8-1.2-1.2-3-1.6-4.4-2.4l1.3-.3c.5-.1.9-.2,1.4-.3,0,0,.1.1.2.2.4.7.9,1.3,1.3,2Z" style="fill:#8ca101; stroke-width:0px;"/><path d="m33.6,60.3c0,0-.1,0-.2,0-.4-.3-.8-.5-1.3-.8-.1,0-.3-.2-.4-.3-.2-.2-.2-.5-.3-.7-.4-1.4-1.2-2.6-2.3-3.5.5,0,1-.1,1.5-.2.1,0,.3,0,.4,0,1,1.6,1.8,3.3,2.6,5,0,.2.1.5,0,.5Z" style="fill:#8ca101; stroke-width:0px;"/><path d="m36.6,58.5c.2.4.4.8.5,1.2,0,.4,0,.8,0,1.2,0,.5,0,1.1,0,1.6,0,0,0,0,0,.1,0,0-.1,0-.2,0-.5-.4-1-.7-1.5-1.1,0,0-.2-.1-.2-.2-.1-.2,0-.4,0-.6.2-1-.3-2-.8-2.9-.6-.8-1.3-1.6-1.9-2.4-.2-.2-.3-.5-.5-.8.7,0,1.5,0,2.2,0,.5.4.9,1,1.2,1.6.4.7.8,1.5,1.2,2.2Z" style="fill:#8ca101; stroke-width:0px;"/><path d="m40.9,59.7c.2.8,0,1.7,0,2.5-.1.9-.3,1.8-.4,2.8,0,0,0,.2-.1.2-.1,0-.2,0-.4,0-.5-.3-1.1-.7-1.2-1.3,0-.3,0-.7,0-1,.2-1.2.3-2.5,0-3.7-.4-1.7-1.6-3.2-2.9-4.4.8,0,1.6.2,2.4.4,0,0,0,0,0,0,.2,0,.4.1.5.2.2.3.3.7.4,1,.5,1.1,1.4,2.1,1.7,3.3Z" style="fill:#8ca101; stroke-width:0px;"/><path d="m44.9,62.2c0,.2,0,.5,0,.7,0,.3-.3.5-.5.8-.5.6-.6,1.5-1,2.2-.2.3-.4.7-.8.8-.4,0-.8-.1-.8-.5,0-.2.1-.3.2-.5.7-1.2.9-2.7.9-4.1,0-.7,0-1.4-.3-2-.2-.6-.6-1.2-1-1.7-.4-.6-.8-1.1-1.2-1.7,0,0-.1-.2-.2-.3.9.4,1.7.8,2.5,1.4l.3.2c1,1.4,1.7,3,1.9,4.7Z" style="fill:#8ca101; stroke-width:0px;"/><path d="m36.4,84c.3.9.4,1.7.2,2.6-.2,1-.4,2.2.2.8.5-1.2.5-2.4.1-3.7,0,0,0-.1,0-.2,0,0,.1-.2.2-.2.6-.8,1-1.4,1.6-2.3,1.2,1.3,1,4.6.5,5.8-.1.3.1.4.4,0,.5-.7.6-2.5.4-3.5-.2-1.3-.3-1.7-.8-2.6,0,0,0-.2-.1-.3.2-.4.4-.8.6-1.2.4-.7.7-1.4,1-2.2.5.8,1,1.4,1.3,2.2.7,1.4,1.3,3,.8,4.5-.4,1.2-.2,1.6.3.5.6-1.2.6-3,0-4.2-.4-.9-.5-1.2-1-2.2-.4-.7-.6-1-1-1.6.3-.7.5-1.4.9-2,0-.2.2-.4.3-.5.4.2.8.4,1.1.7.5.6.9,1,1.4,1.7.9,1.3,1.6,2.6,1.3,4.2-.3,1.8,0,2.1.4.7.5-1.5.3-2.4-.3-3.8-.3-.6-.9-1.5-1.3-2-.7-.8-1-1.3-2.2-2.3.4-.6.8-1.1,1.2-1.6l-1.3-.3c-.4.4-.7.9-1,1.4-1.2-.5-2.3-.5-3.3-.4-.9,0-1.6.4-2.4.7,0-.1.2-1,.2-1.1,1.8-.4,3.7-.9,5.5-1.3,0,0-.1-.3-.1-.4h0c0-.1,0-.3,0-.4-1.8.4-3.7.8-5.5,1.3,0-.1-.6-.8-.7-.9.9,0,1.7-.1,2.5-.5,1-.4,1.9-.9,2.8-1.8.5.3,1,.6,1.5.8l1-.9c-.6-.3-1.2-.5-1.8-.9.6-1.4.7-2,1-3,.1-.7.3-1.7.3-2.4,0-1.5-.3-2.4-1.4-3.5-1-1-1.1-.6,0,.8,1,1.3.9,2.8.7,4.4-.1.8-.3,1.4-.5,2.2-.1.4-.4.8-.6,1.1-.2-.1-.3-.2-.5-.3-.6-.5-1.1-.9-1.7-1.4.1-.7.2-1.2.2-1.9,0-1.1,0-1.4,0-2.4,0-1.4-.8-3-1.9-3.8-.9-.7-1-.3,0,.6,1.2,1.2,1.3,2.9,1.3,4.4,0,.9-.1,1.7-.2,2.6-.6-.5-1.2-1-1.8-1.5-.4-.3-.7-.5-1.1-.8,0-.1,0-.2,0-.3,0-1.1,0-1.5-.5-2.7-.3-.9-1.2-2.5-2-2.9-.4-.2-.6,0-.4.2,1,.8,2.6,3.7,2.1,5.4-.8-.5-1.5-.9-2.4-1.3,0,0-.2,0-.3-.1,0-.1,0-.2,0-.3-.2-1.3-.8-2.4-1.8-3.2-1.1-1-.4,0,.2.8.5.7.8,1.5.9,2.4-1.7-.7-3.4-1.4-5-2.5-1.2-.9-1-.4-.1.4,1.2,1.1,2.6,1.8,4.7,2.9-1.1.3-2.5.8-3.7.7-1.2,0-1,.2-.5.3,2.1.4,3.1.2,4.7-.5,0,0,1.9,1,2.6,1.5-.5.8-3.6,1.5-5,1.4-2.3-.2-2.1.3-.4.5,1.2.1,1.6.2,2.9-.1,1.3-.3,2.3-.7,3.3-1.3,0,0,.9.6,1.1.7.5.4,1.2.9,1.7,1.4-1.9,1-3.4,1.3-4,1.6-.5.2-1.3.4-1.7.6-1.3-.7-3-1.3-5.1-1.2-2.7.1-2.7.7,0,.6,3.5-.1,6.2,2.1,8.4,4.7-2.2.5-4,.9-6.1,1.5-.8-2.1-3.7-3.6-6.3-3.4-2.9.3-2.4.7,0,.5,2.1-.2,4.5,1.1,5.5,3.1-1.8.4-3.6.9-5.4,1.3-1-1.3-2.4-1.6-3.9-1.4-1.6.2-1.8.6-.2.4,1.1-.1,2.8.3,3.1,1.3-3.8.9-4.2,1.1-8,2-.1,0-.2.2-.3.4h0s0,0,0,0c.1.2.3.3.4.2,3.8-.9,4.3-.9,8.1-1.8.1,1-1.2,2.1-2.3,2.5-1.5.6-1.2.8.3.3,1.4-.5,2.5-1.4,2.8-3,1.8-.4,3.6-.8,5.4-1.2,0,2.2-1.6,4.4-3.6,5.2-2.3.9-2.5,1.5.2.5,2.4-.9,4.3-3.6,4.1-5.8,2.2-.5,4-.9,6.1-1.4-.8,3.3-2.3,6.5-5.5,8-2.4,1.1-2.1,1.6.3.5,1.9-.8,3.2-2.1,4-3.3.4,0,1.2-.2,1.7-.2.7,0,2.2-.3,4.3-.3-.3.6-.6,1.4-.9,2-.1.2-.6,1.1-.6,1.1-1.1-.1-2.2,0-3.5.3-1.2.3-1.6.5-2.6,1.2-1.4.9-1.4,1.4.6.2,1.2-.7,4.3-1.4,5.1-.9-.5.7-1.7,2.5-1.7,2.5-1.8.1-2.7.4-4.5,1.6-.4.3-.4.6.6,0,1-.6,2.5-.9,3.6-1-1.4,2-2.3,3.2-2.9,4.7-.4,1.2-.4,1.6.3.3.9-1.7,2.1-3.1,3.3-4.5Zm-1.5-14.3c-.9-1.1-3.3-2.7-3.3-2.7,1.9-.3,4-.9,6-1.8.4.4,1.7,1.6,2.1,1.9-.2.4-1.8,1.6-3.2,2-.4,0-.9,0-1.6.6Zm5.2,6c-2.2.1-4.3.5-6.2,1.1,0,0,1.4-2.5,1.8-3.9.9,0,1.3-.1,1.7-.2,1.4-.3,3.4,0,3.7.3-.2.5-.8,2.1-1,2.6Z" style="fill:#169703; stroke-width:0px;"/><path d="m33.5,85.3c0,0,.1-.3,0-.3,0,0,0,0,0,0-1,.2-2,.4-2.8.8.1.5.3,1.1.5,1.6l.6,1.5c.3-1.3,1-2.6,1.8-3.6Z" style="fill:#8ca101; stroke-width:0px;"/><path d="m20.1,76.3c.1-.1.3-.3.2-.4,0-.1-.2-.1-.4,0-1.1.2-2.2.5-3.2.9-.3.1-.6.3-.9.4-.3,0-.6.1-.8.2-.2,0-.4,0-.6,0,.9.3,1.9.7,2.8,1.1.1,0,.2-.1.3-.2.9-.6,1.8-1.3,2.7-1.9Z" style="fill:#8ca101; stroke-width:0px;"/><path d="m25,77.3c1-.8,2.1-1.8,2.1-3.1-.9.7-2,1-3.1.9-.3,0-.7,0-.7.2,0,0,0,.2,0,.3,0,.4-.2.7-.4,1-1.1,1.3-2.7,2.2-4.5,2.5.5.3,1.1.6,1.6.8h.3c.3,0,.7-.1,1-.3,1.3-.6,2.6-1.4,3.7-2.3Z" style="fill:#8ca101; stroke-width:0px;"/><path d="m30.2,78.6c.3-.2.6-.3.8-.5.3-.2.5-.5.7-.7.4-.5.9-1.1,1.3-1.6.3-.4.6-.8.8-1.3.2-.5.1-1.1-.2-1.4-.7.4-1.5.7-2.3.7-.8,0-1.7,0-2.2.6-.2.3-.2.6-.3,1,0,.4-.1.9-.2,1.3,0,.2,0,.5-.2.7-.2.3-.5.4-.8.5-.6.3-1.1.9-1.8,1.2-.3.2-.7.3-1,.4-1.1.3-2.2.8-3.2,1.3l.4.2c.7.3,1.5.5,2.3.7,0,0,0,0,.1,0,1.9-.9,3.8-1.9,5.6-2.9Z" style="fill:#8ca101; stroke-width:0px;"/><path d="m35.3,82.3c.1,0,.2,0,.4,0,0,0,.2,0,.2-.2.4-.4.7-.8,1-1.3-2.3,0-4.4,1.1-6.3,2.2-.2.1-.4.2-.5.4l.2,1.3s0,0,0,0c.8-.8,1.9-1.4,3-1.9.6-.3,1.3-.6,2-.5Z" style="fill:#8ca101; stroke-width:0px;"/><path d="m34.1,78.1c-.3.2-.5.4-.7.7-.4.5-.9,1-1.3,1.5,0,0,.2-.1.3-.2.4-.2.9-.3,1.3-.5,1.1-.3,2.2-.5,3.4-.6.2,0,.3,0,.5-.1.1,0,.2-.2.3-.3.2-.4.4-.7.6-1.1-1.1-.4-2.4,0-3.5.3-.3,0-.5.2-.8.3Z" style="fill:#8ca101; stroke-width:0px;"/><path d="m36,73.7c0,0-.1.2-.2.3-.2.5-.3,1.1-.5,1.6.8-.5,1.9-.6,2.8-.4.4.1.8.3,1.2.1.3-.2.5-.6.6-.9,0-.3.2-.6.2-.8,0,0,0-.2,0-.3s-.2,0-.3,0c-.6,0-1.2,0-1.8,0-.6,0-1.3,0-1.9.2,0,0-.2,0-.2.1Z" style="fill:#8ca101; stroke-width:0px;"/><path d="m36.1,86.5c0-.3,0-.6-.2-.8-.5,1.6-2,2.7-2.8,4.1l1.3-.3c.5-.1.9-.2,1.3-.4,0,0,0-.2,0-.3.1-.8.2-1.6.3-2.4Z" style="fill:#8ca101; stroke-width:0px;"/><path d="m38.7,82c0,0-.1,0-.1.2-.3.4-.5.8-.8,1.2,0,.1-.2.2-.2.4,0,.3,0,.5,0,.8.3,1.4,0,2.9-.5,4.2.5-.2,1-.3,1.4-.5.1,0,.3-.1.4-.2.1-1.9.2-3.8,0-5.7,0-.2-.1-.5-.3-.4Z" style="fill:#8ca101; stroke-width:0px;"/><path d="m42.2,82.2c0-.4,0-.9,0-1.3,0-.4-.3-.7-.5-1.1-.2-.5-.5-1-.7-1.4,0,0,0,0,0,0,0,0-.1,0-.2.1-.3.5-.6,1.1-.8,1.6,0,0,0,.2,0,.3,0,.2.1.4.2.5.6.8.7,1.9.5,3s-.5,2-.6,3c0,.3,0,.6-.1.9.7-.3,1.3-.6,2-1,.3-.6.4-1.3.4-2,0-.8,0-1.7,0-2.5Z" style="fill:#8ca101; stroke-width:0px;"/><path d="m45.5,79.2c-.2-.8-.7-1.6-1.2-2.3-.5-.8-1.1-1.5-1.6-2.3,0,0-.1-.2-.2-.2-.1,0-.2.1-.3.2-.3.5-.6,1.1-.5,1.7,0,.3.3.6.5.9.7,1,1.3,2.1,1.6,3.3.4,1.7,0,3.6-.7,5.2.7-.5,1.3-.9,2-1.5,0,0,0,0,0,0,.1-.1.3-.3.4-.4,0-.4,0-.7,0-1.1,0-1.2.3-2.5,0-3.7Z" style="fill:#8ca101; stroke-width:0px;"/><path d="m47.9,75.2c0-.2-.2-.5-.3-.7-.2-.2-.6-.3-.8-.5-.7-.4-1.2-1-1.8-1.5-.3-.2-.7-.4-1-.3-.4,0-.7.5-.5.8,0,.2.2.2.4.3,1.2.8,2,2,2.6,3.3.3.6.6,1.2.7,1.9,0,.7,0,1.3-.1,2,0,.7-.2,1.3-.3,2,0,.1,0,.2,0,.3.6-.7,1.2-1.5,1.6-2.4l.2-.3c.3-1.7.2-3.4-.4-5Z" style="fill:#8ca101; stroke-width:0px;"/><path d="m41.3,69.9h0c0,.5.4,1,1,1.1l3,.8c1.5.6,2.7,1.7,3.3,3.2h0c.7,1.7.6,3.6-.2,5.2l-.2.4c-.7,1.5-1.8,2.7-3,3.8h0c-1.7,1.5-3.6,2.6-5.7,3.5-.3.1-.6.2-.9.3-1.3.5-2.7,1-4.1,1.3l-2.4.6-1-2.7c-.3-.9-.6-1.8-.8-2.7l-.5-3.1h0c-2.6.5-5.2.2-7.7-.8l-2.1-.9c-.7-.3-1.3-.6-1.9-1h0c-1.8-1.1-3.8-1.8-5.9-2.2h0l29.1-6.9Z" style="fill:#057e01; isolation:isolate; opacity:.5; stroke-width:0px;"/><path d="m47,94.3c4.3,4.7,3.9,11.9-.7,16.2-4.7,4.3-11.9,3.9-16.2-.7-4.3-4.7-3.9-11.9.7-16.2,4.7-4.3,11.9-3.9,16.2.7Z" style="fill:#d30943; stroke-width:0px;"/><path d="m108.6,23.5l-2.9-.3c-4.6-.5-9.2,0-13.5,1.5h0c-3.2,1.1-6.1,2.8-8.6,4.9l-2.6,2.3c-3.7,3.2-7.2,6.7-10.5,10.4l-4.6,5.2-34.9,48.7,1,.4,32.5-43.1c4.2-5.5,8.8-10.8,13.7-15.8h0c2.9-3,6-5.6,9.3-8h0c2.5-1.8,5.4-2.9,8.5-3.2h0c2.4-.2,4.8,0,7.1.5l6.5,1.7h0c1.6-.3,2.7-1.8,2.6-3.4v-1.1h0c-1.2-.4-2.4-.7-3.6-.9Z" style="fill:#ad7607; stroke-width:0px;"/><path d="m56.2,31.2c9.8,5.4,22.7,1.4,32.6-2.1,1.5-.5-1-1.6-1.9-1.2-8.2,3-20.6,7-28.7,2.5-.8-.4-3.4,0-2.1.8h0Z" style="fill:#ad7607; stroke-width:0px;"/><path d="m91.2,26.8c-4.3.7-7.3,6.4-8.8,9.9-2.5,5.7-2.4,12.5-2.9,18.5,0,.5,1.5.6,1.6.2.4-4.8.5-9.9,1.6-14.7.9-3.9,4.6-12.5,9.3-13.3,1-.2-.2-.7-.7-.6h0Z" style="fill:#ad7607; stroke-width:0px;"/><path d="m75.3,38c-2.6-.1-5,.4-7.2,2-2.9,2.1-4.3,5.8-7.7,7.1-.9.4,0,1.3.7,1,2.3-.9,3.7-2.5,5.2-4.4,2.4-2.8,5-4.8,8.8-4.7,1,0,1.1-1.1.1-1.1h0Z" style="fill:#ad7607; stroke-width:0px;"/><path d="m69.1,44.7c-3.5,0-5.5,2.1-6.9,5.1-1.6,3.4-3.9,7.9-3.5,11.7,0,.6,1.6.7,1.6.2-.3-2.9,1-5.4,2-8,1.3-3.3,2.6-8.2,7.2-8.1,1,0,.4-.9-.3-.9h0Z" style="fill:#ad7607; stroke-width:0px;"/><path d="m54.5,64.7c-5.6.2-10.7.7-14.2,5.6-.5.6,1.7,1.1,2.1.5,1.3-1.9,3.1-3.3,5.2-4.1,2.3-.9,4.9-.7,7.3-.8,1.5,0,.6-1.1-.5-1.1h0Z" style="fill:#ad7607; stroke-width:0px;"/><path d="m34.1,105.7c.2,5-3.6,9.2-8.6,9.4-5,.2-9.2-3.6-9.4-8.6-.2-5,3.6-9.2,8.6-9.4,5-.2,9.2,3.6,9.4,8.6Z" style="fill:#cb2302; stroke-width:0px;"/><path d="m33.7,105.7c.2,4.8-3.5,8.8-8.3,9-4.8.2-8.8-3.5-9-8.3-.2-4.8,3.5-8.8,8.3-9,4.8-.2,8.8,3.5,9,8.3Z" style="fill:#af0c47; stroke-width:0px;"/><path d="m30.2,109.2c-2.3,3.3-6.9,4.1-10.2,1.8-3.3-2.3-4.1-6.9-1.8-10.2,2.3-3.3,6.9-4.1,10.2-1.8,3.3,2.3,4.1,6.9,1.8,10.2Z" style="fill:#da1a38; isolation:isolate; opacity:.5; stroke-width:0px;"/><path d="m28.7,107.5c-1.9,2.8-5.8,3.4-8.5,1.5-2.8-1.9-3.4-5.8-1.5-8.5,1.9-2.8,5.8-3.4,8.5-1.5,2.8,1.9,3.4,5.8,1.5,8.5Z" style="fill:#da1a38; isolation:isolate; opacity:.5; stroke-width:0px;"/><g style="opacity:.5;"><path d="m24.7,106.8c.2-1.5,1.2-2.9,2.6-3.7.4-.2.9-.4,1-.8,0-.2,0-.4,0-.6,0-.2-.2-.5-.3-.7l.2.2c-.3-.6-.7-1.1-1.3-1.6,0,0,0,0-.1-.1h0c-.7-.4-1.5-.8-2.4-.8-1.6,0-3.1.7-4.1,1.8-1,1.2-1.5,2.8-1.5,4.3,0,.6.1,1.3.3,1.9.4,1.1,1.4,2,2.5,2.3,1,.3,2.2.1,2.7-.8.2-.5.2-1,.3-1.5Z" style="fill:#e93b49; stroke-width:0px;"/></g><g style="opacity:.3;"><path d="m24.6,106.8c1.2-.4,2.1-1.6,1.9-2.9,0,0,0-.2,0-.3,0-.4-.3-.7-.7-.8-.2,0-.4,0-.6,0-1.1.3-2.1,1.1-2.7,2.2,0,.2-.2.4-.2.6,0,.5.3,1.1.7,1.3.4.2.9,0,1.3,0,0,0,.1,0,.2,0Z" style="fill:#fff; stroke-width:0px;"/></g><path d="m20.7,113.4c-.1-.9-1-1.7-1.9-1.7,0,0,0,0-.1,0,0,0,0,0,0,.1-.3.6-.8,1.1-1.4,1.4l-.2.2c.1.2.3.1.5.2.3.1.4.5.7.5.1,0,.3,0,.3,0,0,0,0,0,0,.1l.2.9c0,.2.3.2.4,0,.2-.4.4-.7.6-1.1,0-.2.2-.3.3-.4.2-.1.6,0,.6-.3,0,0,0-.1,0-.2Z" style="fill:#cb2302; stroke-width:0px;"/><path d="m18.8,115c-.2,0-.5.2-.5,0,0,0,0-.2,0-.3,0,0,0-.2-.1-.2,0,0,0,0-.1,0-.1,0,.2-.4.1-.5,0-.1-.3-.2-.4-.2-.2,0-.4,0-.5,0,0,0,0-.2,0-.3,0-.1-.3-.1-.4,0-.1,0-.2,0-.2.1s.1.6.1.8c0,.4,0,.7.2.8.2.1.3.2.6,0,.2,0,.4,0,.4.4,0,.1,0,.2.1.2.1,0,1-.2,1.1-.3.2-.1-.2-.8-.4-.6Z" style="fill:#c6ce4c; stroke-width:0px;"/><path d="m19.5,114c0,0-.1,0-.2-.1-.3-.1-.6-.3-1-.2-.3.1-.7.3-.7-.1,0-.1-.1-.2-.2-.3-.2,0-.7-.2-.9,0-.2.2,0,.5.2.3.2-.1.5,0,.5.2,0,.1,0,.2,0,.4,0,.1.1.3.2.2,0,0,0,0,.1,0,.1-.1.4-.2.5,0,0,.2-.2.3-.2.5,0,.2,0,.4.2.4.2,0,.5-.1.6,0,.1,0,0,.3.2.4.1.2.4.1.5,0,.1-.1.2-.3.2-.5,0-.2,0-.4,0-.6,0-.2.1-.4,0-.5Z" style="fill:#990116; stroke-width:0px;"/><path d="m20.2,112.7c-.2-.1-.6-.1-.8,0-.2.1-.4.3-.6.6-.1.2-.2.3-.3.5,0,.2,0,.4.2.5,0,0,.2.1.3.2.1,0,.3.2.4.3,0-.2.2-.3.3-.5,0-.2.2-.3.3-.4.2,0,.5,0,.6-.2,0,0,0,0,0,0,0-.4,0-.8-.4-1Z" style="fill:#eb0001; stroke-width:0px;"/><path d="m33.3,98.6c-2.1,5.5-8.3,8.3-13.8,6.2-5.5-2.1-8.3-8.3-6.2-13.8,2.1-5.5,8.3-8.3,13.8-6.2,5.5,2.1,8.3,8.3,6.2,13.8Z" style="fill:#cb2302; stroke-width:0px;"/><path d="m32.9,98.4c-2,5.3-7.9,8-13.2,6-5.3-2-8-7.9-6-13.2,2-5.3,7.9-8,13.2-6,5.3,2,8,7.9,6,13.2Z" style="fill:#8e1330; stroke-width:0px;"/><path d="m31,96.2c-1.7,4.5-6.7,6.8-11.3,5.1-4.5-1.7-6.8-6.7-5.1-11.3s6.7-6.8,11.3-5.1c4.5,1.7,6.8,6.7,5.1,11.3Z" style="fill:#da1a38; isolation:isolate; opacity:.5; stroke-width:0px;"/><path d="m28.8,94.6c-1.4,3.7-5.6,5.6-9.3,4.2-3.7-1.4-5.6-5.6-4.2-9.3,1.4-3.7,5.6-5.6,9.3-4.2,3.7,1.4,5.6,5.6,4.2,9.3Z" style="fill:#da1a38; isolation:isolate; opacity:.5; stroke-width:0px;"/><g style="opacity:.5;"><path d="m24,95c-.2-1.8.5-3.7,1.9-5,.4-.4.9-.7.9-1.3,0-.2,0-.4-.2-.6-.1-.3-.3-.5-.5-.7l.2.2c-.5-.6-1.2-1.1-1.9-1.4,0,0-.1,0-.2,0h0c-.9-.3-2-.4-3-.2-1.8.4-3.4,1.7-4.2,3.3-.8,1.7-.9,3.6-.4,5.4.2.7.5,1.4.9,2,.8,1.1,2.2,1.9,3.6,1.9,1.2,0,2.6-.5,2.9-1.7.2-.6,0-1.2,0-1.8Z" style="fill:#e93b49; stroke-width:0px;"/></g><g style="opacity:.3;"><path d="m19,86.5c-1.9.6-3.2,2.3-2.9,4.2,0,.1,0,.3,0,.4.1.5.5,1.1,1,1.2.3,0,.6,0,.8,0,1.7-.4,3.2-1.7,4-3.2.1-.3.3-.5.3-.8.1-.8-.4-1.6-1.1-1.9-.6-.2-1.3-.1-1.9,0-.1,0-.2,0-.3,0Z" style="fill:#fff; stroke-width:0px;"/></g><path d="m18.8,87.2c-1.1.3-1.9,1.4-1.7,2.5,0,0,0,.2,0,.2,0,.3.3.6.6.7.2,0,.3,0,.5,0,1-.3,1.9-1,2.3-1.9,0-.2.1-.3.2-.5,0-.5-.2-.9-.6-1.1-.4-.1-.8,0-1.1,0,0,0-.1,0-.2,0Z" style="fill:#fff; stroke-width:0px;"/><path d="m15.1,100.7c.3-1.1-.3-2.3-1.3-2.8,0,0,0,0-.1,0,0,0-.1,0-.1,0-.6.6-1.4.9-2.2.9l-.4.2c0,.2.3.3.5.5.3.2.2.7.6.9.1,0,.3,0,.3.2,0,0,0,.1,0,.2l-.2,1.1c0,.2.2.4.4.2.4-.3.8-.6,1.1-1,.2-.1.3-.3.6-.3.3,0,.6.2.8,0,0,0,0-.1,0-.2Z" style="fill:#cb2302; stroke-width:0px;"/><path d="m12.3,101.5c-.2,0-.7,0-.6-.2,0-.1.1-.2.2-.3s0-.2,0-.3c0,0,0,0-.1,0-.2,0,.4-.3.4-.5,0-.2-.2-.3-.3-.4-.1-.1-.4-.1-.5-.3,0-.1,0-.3,0-.4,0-.2-.2-.3-.4-.2-.2,0-.2-.1-.3,0s-.1.7-.2.9c-.2.4-.3.8-.1,1,.2.2.3.3.6.4.3,0,.4.3.2.7,0,.1,0,.2,0,.3.1.2,1.1.3,1.4.2.2,0,.2-1-.1-.9Z" style="fill:#c6ce4c; stroke-width:0px;"/><path d="m13.6,100.8c0,0,0-.2-.2-.2-.3-.3-.5-.7-1-.7-.4,0-.9,0-.7-.5,0-.1,0-.3-.1-.4-.2-.2-.7-.5-1-.4-.3.1-.3.6,0,.4.3,0,.5.3.5.5,0,.1-.1.2-.2.4s0,.3.1.3c0,0,.1,0,.2,0,.2,0,.5,0,.5.2,0,.2-.3.3-.5.4-.2.2-.1.5,0,.6.2.1.6,0,.7.3,0,.2,0,.3,0,.5,0,.2.3.3.6.2.2,0,.4-.3.5-.5,0-.2.2-.4.3-.6.1-.2.3-.3.2-.5Z" style="fill:#990116; stroke-width:0px;"/><path d="m15,99.7c-.2-.3-.6-.4-.9-.3-.3,0-.6.2-.9.3-.2.1-.4.3-.5.5s-.2.5,0,.7c0,.1.2.2.3.3.1.1.2.3.3.5.2-.1.4-.3.5-.4.2-.1.3-.3.6-.3.2,0,.5.2.7,0,0,0,0,0,0,0,.2-.4.3-.9,0-1.3Z" style="fill:#eb0001; stroke-width:0px;"/><path d="m30.8,95.3c.5,4.4-2.7,8.4-7.1,8.9-1.5.2-1.2.4.5.3,4.4-.5,7.6-4.5,7.1-8.9-.3-2.9-.8-3-.5-.3Z" style="fill:#fff; isolation:isolate; opacity:.3; stroke-width:0px;"/><path d="m47.4,94c4.4,4.9,4.1,12.4-.8,16.8-4.9,4.4-12.4,4.1-16.8-.8-4.4-4.9-4.1-12.4.8-16.8,4.9-4.4,12.4-4.1,16.8.8Z" style="fill:#b70847; stroke-width:0px;"/><path d="m45.2,106.9c-3,4.4-9.1,5.5-13.5,2.5s-5.5-9.1-2.5-13.5c3-4.4,9.1-5.5,13.5-2.5,4.4,3,5.5,9.1,2.5,13.5Z" style="fill:#da1a38; isolation:isolate; opacity:.5; stroke-width:0px;"/><path d="m43.3,104.6c-2.5,3.7-7.6,4.6-11.2,2.1-3.7-2.5-4.6-7.6-2.1-11.2,2.5-3.7,7.6-4.6,11.2-2.1,3.7,2.5,4.6,7.6,2.1,11.2Z" style="fill:#da1a38; isolation:isolate; opacity:.5; stroke-width:0px;"/><g style="opacity:.5;"><path d="m38.1,103.7c.3-2,1.5-3.9,3.3-4.9.5-.3,1.1-.6,1.3-1.1,0-.2,0-.5,0-.8,0-.3-.2-.6-.4-.9l.2.3c-.4-.8-1-1.5-1.7-2,0,0,0,0-.1-.1h0c-.9-.6-2-1-3.2-1-2.1,0-4.1.9-5.4,2.5s-2,3.7-1.9,5.7c0,.8.2,1.7.5,2.4.6,1.4,1.9,2.6,3.4,3,1.3.4,2.9.1,3.5-1.1.3-.6.3-1.3.4-2Z" style="fill:#e93b49; stroke-width:0px;"/></g><path d="m48.5,101.2c.8,5.6-3,10.8-8.6,11.7-1.9.3-1.5.6.7.3,5.6-.8,9.5-6,8.6-11.7-.5-3.7-1.2-3.7-.7-.3Z" style="fill:#fff; isolation:isolate; opacity:.4; stroke-width:0px;"/><path d="m40.4,113.1c-.9-.9-2.5-.9-3.4,0,0,0,0,0,0,.1,0,0,0,.1,0,.2.3.9.2,1.8-.2,2.6v.4c.2,0,.4-.2.7-.2.4-.1.8.1,1.2-.1.1,0,.2-.3.4-.2,0,0,.1,0,.2,0l1,.8c.2.2.5,0,.4-.3-.1-.5-.3-1.1-.4-1.6,0-.2-.1-.5,0-.7.1-.3.5-.5.4-.8,0,0,0-.1-.1-.2Z" style="fill:#cb2302; stroke-width:0px;"/><path d="m39.8,116.4c0,.2-.4.7-.5.5,0,0-.1-.2-.2-.3s-.2-.2-.3,0c0,0,0,0,0,.1,0,.2-.1-.5-.3-.6-.2-.1-.4,0-.6.1-.2,0-.3.4-.5.3-.1,0-.2-.2-.4-.2-.2,0-.4,0-.4.3,0,.2-.2.2-.1.4.1.2.7.5.8.7.3.5.7.7.9.6.3,0,.5-.1.7-.4.2-.3.5-.2.8.1,0,.1.2.1.3,0,.2,0,.9-1,.9-1.3,0-.3-.9-.7-.9-.3Z" style="fill:#c6ce4c; stroke-width:0px;"/><path d="m39.7,114.7c-.1,0-.2,0-.3,0-.4.2-.9.2-1.1.6-.2.4-.5.9-.9.5-.1-.1-.3-.1-.5-.1-.3,0-.9.4-.9.8,0,.4.4.6.4.1,0-.3.5-.4.7-.2.1.1.2.3.3.4.1.1.3.2.4,0,0,0,0-.1,0-.2,0-.2.3-.5.5-.4.2.1.1.5.2.7,0,.2.4.4.6.2.2-.1.4-.5.6-.5.2,0,.3.2.5.3.3,0,.5-.2.5-.4,0-.3-.1-.5-.3-.7-.2-.2-.4-.4-.5-.6-.1-.2-.2-.5-.4-.5Z" style="fill:#990116; stroke-width:0px;"/><path d="m39.2,112.8c-.4,0-.6.4-.8.7-.1.3-.2.7-.1,1.1,0,.3,0,.5.2.8.1.2.4.4.7.4.2,0,.3,0,.5-.1.2,0,.4,0,.6,0,0-.3-.1-.5-.2-.8,0-.2-.1-.5,0-.7.1-.2.4-.4.5-.7,0,0,0,0,0,0-.3-.4-.8-.8-1.3-.6Z" style="fill:#eb0001; stroke-width:0px;"/><path d="m48.5,85.5c-2.5,6.5-9.8,9.8-16.3,7.3-6.5-2.5-9.8-9.8-7.3-16.3,2.5-6.5,9.8-9.8,16.3-7.3s9.8,9.8,7.3,16.3Z" style="fill:#cb2302; stroke-width:0px;"/><path d="m48.1,85.4c-2.4,6.3-9.4,9.4-15.6,7-6.3-2.4-9.4-9.4-7-15.6,2.4-6.3,9.4-9.4,15.6-7,6.3,2.4,9.4,9.4,7,15.6Z" style="fill:#a00746; stroke-width:0px;"/><path d="m47.2,81.9c0,5.7-4.5,9.3-8.4,10-.6,0-2.4.7-.7.6,5-.4,9.7-4.5,9.7-10.1,0-3.7-.6-3.9-.6-.4Z" style="fill:#fff; isolation:isolate; opacity:.4; stroke-width:0px;"/><path d="m45.8,82.7c-2,5.3-8,8-13.3,6-5.3-2-8-8-6-13.3,2-5.3,8-8,13.3-6,5.3,2,8,8,6,13.3Z" style="fill:#da1a38; isolation:isolate; opacity:.5; stroke-width:0px;"/><path d="m43.2,80.9c-1.7,4.4-6.6,6.6-11,5-4.4-1.7-6.6-6.6-5-11s6.6-6.6,11-5,6.6,6.6,5,11Z" style="fill:#da1a38; isolation:isolate; opacity:.5; stroke-width:0px;"/><g style="opacity:.5;"><path d="m37.6,81.3c-.2-2.2.6-4.4,2.2-5.9.5-.4,1-.9,1-1.5,0-.3,0-.5-.2-.8-.2-.3-.4-.6-.6-.8l.3.2c-.6-.7-1.4-1.3-2.2-1.7,0,0-.1,0-.2-.1h.1c-1.1-.4-2.4-.5-3.5-.3-2.1.4-4,2-4.9,3.9-1,2-1.1,4.3-.5,6.4.2.9.6,1.7,1.1,2.4,1,1.3,2.6,2.2,4.2,2.3,1.4,0,3-.6,3.4-2,.2-.7,0-1.4,0-2.2Z" style="fill:#e93b49; stroke-width:0px;"/></g><g style="opacity:.3;"><path d="m31.2,71.3c-2.3.8-3.4,3.2-2.2,5.8,0,.2.2.4.3.5.4.7,1.1,1.5,1.9,1.7.4,0,.8,0,1.1,0,2.1-.6,3.7-2.3,4.1-4.5,0-.4.1-.7,0-1.2-.2-1.1-1.1-2.2-2.3-2.5-.9-.3-1.8-.1-2.6,0-.1,0-.3,0-.4.1Z" style="fill:#fff; stroke-width:0px;"/></g><path d="m31.2,72.3c-1.1.4-1.7,1.6-1.1,2.9,0,0,0,.2.1.3.2.4.5.7.9.8.2,0,.4,0,.5,0,1.1-.3,1.8-1.2,2.1-2.2,0-.2,0-.4,0-.6,0-.5-.6-1.1-1.1-1.3-.5-.2-.9,0-1.3,0,0,0-.1,0-.2,0Z" style="fill:#fff; stroke-width:0px;"/><g style="opacity:.3;"><path d="m30.6,95c-1.9,1.3-2.6,3.9-1.4,6.2,0,.2.2.3.3.5.4.6,1.1,1.3,1.8,1.3.4,0,.7-.1,1-.3,1.8-1.1,3-3.1,3.2-5.3,0-.4,0-.8,0-1.2-.2-1-1.2-1.9-2.2-2-.8-.1-1.6.2-2.3.6-.1,0-.2.1-.3.2Z" style="fill:#fff; stroke-width:0px;"/></g><path d="m30.2,96.4c-.9.8-1,2,0,3,0,0,.1.1.2.2.3.3.7.5,1.1.4.2,0,.4-.1.5-.2.9-.7,1.3-1.7,1.1-2.7,0-.2,0-.4-.2-.5-.3-.5-.9-.8-1.5-.8-.5,0-.8.2-1.2.5,0,0-.1,0-.2.1Z" style="fill:#fff; stroke-width:0px;"/><path d="m27.1,88.1c.4-1.3-.3-2.8-1.5-3.3,0,0,0,0-.1,0,0,0-.1,0-.2.1-.7.7-1.6,1.1-2.6,1l-.4.2c0,.3.4.4.6.5.3.3.3.9.7,1.1.1,0,.4,0,.4.2,0,0,0,.1,0,.2l-.3,1.3c0,.3.2.4.4.3.4-.4.9-.8,1.3-1.1.2-.2.4-.3.6-.3.3,0,.7.3,1,0,0,0,0-.1.1-.2Z" style="fill:#cb2302; stroke-width:0px;"/><path d="m23.7,89c-.2,0-.8,0-.7-.2,0-.1.2-.2.2-.3,0-.1,0-.3,0-.3,0,0-.1,0-.2,0-.2,0,.4-.4.5-.6,0-.2-.2-.4-.4-.5-.2-.1-.5-.1-.6-.3,0-.1,0-.3,0-.5,0-.2-.3-.3-.5-.3-.2,0-.3-.1-.4,0-.1.2-.2.9-.3,1-.3.5-.3.9-.2,1.1.2.3.3.4.7.4.3,0,.5.3.3.8,0,.1,0,.2,0,.3.1.2,1.4.3,1.6.3.3,0,.2-1.2-.1-1Z" style="fill:#c6ce4c; stroke-width:0px;"/><path d="m25.3,88.2c0-.1-.1-.2-.2-.2-.3-.3-.6-.8-1.1-.8-.4,0-1.1,0-.9-.6,0-.2,0-.4-.1-.5-.2-.2-.8-.6-1.2-.5-.4.1-.4.7,0,.5.3,0,.6.3.5.6,0,.2-.2.3-.2.4,0,.2,0,.4.2.4,0,0,.1,0,.2,0,.2,0,.6,0,.6.3,0,.3-.4.3-.6.5-.2.2-.2.5,0,.7.3.2.7,0,.8.4,0,.2,0,.4,0,.6,0,.3.4.4.7.3.3,0,.4-.3.5-.6.1-.2.2-.5.4-.7.1-.2.4-.4.3-.6Z" style="fill:#990116; stroke-width:0px;"/><path d="m26.9,86.8c-.2-.3-.7-.4-1-.4-.4,0-.8.2-1.1.4-.2.1-.5.3-.6.6-.1.2-.2.6,0,.8,0,.2.2.3.3.4.2.2.3.4.3.6.2-.2.4-.4.6-.5.2-.2.4-.3.6-.3.3,0,.6.2.9,0,0,0,0,0,0,0,.3-.5.3-1.1,0-1.5Z" style="fill:#eb0001; stroke-width:0px;"/><path d="m66.1,62.8c6.8,3.6,9.4,12.1,5.7,18.9-3.6,6.8-12.1,9.4-18.9,5.7-6.8-3.6-9.4-12.1-5.7-18.9,3.6-6.8,12.1-9.4,18.9-5.7Z" style="fill:#cb2302; stroke-width:0px;"/><path d="m65.9,63.3c6.5,3.5,9,11.6,5.5,18.2-3.5,6.5-11.6,9-18.2,5.5-6.5-3.5-9-11.6-5.5-18.2,3.5-6.5,11.6-9,18.2-5.5Z" style="fill:#960924; stroke-width:0px;"/><path d="m71.3,74.9c.7,6.1-3.6,11.6-9.7,12.3-2.1.2-1.6.6.7.3,6.1-.7,10.4-6.2,9.7-12.3-.5-4-1.1-4.1-.7-.3Z" style="fill:#fff; isolation:isolate; opacity:.4; stroke-width:0px;"/><path d="m66.5,82.3c-4.1,4.8-11.3,5.4-16.1,1.4-4.8-4.1-5.4-11.3-1.4-16.1,4.1-4.8,11.3-5.4,16.1-1.4,4.8,4.1,5.4,11.3,1.4,16.1Z" style="fill:#da1a38; isolation:isolate; opacity:.5; stroke-width:0px;"/><path d="m64.5,79.4c-3.4,4-9.4,4.5-13.4,1.1-4-3.4-4.5-9.4-1.1-13.4,3.4-4,9.4-4.5,13.4-1.1,4,3.4,4.5,9.4,1.1,13.4Z" style="fill:#da1a38; isolation:isolate; opacity:.5; stroke-width:0px;"/><g style="opacity:.5;"><path d="m58.5,77.8c.6-2.3,2.3-4.4,4.5-5.3.6-.3,1.4-.5,1.6-1.2.1-.3,0-.6,0-.9,0-.4-.2-.7-.3-1.1l.2.3c-.3-1-1-1.9-1.7-2.6,0,0-.1-.1-.2-.2h0c-1-.8-2.3-1.4-3.6-1.6-2.4-.3-4.9.6-6.6,2.3-1.7,1.7-2.7,4.1-2.9,6.5,0,1,0,2,.3,2.9.5,1.8,1.9,3.2,3.6,3.9,1.5.6,3.4.5,4.3-.8.4-.7.5-1.5.7-2.3Z" style="fill:#e93b49; stroke-width:0px;"/></g><g style="opacity:.3;"><path d="m52.3,66.3c-2.7,1.1-4.3,4.2-3.3,7.4,0,.2.2.5.2.7.4.9,1,1.8,1.9,2,.4,0,.9,0,1.3-.2,2.5-.9,4.6-3.1,5.4-5.8.1-.5.2-.9.2-1.5,0-1.3-1-2.7-2.2-3.1-1-.4-2,0-3,.2-.2,0-.3.1-.5.2Z" style="fill:#fff; stroke-width:0px;"/></g><path d="m51.9,67.7c-1.3.5-2.1,2-1.6,3.6,0,.1,0,.2.1.3.2.4.5.9.9,1,.2,0,.4,0,.6,0,1.2-.4,2.2-1.5,2.6-2.8,0-.2.1-.5.1-.7,0-.6-.5-1.3-1.1-1.5-.5-.2-1,0-1.4.1,0,0-.2,0-.2,0Z" style="fill:#fff; stroke-width:0px;"/><path d="m65.9,86.7c-1.3-.6-3.1,0-3.8,1.2,0,0,0,0,0,.2,0,0,0,.1,0,.2.6.8.9,1.9.8,3l.2.5c.3,0,.4-.3.7-.5.4-.3,1-.2,1.2-.6.1-.2.2-.4.3-.4,0,0,.2,0,.2,0l1.4.5c.3,0,.5-.2.4-.4-.4-.5-.7-1.1-1.1-1.6-.1-.2-.3-.5-.3-.8,0-.4.4-.8.2-1.1,0,0-.1-.1-.2-.2Z" style="fill:#cb2302; stroke-width:0px;"/><path d="m66.5,90.5c0,.3-.1.9-.4.8-.1,0-.2-.2-.3-.3-.1,0-.3,0-.4,0,0,0,0,.1,0,.2,0,.2-.4-.5-.6-.6-.2,0-.5.2-.6.4-.2.2-.2.5-.5.6-.2,0-.3-.1-.5-.1-.2,0-.4.3-.4.5,0,.2-.2.3,0,.4s.9.3,1.1.4c.5.4,1,.5,1.2.3.3-.2.5-.3.6-.7,0-.4.4-.5.9-.2.1,0,.2,0,.4,0,.2-.1.6-1.4.5-1.7,0-.3-1.2-.4-1.2,0Z" style="fill:#c6ce4c; stroke-width:0px;"/><path d="m65.8,88.7c-.1,0-.2.1-.3.2-.4.3-1,.6-1,1.1,0,.5-.1,1.2-.8.9-.2,0-.4,0-.6,0-.3.2-.8.8-.7,1.2,0,.4.7.5.5,0,0-.4.4-.7.8-.5.2,0,.3.2.5.3.2,0,.4,0,.5-.1,0,0,0-.2,0-.2,0-.3,0-.6.4-.6.3,0,.3.5.5.7.2.2.6.2.8,0,.2-.3.2-.7.5-.8.2,0,.4,0,.7,0,.3,0,.5-.4.4-.7,0-.3-.3-.5-.6-.7-.3-.2-.5-.3-.8-.5-.2-.2-.4-.5-.7-.4Z" style="fill:#990116; stroke-width:0px;"/><path d="m64.5,86.7c-.4.2-.6.7-.6,1.1,0,.4,0,.9.3,1.3.1.3.3.6.5.8.2.2.6.3.9.2.2,0,.3-.2.5-.3.2-.1.5-.2.7-.3-.2-.3-.3-.5-.5-.8-.1-.2-.3-.5-.3-.8,0-.3.3-.7.2-.9,0,0,0,0,0,0-.5-.4-1.2-.5-1.7-.2Z" style="fill:#eb0001; stroke-width:0px;"/><path d="m65.5,56.2c-2.7,7.2-10.8,10.9-18.1,8.1s-10.9-10.8-8.1-18.1c2.7-7.2,10.8-10.9,18.1-8.1,7.2,2.7,10.9,10.8,8.1,18.1Z" style="fill:#cb2302; stroke-width:0px;"/><path d="m64.9,56c-2.6,6.9-10.4,10.4-17.3,7.8-6.9-2.6-10.4-10.4-7.8-17.3,2.6-6.9,10.4-10.4,17.3-7.8,6.9,2.6,10.4,10.4,7.8,17.3Z" style="fill:#c42708; stroke-width:0px;"/><path d="m62.5,53.1c-2.2,5.9-8.8,8.9-14.7,6.6-5.9-2.2-8.9-8.8-6.6-14.7s8.8-8.9,14.7-6.6c5.9,2.2,8.9,8.8,6.6,14.7Z" style="fill:#da1a38; isolation:isolate; opacity:.5; stroke-width:0px;"/><path d="m59.6,51.1c-1.9,4.9-7.3,7.4-12.2,5.5-4.9-1.9-7.4-7.3-5.5-12.2s7.3-7.4,12.2-5.5c4.9,1.9,7.4,7.3,5.5,12.2Z" style="fill:#da1a38; isolation:isolate; opacity:.5; stroke-width:0px;"/><g style="opacity:.5;"><path d="m53.4,51.5c-.3-2.4.7-4.9,2.4-6.5.5-.5,1.1-1,1.1-1.6,0-.3-.1-.6-.2-.8-.2-.3-.4-.6-.7-.9l.3.2c-.6-.8-1.5-1.4-2.5-1.8,0,0-.1,0-.2-.1h.1c-1.2-.4-2.6-.6-3.9-.3-2.4.5-4.4,2.2-5.5,4.3s-1.2,4.7-.6,7.1c.3.9.6,1.9,1.2,2.7,1.1,1.5,2.9,2.4,4.7,2.5,1.6,0,3.4-.7,3.8-2.2.2-.8,0-1.6,0-2.4Z" style="fill:#e93b49; stroke-width:0px;"/></g><g style="opacity:.3;"><path d="m48.7,38.8c-3.2.4-5.8,2.8-5.9,6,0,.2,0,.5,0,.7,0,.9.4,1.9,1.2,2.3.4.2.9.2,1.4.2,2.9-.2,5.7-1.7,7.4-4,.3-.4.6-.8.7-1.3.4-1.2-.1-2.7-1.2-3.4-.9-.6-2-.6-3.1-.5-.2,0-.4,0-.5,0Z" style="fill:#fff; stroke-width:0px;"/></g><path d="m47.9,40.4c-1.5.1-2.7,1.2-2.8,2.7,0,.1,0,.2,0,.3,0,.4.2.9.5,1.1.2,0,.4,0,.6,0,1.3,0,2.6-.7,3.5-1.8.1-.2.3-.4.4-.6.2-.6,0-1.2-.5-1.6-.4-.3-.9-.3-1.4-.3,0,0-.2,0-.3,0Z" style="fill:#fff; stroke-width:0px;"/><path d="m41.7,59c.4-1.4-.4-3.1-1.7-3.6,0,0-.1,0-.2,0,0,0-.1,0-.2.1-.7.7-1.8,1.2-2.9,1.1l-.5.2c0,.3.4.4.6.6.3.3.3,1,.7,1.2.2,0,.4.1.5.3,0,0,0,.2,0,.2l-.3,1.5c0,.3.3.5.5.3.5-.4,1-.8,1.5-1.3.2-.2.4-.4.7-.4.4,0,.8.3,1.1,0,0,0,0-.2.1-.2Z" style="fill:#cb2302; stroke-width:0px;"/><path d="m38,60.1c-.3,0-.9,0-.8-.3,0-.1.2-.2.2-.3s0-.3,0-.4c0,0-.1,0-.2,0-.2,0,.5-.4.5-.7,0-.2-.3-.4-.4-.6-.2-.2-.6-.1-.6-.4,0-.2,0-.3,0-.5,0-.2-.3-.4-.5-.3-.2,0-.3-.1-.4,0-.1.2-.2,1-.3,1.2-.3.6-.4,1-.2,1.3.2.3.4.5.8.5.4,0,.5.4.3.9,0,.1,0,.3,0,.4.2.2,1.5.4,1.8.3.3,0,.2-1.3-.2-1.1Z" style="fill:#c6ce4c; stroke-width:0px;"/><path d="m39.7,59.2c0-.1-.1-.2-.2-.3-.4-.3-.7-.9-1.2-.9-.5,0-1.2,0-1-.7,0-.2,0-.4-.2-.6-.2-.3-.9-.7-1.3-.5-.4.1-.4.8,0,.5.4,0,.7.3.6.7,0,.2-.2.3-.3.5,0,.2,0,.4.2.5,0,0,.2,0,.2,0,.3,0,.6,0,.6.3,0,.3-.4.4-.6.6-.2.2-.2.6,0,.8.3.2.7,0,.9.4,0,.2,0,.5,0,.7,0,.3.5.4.7.3s.5-.4.6-.7c.1-.3.2-.6.4-.8.2-.2.4-.5.3-.7Z" style="fill:#990116; stroke-width:0px;"/><path d="m41.5,57.6c-.3-.3-.7-.5-1.2-.5s-.8.2-1.2.4c-.3.2-.5.4-.7.6-.2.3-.2.6,0,.9,0,.2.2.3.4.4.2.2.3.4.4.7.2-.2.5-.4.7-.6.2-.2.4-.4.7-.4.3,0,.7.2,1,.1,0,0,0,0,0,0,.3-.5.4-1.2,0-1.7Z" style="fill:#eb0001; stroke-width:0px;"/><path d="m63.3,55.8c-2.3,6-8.9,9-14.9,6.7-2-.8-1.8-.2.5.7,6,2.3,12.6-.7,14.9-6.7,1.5-3.9.9-4.3-.5-.7Z" style="fill:#fff; isolation:isolate; opacity:.4; stroke-width:0px;"/><text transform="translate(17 129) rotate(17.9)" style="fill:#163768; font-family:MyriadPro-Regular, &apos;Myriad Pro&apos;; font-size:19.8px;"><tspan x="0" y="0">П</tspan></text><text transform="translate(30.3 133) rotate(9.7)" style="fill:#163768; font-family:MyriadPro-Regular, &apos;Myriad Pro&apos;; font-size:19.8px;"><tspan x="0" y="0">а</tspan></text><text transform="translate(40.7 134.8) rotate(3.3)" style="fill:#163768; font-family:MyriadPro-Regular, &apos;Myriad Pro&apos;; font-size:19.8px;"><tspan x="0" y="0">р</tspan></text><text transform="translate(52.9 135.4) rotate(-2.7)" style="fill:#163768; font-family:MyriadPro-Regular, &apos;Myriad Pro&apos;; font-size:19.8px;"><tspan x="0" y="0">э</tspan></text><text transform="translate(62.8 134.9) rotate(-8.6)" style="fill:#163768; font-family:MyriadPro-Regular, &apos;Myriad Pro&apos;; font-size:19.8px;"><tspan x="0" y="0">ч</tspan></text><text transform="translate(74 133.2) rotate(-15.7)" style="fill:#163768; font-family:MyriadPro-Regular, &apos;Myriad Pro&apos;; font-size:19.8px;"><tspan x="0" y="0">к</tspan></text><text transform="translate(84 130.1) rotate(-22.2)" style="fill:#163768; font-family:MyriadPro-Regular, &apos;Myriad Pro&apos;; font-size:19.8px;"><tspan x="0" y="0">і</tspan></text></g></svg>