<?xml version="1.0" encoding="UTF-8"?><svg id="_Слой_2" xmlns="http://www.w3.org/2000/svg" viewBox="0 0 111.7 100.4"><g id="_шыпшы́на"><path d="m80.9,40c0-.1-.1-.2-.2-.3,0,.1.1.2.2.3Z" style="fill:none; stroke-width:0px;"/><path d="m82.2,41.9c-2.4,1.8-4.4,4.1-5.6,6.9-.4,1-.6,1.6-.5,2.7,0,.4.1.8,0,1.2,0,.8-.9,1.6.3,1.7,0,0,.2,0,.2.2,0,.7,0,2.3.5,2.8.5.4,0,.1.5,0,.1,0,.3-.2.5-.2.1,0,.2,0,.2,0,.2.5.6,2.7,1,2.9-.2-.1,1-.1.8-.1.6.2,1.2,1.3,1.5,1.8.4.5.7,1.1,1.1,1.6.7.8.6.8,1.2,0,0,0,.2-.1.3,0,.7.9,1.4,1.7,2,2.6.2.3.6,1.1,1.1,1.1.5,0,.6-.2.9-.5,0,0,.2,0,.3,0,.6.8,1.3,1.7,2,2.5.2.3,1.1,1.5,1.4,1.5.2,0,.2-.2.6-.3.5-.2.9.2,1.2.5.5.4.9.9,1.4,1.4.6.7,1.4,1.5,1.6,0,0-.1.2-.2.3,0,.6.6,1.2,1.2,1.8,1.9.9.9,1,.5,1.4-.5,0-.1.2-.1.3,0,1,.9,2,1.6,3.1,2.3.4.3.9.5,1.3.8.4.2,2.2,1.4,1.1-.6,0-.1,0-.3.2-.2.6.2,1.7,1,1.8,0,0-.3-.2-.7-.3-1.1,0-.4,0-.7.1-1.1.2-.4.7-.9.7-1.4,0-.4-.5-.9-.7-1.3-.3-.5-.5-.9-.5-1.5,0,0,0-.2.2-.2,1.6,0,1.1-1,.5-1.9,0-.1,0-.3.2-.2.6-.6.6-1.2.2-1.8,0-.2-.2-.4-.3-.6-.3-.6-.5-1.1-.8-1.7,0,0,0-.1,0-.2.3-.4.5-.3.9-.5,1-.6.6-1.3,0-2.2-1-1.6-2-3.1-3-4.7,0,0,0-.2,0-.2,1.4-1-1.2-2.6-1.6-3.4-.3-.5-.1-.7-.2-1.2,0-1-.8-1.6-1.2-2.5-.6-1.4-1-3-2.7-3.4-.1,0-.2-.2,0-.3.7-.8.5-1.1-.2-1.7-.6-.6-1.3-1.1-2.1-1.5-4-2.3-8.6-2.5-12.7-.5-1,.5-1.6.7-2.5-.2-.2-.2-.4-.6-.6-.8-.3-.3-.5-.5-.8-.8-.5,0-.6.2-.3.5,0,.2.2.5.3.8,0,.1.1.2.2.3.5.6,1.1,1.3,1.3,1.6,0,0,0,.2,0,.2Z" style="fill:#568f1c; stroke-width:0px;"/><path d="m108.3,67.2s0,0,0,0c0,0,0,0,.1,0,0,0,0,0-.1,0Z" style="fill:#d9e021; stroke-width:0px;"/><path d="m108.3,67.2s0,0,0,0c0,0,0,0,0,0,0,0,0,0,0,0Z" style="fill:#d9e021; stroke-width:0px;"/><path d="m97.3,40.5c-2.9-1.7-6.2-2.3-9.6-1.7-.9.2-1.7.4-2.5.7-.2.1-.5.2-.8.3-2.1,1.1-2.2,0-2.8-.8-.5-.7-1-1.3-2-1,0,0-.2.1,0,.2.5.8,1,1.5,1.5,2.2.6.8.6,1,0,1.7-1.1,1.1-2.2,2.1-3.1,3.4-.8,1.2-1.5,2.5-2,3.8-.2.4-.4,1-.4,1.4,0,.6.3,1.2.2,1.8,0,.6-.3,1.2-.6,1.7,0,.1,0,.2.1.2,1,.1.9.8,1,1.6.1.7.4,1.4.7,2,0,.1.2,0,.3,0,.9-1.4,1.1.2,1.3.6.2.5.4,1.1.6,1.6,0,.1.2.2.3,0,.5-.9,3.5,3.6,3.8,4,0,.1.2.1.3,0,.2-.3.3-.7.7-.6.3,0,.9.9,1,1.1.7.9,1.4,1.7,2,2.6,0,0,.2,0,.2,0,.4-.4.6-.8,1.1-.5,0,0,.8,1.1.8,1,.8,1,1.7,1.9,2.6,2.8.1,0,.3,0,.3-.1,0-1.1,2.2,1.1,2.3,1.2.5.5,1.1,1.1,1.6,1.6,0,0,.2,0,.3,0,.4-.7.3-1.3,1.1-.6.7.6,1.3,1.4,2,2.1,0,0,.2,0,.3,0,.2-.4.3-.7.5-1.1.4-.2.7,0,.9.3.4.2.9.7,1.3.9,1.2.9,2.6,1.6,4,2.2,0,0,.2,0,.2-.1,0,0,0-1.4,0-1.4,0,0,1.3.5,1.5.5,0,0,.2,0,.2-.1.2-.7,0-1.1-.2-1.8-.2-1.1.5-1.4.7-2.2.1-.6-.2-1.1-.5-1.5-.2-.3-.7-.9-.6-1.2.1-.6.8-.5,1.3-.6,0,0,.1-.1.1-.2,0,0-.4-1.4-.7-1.6,0,0,0,0-.1,0s0,0,0,0c0,0,0,0,0,0,0,0,0,0,.1,0,.2,0,.6-.3.6-.2.7-.7-.3-2.1-.6-2.8-.3-.6-.9-1.4-.1-1.9.2-.1.5,0,.7-.2.3-.1.4-.2.5-.5.1-.4-.2-.9-.4-1.2-.6-1.1-1.3-2.1-2-3.1-.4-.6-1.3-1.6-1.3-2.3,0-.4.3-.6.2-1,0-.4-.3-.8-.6-1.1-.2-.3-.5-.4-.8-.7-.9-.8-.6-.7-.7-2,0-.4,0-.3,0-.7-.2-.4-.7-.7-.9-1.1-.3-.5-.5-1-.7-1.5-.3-.8-.7-1.6-1.3-2.1-.6-.6-1.2-.4-.4-1.3,0,0,0-.2,0-.2-1-1-2-1.8-3.2-2.6Zm2.1,3.5c0,0,0,.2,0,.3,1.7.4,2.1,2,2.7,3.4.4.9,1.1,1.5,1.2,2.5,0,.5,0,.7.2,1.2.4.8,3.1,2.3,1.6,3.4,0,0-.1.1,0,.2,1,1.6,2,3.1,3,4.7.6.9.9,1.6,0,2.2-.4.2-.6.1-.9.5,0,0,0,.1,0,.2.3.6.5,1.1.8,1.7,0,.2.2.4.3.6.5.6.4,1.2-.2,1.8-.1,0-.3,0-.2.2.6.9,1.1,1.9-.5,1.9,0,0-.2,0-.2.2,0,.6.2,1,.5,1.5.2.4.7.9.7,1.3,0,.5-.5,1-.7,1.4-.1.4-.2.7-.1,1.1,0,.3.3.7.3,1.1-.1,1.1-1.2.3-1.8,0-.1,0-.2.1-.2.2,1.1,2-.7.9-1.1.6-.4-.2-.9-.5-1.3-.8-1.1-.7-2.1-1.5-3.1-2.3,0,0-.2,0-.3,0-.4,1-.5,1.5-1.4.5-.6-.6-1.2-1.2-1.8-1.9,0,0-.3,0-.3,0-.2,1.5-1,.7-1.6,0-.5-.5-.9-1-1.4-1.4-.3-.3-.7-.7-1.2-.5-.4.1-.4.4-.6.3-.3,0-1.2-1.3-1.4-1.5-.7-.8-1.3-1.6-2-2.5,0,0-.2-.1-.3,0-.3.3-.5.6-.9.5-.4,0-.8-.8-1.1-1.1-.7-.9-1.4-1.7-2-2.6,0,0-.2,0-.3,0-.6.8-.6.8-1.2,0-.4-.5-.7-1.1-1.1-1.6-.3-.5-.9-1.7-1.5-1.8.1,0-1.1,0-.8.1-.4-.2-.8-2.4-1-2.9,0-.1-.1-.1-.2,0-.1,0-.3.2-.5.2-.6.2,0,.5-.5,0-.6-.5-.5-2.1-.5-2.8,0,0,0-.2-.2-.2-1.1-.1-.3-.9-.3-1.7,0-.4,0-.8,0-1.2,0-1.1.1-1.7.5-2.7,1.2-2.8,3.2-5.1,5.6-6.9,0,0,.1-.1,0-.2-.3-.4-.9-1-1.3-1.6,0-.1-.1-.2-.2-.3-.2-.3-.3-.6-.4-.8-.3-.3-.2-.4.3-.5.3.3.5.5.8.8.2.3.3.6.6.8.8.9,1.5.7,2.5.2,4.2-2,8.7-1.8,12.7.5.7.5,1.4.9,2.1,1.5.7.6.9,1,.2,1.7Z" style="fill:#9bcc3e; stroke-width:0px;"/><g style="opacity:.5;"><path d="m90.4,40.8c-2.2.2-5.9,1.8-7.8.4,0-.1-.2-.3-.3-.4,0-.1-.3,0-.3,0,0,0-.1.2,0,.3.1.1.4.4.4.5.1.7,0,1.4,0,2-1.2,1.5-3.1,2.3-3.8,4.2,0,.2.3.3.3,0,.6-1.6,2.1-2.4,3.3-3.6-1,3.2-4.4,5.6-4.6,9.2,0,.2.3.2.3,0,.2-2.8,2.3-4.9,3.7-7.2,0,0,0,0,0,0,.2,1.2.2,2.4,0,3.5,0,.2.3.3.3,0,.2-1.2.1-2.8,0-4,.4-.7.7-1.4.9-2.2,0,0,0,0,0,0,0,0,0,0,0-.1.1-.5.1-1,.1-1.6.7,1,1.3,2.1,2,3.1,0,0,0,0,0,0,.9,2.1-.8,4.5-.9,4.6-.6.9-1.4,1.5-2.3,2.1-.5.3-1,.5-1.4.9-.8.8-1.1,2-1.3,3.1,0,.2.3.3.3,0,.2-.8.3-1.7.8-2.4.5-.8,1.1-1.1,1.9-1.5.6-.4,1.1-.8,1.6-1.3-.5.8-.9,1.6-1.2,2.2-.9,1.8-1.6,3.6-1.6,5.6,0,.2.3.2.3,0,0-2.8,1.5-5.4,2.8-7.8-.2,1.6,1,3.4,0,5-.1.2.2.3.3.2,1-1.6-.3-3.9,0-5.6,0-.2.2-.4.2-.4.6-1.2,1.3-2.6,1.1-3.9.8,1.2,2.2,3.4,2.3,3.5.6,1.7.2,3.5-.3,5.1-.8,1.2-2.2,2-3,3.2-.7,1.1-1.1,2.3-1,3.7,0,.2.3.2.3,0-.1-1.9.8-3.6,2.2-4.9.4-.4.8-.7,1.2-1-.2.5-.4,1-.6,1.5-.7,2.1-1,4.2-.9,6.4,0,.2.3.2.3,0-.1-2.3.3-4.3.9-6.3.2,1.5,1.1,2.7,2,3.9.1.2.4,0,.2-.2-1.1-1.3-2.1-2.7-1.9-4.5,0,0,0,0,0,0,.1-.3.2-.6.3-.9,0-.2.1-.3.2-.5.2-.3.2-.5.3-.9.3-1.2.5-2.3.1-3.5,1,1.4,2.9,4.5,2.9,4.5,1.1,2.2.5,4.4-.2,6.6,0,0,0,0,0,0-1.3.9-2.4,2.1-3.3,3.4-.1.2.2.3.3.2.8-1.2,1.8-2.2,2.9-3-.4,1.5-.7,3-.8,4.6,0,.2.3.2.3,0,.1-1.8.6-3.4,1.1-5,0,0,.2-.2,0-.3.2-.6.4-1.3.5-2,.3-1.3.2-2.5-.2-3.6,1.3,1.9,2.5,3.8,3.8,5.7.3.9,0,2-.3,3.1-.5.5-1.6.8-2.1,1.2-.5.4-.9,1-1.2,1.6,0,0-.2,0-.2.1,0,0,0,.2,0,.2,0,.2.2.2.3,0,.3-.5.6-1,.9-1.5.5-.6,1.1-.8,1.8-1.1,0,0,.1,0,.2-.1-.2.7-.5,1.3-.6,1.9-.4,1.3-.5,2.6-.3,3.9,0,.2.4.1.3,0-.2-1.1,0-2.1.1-3.1.7.8,1.4,1.7,1.2,2.8,0,.2.3.3.3,0,.2-1.3-.6-2.3-1.4-3.3,0,0,0,0,0,0,.2-.8.5-1.7.8-2.5.1-.2.2-.5.2-.7.2-.7.4-1.4.4-2.1.8,1.2,1.6,2.4,2.4,3.6.1,1.1-.6,2.4-.8,3.4-.2,1.1-.2,2.1,0,3.2,0,.2.4.2.3,0-.1-.8-.1-1.6,0-2.3.5,1.1,1.8,2.4,1,3.6-.1.2.2.3.3.2.9-1.4-.8-3.1-1.2-4.4,0-.4.1-.7.2-1.1.2-.7.5-1.3.6-2,1.1,1.5,2.1,3.1,3.1,4.7,0,0,0,0,0,0-.4.9-.6,1.8-.4,2.8,0,.2.4.2.3,0-.1-.9,0-1.7.4-2.5,1.3,2,2.7,3.9,4,5.9.1.2.4,0,.3-.2-1.3-2-2.7-4-4.1-6,1.2.2,2.5-.2,3.5.5.2.1.3-.2.2-.3-1.2-.8-2.5-.3-3.8-.6,0,0,0,0,0,0-1.1-1.6-2.2-3.3-3.3-4.9,1.2,0,2.4,0,3.5,0,0,0,0,0,0,0,.9,1.1,1.8,2.2,3.1,2.8.2,0,.4-.2.2-.3-1.2-.5-2.1-1.5-2.9-2.6,1.4,0,2.8.3,4.1,1,.2.1.3-.2.2-.3-2.6-1.5-5.6-.9-8.4-1.1,0,0,0,0,0,0-.9-1.3-1.8-2.7-2.7-4,0-.1-.1-.3-.2-.4.8.2,1.5.3,2.3.3,0,0,0,0,0,0,0,0,0,0,0,0,.6,0,1.1,0,1.7-.1,2.5-.3,4.6-.3,6.9.8.2,0,.4-.2.2-.3-1.5-.8-3.1-1.2-4.8-1.1-.9,0-1.9.2-2.8.3.3-.2.7-.4,1-.7.4-.3.7-.7,1.1-1.1.8-.8,1.6-.8,2.6-.5.2,0,.3-.3,0-.3-.9-.2-1.7-.4-2.5.2-1.2.9-1.9,2.2-3.5,2.5-.9,0-1.8,0-2.7-.5h0c-1.1-1.7-2.3-3.4-3.4-5.1,1.3.3,2.7.4,4,.4,0,0,0,0,0,.1,1.1,1.3,2.6,2.2,4.2,2.7.2,0,.3-.3,0-.3-1.6-.4-2.9-1.3-4-2.5.4,0,.9,0,1.3-.1,2.6-.3,4.9-.2,7.3,1.1.2.1.3-.2.2-.3-3.4-1.9-7-1.1-10.6-1.2,1.1-.4,1.9-1,2.9-1.6,1.4-.9,3-.9,4.6-.8.2,0,.2-.3,0-.3-1.2,0-2.5-.1-3.7.3-1.4.5-3,1.9-4.4,2.4-.7,0-1.4-.1-2.1-.3-1.1-1.6-2.1-3.1-3.2-4.7,1.3.6,2.7.7,4.1.7,0,0,.1.1.2.2.8.7,1.6,1.3,2.6,1.6.2,0,.3-.3,0-.3-.9-.3-1.8-.9-2.5-1.5,3.2-.2,6.6-1.2,9.4.9.2.1.4-.1.2-.2-4.3-3.4-10,.8-14.5-1.9-.8-1.2-1.5-2.4-2.3-3.6,1.1.4,2.3.4,3.4.4,0,0,0,0,0,0,1.2.2,2.2.9,3.3,1.3,1.1.4,2.2.6,3.3.9.2,0,.3-.3,0-.3-1.3-.3-2.6-.6-3.8-1.1-.7-.3-1.3-.7-2-.9,3.2-.3,6.6-1.3,9.5.4.2.1.3-.2.2-.3-3.2-1.9-6.8-.6-10.2-.4,1.8-.8,2.8-3.2,4.9-2.9.2,0,.3-.3,0-.3-2.5-.4-3.7,2.6-5.8,3.2-1.1,0-2.3-.1-3.4-.6-.7-1.1-1.5-2.2-2.2-3.4.8.3,1.8.3,2.7.2,0,0,0,0,0,0,1,.5,2,1,2.9,1.4.2,0,.4-.2.2-.3-.9-.4-1.8-.9-2.7-1.3.3,0,.6-.1.9-.2,2.8-.5,5.7-1.2,8.2.5.2.1.3-.2.2-.3-1.5-1-3.2-1.3-4.9-1.1Z" style="fill:#8bac17; stroke-width:0px;"/><path d="m101.4,60.5c-.2,0-.4.2-.2.3,1.5.6,2.3,2.1,3.9,2.6.2,0,.3-.3,0-.3-1.5-.5-2.3-2-3.8-2.6Z" style="fill:#8bac17; stroke-width:0px;"/></g><g style="opacity:.2;"><path d="m78.7,48.4c1-1.5,2.2-3.1,2.7-4.9,0,0,0-.1,0-.2,0,0-.1,0-.1,0-.5.4-1,.9-1.4,1.3-.5.5-.9,1.1-1.3,1.7-.9,1.3-1.8,2.6-1.9,4.2-.1,1.1.1,2.2-.2,3.2l.2-.3c0-1.9,1-3.6,2-5.1Z" style="fill:#274f03; stroke-width:0px;"/><g style="opacity:.8;"><path d="m80,59.4c0-.1.1-.3.1-.4,0-2,.5-3.9,1.4-5.7.5-1,1.1-1.9,1.6-2.9.5-1,1-2.1,1-3.2,0-.5,0-.9-.1-1.4-.1-.4-.3-.8-.6-1.2-.2-.4-.4-.8-.6-1.1,0,.6-.2,1.3-.5,1.9-.3.7-.6,1.3-1,1.9-.8,1.1-1.8,2.1-2.4,3.3-.3.6-.5,1.2-.7,1.8-.4,1.4-.6,2.8-.6,4.3,0,0,0,.1.1.1,0,0,0,0,.1,0,.2-.1.5,0,.6.2.1.2.2.4.3.6.1.4.2.8.3,1.3,0,.2.1.5.3.6.2.2.5.2.6,0Z" style="fill:#274f03; stroke-width:0px;"/></g><path d="m77.6,56.6s0,0,0,0c0,0,0,0,0,0h0Z" style="fill:#9bcc3e; stroke-width:0px;"/><g style="opacity:.6;"><path d="m84.2,62.3c.2.1.3.3.4.5.1.2.3.3.5.3-.3-1.1-.3-2.3-.1-3.4.2-1.1.6-2.2,1-3.3.6-1.7,1.2-3.5,1-5.3-.2-1.4-.9-2.8-1.6-4,0,1.4-.8,2.7-1.5,3.9-.8,1.3-1.6,2.7-2.2,4.2-.5,1.5-.8,3.1-.4,4.7l-.2-.5c0,1,.7,1.8,1.3,2.5.3.4.6.8,1.1,1,0,0,.1,0,.2,0,.1,0,.2-.2.2-.3,0-.1,0-.2,0-.4,0-.2.4-.2.5-.1Z" style="fill:#274f03; stroke-width:0px;"/></g><path d="m89.1,40.7c.4-.1.9-.3,1.4-.3.4,0,.8,0,1.2,0,1.6.2,3.1.9,4.5,1.6.3.1.5.2.7.4.5.3.8.8,1.2,1.1,0,0,0,0,.1,0,0,0,.2,0,.1-.2,0,0,0-.2-.1-.2-.8-1.2-2-2.1-3.2-2.7-1.3-.6-2.7-1-4.1-1.1-2.1-.1-4.3.2-6.3,1.1-.6.2-1.1.5-1.7.5h.2c1.9.5,4,.2,5.9-.3Z" style="fill:#274f03; stroke-width:0px;"/><path d="m83.6,42.5s0,0,0,0c0,0,0,0,0,0h0Z" style="fill:#9bcc3e; stroke-width:0px;"/><g style="opacity:.8;"><path d="m98.1,43.9c-.4-.3-.7-.7-1.1-1-.7-.6-1.7-.8-2.6-.9-.8-.2-1.5-.3-2.3-.4-2.5-.2-5,.8-7.5,1.1-.3,0-.7,0-.9-.1.2.6.5,1.2,1,1.7.8.9,2,1.3,3.1,1.4,1.2.1,2.3-.1,3.5-.3,1.2-.2,2.3-.5,3.5-.5,1,0,1.9.2,2.8.4.8.2,1.6.3,2.3.7.5.3,1,.7,1.3,1.1.2-.5,0-1.1-.3-1.5-.3-.4-.8-.7-1.3-.9-.5-.2-1-.4-1.4-.8Z" style="fill:#274f03; stroke-width:0px;"/></g><g style="opacity:.6;"><path d="m98.3,46.4c-.5-.1-1.1-.1-1.6-.2-1.9,0-3.8,0-5.6.2-1.6.2-3.4.4-4.9-.1h0c.5.8.8,1.7,1.5,2.4.6.7,1.5,1,2.4,1.1.9.1,1.8,0,2.7-.1,2.3-.3,4.6-.5,6.9,0,1.1.2,2.3.7,3.1,1.5.1-.1.1-.4.1-.6-.1-1.1-1.1-2-2-2.7-.8-.6-1.7-1.3-2.7-1.5Z" style="fill:#274f03; stroke-width:0px;"/></g><g style="opacity:.4;"><path d="m103.2,52.4c-.7-.4-1.5-.8-2.3-1.1-.5-.2-1.1-.5-1.6-.6-1.7-.4-3.4,0-5.1.2-1.7.3-3.5.4-5.1-.3h.1c.1.2.2.3.3.4.6.8.9,1.9,1.7,2.5.3.2.7.4,1,.5.5.2,1,.3,1.5.4,1.6.3,3.2-.2,4.8-.3,2.4-.2,4.9.4,6.9,1.8-.2-.7-.7-1.2-1.1-1.7.2.2.6-.1.6-.4,0-.3-.2-.5-.4-.7-.3-.3-.7-.5-1.1-.8Z" style="fill:#274f03; stroke-width:0px;"/></g><g style="opacity:.4;"><path d="m88.3,65.3c.1,0,.2,0,.2.2.1.2.3.5.4.7-.3-.7,0-1.6.1-2.3.3-1,.6-1.9.9-2.9.5-1.7,1-3.5.5-5.2-.5-1.5-1.7-2.7-2.2-4.2v-.2c-.2,1.6-.4,3.2-1,4.7-.3.7-.6,1.4-.8,2.2-.8,2.6-.5,5.5.9,7.8,0,.1.2.3.3.3.2,0,.3-.2.4-.4s0-.4.2-.6c0,0,0,0,.1-.1Z" style="fill:#274f03; stroke-width:0px;"/></g><g style="opacity:.6;"><path d="m93.4,66.8c.3-.9.6-1.8.9-2.7.3-.9.6-1.8.3-2.7-.2-.6-.6-1-.9-1.5-.6-.9-1.1-1.8-1.5-2.8v-.3c.3,1.6-.3,3.2-.8,4.8-.3,1-.5,2.1-.7,3.1,0,.5-.1,1-.1,1.5,0,1.2.6,2.5,1.5,3.3,0,0,.2.1.2.2,0-.3,0-.5.1-.8.2.2.5.5.7.7-.2-1,0-1.9.4-2.9Z" style="fill:#9bcc3e; stroke-width:0px;"/></g><g style="opacity:.6;"><path d="m103.7,56.4c-2.3-1-5-.9-7.6-.7-1.3.1-2.6.2-3.9-.3v.2c.8.9,1.4,1.8,2,2.7.2.3.4.6.7.8.3.2.7.4,1.1.5.6.1,1.1.2,1.7.3.4,0,.7,0,1.1,0,.3,0,.5-.2.7-.2.5-.1.9-.2,1.4-.2,1.9,0,3.9.4,5.5,1.5.2.1.4.3.7.3.2,0,.5,0,.7-.2.1-.2.1-.5,0-.7-.1-.7-.5-1.3-1-1.8-.5-.5-1.1-.9-1.7-1.3-.5-.3-1.1-.7-1.6-.9Z" style="fill:#9bcc3e; stroke-width:0px;"/></g><path d="m100.3,61c-.8,0-1.7-.1-2.5,0-.6,0-1.2.3-1.7,0h0c.5.9,1,1.7,1.5,2.5.1.2.3.4.4.6.6.6,1.5.6,2.4.6,2.5,0,5.1,0,7.4,1.2,0,0,.1,0,.2,0,0,0,0-.1,0-.2,0-.5-.2-1-.4-1.5-1-1.9-3.1-3.2-5.3-3.2-.7,0-1.3,0-2,0Z" style="fill:#9bcc3e; stroke-width:0px;"/><path d="m97.2,67.1c.2-.5.4-1,.3-1.6,0-.4-.4-.7-.6-1.1-.5-.6-.9-1.2-1.2-1.9h0c.1,1.2-.4,2.4-.8,3.6-.2.6-.4,1.2-.5,1.9-.1.6-.2,1.1,0,1.7.2,1.1,1.1,1.9,2,2.6,0-.7.2-1.3.2-2,.1-1.1.3-2.2.7-3.2Z" style="fill:#9bcc3e; stroke-width:0px;"/><path d="m100.8,70.6c0-.2-.1-.3-.2-.5-.7-1.1-1.5-2.2-2.2-3.3,0,.8-.2,1.7-.4,2.5-.2.9-.3,1.9.1,2.8.2.4.5.8.9,1.1.2.2.4.5.7.5.2-.7.5-1.4.8-2.1.2-.3.3-.6.3-1Z" style="fill:#9bcc3e; stroke-width:0px;"/><path d="m98.3,66.7s0,0,0,0c0-.1,0-.2,0-.3v.3Z" style="fill:#9bcc3e; stroke-width:0px;"/><path d="m102.2,65.8c-1.1,0-2.2.2-3.1-.2v.2c.8,1.1,1.6,2.3,2.5,3.4.1.1.2.3.4.4.1,0,.3,0,.4.1.8.1,1.6,0,2.3.1,1,.1,1.9.6,2.8,1.1,0-.5-.3-.9-.5-1.3-.3-.4-.6-.7-.9-1.2.5,0,1,0,1.5-.1,0,0,.1,0,.1,0,0,0,0-.2,0-.3-.4-.5-1-.8-1.6-1.1-1.2-.5-2.5-1-3.8-1Z" style="fill:#9bcc3e; stroke-width:0px;"/><g style="opacity:.5;"><path d="m101.6,72.6c0,.4,0,.8.3,1.2.2.2.4.4.6.5.6.4,1.2.9,1.8,1.3,0,0,0-.1,0-.2-.6-1.5-1.9-2.6-2.6-4-.1.4-.2.8-.2,1.2Z" style="fill:#9bcc3e; stroke-width:0px;"/></g><path d="m101.8,71.5h0s0,0,0,0h0Z" style="fill:#9bcc3e; stroke-width:0px;"/><g style="opacity:.5;"><path d="m105,71.4c-.5,0-.9,0-1.4,0-.5,0-.9-.2-1.3-.5l.2.3c.8,1.1,1.6,2.3,2.3,3.5.2.3.4.6.6.7,0-.2.1-.4,0-.5.3,0,.6.3.8.5.3.2.7.2.9,0,.1-.2,0-.4,0-.6-.2-.7-.5-1.3-1-1.9.2.2.5.2.8,0,0,0,0,0,.1-.1,0-.1,0-.3-.2-.4-.6-.5-1.3-.8-2.1-.9Z" style="fill:#9bcc3e; stroke-width:0px;"/></g></g><g style="opacity:.2;"><path d="m82.1,43.7c-1.7.9-3.3,2.7-2.9,4.6.4,1.6,2,2.6,3.5,3.4,5.8,3.4,10.9,8.6,12.5,15.2.2,1,.4,2,1,2.9.6.8,1.4,1.3,2.3,1.8,1.4.8,2.9,1.7,4.3,2.5.2-.6-.2-1.2-.5-1.7-5.3-8.1-10.7-16.3-16-24.4-1.1-1.7-2.2-3.4-3.8-4.5h-.2Z" style="fill:#386314; stroke-width:0px;"/></g><path d="m85.3,41.1s0,0,0,0c0,0,0,0,0,0Z" style="fill:#386314; stroke-width:0px;"/><g style="opacity:.2;"><path d="m95.8,41.6c-.9-.6-1.9-.9-2.9-1.2-1.3-.4-2.6-.7-3.9-.7-1.3,0-2.7.4-3.7,1.3,3.2-.2,6.6,1.6,9.1,3.6,2.6,2,4.6,4.5,6.7,7.1.2-.2.2-.6,0-.9-.6-1.9-1.6-3.7-2.6-5.5-.8-1.4-1.5-2.8-2.8-3.7Z" style="fill:#386314; stroke-width:0px;"/></g><path d="m85.4,41.1s0,0,0,0c0,0,0,0,0,0Z" style="fill:#386314; stroke-width:0px;"/><path d="m85.5,41.2s0,0,0,0h0Z" style="fill:#386314; stroke-width:0px;"/><path d="m85.5,41.2s0,0,0,0c0,0,0,0,0,0Z" style="fill:#386314; stroke-width:0px;"/><path d="m80.8,56.3c1.3.4,1.1-2,1.3-2.7.2-.4.4-.5.7-.7.6-.5.6-1.3,1-2,.6-1.1,1.4-2.1.8-3.4,0,0,0-.2.1-.2.8,0,1-.2,1-1,0-.7,0-1.4,0-2.1-.2-1.4-.6-2.7-1.2-3.8,0,0,0,0-.1,0-.9.4-1.4.6-2.1.1.2.6.3,1.1.4,1.7,0,.7,0,1.4,0,2.1,0,.8-.2,1-1,1-.1,0-.2,0-.1.2.6,1.3-.3,2.3-.8,3.4-.4.7-.4,1.5-1,2-.3.3-.5.3-.7.7-.3.6,0,3.1-1.3,2.7,0,0-.1,0-.2,0-.3.8-.6,1.7-.9,2.5,0,.3.2.5.4.7.5.4,0,.1.5,0,.1,0,.3-.2.5-.2,0,0,.2,0,.2,0,.2.5.6,2.4.9,2.8.5-1.3.9-2.6,1.4-3.9,0,0,.1,0,.2,0Z" style="fill:#2f5b04; isolation:isolate; opacity:.7; stroke-width:0px;"/><path d="m75.1,31.6c0,0,0-.2,0-.3,0,0,0,.2,0,.3Z" style="fill:none; stroke-width:0px;"/><path d="m74.5,33.4c-2.3-.7-4.8-.8-7.2-.2-.9.2-1.3.4-2,1-.2.2-.5.5-.7.6-.6.3-1.4.2-1,1,0,0,0,.1,0,.2-.5.3-1.5,1.1-1.5,1.7,0,.5,0,0,.3.3.1,0,.3.1.4.2,0,0,.1.1,0,.2-.2.4-1.4,1.7-1.4,2,0-.2.5.6.5.5.2.5-.3,1.4-.4,1.9-.2.5-.4,1-.5,1.5-.2.8-.2.8.6.8,0,0,.2,0,.1.1-.2.9-.4,1.7-.6,2.6,0,.3-.4.9-.2,1.2.2.3.4.3.8.3,0,0,.1,0,.1.2-.2.8-.5,1.6-.6,2.5,0,.3-.4,1.4-.3,1.6,0,.1.3,0,.5.2.3.2.3.7.2,1,0,.5-.1,1-.2,1.5-.1.7-.2,1.6.8,1,0,0,.2,0,.2.1-.1.7-.2,1.4-.3,2.1-.2,1.1.2.9,1,.7,0,0,.2,0,.1.1,0,1,0,2.1,0,3.1,0,.4,0,.8.2,1.2,0,.4.2,2.1,1,.4,0,0,.2-.1.2,0,.1.5.2,1.6.9,1.1.2-.1.4-.5.5-.7.2-.3.4-.4.8-.5.3-.1.9,0,1.2-.3.3-.2.4-.8.5-1.1.2-.4.4-.8.7-1.1,0,0,.1,0,.2,0,.7,1,1.1.2,1.4-.6,0-.1.2,0,.3,0,.7,0,1.1-.2,1.3-.8,0-.2.2-.3.2-.5.2-.5.5-.9.7-1.4,0,0,0,0,.1,0,.4,0,.4.2.7.3.9.4,1.2-.2,1.5-1,.5-1.4,1-2.8,1.5-4.2,0,0,.1,0,.2,0,1.3.4,1.1-2,1.3-2.7.2-.4.4-.5.7-.7.6-.5.6-1.3,1-2,.6-1.1,1.4-2.1.8-3.4,0,0,0-.2.1-.2.8,0,1-.2,1-1,0-.7,0-1.4,0-2.1-.5-3.7-2.6-6.7-5.9-8.4-.8-.4-1.2-.7-1.1-1.7,0-.3.2-.5.2-.8,0-.3,0-.6.1-.9-.3-.3-.4-.3-.4,0-.1.1-.2.3-.3.6,0,0,0,.2,0,.3-.2.6-.3,1.3-.4,1.6,0,0-.1,0-.2,0Z" style="fill:#568f1c; stroke-width:0px;"/><path d="m71.1,62.4s0,0,0,0c0,0,0,0,0,0,0,0,0,0,0,0Z" style="fill:#d9e021; stroke-width:0px;"/><path d="m71.1,62.4s0,0,0,0c0,0,0,0,0,0,0,0,0,0,0,0Z" style="fill:#d9e021; stroke-width:0px;"/><path d="m82.8,42.3c-.4-2.7-1.6-5.1-3.6-6.9-.5-.5-1.1-.9-1.7-1.2-.2-.1-.4-.2-.6-.3-1.7-.8-1.1-1.4-.9-2.2.2-.7.3-1.3-.4-1.8,0,0-.2,0-.2,0-.2.7-.5,1.4-.7,2.1-.2.8-.3.9-1.1.8-1.2-.1-2.4-.4-3.7-.4-1.2,0-2.3.2-3.4.6-.4.1-.8.2-1.1.4-.4.3-.6.8-1,1-.4.3-.9.4-1.4.4-.1,0-.1.1,0,.2.4.7,0,.9-.5,1.4-.4.4-.7.9-1,1.4,0,0,0,.2.1.2,1.3-.1.4.8.2,1.1-.3.4-.5.8-.8,1.1,0,0,0,.2.1.2.8-.1-.6,4-.7,4.4,0,.1,0,.2.1.2.3,0,.6-.1.8.2.1.2-.2,1-.2,1.2-.2.9-.4,1.7-.7,2.6,0,0,0,.1.1.1.4,0,.8,0,.9.5,0,0-.3,1.1-.3,1-.2,1-.4,2-.5,3,0,.1.1.2.2.1.7-.6.4,2,.4,2,0,.6-.2,1.2-.3,1.8,0,0,0,.2.1.1.7,0,1-.4.9.4,0,.8-.2,1.5-.3,2.3,0,0,0,.2.1.1.3,0,.6-.1.9-.2.3.1.4.4.3.7,0,.4,0,.9,0,1.3,0,1.2.2,2.4.5,3.6,0,0,.1.1.2.1,0,0,.9-.7.8-.7,0,0,.4,1.1.4,1.2,0,0,.1,0,.2,0,.5-.2.7-.6,1.1-1,.6-.6,1.1-.3,1.8-.6.4-.2.6-.7.8-1.1,0-.2.2-.9.5-1,.4-.2.7.3,1,.5,0,0,.1,0,.2,0,0,0,.7-1,.7-1.2,0,0,0,0,0,0,0,0,0,0,0,0,0,0,0,0,0,0,0,0,0,0,0,0,.1,0,.5.3.4.3.8.1,1.2-1.2,1.5-1.7.2-.5.5-1.2,1.2-1,.2,0,.3.3.5.4.2,0,.4.2.6,0,.3-.1.4-.6.6-.9.4-.9.7-1.9,1-2.8.2-.5.4-1.6.9-2,.2-.2.5-.1.8-.4.2-.2.4-.6.4-.9,0-.3,0-.5,0-.8.1-.9.2-.7.9-1.4.2-.2.2,0,.4-.4.2-.3.1-.8.3-1.1.2-.4.4-.8.6-1.2.3-.6.7-1.2.7-1.9,0-.7-.3-1,.7-.9,0,0,.1,0,.1-.1.2-1.1.2-2.2,0-3.3Zm-1.2,3.1c-.1,0-.2,0-.1.2.6,1.3-.3,2.3-.8,3.4-.4.7-.4,1.5-1,2-.3.3-.5.3-.7.7-.3.6,0,3.1-1.3,2.7,0,0-.1,0-.2,0-.5,1.4-1,2.8-1.5,4.2-.3.8-.6,1.4-1.5,1-.3-.1-.4-.3-.7-.3,0,0-.1,0-.1,0-.2.5-.5.9-.7,1.4,0,.1-.2.3-.2.5-.2.6-.6.8-1.3.8,0-.1-.2-.2-.3,0-.3.8-.7,1.7-1.4.6,0,0-.1,0-.2,0-.4.3-.5.6-.7,1.1-.1.3-.2.8-.5,1.1-.3.3-.9.2-1.2.3-.3.1-.5.2-.8.5-.2.2-.3.6-.5.7-.8.5-.8-.6-.9-1.1,0-.1-.2,0-.2,0-.8,1.7-.9,0-1-.4,0-.4-.1-.8-.2-1.2-.1-1-.1-2.1,0-3.1,0,0,0-.2-.1-.1-.9.2-1.2.4-1-.7.1-.7.2-1.4.3-2.1,0,0,0-.2-.2-.1-1,.6-.9-.3-.8-1,0-.5.2-1,.2-1.5,0-.4,0-.8-.2-1-.2-.2-.4,0-.5-.2-.1-.2.2-1.4.3-1.6.2-.8.4-1.6.6-2.5,0,0,0-.2-.1-.2-.4,0-.6,0-.8-.3-.2-.3.1-1,.2-1.2.2-.9.4-1.7.6-2.6,0,0,0-.2-.1-.1-.8,0-.8,0-.6-.8.1-.5.3-1,.5-1.5.1-.4.6-1.4.4-1.9,0,.1-.5-.7-.5-.5,0-.3,1.1-1.7,1.4-2,0,0,0-.2,0-.2-.1,0-.3-.1-.4-.2-.4-.3-.3.2-.3-.3,0-.6,1.1-1.4,1.5-1.7,0,0,0-.1,0-.2-.5-.8.4-.7,1-1,.3-.2.5-.4.7-.6.7-.6,1.1-.8,2-1,2.4-.6,4.8-.5,7.2.2,0,0,.1,0,.2,0,.1-.4.2-1.1.4-1.6,0-.1,0-.2,0-.3,0-.3.2-.5.3-.6,0-.3.2-.3.4,0,0,.3,0,.6-.1.9,0,.3-.2.5-.2.8-.2,1,.3,1.3,1.1,1.7,3.3,1.7,5.4,4.7,5.9,8.4,0,.7,0,1.4,0,2.1,0,.8-.2,1-1,1Z" style="fill:#9bcc3e; stroke-width:0px;"/><g style="opacity:.5;"><path d="m79.2,38c-1.2-1.3-4-2.8-4.1-4.8,0-.1,0-.3.1-.4,0-.1-.1-.2-.2-.2,0,0-.2,0-.2,0,0,.1,0,.4-.1.5-.4.4-.8.7-1.3.9-1.5,0-3-.9-4.5-.3-.2,0,0,.3.1.2,1.3-.4,2.6.2,3.9.3-2.5.9-5.7,0-8.1,1.5-.1,0,0,.3.2.2,1.9-1.2,4.2-.9,6.4-1.1,0,0,0,0,0,0-.7.7-1.4,1.3-2.3,1.7-.1,0,0,.3.1.2.9-.5,1.8-1.3,2.5-2,.6,0,1.3-.2,1.8-.5h0s0,0,0,0c.4-.2.7-.4,1.1-.7-.3.9-.7,1.9-1,2.8,0,0,0,0,0,0-.9,1.6-3.3,1.7-3.4,1.7-.9,0-1.6-.1-2.5-.5-.4-.2-.8-.4-1.3-.4-.9-.1-1.8.3-2.6.7-.2,0,0,.3.1.2.6-.3,1.2-.6,1.9-.7.8,0,1.3.2,1.9.5.5.2,1,.3,1.6.4-.7.1-1.5.2-2,.3-1.6.3-3,.8-4.3,1.7-.1.1,0,.3.2.2,1.8-1.3,4.1-1.7,6.3-2-1.1.7-1.7,2.3-3.1,2.5-.2,0-.1.3,0,.3,1.5-.1,2.3-2.1,3.5-2.8.2,0,.4,0,.4,0,1.1-.2,2.3-.4,3-1.3-.4,1.1-1.1,3.1-1.1,3.1-.8,1.2-2.1,1.9-3.4,2.3-1.1,0-2.3-.5-3.5-.4-1.1,0-2,.5-2.8,1.2-.1.1,0,.3.2.2,1.2-1,2.7-1.3,4.2-1,.4,0,.8.2,1.2.2-.4.1-.8.2-1.2.4-1.7.5-3.2,1.4-4.5,2.6-.1.1,0,.3.2.2,1.4-1.2,2.9-1.9,4.5-2.5-.9.8-1.2,2-1.5,3.2,0,.2.2.2.3,0,.3-1.3.7-2.7,1.9-3.4,0,0,0,0,0,0,.2,0,.5-.1.7-.2.1,0,.3,0,.4-.1.3,0,.4-.2.7-.3.9-.4,1.7-.8,2.3-1.6-.5,1.3-1.4,4-1.4,4.1-.9,1.8-2.5,2.5-4.3,3.1,0,0,0,0,0,0-1.2-.4-2.5-.5-3.8-.5-.2,0-.1.3,0,.3,1.1,0,2.3,0,3.4.4-1.2.4-2.3,1-3.3,1.7-.1,0,0,.3.2.2,1.2-.8,2.5-1.3,3.7-1.8,0,0,.2,0,.2,0,.5-.2,1-.4,1.5-.6.9-.4,1.7-1.1,2.2-1.9-.6,1.7-1.2,3.5-1.8,5.2-.4.6-1.3,1-2.1,1.3-.6,0-1.3-.6-1.8-.7-.5-.1-1.1,0-1.6,0,0,0-.1-.1-.2,0,0,0-.1,0-.2.1-.1,0,0,.3.1.2.5,0,.9-.1,1.4-.1.6,0,1,.3,1.6.6,0,0,.1,0,.2,0-.6.2-1.1.3-1.5.5-1,.4-1.9.9-2.6,1.7-.1.1,0,.3.2.2.6-.6,1.3-1.1,2-1.4-.2.8-.4,1.7-1.2,2.1-.1,0,0,.3.1.2.9-.5,1.2-1.5,1.4-2.5,0,0,0,0,0,0,.6-.3,1.3-.5,2-.7.2,0,.4-.2.5-.2.5-.2,1.1-.4,1.5-.8-.4,1.1-.7,2.2-1.1,3.3-.6.6-1.8.7-2.6,1.1-.8.4-1.4.9-2,1.5-.1.1,0,.3.2.2.4-.5.9-.8,1.5-1.2-.5.9-.6,2.3-1.8,2.4-.2,0-.1.3,0,.3,1.4-.1,1.6-2,2.2-2.9.3-.1.5-.3.8-.4.5-.2,1.1-.3,1.6-.6-.5,1.4-1,2.9-1.4,4.3,0,0,0,0,0,0-.8.2-1.4.5-2,1.1-.1.1,0,.3.2.2.5-.5,1.1-.8,1.8-1-.6,1.8-1.2,3.6-1.8,5.4,0,.2.2.3.2.1.6-1.8,1.2-3.7,1.8-5.5.4.8,1.3,1.5,1.4,2.5,0,.2.3.1.3,0,0-1.1-1.1-1.8-1.5-2.7,0,0,0,0,0,0,.5-1.5,1-3,1.5-4.5.5.8,1.1,1.5,1.7,2.3,0,0,0,0,0,0-.3,1.1-.6,2.2-.3,3.4,0,.2.3.1.3,0-.3-1,0-2.1.2-3.1.7.9,1.2,1.9,1.4,3.1,0,.2.3.1.3,0-.3-2.4-2.1-4-3.4-5.9,0,0,0,0,0,0,.4-1.2.8-2.4,1.2-3.7,0,0,.1-.2.2-.3.2.6.5,1.1.9,1.6,0,0,0,0,0,0,0,0,0,0,0,0,.3.3.6.7.9,1,1.4,1.4,2.5,2.8,2.8,4.8,0,.2.3.1.3,0-.2-1.3-.8-2.5-1.6-3.6-.5-.6-1-1.1-1.5-1.6.3.1.6.2.9.3.4,0,.8,0,1.2.2.9.1,1.3.6,1.6,1.4,0,.2.3,0,.2-.1-.3-.7-.6-1.3-1.4-1.5-1.2-.3-2.3-.1-3.3-1-.5-.6-.9-1.2-1-2h0c.5-1.6,1-3.1,1.6-4.6.5,1,1,1.9,1.7,2.7,0,0,0,0,0,0-.3,1.4-.1,2.7.4,4,0,.2.3,0,.2-.1-.5-1.2-.6-2.5-.4-3.7.2.3.5.5.7.8,1.5,1.5,2.5,3,2.8,5.2,0,.2.3.1.3,0-.4-3.1-2.7-5-4.4-7.4.8.5,1.6.8,2.4,1.1,1.3.5,2,1.5,2.8,2.5,0,.1.3,0,.2-.2-.6-.8-1.2-1.7-2-2.2-1-.6-2.6-1-3.7-1.7-.3-.5-.6-1-.9-1.5.5-1.4,1-2.9,1.5-4.3.2,1.1.8,2.1,1.5,2.9,0,0,0,.1,0,.2,0,.8,0,1.7.2,2.5,0,.2.3,0,.2-.1-.2-.8-.3-1.5-.2-2.3,1.7,2,4,3.6,4,6.4,0,.2.3.2.3,0,0-4.4-5.4-6-5.8-10.2.4-1.1.8-2.1,1.1-3.2.3.9.8,1.7,1.4,2.4,0,0,0,0,0,0,.5.9.5,1.8.8,2.8.3.9.7,1.7,1,2.5,0,.2.3,0,.2-.1-.5-1-.9-1.9-1.2-3-.1-.6-.2-1.2-.4-1.7,1.8,1.9,4,3.5,4.4,6.3,0,.2.3.1.3,0-.4-3-2.9-4.6-4.8-6.7,1.4.7,3.4.2,4.2,1.8,0,.1.3,0,.2-.1-1-1.8-3.5-1.1-4.9-2.1-.6-.7-1-1.5-1.3-2.4.4-1,.7-2,1.1-3.1.2.7.7,1.3,1.2,1.8,0,0,0,0,0,0,.2.9.4,1.7.5,2.6,0,.2.3.1.3,0-.2-.8-.3-1.6-.5-2.3.2.2.4.3.5.5,1.7,1.5,3.6,3,3.7,5.4,0,.2.3.1.3,0,0-1.4-.7-2.6-1.7-3.7Z" style="fill:#8bac17; stroke-width:0px;"/><path d="m72.1,54.7c0-.2-.3-.1-.3,0,.3,1.2-.2,2.5.2,3.8,0,.2.3,0,.2-.1-.4-1.2.1-2.5-.2-3.7Z" style="fill:#8bac17; stroke-width:0px;"/></g><g style="opacity:.2;"><path d="m68.7,34.3c1.5,0,3,0,4.4-.6,0,0,.1,0,0-.1,0,0,0,0-.1,0-.5-.1-1-.2-1.5-.2-.6,0-1.1,0-1.7,0-1.2,0-2.6.2-3.6.8-.7.5-1.3,1.1-2.1,1.5h.3c1.2-.9,2.8-1.1,4.3-1.2Z" style="fill:#274f03; stroke-width:0px;"/><g style="opacity:.8;"><path d="m62.3,40.5c.1,0,.2,0,.3-.1,1.3-.9,2.8-1.6,4.3-1.9.9-.2,1.8-.2,2.7-.4.9-.1,1.8-.4,2.5-.9.3-.2.6-.4.8-.7.2-.3.4-.6.5-1,.1-.3.3-.6.4-1-.4.3-.9.5-1.4.6-.6.1-1.1.2-1.7.3-1.1,0-2.2-.1-3.3,0-.5,0-1,.3-1.5.5-1.1.4-2.1,1-3,1.7,0,0,0,0,0,.1,0,0,0,0,.1,0,.2,0,.2.3.2.5,0,.2-.2.3-.3.5-.2.3-.4.5-.7.8-.1.1-.2.3-.3.5s0,.4.3.4Z" style="fill:#274f03; stroke-width:0px;"/></g><polygon points="63 37.6 63 37.6 63 37.6 63 37.6" style="fill:#9bcc3e; stroke-width:0px;"/><g style="opacity:.6;"><path d="m62.5,44.6c0,.2,0,.3-.1.5,0,.2,0,.3,0,.5.5-.7,1.3-1.3,2.1-1.7.8-.4,1.7-.7,2.6-1,1.4-.4,2.8-.9,3.9-1.9.8-.8,1.3-1.9,1.7-3-.9.7-2.1.8-3.3.9-1.3.1-2.5.3-3.8.7-1.2.4-2.4,1-3.2,2l.2-.4c-.6.5-.8,1.3-1,2.1,0,.4-.2.8-.1,1.2,0,0,0,0,0,.1,0,0,.2,0,.3,0s.1-.1.2-.2c.2,0,.3.1.3.3Z" style="fill:#274f03; stroke-width:0px;"/></g><path d="m78.7,37.2c.3.2.6.4.9.7.2.2.4.5.6.8.6,1.1.9,2.4,1.2,3.7,0,.2,0,.4.1.7,0,.4-.1.9-.1,1.3,0,0,0,0,0,.1,0,0,.1,0,.2,0,0,0,0-.1.1-.2.3-1.1.4-2.3.2-3.4-.2-1.1-.7-2.2-1.3-3.1-1-1.4-2.3-2.6-3.8-3.5-.4-.2-.9-.5-1.1-.9h0c.7,1.6,1.8,2.8,3.1,3.7Z" style="fill:#274f03; stroke-width:0px;"/><path d="m74.8,34.6s0,0,0,0c0,0,0,0,0,0h0Z" style="fill:#9bcc3e; stroke-width:0px;"/><g style="opacity:.8;"><path d="m81,44.5c0-.4.1-.8.1-1.2,0-.7-.3-1.4-.6-2.1-.3-.6-.6-1.1-.9-1.6-1.1-1.7-3-2.8-4.4-4.3-.2-.2-.4-.4-.4-.7-.3.4-.5.9-.6,1.4-.2.9.1,1.9.6,2.7.5.8,1.2,1.4,1.9,2.1s1.4,1.2,2,2c.5.6.8,1.3,1.1,2,.3.6.6,1.2.7,1.8,0,.5,0,.9,0,1.4.4-.1.7-.5.8-.9,0-.4,0-.9,0-1.3,0-.4-.2-.8-.2-1.3Z" style="fill:#274f03; stroke-width:0px;"/></g><g style="opacity:.6;"><path d="m79.5,45.8c-.2-.4-.4-.7-.7-1.1-.9-1.2-1.9-2.4-2.9-3.5-.9-1-1.9-1.9-2.3-3.2h0c-.2.8-.7,1.4-.8,2.1-.1.7.1,1.5.5,2.1.4.6.9,1.2,1.4,1.7,1.3,1.3,2.6,2.7,3.4,4.4.4.8.7,1.8.6,2.7.2,0,.3,0,.4-.2.7-.6.7-1.7.7-2.6,0-.8,0-1.7-.3-2.5Z" style="fill:#274f03; stroke-width:0px;"/></g><g style="opacity:.4;"><path d="m78.1,51.9c0-.7-.3-1.4-.4-2-.1-.5-.2-.9-.4-1.3-.6-1.3-1.6-2.2-2.6-3.2s-2-2-2.3-3.4h0c0,.2,0,.4,0,.5-.2.8-.8,1.5-.8,2.3,0,.3,0,.6.2.9.1.4.2.8.4,1.1.6,1.1,1.7,1.9,2.5,2.9,1.3,1.4,2.1,3.3,2.2,5.2.3-.4.4-1,.5-1.6,0,.2.4.3.6.2.2-.1.2-.4.3-.6,0-.4,0-.7,0-1.1Z" style="fill:#274f03; stroke-width:0px;"/></g><g style="opacity:.4;"><path d="m62.6,48.7c0,0,0,.2,0,.3,0,.2-.2.4-.2.6.3-.6,1-.8,1.6-1,.8-.3,1.5-.6,2.3-.9,1.3-.5,2.7-1.1,3.6-2.2.7-1,.9-2.4,1.6-3.5h.2c-1.1.5-2.3,1.2-3.5,1.6-.6.2-1.2.3-1.8.5-2,.7-3.7,2.4-4.6,4.4,0,.1,0,.2,0,.3,0,.1.3.1.4,0,.1,0,.3-.2.4-.2,0,0,.1,0,.1,0Z" style="fill:#274f03; stroke-width:0px;"/></g><g style="opacity:.6;"><path d="m64.1,52.7c.7-.3,1.4-.5,2.1-.8.7-.3,1.5-.5,1.9-1.2.3-.4.4-.9.5-1.3.2-.8.6-1.6,1-2.3l.2-.2c-.8,1-2.2,1.4-3.4,1.9-.8.3-1.6.7-2.3,1.1-.4.2-.7.4-1,.7-.8.6-1.3,1.6-1.4,2.6,0,0,0,.2,0,.3.2-.1.4-.2.6-.3,0,.3,0,.5-.1.8.5-.6,1.3-.9,2-1.2Z" style="fill:#9bcc3e; stroke-width:0px;"/></g><g style="opacity:.6;"><path d="m75.8,54.2c-.5-2-1.9-3.6-3.3-5.2-.7-.8-1.4-1.6-1.7-2.6v.2c-.3.8-.6,1.7-.8,2.5,0,.3-.2.6-.2.9,0,.3.1.7.3,1,.2.4.4.8.6,1.2.1.2.3.5.5.7.2.1.3.2.5.4.3.2.6.5.8.8,1,1.2,1.6,2.7,1.8,4.2,0,.2,0,.4.1.6,0,.2.2.3.4.3.2,0,.4-.1.5-.3.4-.4.6-1,.6-1.5,0-.6,0-1.1,0-1.7,0-.5-.1-1-.2-1.5Z" style="fill:#9bcc3e; stroke-width:0px;"/></g><path d="m71.2,54.2c-.4-.5-.8-1.1-1.2-1.6-.3-.3-.8-.6-.8-1.1h0c-.3.7-.5,1.4-.8,2.2,0,.2-.1.4-.2.6,0,.7.4,1.3.8,1.8,1.3,1.6,2.5,3.3,2.9,5.3,0,0,0,.1,0,.1,0,0,.1,0,.2,0,.3-.3.6-.6.7-1,.7-1.6.5-3.6-.5-5-.3-.4-.7-.8-1-1.2Z" style="fill:#9bcc3e; stroke-width:0px;"/><path d="m65.8,55.2c.4-.1.9-.2,1.2-.6.2-.3.3-.6.4-.9.2-.6.4-1.2.7-1.7h0c-.7.6-1.8.9-2.7,1.3-.5.2-1,.4-1.4.6-.4.2-.8.4-1.1.8-.6.7-.6,1.6-.7,2.5.5-.3.9-.5,1.4-.8.8-.5,1.5-.9,2.4-1.2Z" style="fill:#9bcc3e; stroke-width:0px;"/><path d="m65.3,59.2c0-.1.1-.3.2-.4.4-1,.7-2,1.1-3-.5.4-1.2.7-1.8,1-.7.3-1.4.7-1.7,1.4-.2.3-.2.7-.3,1.1,0,.2,0,.5,0,.7.6-.2,1.1-.4,1.7-.5.3,0,.6,0,.8-.3Z" style="fill:#9bcc3e; stroke-width:0px;"/><path d="m66.6,55.8s0,0,0,0c0,0,.1-.1.2-.2h-.2Z" style="fill:#9bcc3e; stroke-width:0px;"/><path d="m69.1,57.8c-.5-.7-1.2-1.3-1.4-2.1h-.1c-.3,1.1-.6,2.2-1,3.3,0,.1,0,.3,0,.4,0,.1,0,.2.1.3.3.5.7,1,1,1.6.4.7.5,1.5.7,2.3.3-.2.5-.6.6-1,.1-.4.2-.8.3-1.1.2.3.5.6.8.9,0,0,0,0,.1,0,0,0,.1,0,.2-.2.2-.5,0-1.1,0-1.6-.3-1-.6-2.1-1.2-2.9Z" style="fill:#9bcc3e; stroke-width:0px;"/><g style="opacity:.5;"><path d="m64.4,60.7c-.3.2-.5.5-.6.8,0,.2,0,.4,0,.7,0,.6,0,1.2,0,1.8,0,0,0,0,.1,0,.6-1.1.7-2.5,1.3-3.6-.3.1-.6.2-.8.4Z" style="fill:#9bcc3e; stroke-width:0px;"/></g><path d="m65.2,60.3h0s0,0,0,0h0Z" style="fill:#9bcc3e; stroke-width:0px;"/><g style="opacity:.5;"><path d="m66.8,62.3c-.2-.3-.4-.6-.6-.9-.2-.3-.3-.7-.3-1v.3c-.4,1.1-.7,2.1-1.1,3.2,0,.2-.2.5-.1.8.1,0,.3-.1.4-.2.1.2,0,.5.1.8s.2.5.5.5c.2,0,.3-.1.4-.3.4-.4.6-1,.7-1.6,0,.2.1.4.3.5,0,0,0,0,.1,0,.1,0,.2-.2.2-.3,0-.6-.1-1.3-.4-1.8Z" style="fill:#9bcc3e; stroke-width:0px;"/></g></g><g style="opacity:.2;"><path d="m73.3,34.2c-1.4-.7-3.3-.8-4.3.4-.9,1-.6,2.6-.5,3.9.7,5.4-.2,11.2-3.6,15.4-.5.6-1.1,1.3-1.4,2-.2.8-.2,1.6,0,2.3.2,1.3.3,2.6.5,4,.4-.2.6-.7.8-1.1,2.6-7.4,5.1-14.8,7.7-22.1.5-1.5,1.1-3.1,1-4.6h-.2Z" style="fill:#386314; stroke-width:0px;"/></g><path d="m76.6,35s0,0,0,0c0,0,0,0,0,0Z" style="fill:#386314; stroke-width:0px;"/><g style="opacity:.2;"><path d="m81.4,41.9c0-.8-.3-1.6-.6-2.4-.4-1-.8-2-1.5-2.8-.7-.8-1.6-1.5-2.7-1.7,1.7,2,2.2,5,2.2,7.6,0,2.6-.6,5.2-1.3,7.7.3,0,.5-.2.6-.4.9-1.4,1.6-2.9,2.3-4.4.5-1.2,1-2.4,1-3.6Z" style="fill:#386314; stroke-width:0px;"/></g><path d="m76.6,35s0,0,0,0c0,0,0,0,0,0Z" style="fill:#386314; stroke-width:0px;"/><path d="m76.6,35.1s0,0,0,0h0Z" style="fill:#386314; stroke-width:0px;"/><path d="m76.6,35.1s0,0,0,0c0,0,0,0,0,0Z" style="fill:#386314; stroke-width:0px;"/><g style="opacity:.2;"><path d="m67.6,57s-1.2,3.7-2.5,6.5c-.1.3-.2.8.1.9.1,0,.3,0,.5,0,1-.4,2-.9,2.5-1.9.3-.6.4-1.2.5-1.8.5-3.3.9-6.6,1.2-9.9-.8,2.1-1.6,4.2-2.3,6.3Z" style="fill:#386314; stroke-width:0px;"/></g><path d="m87.7,46.5c.3.1.6.2.9.3.6.3.9,1.1,1.4.3,0,0,.1-.1.2,0,.5.2,1.7.8,2.3.5.5-.3,0,0,.1-.4,0-.1,0-.3,0-.4,0,0,0-.2.1-.1.4,0,2.2.4,2.4.1-.2.1.2-.7.2-.7.3-.4,1.4-.5,1.8-.6.5-.1,1-.2,1.5-.3.8-.3.8-.2.4-.9,0,0,0-.2,0-.2.3,0,.6-.2.9-.3-.3,0-.7-.2-1-.2,0,0-.2,0-.2.1,0,.4,0,.6-.3.8-.3.2-1,0-1.2-.2-.9-.2-1.7-.4-2.6-.6,0,0-.1,0-.1.2,0,.8,0,.8-.7.6-.5,0-1-.3-1.5-.4-.4-.1-1.4-.6-1.9-.3.1,0-.6.5-.4.5-.3,0-1.7-1.1-2.1-1.3,0,0-.2,0-.2,0,0,.1,0,.3-.2.4-.3.4.2.3-.3.3-.5,0-1.1-.7-1.5-1.2-.4.3-.8.6-1.2,1,.4.6.9,1.2,1.4,1.7.6.6,1,1,1.8,1.2Z" style="fill:#3b6417; isolation:isolate; opacity:.7; stroke-width:0px;"/><path d="m83,45.6c0-.4,0-.9,0-1.3-.4-.3-.8-.9-1-1.2,0,0-.1,0-.2,0-.8.5-.7-.4-1-.9-.2-.3-.4-.5-.7-.7-.6-.6-.8-1.1-1-2-.3-1.1-.5-2.3-.5-3.4,0,0,0,0-.1-.1-.4,2-.3,4.1.3,6.1.2.8.4,1.3,1,2,.2.2.5.4.7.7.4.6.3,1.4,1,.9,0,0,.1,0,.2,0,.2.2.4.6.7.9.5,0,.7-.3.7-1Z" style="fill:#3b6417; isolation:isolate; opacity:.7; stroke-width:0px;"/><path d="m76.2,31c0,0-.2,0-.3,0,0,0,.2,0,.3,0Z" style="fill:none; stroke-width:0px;"/><path d="m77.9,31.5c-.6,2.4-.6,4.8,0,7.2.2.8.4,1.3,1,2,.2.2.5.4.7.7.4.6.3,1.4,1,.9,0,0,.1,0,.2,0,.4.4,1.1,1.5,1.8,1.5.5,0,0,0,.3-.3,0-.1.1-.3.2-.4,0,0,.1-.1.2,0,.4.2,1.8,1.4,2.1,1.3-.2,0,.5-.6.4-.5.5-.2,1.4.2,1.9.3.5.1,1,.3,1.5.4.8.1.8.2.7-.6,0,0,0-.2.1-.2.9.2,1.7.4,2.6.6.3,0,.9.3,1.2.2.3-.2.3-.5.3-.8,0,0,0-.1.2-.1.8.2,1.6.4,2.5.5.3,0,1.4.4,1.6.2.1,0,0-.3.2-.5.2-.4.7-.3,1-.3.5,0,1,.1,1.6.2.7,0,1.6.2,1-.8,0,0,0-.2.1-.2.7,0,1.4.2,2.1.2,1.1.1.9-.2.6-1,0,0,0-.2.1-.2,1,0,2.1,0,3.1-.1.4,0,.8-.1,1.2-.2.4,0,2.1-.3.4-1,0,0-.1-.2,0-.2.5-.2,1.6-.2,1.1-1-.1-.2-.5-.3-.7-.5-.3-.2-.4-.4-.5-.7-.1-.3,0-.9-.3-1.2-.2-.3-.8-.3-1.1-.5-.4-.2-.8-.3-1.1-.7,0,0,0-.1,0-.2,1-.8.2-1.1-.7-1.4-.1,0-.1-.2,0-.3,0-.7-.2-1.1-.8-1.2-.2,0-.3-.1-.5-.2-.5-.2-.9-.4-1.4-.6,0,0,0,0,0-.1,0-.4.2-.4.3-.8.3-.9-.3-1.2-1.1-1.4-1.4-.5-2.8-.9-4.3-1.4,0,0,0-.1,0-.2.4-1.4-2.1-1-2.7-1.3-.4-.2-.5-.4-.7-.7-.6-.6-1.3-.6-2-1-1.1-.5-2.1-1.3-3.4-.7,0,0-.2,0-.2-.1,0-.8-.2-.9-1-1-.7,0-1.4,0-2.1.1-3.6.6-6.6,2.8-8.2,6.1-.4.8-.7,1.2-1.6,1.1-.3,0-.5-.2-.8-.2-.3,0-.6,0-.9,0-.3.3-.3.4,0,.4.1.1.3.2.6.3,0,0,.2,0,.3,0,.6.1,1.3.2,1.7.3,0,0,0,.1,0,.2Z" style="fill:#568f1c; stroke-width:0px;"/><path d="m107,33.9s0,0,0,0c0,0,0,0,0,0,0,0,0,0,0,0Z" style="fill:#d9e021; stroke-width:0px;"/><path d="m107,33.9s0,0,0,0c0,0,0,0,0,0,0,0,0,0,0,0Z" style="fill:#d9e021; stroke-width:0px;"/><path d="m86.6,22.9c-2.7.4-5.1,1.7-6.8,3.8-.5.5-.8,1.1-1.2,1.7-.1.2-.2.4-.3.6-.7,1.8-1.4,1.1-2.1.9-.7-.2-1.3-.3-1.8.4,0,0,0,.2,0,.2.7.2,1.4.4,2.1.6.8.2.9.3.9,1.1,0,1.2-.3,2.4-.2,3.7,0,1.2.3,2.3.7,3.4.1.4.2.8.5,1.1.3.4.8.6,1,1,.3.4.4.9.5,1.4,0,.1.1.1.2,0,.7-.4.9,0,1.4.5.4.4.9.7,1.5.9,0,0,.2,0,.2-.1-.2-1.3.8-.5,1.1-.2.4.2.8.5,1.2.7,0,0,.2,0,.2-.1-.1-.8,4,.5,4.4.6.1,0,.2,0,.2-.1,0-.3-.1-.6.1-.8.2-.2,1,.1,1.2.2.9.2,1.7.4,2.6.6,0,0,.1,0,.1-.1,0-.4,0-.8.5-.9,0,0,1.1.2,1,.2,1,.2,2,.3,3,.4.1,0,.2-.1.1-.2-.6-.6,2-.4,2-.4.6,0,1.2.1,1.8.2,0,0,.2,0,.1-.2,0-.7-.5-1,.4-.9.8,0,1.5.2,2.3.3,0,0,.2,0,.1-.2,0-.3-.2-.6-.2-.9.1-.3.4-.4.7-.3.4,0,.9,0,1.3,0,1.2,0,2.4-.3,3.6-.6,0,0,.1-.1,0-.2,0,0-.7-.9-.8-.8,0,0,1.1-.4,1.2-.4,0,0,0-.1,0-.2-.2-.5-.6-.7-1-1-.7-.6-.4-1.1-.7-1.7-.2-.4-.7-.6-1.1-.7-.2,0-.9-.2-1-.4-.2-.4.3-.7.5-1,0,0,0-.1,0-.2,0,0-1-.6-1.3-.6,0,0,0,0,0,0,0,0,0,0,0,0,0,0,0,0,0,0,0,0,0,0,0,0,0-.1.2-.5.2-.4,0-.8-1.3-1.2-1.8-1.4-.5-.2-1.3-.4-1.1-1.1,0-.2.3-.3.4-.5,0-.2.1-.4,0-.6-.1-.3-.6-.4-.9-.5-.9-.3-1.9-.6-2.8-.9-.5-.2-1.6-.4-2-.8-.2-.2-.1-.5-.4-.7-.2-.2-.6-.3-.9-.4-.3,0-.5,0-.8,0-1,0-.7-.1-1.5-.9-.2-.2,0-.2-.4-.4-.3-.2-.8-.1-1.1-.2-.4-.1-.8-.4-1.2-.6-.6-.3-1.2-.6-1.9-.7-.7,0-.9.4-.9-.6,0,0,0-.1-.1-.1-1.1-.1-2.2-.1-3.3,0Zm3.1,1.1c0,.1,0,.2.2.1,1.3-.6,2.3.2,3.4.7.7.3,1.5.4,2,1,.3.3.3.5.7.7.7.2,3.1-.1,2.7,1.3,0,0,0,.1,0,.2,1.4.5,2.8.9,4.3,1.4.8.3,1.4.5,1.1,1.4-.1.3-.3.4-.3.8,0,0,0,.1,0,.1.5.2.9.4,1.4.6.2,0,.3.1.5.2.6.1.8.5.8,1.2-.1,0-.2.2,0,.3.8.3,1.7.6.7,1.4,0,0,0,.1,0,.2.3.4.6.5,1.1.7.3.1.9.2,1.1.5.3.3.2.9.3,1.2.1.3.2.5.5.7.2.2.6.3.7.5.5.8-.6.8-1.1,1-.1,0,0,.2,0,.2,1.7.7,0,.9-.4,1-.4,0-.8.1-1.2.2-1,.1-2.1.2-3.1.1,0,0-.2,0-.1.2.2.8.4,1.2-.6,1-.7,0-1.4-.2-2.1-.2,0,0-.2.1-.1.2.6,1-.3.9-1,.8-.5,0-1-.1-1.6-.2-.4,0-.8,0-1,.3-.2.2,0,.4-.2.5-.2.1-1.4-.2-1.6-.2-.8-.1-1.7-.3-2.5-.5,0,0-.2,0-.2.1,0,.4,0,.6-.3.8-.3.2-1,0-1.2-.2-.9-.2-1.7-.4-2.6-.6,0,0-.1,0-.1.2,0,.8,0,.8-.7.6-.5,0-1-.3-1.5-.4-.4-.1-1.4-.6-1.9-.3.1,0-.6.5-.4.5-.3,0-1.7-1.1-2.1-1.3,0,0-.2,0-.2,0,0,.1,0,.3-.2.4-.3.4.2.3-.3.3-.6,0-1.4-1-1.8-1.5,0,0-.1,0-.2,0-.8.5-.7-.4-1-.9-.2-.3-.4-.5-.7-.7-.6-.6-.8-1.1-1-2-.7-2.3-.6-4.8,0-7.2,0,0,0-.1,0-.2-.4,0-1.1-.2-1.7-.3-.1,0-.2,0-.3,0-.3,0-.5-.2-.6-.3-.3,0-.3-.2,0-.4.3,0,.6,0,.9,0,.3,0,.5.2.8.2,1,.1,1.3-.3,1.6-1.1,1.6-3.3,4.5-5.5,8.2-6.1.7,0,1.4-.1,2.1-.1.8,0,1,.1,1,1Z" style="fill:#9bcc3e; stroke-width:0px;"/><g style="opacity:.5;"><path d="m82.4,26.6c-1.3,1.2-2.7,4.1-4.7,4.2-.1,0-.3,0-.4-.1-.1,0-.2.1-.2.2,0,0,0,.2.1.2.1,0,.4,0,.5.1.4.4.7.8,1,1.3,0,1.5-.8,3-.2,4.5,0,.2.3,0,.2-.1-.5-1.3,0-2.6.2-3.9,1,2.5.1,5.7,1.8,8.1,0,.1.3,0,.2-.2-1.3-1.8-1-4.2-1.3-6.3,0,0,0,0,0,0,.7.6,1.3,1.4,1.8,2.2,0,.1.3,0,.2-.1-.5-.9-1.4-1.8-2.1-2.4-.1-.6-.3-1.3-.6-1.8,0,0,0,0,0,0,0,0,0,0,0,0-.2-.4-.4-.7-.8-1.1.9.3,1.9.6,2.8.9,0,0,0,0,0,0,1.6.8,1.8,3.3,1.8,3.3,0,.9,0,1.6-.4,2.5-.2.4-.3.8-.4,1.3,0,.9.4,1.8.8,2.6,0,.2.3,0,.2-.1-.3-.6-.7-1.2-.7-1.9,0-.8.2-1.3.4-1.9.2-.5.3-1.1.3-1.6.1.7.2,1.5.3,2,.4,1.5.8,3,1.8,4.3.1.1.3,0,.2-.2-1.4-1.8-1.8-4.1-2.2-6.3.7,1.1,2.4,1.6,2.5,3.1,0,.2.3.1.3,0-.2-1.5-2.1-2.3-2.9-3.4,0-.2,0-.3,0-.4-.2-1.1-.5-2.3-1.4-3,1.1.3,3.1,1,3.2,1,1.3.7,1.9,2,2.4,3.3.1,1.1-.4,2.4-.3,3.5.1,1.1.5,2,1.2,2.8.1.1.3,0,.2-.2-1.1-1.1-1.4-2.6-1.2-4.2,0-.4.1-.8.2-1.3.1.4.3.8.4,1.2.6,1.7,1.5,3.1,2.7,4.4.1.1.3,0,.2-.2-1.2-1.4-2-2.8-2.6-4.4.9.8,2.1,1.1,3.2,1.4.2,0,.2-.2,0-.3-1.3-.3-2.7-.6-3.5-1.8,0,0,0,0,0,0,0-.2-.2-.5-.2-.7,0-.1,0-.3-.1-.4,0-.3-.2-.4-.3-.7-.4-.9-.9-1.7-1.7-2.3,1.3.4,4,1.3,4.1,1.3,1.8.8,2.5,2.5,3.2,4.2,0,0,0,0,0,0-.3,1.3-.5,2.5-.3,3.8,0,.2.3.1.3,0,0-1.1,0-2.3.3-3.4.5,1.2,1.1,2.2,1.8,3.3.1.1.3,0,.2-.2-.8-1.2-1.4-2.4-1.9-3.7,0,0,0-.2,0-.2-.2-.5-.4-1-.7-1.5-.5-.9-1.1-1.6-2-2.1,1.7.5,3.5,1.1,5.2,1.6.6.4,1,1.2,1.4,2.1,0,.6-.6,1.3-.7,1.8,0,.5,0,1.1,0,1.6,0,0-.1.1,0,.2,0,0,0,.1.1.2,0,.1.3,0,.2-.1,0-.5-.2-.9-.2-1.4,0-.6.3-1.1.5-1.6,0,0,0-.1,0-.2.2.6.4,1.1.5,1.5.4,1,1,1.9,1.8,2.6.1.1.3-.1.2-.2-.7-.6-1.1-1.2-1.5-2,.8.2,1.7.4,2.2,1.2,0,.1.3,0,.2-.1-.5-.9-1.5-1.2-2.5-1.3,0,0,0,0,0,0-.3-.6-.5-1.3-.8-1.9,0-.2-.2-.4-.2-.5-.2-.5-.5-1.1-.8-1.5,1.1.3,2.2.7,3.4,1,.7.6.8,1.8,1.2,2.6.4.7,1,1.4,1.6,2,.1.1.3,0,.2-.2-.5-.4-.9-.9-1.2-1.4.9.4,2.3.5,2.5,1.7,0,.2.3.1.3,0-.2-1.3-2.1-1.5-3-2.1-.2-.3-.3-.5-.4-.8-.2-.5-.3-1.1-.6-1.6,1.4.4,2.9.9,4.3,1.3,0,0,0,0,0,0,.2.7.6,1.4,1.1,1.9.1.1.3,0,.2-.2-.5-.5-.9-1.1-1-1.8,1.8.5,3.7,1.1,5.5,1.6.2,0,.3-.2,0-.2-1.9-.6-3.7-1.1-5.6-1.7.8-.5,1.4-1.4,2.5-1.5.2,0,.1-.3,0-.3-1.1.1-1.7,1.1-2.7,1.6,0,0,0,0,0,0-1.5-.5-3-.9-4.5-1.4.8-.5,1.5-1.2,2.2-1.8,0,0,0,0,0,0,1.1.3,2.2.5,3.4.2.2,0,.1-.3,0-.3-1,.3-2.1.1-3.1-.1.9-.7,1.9-1.3,3-1.5.2,0,.1-.3,0-.3-2.4.4-3.9,2.3-5.8,3.6,0,0,0,0,0,0-1.2-.4-2.5-.7-3.7-1.1,0,0-.2-.1-.3-.2.6-.2,1.1-.6,1.6-1,0,0,0,0,0,0,0,0,0,0,0,0,.3-.3.7-.6,1-.9,1.4-1.5,2.7-2.5,4.7-3,.2,0,.1-.3,0-.3-1.3.3-2.5.8-3.5,1.7-.6.5-1.1,1.1-1.6,1.6.1-.3.2-.6.3-.9,0-.4,0-.8.1-1.2.1-.9.6-1.3,1.4-1.6.2,0,0-.3-.1-.2-.7.3-1.3.6-1.5,1.4-.3,1.2,0,2.3-.9,3.3-.5.5-1.2.9-1.9,1.1h0c-1.6-.5-3.1-.9-4.7-1.4,1-.5,1.9-1.1,2.7-1.8,0,0,0,0,0,0,1.4.2,2.7,0,4-.5.2,0,0-.3-.1-.2-1.2.5-2.4.7-3.7.5.3-.2.5-.5.8-.7,1.5-1.5,3-2.6,5.1-3,.2,0,.1-.3,0-.3-3.1.5-4.9,2.9-7.2,4.7.5-.8.7-1.6,1-2.5.4-1.3,1.4-2.1,2.4-2.9.1-.1,0-.3-.2-.2-.8.6-1.6,1.2-2.1,2.1-.6,1-.9,2.7-1.5,3.7-.5.3-1,.6-1.5.9-1.5-.4-2.9-.9-4.4-1.3,1.1-.3,2-.9,2.9-1.6,0,0,.1,0,.3,0,.8,0,1.7,0,2.5-.3.2,0,0-.3-.1-.2-.8.3-1.5.4-2.3.3,1.9-1.8,3.5-4.1,6.3-4.2.2,0,.2-.3,0-.3-4.4,0-5.8,5.6-10,6.2-1.1-.3-2.2-.7-3.3-1,.9-.3,1.6-.9,2.3-1.5,0,0,0,0,0,0,.8-.5,1.8-.5,2.7-.8.9-.3,1.7-.7,2.5-1.1.2,0,0-.3-.1-.2-.9.5-1.9,1-2.9,1.2-.6.2-1.2.2-1.7.4,1.9-1.8,3.4-4.1,6.2-4.6.2,0,.1-.3,0-.3-3,.5-4.5,3.1-6.6,5,.7-1.4.1-3.4,1.6-4.3.1,0,0-.3-.1-.2-1.8,1-1,3.5-2,4.9-.7.6-1.5,1.1-2.4,1.3-1-.3-2.1-.7-3.1-1,.7-.2,1.2-.7,1.7-1.3,0,0,0,0,0,0,.9-.2,1.7-.4,2.6-.6.2,0,.1-.3,0-.3-.8.2-1.6.4-2.3.6.2-.2.3-.4.5-.5,1.4-1.7,2.9-3.6,5.3-3.8.2,0,.1-.3,0-.3-1.4.1-2.6.8-3.6,1.8Z" style="fill:#8bac17; stroke-width:0px;"/><path d="m99.3,33.3c-.2,0-.1.3,0,.3,1.2-.4,2.5.2,3.7-.3.2,0,0-.3-.1-.2-1.2.5-2.5,0-3.7.3Z" style="fill:#8bac17; stroke-width:0px;"/></g><g style="opacity:.2;"><path d="m79,37.3c-.1-1.5-.2-3-.8-4.4,0,0,0-.1-.1,0,0,0,0,0,0,.1-.1.5-.2,1-.2,1.5,0,.6,0,1.1,0,1.7,0,1.2.2,2.5.9,3.6.5.7,1.2,1.3,1.5,2.1v-.3c-1-1.2-1.2-2.7-1.4-4.2Z" style="fill:#274f03; stroke-width:0px;"/><g style="opacity:.8;"><path d="m85.4,43.4c0-.1,0-.2-.2-.3-1-1.2-1.7-2.7-2-4.3-.2-.9-.3-1.8-.5-2.7-.2-.9-.4-1.8-1-2.5-.2-.3-.5-.6-.8-.8-.3-.2-.6-.3-1-.5-.3-.1-.7-.3-1-.4.3.4.5.9.7,1.4.2.6.3,1.1.3,1.7,0,1.1,0,2.2.2,3.3.1.5.3,1,.5,1.5.5,1.1,1.1,2.1,1.8,3,0,0,0,0,.1,0,0,0,0,0,0-.1,0-.2.3-.2.5-.2.2,0,.3.2.5.3.3.2.6.4.8.6.2.1.3.2.5.3.2,0,.4-.1.4-.3Z" style="fill:#274f03; stroke-width:0px;"/></g><polygon points="82.5 42.9 82.5 42.9 82.5 42.9 82.5 42.9" style="fill:#9bcc3e; stroke-width:0px;"/><g style="opacity:.6;"><path d="m89.5,43.2c.2,0,.3,0,.5,0,.2,0,.3,0,.5,0-.8-.5-1.4-1.3-1.8-2.1-.4-.8-.8-1.7-1.1-2.5-.5-1.4-1-2.8-2-3.8-.8-.8-1.9-1.3-3-1.6.8.9.9,2.1,1,3.2.2,1.3.4,2.5.8,3.7.4,1.2,1.1,2.3,2.1,3.1l-.4-.2c.5.6,1.3.7,2.1.9.4,0,.8.2,1.2,0,0,0,0,0,.1,0,0,0,0-.2,0-.3,0,0-.2-.1-.2-.2,0-.2.1-.3.3-.3Z" style="fill:#274f03; stroke-width:0px;"/></g><path d="m81.6,27.2c.2-.3.4-.6.7-.9.2-.2.5-.4.8-.6,1.1-.7,2.4-1,3.6-1.3.2,0,.4-.1.7-.1.4,0,.9.1,1.3,0,0,0,0,0,.1,0,0,0,0-.1,0-.2,0,0-.1,0-.2,0-1.1-.3-2.3-.3-3.4,0-1.1.3-2.2.8-3.1,1.4-1.4,1-2.6,2.4-3.3,3.9-.2.4-.4.9-.8,1.2h.1c1.4-.8,2.5-2,3.5-3.3Z" style="fill:#274f03; stroke-width:0px;"/><path d="m79.1,31.1s0,0,0,0c0,0,0,0,0,0h0Z" style="fill:#9bcc3e; stroke-width:0px;"/><g style="opacity:.8;"><path d="m88.8,24.6c-.4,0-.8,0-1.2,0-.7,0-1.4.4-2.1.7-.5.3-1.1.6-1.6,1-1.7,1.2-2.7,3-4.2,4.5-.2.2-.4.4-.6.4.5.3.9.5,1.4.6.9.1,1.9-.2,2.7-.7s1.4-1.3,2-2c.6-.7,1.2-1.5,1.9-2.1.6-.5,1.3-.8,2-1.2.6-.3,1.1-.6,1.8-.7.5,0,.9,0,1.4,0-.1-.4-.5-.7-1-.7s-.9,0-1.3.1c-.4.1-.8.2-1.3.2Z" style="fill:#274f03; stroke-width:0px;"/></g><g style="opacity:.6;"><path d="m90.2,26.1c-.4.2-.7.4-1.1.7-1.2.9-2.3,1.9-3.4,3-.9.9-1.9,2-3.1,2.4h0c.7.2,1.4.6,2.1.7.7,0,1.5-.2,2.1-.6.6-.4,1.1-.9,1.6-1.4,1.3-1.3,2.6-2.7,4.3-3.6.8-.4,1.8-.8,2.7-.6,0-.2-.1-.3-.2-.4-.7-.6-1.7-.7-2.6-.7-.8,0-1.7,0-2.4.4Z" style="fill:#274f03; stroke-width:0px;"/></g><g style="opacity:.4;"><path d="m96.3,27.3c-.7.1-1.3.3-2,.5-.5.1-.9.3-1.3.5-1.2.6-2.2,1.7-3.1,2.7-.9,1-2,2.1-3.3,2.4h.1c.1,0,.2,0,.3,0,.8.2,1.5.8,2.3.7.3,0,.6-.1.9-.2.4-.1.8-.3,1.1-.5,1.1-.6,1.9-1.7,2.8-2.6,1.4-1.3,3.2-2.2,5.2-2.4-.5-.3-1-.4-1.6-.5.2,0,.3-.4.2-.6-.1-.2-.4-.2-.7-.2-.4,0-.7,0-1.1,0Z" style="fill:#274f03; stroke-width:0px;"/></g><g style="opacity:.4;"><path d="m93.6,42.9c0,0,.2,0,.3,0,.2,0,.4.2.6.2-.6-.3-.8-.9-1.1-1.5-.3-.7-.6-1.5-.9-2.2-.5-1.3-1.2-2.7-2.3-3.5-1.1-.7-2.4-.8-3.5-1.5v-.2c.6,1.1,1.2,2.2,1.7,3.5.2.6.4,1.2.6,1.8.8,2,2.5,3.7,4.5,4.4.1,0,.2,0,.3,0,.1,0,.1-.3,0-.4,0-.1-.2-.3-.2-.4,0,0,0-.1,0-.1Z" style="fill:#274f03; stroke-width:0px;"/></g><g style="opacity:.6;"><path d="m97.5,41.3c-.3-.7-.6-1.4-.8-2.1-.3-.7-.6-1.4-1.2-1.8-.4-.3-.9-.3-1.3-.5-.8-.2-1.6-.5-2.4-.9l-.2-.2c1,.8,1.5,2.1,2,3.4.3.8.7,1.6,1.2,2.3.2.4.4.7.7,1,.7.7,1.6,1.2,2.6,1.3,0,0,.2,0,.3,0-.1-.2-.2-.4-.3-.5.3,0,.5,0,.8,0-.6-.5-.9-1.3-1.2-2Z" style="fill:#9bcc3e; stroke-width:0px;"/></g><g style="opacity:.6;"><path d="m98.7,29.6c-2,.5-3.6,2-5.1,3.4-.8.7-1.5,1.5-2.5,1.8h.2c.8.3,1.7.5,2.5.8.3,0,.6.2.9.2.3,0,.6-.1.9-.3.4-.2.8-.4,1.2-.7.2-.2.5-.3.6-.6.1-.2.2-.4.3-.5.2-.3.5-.6.8-.9,1.2-1,2.6-1.7,4.2-1.9.2,0,.4,0,.6-.1.2,0,.3-.3.3-.5,0-.2-.1-.4-.3-.5-.4-.4-1-.5-1.5-.6-.6,0-1.1,0-1.7,0-.5,0-1,.1-1.5.3Z" style="fill:#9bcc3e; stroke-width:0px;"/></g><path d="m98.9,34.2c-.5.4-1.1.8-1.5,1.3-.3.3-.6.8-1.1.8h0c.7.3,1.5.6,2.2.8.2,0,.4.1.6.1.7,0,1.2-.4,1.8-.8,1.5-1.3,3.2-2.6,5.2-3,0,0,.1,0,.1,0,0,0,0-.1,0-.2-.3-.3-.6-.5-1-.7-1.6-.7-3.6-.4-4.9.7-.4.3-.8.7-1.2,1.1Z" style="fill:#9bcc3e; stroke-width:0px;"/><path d="m100,39.5c-.1-.4-.3-.9-.6-1.1-.3-.2-.6-.3-.9-.3-.6-.1-1.2-.3-1.7-.6h0c.7.7,1,1.7,1.4,2.7.2.5.4,1,.7,1.4.2.4.4.8.8,1.1.7.6,1.7.6,2.5.6-.3-.5-.6-.9-.9-1.4-.5-.7-1-1.5-1.2-2.3Z" style="fill:#9bcc3e; stroke-width:0px;"/><path d="m104.1,39.9c-.1,0-.3-.1-.4-.2-1-.3-2-.6-3.1-1,.4.5.7,1.1,1,1.7.3.7.8,1.4,1.5,1.7.3.2.7.2,1.1.2.2,0,.5,0,.7,0-.3-.5-.4-1.1-.6-1.7,0-.3-.1-.6-.3-.7Z" style="fill:#9bcc3e; stroke-width:0px;"/><path d="m100.6,38.7s0,0,0,0c0,0-.1-.1-.2-.2v.2Z" style="fill:#9bcc3e; stroke-width:0px;"/><path d="m102.5,36.1c-.7.5-1.2,1.2-2.1,1.5h0c1.1.4,2.2.7,3.3,1,.1,0,.3,0,.4,0,.1,0,.2,0,.3-.1.5-.3,1-.8,1.5-1.1.7-.4,1.5-.6,2.3-.8-.3-.3-.6-.4-1-.5-.4-.1-.8-.2-1.1-.3.3-.2.6-.5.9-.8,0,0,0,0,0-.1,0,0,0-.1-.2-.2-.5-.1-1.1,0-1.6.1-1,.3-2.1.6-2.9,1.3Z" style="fill:#9bcc3e; stroke-width:0px;"/><g style="opacity:.5;"><path d="m105.6,40.7c.2.3.5.5.8.5.2,0,.4,0,.7,0,.6,0,1.2,0,1.8,0,0,0,0,0,0-.1-1.1-.6-2.5-.6-3.6-1.2.1.3.3.6.5.8Z" style="fill:#9bcc3e; stroke-width:0px;"/></g><path d="m105.1,39.9h0s0,0,0,0h0Z" style="fill:#9bcc3e; stroke-width:0px;"/><g style="opacity:.5;"><path d="m107.1,38.2c-.3.2-.6.4-.9.6-.3.2-.7.4-1,.4h.3c1.1.3,2.2.6,3.2,1,.2,0,.5.2.8.1,0-.1-.1-.3-.2-.4.2-.1.5,0,.8-.1.3,0,.5-.2.5-.5,0-.2-.1-.3-.3-.4-.5-.3-1-.6-1.6-.6.2,0,.4-.1.5-.3,0,0,0,0,0-.1,0-.1-.2-.1-.3-.1-.6,0-1.3.2-1.8.5Z" style="fill:#9bcc3e; stroke-width:0px;"/></g></g><path d="m79.5,29.4s0,0,0,0c0,0,0,0,0,0Z" style="fill:#386314; stroke-width:0px;"/><g style="opacity:.2;"><path d="m86.2,24.4c-.8,0-1.6.4-2.4.7-1,.4-2,.9-2.8,1.6-.8.7-1.5,1.6-1.6,2.7,1.9-1.8,4.9-2.3,7.5-2.4s5.2.5,7.7,1c0-.3-.2-.5-.4-.6-1.4-.9-2.9-1.5-4.4-2.1-1.2-.5-2.4-1-3.7-.9Z" style="fill:#386314; stroke-width:0px;"/></g><path d="m79.5,29.4s0,0,0,0c0,0,0,0,0,0Z" style="fill:#386314; stroke-width:0px;"/><path d="m79.6,29.3s0,0,0,0h0Z" style="fill:#386314; stroke-width:0px;"/><path d="m79.6,29.3s0,0,0,0c0,0,0,0,0,0Z" style="fill:#386314; stroke-width:0px;"/><g style="opacity:.2;"><path d="m101.7,37.6s3.7,1.1,6.6,2.3c.3.1.8.2.9-.1,0-.1,0-.3,0-.5-.5-1-1-2-1.9-2.5-.6-.3-1.2-.4-1.9-.4-3.3-.4-6.6-.7-10-.9,2.1.8,4.3,1.5,6.4,2.1Z" style="fill:#386314; stroke-width:0px;"/></g><g style="opacity:.5;"><path d="m93.3,24.9c-3.9-.1-7.6,1.7-11,3.5-1.7.9-3.4,1.8-4.4,3.3-.4.7-.9,1.5-1.7,1.4-.3,0-.5-.2-.8-.3-1-.3-1.9.4-2.7,1.1-2,1.6-4.3,2.8-6.8,3.6-1.5.5-3.1.9-4.4,1.8,1.1.7,2.3,1.5,3.5,1.2,1-.2,1.7-1,2.3-1.7l-.9,1.1c4.7-3,9.4-6,14.6-8.2,4.2-1.8,8.8-3.1,12.7-5.4.3-.2.7-.5.6-.9,0-.4-.6-.5-1-.5Z" style="fill:#2f5b04; stroke-width:0px;"/></g><path d="m65.4,37.1l.2-.2c-1.1,1.2-2,2.4-2.9,3.7.6.2,1.1.5,1.7.9,1.1-2.1,3-3.6,4.1-5.7-1.2-.2-2.4.4-3.1,1.4Z" style="fill:#65750a; stroke-width:0px;"/><path d="m95.3,19.9c-1-.4-2,.1-2.9.7-4.6,2.5-9.3,4.7-14.2,6.6-1.3.5-2.7,1-4.1,1.1-1.9.1-3.7-.3-5.5-.9-4.8-1.4-14-5.8-14-5.8-1.4,0-1.3.7-1.2,1.5.1.8,1.5,1.1,2.2,1.3,2.3.9,4.8,2.1,7.5,3.2,3.6,1.5,5.6,2.5,9.5,2.5-2.6,1.9-6.1,1.5-9.2,2.3-1.6.4-3,1.1-4.5,1.7-4,1.6-8.4,2.5-12.7,2.6.4,1.6.8,3.2,1.3,4.8,2.5-2.2,5.9-2.7,9.2-3,3.3-.2,6.7-.3,9.6-1.9-.4,1.5-.8,3-1.1,4.4,2.2-2.8,4.9-5.2,8-7.1,2.5-1.5,5.2-2.6,7.9-3.7,2.1-.9,4.2-1.7,6.2-2.6,1.6-.7,3.2-1.3,4.8-1.8,1.4-.5,2.9-.9,3.9-2,1-1.1.9-3.2-.5-3.8Z" style="fill:#7d9614; stroke-width:0px;"/><g style="opacity:.7;"><path d="m66.8,28.5c-.9-.2-1.8-.5-2.7-.9-.6-.2-1.1-.5-1.7-.7-2.2-1.1-4.4-2.1-6.6-3.2-.9-.4-1.7-.8-2.6-1.2l.2.2c0,.7.8,1,1.4,1.3,5.5,2.6,11,5.1,17,5.9.3,0,.7,0,.8-.3-2-.2-3.9-.6-5.8-1.2Z" style="fill:#826c0d; stroke-width:0px;"/></g><path d="m67.9,26.1c-.6-.3-1.2-.4-1.9-.6-1.4-.4-2.7-1.1-3.7-2.2.6.9,1.3,1.9,2.3,2.2.2,0,.4.1.6.2.7.2,1.3.5,2,.7.3.1.7.3.9.6,0,.2,0,.5,0,.8,0,.3.3.5.5.7.8.7,1.7,1.3,2.5,2-1.4-1.1-1.7-3.4-3.2-4.4Z" style="fill:#4e6326; stroke-width:0px;"/><path d="m74.9,28.1c-.2-.2-.6-.3-.9-.5-.6-.2-1.2-.5-1.8-.8-.5-.3-1.1-.6-1.7-.8-.5-.2-1.1-.4-1.6-.5-2.3-.6-4.8-1.1-6.7-2.7,0,.4.2.7.5.9,0,0,1.6,1.3,2.6,1.7,1.1.5,2.2.9,3.2,1.6,0,0,.2.1.2.3.1.4-.4.7-.4,1.1,0,.4.4.7.7.8.4,0,.8.1,1.1.4.3.2.4.7.6.9.2.2.4.3.6.4.6.3,1.3.6,1.9.9.2,0,.3.2.5.1.2,0,.3-.2.4-.3.6-.7.9-1.7.9-2.6,0-.3-.1-.7-.3-.9Z" style="fill:#b3c646; stroke-width:0px;"/><g style="opacity:.2;"><path d="m74.6,28.7c0-.1,0-.3-.1-.4,0-.1-.2-.3-.4-.4-.4-.3-.9-.5-1.4-.7-.1,0-.3,0-.4,0-.1,0-.2.3,0,.3h-.1c0,0,.2.2.3.4.1.2.2.4.3.7,0,.2,0,.5.1.7,0,.1.2.2.3.3.4.3.8.7,1.2,1,0,0,.1.1.2.1.2,0,.3-.2.4-.4.1-.5,0-1.1-.2-1.7Z" style="fill:#335c18; stroke-width:0px;"/></g><path d="m63.7,34.6c-.4-.4-.8-.9-1.1-1.3,0,0-.1-.1-.2-.1,0,0,0,0,0,0-.2.2-.3.5-.3.7-.2.4-.4.7-.3,1.1,0,.2.2.4.4.6.3.4.7.8,1,1.2,0,0,.1.1.2,0,0-.5.2-1.1.4-1.5,0-.2.2-.3.2-.5,0-.1-.1-.2-.2-.3Zm-1.6-.9s0,0,0,0c0,0,0,0,0,0,0,0,0,0,0,0h0Z" style="fill:#8c5b1f; stroke-width:0px;"/><g style="opacity:.8;"><path d="m47.1,37.2h0c0,0-.1,0-.2,0h.2Z" style="fill:#8c9921; stroke-width:0px;"/></g><g style="opacity:.8;"><path d="m47.3,37.2h-.2c0,0,.1,0,.2,0Z" style="fill:#8c9921; stroke-width:0px;"/></g><path d="m60.3,33.5c-4.1,1.7-8.4,2.8-12.8,3.2-.2,0-.4,0-.5.2,0,.1,0,.2.1.3,4.1-.1,8-1.2,11.9-2.3.5-.1,1-.3,1.4-.5.4-.3.8-.6,1-1.1-.4-.1-.8,0-1.1.2Z" style="fill:#a2b631; stroke-width:0px;"/><g style="opacity:.2;"><path d="m61.9,37.4c-.6-.4-1-1.1-1.1-1.8-3.9,1.6-7.9,2.7-12.1,3.4-.1,0-.2,0-.3.1-.2.2-.1.5,0,.7,0,0,0,.2.1.3.1,0,.3,0,.4,0,.5-.2,1.1-.4,1.6-.7h-.2c3.7-.9,7.5-1.5,11.4-1.7.1,0,.3,0,.2-.2,0,0,0,0,0,0Z" style="fill:#335c18; stroke-width:0px;"/></g><g style="opacity:.2;"><path d="m62.9,32.8l.3.2c1.1.2,2.4,1,2.1,2.1.2-1.7,3.1-3,5.4-3.9.3-.1.6-.3.8-.5-3.9,1.7-8.1,1.6-8.6,2Z" style="fill:#335c18; stroke-width:0px;"/></g><path d="m94.8,21.3c0-.3,0-.6,0-.9,0,0,0-.1,0-.2,0-.1-.2,0-.4,0-1.1.2-1.9.9-2.8,1.5-2.2,1.4-4.8,2.1-7.2,3.2-.9.4-1.8.9-2.7,1.3-1.9.9-4,1.5-6,2.1h0c.4.5-.2,1.2.2,1.6.3.3.8,0,1.2-.1,3-1.9,6.5-2.7,9.8-3.9,1.8-.6,3.5-1.4,5.2-2.1.8-.4,1.6-.7,2.4-1.2.2-.1.4-.3.5-.5.1-.2,0-.5,0-.7Z" style="fill:#b3c646; stroke-width:0px;"/><path d="m95.6,23c-.4.4-.7.7-1.1,1.1-3.4,1.8-7.3,2.4-10.7,4.1-.7.4-1.4.8-2.2,1.1-1.6.8-3.4,1.3-5,2.2,2.1-.6,4.1-1.3,6.1-2.2,1-.4,2-.9,3-1.3,2.9-1.2,6-2,8.8-3.4.3-.1.6-.3.8-.5.3-.3.4-.8.3-1.2Z" style="fill:#65750a; stroke-width:0px;"/><g style="opacity:.8;"><path d="m63.1,33.4s0,0,0,0c0,0,0,0,0,0h0Z" style="fill:#335c18; stroke-width:0px;"/></g><path d="m64.5,33.3c-.5-.2-1.2-.2-1.6-.5,0,.2.1.4.2.6.1.1.3.3.5.4.4.4.6.9.5,1.4,0,.4-.2.8-.3,1.2,0,0,0,.2,0,.2,0,0,.2,0,.2,0,.5-.3,1-.7,1.2-1.2.3-.8,0-1.7-.8-2Z" style="fill:#65750a; stroke-width:0px;"/><g style="opacity:.3;"><path d="m67.6,27.8c-.4-.2-.8-.4-1.3-.6-1.1-.5-2.1-1-3.2-1.4-.9-.3-1.8-.6-2.7-1-2.1-.9-4.1-2.3-6.4-2.7h0c-.2,0,0,.3.3.4,4.2,2.2,8.5,4.3,13,5.8.2,0,.5,0,.6-.1,0-.2-.2-.3-.3-.4Z" style="fill:#fff; stroke-width:0px;"/></g><g style="opacity:.5;"><path d="m62.3,23l-.2-.5c0,.2.1.4.2.5Z" style="fill:#c10d08; stroke-width:0px;"/></g><g style="opacity:.5;"><path d="m71.9,30.2c-.2-.2-.4-.3-.4-.6,0-.3.2-.6,0-.9-.3-.5-1.2.1-1.5-.3,0-.1,0-.2-.1-.4,0-.1-.2-.3-.3-.4-.2-.3,0-.7.4-.9.3-.1.7,0,1,.3-.8-.9-2.2-.9-3.4-1.2-1.4-.3-2.6-1-3.8-1.7-.5-.3-1.1-.6-1.4-1.1h0c.4,1.1,1.5,1.7,2.5,2.1,1.2.5,2.4,1,3.7,1.3.3,0,.6.2.7.5,0,.3-.1.5,0,.8,0,.1.1.2.1.3,0,.2-.5.3-.5.5,0,.1.1.2.2.3.6.3,1.2.3,1.9.2-.3.4,0,1,.3,1.3s.9.4,1.3.6c.5.2.9.5,1.3.8-.6-.5-1.2-1-1.8-1.6Z" style="fill:#c10d08; stroke-width:0px;"/></g><path d="m76.5,27.9s-.1,0-.2,0c-.4,0-.9,0-1.3.4h0c.5.6.5,1.5,0,2.2-.1.2-.3.4-.2.6,1-.5,1.4-1.7,1.5-2.7,0-.1,0-.2,0-.3Z" style="fill:#65750a; stroke-width:0px;"/><g style="opacity:.2;"><path d="m90.1,22.4c-.2,0-.4.2-.6.3.2,0,.4-.2.6-.3Z" style="fill:#335c18; stroke-width:0px;"/></g><g style="opacity:.2;"><path d="m94.6,20.2v-.3c-1.5.8-3,1.6-4.5,2.4.5-.3,1.1-.5,1.7-.5.8,0,1.6.6,1.6,1.4,0,.7-.7,1.2-1.2,1.5-.5.4-1,.7-1.6,1.1.6-.3,1.1-.6,1.7-.9.8-.3,1.7-.6,2.5-1,.8-.5,1.4-1.3,1.4-2.1,0-.8-.7-1.6-1.5-1.7Z" style="fill:#335c18; stroke-width:0px;"/></g><g style="opacity:.2;"><path d="m86.5,26.5c-2.6,1.2-5.2,2.2-7.9,3-.4.1-1,.2-1.2-.1-.1-.1-.2-.4-.4-.3,0,0-.1.1-.2.2-.2.5-.4,1.1-.5,1.6l.4-1.1c-.2,1-.9,1.9-1.7,2.5,4.5-2.4,9.1-4.5,13.9-6.3-.8-.1-1.6.2-2.4.6Z" style="fill:#335c18; stroke-width:0px;"/></g><path d="m71.9,31.3c-.1,0-.3,0-.4.1-.6.3-1.1.7-1.8.9s-.7.2-1,.4c-.3.2-.4.5-.7.7-.2.1-.5.2-.7.3-.5.2-.8.8-1,1.3h0c2-.7,4-1.8,5.7-3.1,0,0,.1-.1.2-.2,0-.1,0-.3-.2-.3Z" style="fill:#b3c646; stroke-width:0px;"/><g style="opacity:.2;"><path d="m64.8,34.5c-.1-.3-.4-.5-.7-.7.4.5.6,1.1.5,1.8.3-.2.4-.7.2-1Z" style="fill:#335c18; stroke-width:0px;"/></g><g style="opacity:.9;"><path d="m63.2,34.9c-.1-.4-.6-.7-.8-1h0c0,.2,0,.4,0,.6,0,.5.2,1,.6,1.3,0-.3.2-.6.1-.9Z" style="fill:#4c3829; stroke-width:0px;"/></g><g style="opacity:.5;"><path d="m62.4,33.8v-.2c0,0,0,.1,0,.2Z" style="fill:#c10d08; stroke-width:0px;"/></g><g style="opacity:.3;"><path d="m61.1,34.2c-4.7,1.1-9.3,2.5-13.8,4.1l-.3.2c.1.4.3.7.4,1.1,0,.1,0,.2.2.3.2.1.4,0,.6,0,2.8-1.3,5.8-2.1,8.9-2.5,1-.1,2-.2,3-.2.7,0,1.4,0,2.2-.1-.9-.6-1.3-1.7-1.1-2.7Z" style="fill:#fff; stroke-width:0px;"/></g><g style="opacity:.2;"><path d="m65.9,39.6s0,0,0,0c0,0,0,0,0,0h0Z" style="fill:#335c18; stroke-width:0px;"/></g><g style="opacity:.2;"><path d="m73.1,32.4c-.3.1-.5.3-.8.5-.4.4-1,.6-1.5.8-1.1.5-2.2.9-3.4,1.3-.2,0-.4.1-.5.2.3,0,.6.1.7.4,0,0,0,.1,0,.2-.3,1.3-.9,2.6-1.7,3.8.5-.8,1.1-1.5,1.7-2.3.3-.3.6-.7.9-1,.3-.3.7-.6,1.1-.8,1.6-1.1,3.3-2.3,5.1-3.2-.5.2-1.1,0-1.6.1Z" style="fill:#335c18; stroke-width:0px;"/></g><g style="opacity:.8;"><path d="m50.9,36.1c0,0-2.2.2-3.2.4,0,0,.9,1.9,1,3.1,0,.2,0,.4.2.4,0,0,.2,0,.2,0,.5-.1,1-.3,1.5-.5,11.7-2.6,2.7-3.4.3-3.4Z" style="fill:#335c18; stroke-width:0px;"/></g><g style="opacity:.7;"><path d="m74.7,46c-.5-2.3-2-4.5-4.2-5.6-2.6-1.3-5.7-.8-8.5-.2h.3c.8.6,1.7,1,2.4,1.5,2.3,1.6,3.6,4.3,4,7,.4,2.8-.2,5.6-1.2,8.2-.5,1.4-1.2,2.7-1.7,4.1-.2.5-.3,1.1,0,1.4.3.2.8,0,1.1-.1,3.5-1.9,6.1-5.4,7.3-9.2.7-2.3,1-4.8.5-7.1Z" style="fill:#2f5b04; stroke-width:0px;"/></g><path d="m23.4,4c0-.4-.3-.7-.7-.9-.2,0-.6,0-.6.3,0,.2.2.4.3.5.3.3.5.8.5,1.3-.4,0-.7-.4-.9-.8-.2-.2-.3-.4-.6-.5-.3,0-.6,0-.7.2-.1.2,0,.6.3.6.1,0,.2,0,.3,0,0,0,.1,0,.2.1.3.4.5.7.7,1.2,0,.1,0,.2,0,.4,0,.2-.3.2-.5,0-.1-.1-.2-.3-.3-.4-.3-.4-.8-.6-1.3-.5-.2,0-.4,0-.5.2s-.1.4,0,.5c.2.1.4,0,.7,0,.7,0,.9.9,1.6,1.3-.2.2-.6.2-.8,0-.3,0-.5-.3-.8-.4-.3-.1-.5-.3-.8-.2-.3,0-.6.3-.6.6,0,.3.4.5.6.4.2-.1.2-.3.4-.4,0,0,.2,0,.2,0,.5.3,1,.6,1.5,1-.5.2-1.2.4-1.7.2-.1,0-.2-.2-.4-.2-.4-.1-.8.2-.8.6,0,.4.4.7.8.6.3,0,.6-.4.9-.4.3,0,.6.2.8.4-3.5,1,.3.7.3.7l3-5.9-1.2-.4Z" style="fill:#472410; stroke-width:0px;"/><path d="m54.5,10.4c-.9-2.6-3.4-5.6-5.4-7.1-2-1.5-5.3-2.8-7.3-3.2-2-.4-6.5,0-9.4.8-2.9.8-5.8,2.9-5.8,2.9l-1.9-1.1-4.2,8.7,2,.6,1.3,2.8c1.3,2.8,2.3,5.8,3.4,7.3,1.3,1.8,4.2,4.3,5.7,4.9,1.5.6,5.1,2.3,7.2,2.5,2.2.3,5.2,0,7-.5s4.7-2.8,5.8-4.3c1.2-1.6,2.5-5.3,2.7-7.3.3-3.1-.2-4.7-1-7.1Z" style="fill:#db2014; stroke-width:0px;"/><path d="m24.7,2.8c-.3-.3-.8-.3-1,0,0,0-.3.6-.3,1,0,.3,0,.7,0,1-.1,1.1-1.2,1.9-1.8,2.8-.5.9-.6,2.1-1.2,2.9,0,.1-.2.3-.1.4,0,0,.2,0,.3,0,.6,0,1-.4,1.3-.8.4-.5.7-1.1,1-1.6.2-.4.3-.8.5-1.2.3-.5.7-1,1-1.5.4-.6.6-1.3.6-2,0-.4,0-.8-.3-1Z" style="fill:#683a1a; stroke-width:0px;"/><path d="m25.4,2.6c-.1-.2-.4-.3-.6-.2l-.2.3c.4,1.3.1,2.8-.8,3.7-.3.4-.8.7-1,1.2-.2.4-.2.8-.3,1.2-.2.9-.9,1.7-1.8,2.1-.2.1-.5.4-.4.6,0,0,.1,0,.2.1.6.1,1.2-.3,1.5-.8.4-.5.7-1,1-1.6.2-.5.3-1.1.6-1.5.2-.4.6-.7.9-1.1.7-.9,1.1-2.1,1-3.3,0-.2,0-.5-.2-.7Z" style="fill:#472410; stroke-width:0px;"/><g style="opacity:.5;"><path d="m26.2,4.3c-.1,0-.2.2-.1.3h0c0,.6-.3,1.3-.7,1.8-.4.6-.9,1.1-1.3,1.7-.3.6-.4,1.2-.7,1.8s-.6,1.2-1.2,1.5c.3.4.6.7.9,1.1,0,0,.1.1.2.1,0,0,.1-.1.2-.2.6-1.6.6-3.3,1.5-4.7.4-.6.9-1,1.2-1.6.3-.6.4-1.3,0-1.9Z" style="fill:#7a0818; stroke-width:0px;"/></g><g style="opacity:.5;"><path d="m48.4,12.6c0-2.4-1-4.7-2.6-6.6-1.1-1.2-2.4-2.3-4-2.9-2.2-1-4.8-1.2-7.2-.8-2.4.4-6.6,2.3-6.6,2.3-1.1.7-1.8,1.7-2.3,2.8-.2.4-.3.7-.3,1.1,0,.4,0,.9.2,1.3.3.9.6,1.7,1,2.5,1.9,3.8,6.1,6.2,10.5,7.2,1,.2,2.1.4,3.2.3,1-.1,2-.5,2.9-.9,2.1-.9,4.3-2.3,5-4.4.2-.6.2-1.3.2-2Z" style="fill:#f9473a; stroke-width:0px;"/></g><g style="opacity:.5;"><path d="m42.7,11.5c0-1.9-.7-3.7-1.9-5.1-.8-1-1.8-1.8-2.9-2.3-1.6-.7-3.5-.9-5.2-.6-1.8.3-4.8,1.8-4.8,1.8-.8.5-1.3,1.3-1.7,2.2-.1.3-.2.6-.2.9,0,.3,0,.7.2,1,.2.7.4,1.3.7,1.9,1.4,2.9,4.5,4.8,7.6,5.6.8.2,1.5.3,2.3.2.7,0,1.5-.4,2.1-.7,1.5-.7,3.1-1.8,3.6-3.4.1-.5.2-1,.2-1.6Z" style="fill:#f9473a; stroke-width:0px;"/></g><g style="opacity:.2;"><path d="m35.4,3.7c-.7-.2-1.5,0-2.2,0-2,.3-4.1.7-6.1,1h-.1c0,1.1-.3,2-.8,2.7-.1.2-.3.5-.2.7,0,.1.2.2.3.3,1.7.9,3.4,1.8,5.1,2.7.4.2.7.4,1.1.4.6,0,1.2-.3,1.6-.7.4-.4.7-1,.9-1.5.5-1,.9-2,1.4-3,.2-.3.3-.7.3-1,0-.7-.6-1.3-1.4-1.5Z" style="fill:#fff; stroke-width:0px;"/><g style="opacity:.5;"><path d="m49.9,13.2c-.6-1-1.4-2-2.4-2.6-2.5-1.6-4.7-1-5.6-.5-.7.4-1.3,1.1-1.1,1.9,0,.4.4.7.7,1,1.4,1.4,3.1,2.7,4.1,4.5.4.7.7,1.6,1.5,1.9.4.1.8,0,1.2,0,1.1-.4,1.9-1.5,2.2-2.6.3-1.2,0-2.4-.6-3.5Z" style="fill:#fff; stroke-width:0px;"/></g></g><g style="opacity:.2;"><path d="m34.6,5.2c-.2,0-.5-.1-.7-.1-1.8,0-3.6.3-5.3.6h-.3c-.2.5-.5,1-.7,1.5,0,.1-.1.2-.1.3,0,.3.3.5.5.6,1.2.6,2.3,1.3,3.5,1.9.3.2.6.3,1,.2.2,0,.4-.2.6-.4.8-.9.8-2.3,1.6-3.2.2-.3.5-.6.5-.9,0-.2-.2-.4-.4-.5Z" style="fill:#fff; stroke-width:0px;"/></g><g style="opacity:.1;"><path d="m47.3,11.5c-.4-.5-1.9-1.2-2.6-1.2,0,0-.6,0-1.1,0-.6,0-1.3.2-1.5.8-.1.4,0,.8.2,1.1.2.3.5.6.8.8,1.1.9,2.1,1.9,3,3.1.3.4.8,1,1.3.9.6-.1,1.8-.9,1.8-1.5,0-1.5-1-2.8-2-4Z" style="fill:#fff; stroke-width:0px;"/></g><g style="opacity:.3;"><path d="m39.1,26.5c-.7-1.1-1.7-1.8-2.7-2.7-.7-.6-1.3-1.3-1.8-2.1-.7-.9-1.3-1.9-1.6-3.1-.3-1.1-.3-2.3.1-3.4.2-.5.5-1,.3-1.5,0-.2-.3-.4-.5-.5-.8-.6-1.6-1-2.5-1.4-.7-.3-1.5-.5-2.2-.8-.9-.5-1.6-1.2-2.2-1.9-.2-.3-.4-.5-.7-.6-.3-.1-.7,0-.8.3,0,0-.1,1.4-.3,2.3-.2.6-.3,1.1-.3,1.7,0,1.3.7,2.5,1.4,3.6,1.8,3,3.3,6.3,6.1,8.3,1.5,1.1,3.2,1.7,5,2.3.7.2,1.4.5,2.1.5.3,0,.7,0,.8-.3.1-.3,0-.6-.2-.8Z" style="fill:#c10d08; stroke-width:0px;"/></g><g style="opacity:.3;"><path d="m40.4.2c-4.3-.3-10.1,1.2-13.5,3.8v.4c.8-.7,3.1-1.2,4.1-1.3,1.5-.2,3.1-.2,4.6-.2.4,0,.7,0,1.1,0,.4-.1.8-.4,1.1-.6,1.4-.9,4.7-1.1,6.3-1.2-.5-.4-3-.8-3.7-.9Z" style="fill:#910916; stroke-width:0px;"/></g><g style="opacity:.5;"><path d="m54.5,14.9c-.6-3.2-2-6.2-4-8.7,1.2,3,1.5,4.7,1.4,7.1,0,2.9-1.2,5.8-3.3,7.9s-5.1,3.1-8,2.9c-.2,0-.4,0-.5.1-.2.2,0,.5.1.7.6,1,0,2.5-1,3-.8.3-1.6.2-2.5,0-.9-.2-1.7-.6-2.5-1,.6.7,1.5,1,2.4,1.2,3.2.7,6.5,1.1,9.7.2,3.2-.9,6-3.3,7.4-6.3.4-.8.7-1.7.8-2.5.3-1.5.2-3-.1-4.5Z" style="fill:#c10d08; stroke-width:0px;"/></g><g style="opacity:.2;"><path d="m53.3,21.6h-.2c-1.9,2.9-5,4.8-8.4,5.1-.3,0-.7,0-.9.2-.4.2-.6.7-.9,1.1,0,.1-.1.3,0,.4,0,.2.3.2.5.2,2,0,4-.5,5.7-1.4,1.8-.9,3.2-2.4,4.1-4.2.2-.4.4-1,0-1.4Z" style="fill:#fff; stroke-width:0px;"/></g><g style="opacity:.1;"><path d="m28.2,22.4c-.2-1-.4-2-.6-3.1,0-.4-.2-.8-.3-1.2-.3-.6-.7-1-1.1-1.5-1.1-1.3-1.6-3-2.3-4.5,0-.2-.2-.4-.4-.3,0,0-.1.1-.1.2-.2.5,0,1.2.3,1.6,1.1,3.1,2.7,6,4.6,8.7Z" style="fill:#fff; stroke-width:0px;"/></g><path d="m33.7,5.4c-.1,0-.3,0-.4,0-1.2,0-2.4.3-3.7.5-.5,0-1.4.1-1.4.1-.3.2-.5.5-.5.9,0,0,0,.2,0,.2.1.1.3.2.5.2,1,.1,2,.4,3,.7.4.1.8.2,1.2.2.2,0,.3,0,.4-.2.1-.1.2-.2.2-.4.3-.5.5-1.1.8-1.6,0,0,0-.2,0-.2,0-.1-.1-.2-.2-.3Z" style="fill:#f9a7a5; stroke-width:0px;"/><g style="opacity:.1;"><path d="m46.5,12.2c-.3-.6-.9-1.5-1.6-1.6,0,0-.2,0-.8,0-.2,0-.4,0-.6,0-.4,0-.8.5-.8.9,0,.4.3.8.6,1.1.7.6,1.5,1.1,2.4,1.3.2,0,.4,0,.7,0,.3-.1.5-.5.5-.8,0-.3-.1-.6-.3-.9Z" style="fill:#fff; stroke-width:0px;"/></g><path d="m23.9,2.7s0,0,0,.1c-.2.3-.3.7-.3,1,0,.4,0,.9,0,1.3,0,0,0,.1,0,.1,0,0,0,0,0,0,.1-.1.2-.3.2-.4.1-.4.2-.8.3-1.2,0-.2,0-.4.1-.6,0-.1,0-.3,0-.3,0,0-.1,0-.2,0Z" style="fill:#bc6031; stroke-width:0px;"/><path d="m21.1,9.3c.2-.1.3-.4.4-.6.5-1,1.1-1.9,1.6-2.9-.3.5-.7.9-1.1,1.3-.2.2-.3.4-.5.7-.1.2-.2.4-.2.7,0,.3-.2.6-.2.9Z" style="fill:#bc6031; stroke-width:0px;"/><g style="opacity:.2;"><path d="m23.7,6.8c-.1.1-.3.3-.4.4l.2-.2c-.5.2-.7.8-.7,1.3,0,0,0,0,0,0,0,0,0,0,0,0,.2-.2.2-.4.3-.7,0-.2.2-.3.3-.5,0,0,.2-.2.3-.3,0,0,0,0,0,0,0,0,0,0-.1,0Z" style="fill:#fff; stroke-width:0px;"/></g><g style="opacity:.2;"><path d="m25,2.6s0,0,0,0c0,0,0,0,0,0,0,.1,0,.3,0,.4,0,.1.1.3.1.4.2.7,0,1.4-.3,2,.2-.2.2-.4.3-.6.1-.4.2-.8.2-1.2,0-.3,0-.7-.1-1Z" style="fill:#fff; stroke-width:0px;"/></g><path d="m19.2,7.5s0,0,.1,0c0,0,0,0,0,0,0-.1,0-.3.1-.3,0,0,.1,0,0-.1,0,0,0,0,0,0,0,0,0,0-.1,0h0c-.2,0-.3.2-.2.4,0,0,0,0,0,0Z" style="fill:#bc6031; stroke-width:0px;"/><path d="m20.1,5.5c-.1,0-.2,0-.3.1,0,.1,0,.2.1.3,0,0,0,0,0,0,0,0,0,0,0,0,0-.2.2-.3.3-.4,0,0-.2,0-.3,0Z" style="fill:#bc6031; stroke-width:0px;"/><path d="m21,4.3s0,0,0,0c0,0,0,0,0-.1,0,0,0,0,0-.1,0-.1,0-.2.2-.2h-.1c-.1,0-.2,0-.3.2,0,.1,0,.3.1.3Z" style="fill:#bc6031; stroke-width:0px;"/><polygon points="22.5 3.3 22.5 3.3 22.5 3.3 22.5 3.3" style="fill:#fff; stroke-width:0px;"/><path d="m22.4,3.6c.1,0,.2,0,.3,0,0,0,0,0,0,0,0,0,0,0,0,0,0,0-.2,0-.3,0,0,0-.1,0-.1,0,0,0,0,.1,0,.2,0,0,0,0,0,0Z" style="fill:#bc6031; stroke-width:0px;"/><path d="m19.3,9c0,0,0-.1,0-.2,0,0,0-.1,0-.2,0,0,0-.1-.1,0,0,0,0,0,0,0h0c0,0-.1.1-.2.2,0,0,0,.2,0,.3,0,0,0,.2.2.2s.2,0,.3,0c0,0,0,0,0,0,0,0,0,0,0,0,0-.1-.2-.2-.2-.3Z" style="fill:#bc6031; stroke-width:0px;"/><path d="m20.7,10.6c.1-.2.2-.4.1-.7v.3c-.2.1-.3.2-.4.3,0,0,0,0,0,.1,0,0,0,.1,0,.1,0,0,0,0,0,0,.1,0,.2-.1.2-.2Z" style="fill:#bc6031; stroke-width:0px;"/><g style="opacity:.2;"><path d="m20.8,11.1c.4-.1.7-.4.9-.8l-1,.8s0,0,0,0Z" style="fill:#fff; stroke-width:0px;"/></g><g style="opacity:.3;"><path d="m54.2,10c-.9-1.9-2.2-3.5-3.7-4.9h-.2c2.8,2.8,4.5,6.6,4.6,10.5,0,.7,0,1.3-.2,2-.2.6-.4,1.1-.6,1.7-.1.4-.2.8-.3,1.1,0,.2,0,.5.1.5,0,0,.2,0,.2,0,.3-.2.4-.6.5-.9.4-1.3.7-2.7.8-4.1.1-2.1-.3-4.1-1.2-6Z" style="fill:#fff; stroke-width:0px;"/></g><g style="opacity:.6;"><path d="m46.2,27.4c0-.2-.2-.3-.3-.4-2-1.6-4.5-2.6-7-3.1s-5.1-.6-7.7-.5c-.2,0-.5,0-.7.1-.2,0-.3.3-.4.5,1.9,1.5,3.9,3,6.2,3.8.9.3,1.7.5,2.6.7.7.2,1.4.3,2.1.4,1.5.2,3.1,0,4.5-.7.3-.2.7-.5.6-.8Z" style="fill:#a00b0b; stroke-width:0px;"/><path d="m30.1,24.1s0,0,0,0c0,0,0,0,0,0v.2Z" style="fill:#a00b0b; stroke-width:0px;"/></g><path d="m5.1,42.3c-.3-.4-.8-.5-1.3-.4-.3,0-.5.4-.4.7.1.2.4.2.7.3.6,0,1.1.4,1.3.9-.4.3-1,0-1.5-.2-.3-.1-.7-.2-1-.1s-.6.4-.6.7c0,.3.5.6.7.4,0,0,.1-.2.3-.3,0,0,.2,0,.3,0,.5.1,1.1.4,1.5.7.1,0,.3.2.3.3,0,.2-.2.4-.4.4s-.4-.1-.6-.2c-.6-.2-1.2,0-1.7.3-.2.2-.3.4-.3.6,0,.2.2.5.4.5.3,0,.5-.3.7-.4.7-.5,1.6.3,2.4.2-.1.3-.5.6-.8.6-.3,0-.7,0-1.1.1-.4,0-.7.1-1,.4-.3.2-.4.7-.2,1s.7.3.9,0c0-.2,0-.5.2-.6,0,0,.2,0,.3,0,.8,0,1.5,0,2.3,0-.4.6-.9,1.3-1.6,1.3-.2,0-.4,0-.5,0-.4.1-.6.8-.4,1.1.3.4.9.4,1.2,0,.3-.3.3-.8.6-1,.3-.2.7-.2,1.1,0-2.8,3.4.7.5.7.5l-1-8.1-1.5.5Z" style="fill:#472410; stroke-width:0px;"/><path d="m46.8,33.7c-1.9-3.4-3.4-4.6-5.9-6.5-2.7-2-7.3-3.3-10.4-3.4-3.1-.1-7.3.9-9.6,1.9-2.3,1-6.5,4.5-8.9,7.2-2.4,2.8-3.9,7-3.9,7l-2.7.2,1.8,11.7,2.5-.8,3.2,2c3.2,2,6.4,4.2,8.5,5,2.5.9,7.2,1.5,9.2,1,2-.4,6.7-1.2,9.1-2.4s5.3-3.5,6.7-5.4c1.4-1.9,2.8-6.1,2.9-8.3,0-2.4-1.2-7.1-2.4-9.3Z" style="fill:#f72621; stroke-width:0px;"/><path d="m45.2,33.7c-2-1.7-3.6-2.3-6.1-3-2.7-.8-7.3-1.1-10.3-.9-3,.2-6.9,1.5-9.1,2.3-2.2.8-5.9,3.2-8.1,5.3-1.9,1.8-2.5,3.1-2.5,3.1l.7,7.2s.6.5,3.9,1.3c3.2.8,6.9,1.8,9.1,2,2.5.3,6.7.4,8.6,0,1.9-.4,6-1.8,8.2-2.7,2.2-.9,5-3.3,6.2-4.5,1.2-1.2,2.3-3.7,2.3-5,0-1.4-1.6-3.9-2.9-5Z" style="fill:#ff3d10; isolation:isolate; opacity:.4; stroke-width:0px;"/><path d="m5.5,40.2c-.5,0-1,.2-1,.7,0,0,.1.8.3,1.2.2.4.5.7.7,1.1.6,1.2,0,2.7.2,4.1.1,1.3.9,2.5.8,3.8,0,.2,0,.4.2.5.1,0,.2,0,.3,0,.5-.4.7-1.1.8-1.8,0-.8,0-1.6-.2-2.3-.1-.5-.3-1-.4-1.6,0-.7,0-1.5,0-2.2,0-.9-.3-1.7-.8-2.4-.2-.4-.6-.8-1-.9Z" style="fill:#683a1a; stroke-width:0px;"/><path d="m6,39.6c-.3,0-.6,0-.7.2v.5c1.3,1,2,2.7,1.8,4.3,0,.6-.3,1.2-.2,1.9,0,.5.3.9.5,1.4.4,1.1.3,2.4-.3,3.4-.2.3-.3.7,0,.8,0,0,.2,0,.3,0,.7-.3,1-1.1,1-1.9,0-.8,0-1.6-.2-2.3-.2-.7-.4-1.3-.4-2,0-.6,0-1.1.1-1.7,0-1.4-.4-2.9-1.2-4-.2-.2-.4-.4-.6-.5Z" style="fill:#472410; stroke-width:0px;"/><path d="m4.6,40.6c0,0,0,.1,0,.2,0,.4.2.9.5,1.2.3.4.7.8.8,1.3,0,0,0,.1.1.1,0,0,0,0,0,0,0-.2,0-.4,0-.6-.2-.5-.4-1-.6-1.4-.1-.2-.2-.5-.3-.7,0-.1-.2-.3-.3-.3,0,0-.2,0-.2.2Z" style="fill:#bc6031; stroke-width:0px;"/><path d="m6.4,49.3c.1-.3,0-.6,0-.9-.2-1.3-.2-2.7-.3-4,0,.7-.1,1.4-.2,2.1,0,.3,0,.7,0,1,0,.3.1.6.2.8.1.3.2.7.3,1Z" style="fill:#bc6031; stroke-width:0px;"/><g style="opacity:.2;"><path d="m7.2,44.9c0,.2-.1.4-.1.7v-.4c-.2.6-.2,1.3.2,1.8,0,0,0,0,0,0,0,0,0,0,0,0,0-.3,0-.6-.1-.9,0-.2,0-.5,0-.7,0-.2,0-.3,0-.5,0,0,0,0,0,0,0,0,0,0-.1.1Z" style="fill:#fff; stroke-width:0px;"/></g><g style="opacity:.2;"><path d="m5.7,39.8c0,0-.1,0-.2,0,0,0,0,0,0,0,0,.2.1.3.2.4.1.1.3.2.4.3.7.5.9,1.4,1.1,2.3,0-.3,0-.6-.2-.9-.2-.5-.4-.9-.6-1.3-.2-.3-.4-.7-.8-.9Z" style="fill:#fff; stroke-width:0px;"/></g><path d="m3.2,48.8s0,0,.1,0c0,0,0,0,0,0,0-.1-.2-.3-.1-.4,0,0,0-.2,0-.2,0,0,0,0,0,0,0,0,0,0-.1.1h0c-.1.1,0,.4,0,.6,0,0,0,0,.1,0Z" style="fill:#bc6031; stroke-width:0px;"/><path d="m2.7,46.2c-.1,0-.2.2-.2.3,0,.1.2.2.3.2,0,0,0,0,0,0,0,0,0,0,0-.1,0-.2,0-.4,0-.6-.1,0-.2.1-.2.2Z" style="fill:#bc6031; stroke-width:0px;"/><path d="m2.8,44.3s0,0,0,0c0,0,0-.1,0-.2,0,0,0,0-.1-.1,0,0,0-.2,0-.4h-.1c-.1.2-.2.3-.2.5,0,.1.2.2.3.2Z" style="fill:#bc6031; stroke-width:0px;"/><polygon points="3.6 42.2 3.6 42.2 3.6 42.2 3.6 42.2" style="fill:#fff; stroke-width:0px;"/><path d="m3.7,42.5c.1,0,.2-.1.3-.2,0,0,0-.1,0-.1,0,0,0,0-.1,0-.1,0-.2,0-.3.1,0,0,0,0-.1.1,0,0,0,.2.1.2,0,0,0,0,.1,0Z" style="fill:#bc6031; stroke-width:0px;"/><path d="m4.3,50.2c0,0,0-.1,0-.2,0,0,0-.1,0-.2,0,0-.1,0-.2,0,0,0,0,0,0,.1h0c0,0,0,.2,0,.3,0,.1,0,.2.1.3,0,0,.2.1.3.1s.2,0,.3-.1c0,0,0,0,0,0,0,0,0,0,0,0-.1,0-.3,0-.4-.2Z" style="fill:#bc6031; stroke-width:0px;"/><path d="m6.9,50.8c0-.3-.1-.6-.3-.8v.4c0,.2,0,.4,0,.5,0,0,0,.1,0,.2,0,0,0,.1.1.1,0,0,0,0,0,0,0,0,.1-.2.1-.4Z" style="fill:#bc6031; stroke-width:0px;"/><g style="opacity:.2;"><path d="m7.3,51.3c.3-.4.4-.9.4-1.4l-.4,1.5s0,0,0,0Z" style="fill:#fff; stroke-width:0px;"/></g><g style="opacity:.2;"><path d="m39.5,39.4c0-1.1-.3-2.2-.7-3.2-.9-1.9-2.6-3.3-4.6-4.1-1.9-.8-4.1-1.1-6.1-1.3-.9,0-1.9-.1-2.9,0-.4,0-.8,0-1.2.1-.8.1-1.6.4-2.3.8-2.8,1.2-5.2,2.9-7.2,5.1-1.2,1.3-2.3,2.9-2.3,4.7,0,1.9,1,3.7,2.5,5,3.3,2.9,8.1,3.3,12.6,3,2.5-.2,5.1-.6,7.3-1.7,2.3-1.1,4.2-3.1,4.8-5.6.2-.9.2-1.8.2-2.8Z" style="fill:#fc672b; stroke-width:0px;"/></g><g style="opacity:.2;"><path d="m34,39.6c0-.9-.2-1.8-.6-2.6-.7-1.6-2.1-2.7-3.7-3.4-1.6-.7-3.3-.9-5-1.1-.8,0-1.6,0-2.3,0-.3,0-.6,0-1,.1-.6.1-1.3.3-1.8.6-2.2.9-4.3,2.4-5.9,4.2-1,1.1-1.8,2.4-1.9,3.8,0,1.6.8,3,2,4.1,2.7,2.4,6.6,2.7,10.2,2.4,2.1-.2,4.1-.5,6-1.4,1.8-.9,3.4-2.5,3.9-4.5.2-.7.2-1.5.1-2.2Z" style="fill:#fc672b; stroke-width:0px;"/></g><g style="opacity:.1;"><path d="m23.1,28c-.9-.6-2-.6-3-.3-1,.3-1.8.9-2.7,1.5,0,0-1.1,1.2-1.8,2.1-1.4,1.8-2.4,3.9-2.4,6.1,0,1.4.7,3,2,3.5.9.3,1.9,0,2.8-.4,3.5-1.6,6.2-5,6.4-8.9,0-1.3-.3-2.9-1.4-3.6Z" style="fill:#fff; stroke-width:0px;"/></g><g style="opacity:.1;"><path d="m22.8,27.8c-.3-.3-.9-.3-1.4-.2,0,0-.1,0-.2,0-1.4,0-2.7.5-3.8,1.4-1.4,1.1-2.4,2.8-3.2,4.4-.4.8-.7,1.6-.6,2.4.3,1.3,1.7,2.1,3,1.9,1.3-.2,2.4-1.1,3.3-2,1.6-1.8,2.7-4.1,3-6.5,0-.5,0-1.1-.3-1.4Z" style="fill:#fff; stroke-width:0px;"/></g><path d="m20.6,28.5c-.2-.2-.6-.2-.8-.1,0,0,0,0-.1,0-.8,0-1.7.3-2.4.9-.9.7-1.5,1.7-2,2.7-.2.5-.5,1-.4,1.5.2.8,1.1,1.3,1.9,1.2s1.5-.7,2-1.3c1-1.1,1.7-2.6,1.9-4.1,0-.3,0-.7-.2-.9Z" style="fill:#fcc3c3; stroke-width:0px;"/><g style="opacity:.1;"><path d="m38.8,41.9c-1-2.6-2.1-5.3-4.4-6.8-.4-.3-.9-.5-1.4-.6-1-.1-1.8.4-2.7.8-.9.2-1.7.5-2.4,1-.6.4-1.1.8-1.2,1.5-.1.6.2,1.2.4,1.7.7,1.6,1.2,3.4,1.4,5.2,0,.6.1,1.2.6,1.6.5.4,1.1.3,1.7.1,2.2-.5,4.5-1.1,6.6-1.8.5-.2,1.1-.4,1.4-.9.3-.6,0-1.2-.1-1.8Z" style="fill:#fff; stroke-width:0px;"/></g><g style="opacity:.1;"><path d="m36.9,41.6c-.5-1.6-1.2-3.1-1.9-4.6-.2-.4-.5-.9-.9-1.1-.5-.2-1.1,0-1.6.2l.6-.2c-1.2,0-2.4.4-3.4,1-.5.3-.9.6-1,1.1,0,.4,0,.8.2,1.2.5,1.4.9,2.8,1.4,4.2,0,.3.2.6.5.7.2,0,.4,0,.6,0,1.5,0,3.1-.4,4.5-.9.5-.2,1.1-.5,1.2-1,0-.3,0-.5-.1-.8Z" style="fill:#fff; stroke-width:0px;"/></g><path d="m34,40.2c-.3-.9-.7-1.8-1.1-2.7-.1-.2-.3-.5-.5-.6-.3-.1-.6,0-.9.1h.4c-.7,0-1.4.1-2,.5-.3.2-.5.4-.6.7,0,.2,0,.5,0,.7.3.8.5,1.6.8,2.5,0,.2.1.3.3.4.1,0,.2,0,.3,0,.9,0,1.8-.2,2.6-.5.3-.1.6-.3.7-.6,0-.2,0-.3,0-.5Z" style="fill:#f9a7a5; stroke-width:0px;"/><g style="opacity:.4;"><path d="m14.6,49.7c-3.5-5.1-3.8-12.1-.9-17.5-.4.2-.8.4-1,.8,0,0-2.3,3.4-3.2,5.4-.3.6-.5,1.2-.5,1.9,0,.6.2,1.3.3,1.9.2,1.3-.1,2.7.1,4,.3,1.5,1.3,3,1,4.5.9.4,1.6,1.1,2.5,1.7,1.7,1.3,3.9,1.8,5.5,3.2.5.4,1.1,1,1.7.8-1.6-2.4-3.9-4.3-5.5-6.7Z" style="fill:#ff3d10; stroke-width:0px;"/></g><g style="opacity:.3;"><path d="m48.4,40.3c-.2-1.2-.6-2.3-1.1-3.4-.7-1.7-1.4-3.4-2.5-5-1.3-1.9-2.9-3.5-4.7-4.8l-3.7-1.6c-.4-.1-3.4-1-3.9-.9,2,1.4,7.4,4.5,8.5,6.6,1.3,2.5,1.9,4.3,2.4,7.1.5,2.8-.9,6.5-2.5,8.8-1.4,2-3.6,3.2-5.7,4.4-.4.2-.8.5-1,.9-.2.4-.1.9,0,1.4,0,1.6-.5,3.2-1.5,4.4,4.4-.8,8.6-2.6,11.7-5.8,3.1-3.2,4.9-7.8,4-12.1Z" style="fill:#c62405; stroke-width:0px;"/></g><path d="m9.9,45.2c0-.4-.2-.9-.3-1.3-.3-.9-.6-1.9-1-2.8,0-.2-.2-.5-.4-.6-.2-.1-.6,0-.6.3,0,0,.6,1.8.7,2.7.1.6,0,1.3,0,2,0,.5.3.9.4,1.4.2,1.2-.2,2.5.3,3.5.1,0,.2-.2.2-.4.2-1.1.3-2.1.5-3.2,0-.5.2-1.1.1-1.6Z" style="fill:#a00b0b; stroke-width:0px;"/><g style="opacity:.2;"><path d="m15,30.8c-.4.4-.8.9-1.1,1.3.2-.2.4-.4.5-.6l.6-.7Z" style="fill:#fff; stroke-width:0px;"/></g><g style="opacity:.2;"><path d="m10.2,41.5c.4-3.4,1.6-6.7,3.7-9.3-1.5,1.7-3,3.5-3.8,5.6-.5,1.2-.7,2.8.2,3.8Z" style="fill:#fff; stroke-width:0px;"/></g><g style="opacity:.2;"><path d="m20.9,26.7c0,0,.2-.1.3-.2,0,0-.2,0-.3,0h0Z" style="fill:#a00b0b; stroke-width:0px;"/></g><g style="opacity:.2;"><path d="m30,24.3c-3.1,0-6.2.6-8.8,2.3,3.5-1.4,7.2-2,11-1.8,1.2,0,2.4.2,3.4.7.6.3,1.3.7,1.9.6-2.1-1.5-4.9-1.9-7.5-1.8Z" style="fill:#a00b0b; stroke-width:0px;"/></g><g style="opacity:.4;"><path d="m46.2,48.5c-.6,1.2-1.3,2.5-2.2,3.5-.7.7-1.5,1.3-2.4,1.9-2.2,1.4-4.5,2.7-7.1,3.4-.8.2-1.6.4-2.1,1,2.5-.8,4.9-1.6,7.2-2.8,2.3-1.2,4.5-2.7,6-4.8,1.8-2.4,2.7-5.5,2.6-8.6-.1,2.2-1.1,4.4-2.2,6.4Z" style="fill:#fff; stroke-width:0px;"/></g><g style="opacity:.3;"><path d="m30.2,51.3c-.6-.2-1.2-.1-1.8,0-3.7.5-7.5,0-10.9-1.4-2.9-1.2-5.5-3-7.2-5.6l-.2.2c.2,1.9.5,3.8.7,5.8,0,.3,0,.6.2.8.1.2.3.4.5.5,1.8,1.3,3.7,2.5,5.6,3.6,1.3.8,2.7,1.5,4.2,2,.8.2,1.5.3,2.3.4,1.5.2,3,.4,4.6.7.4,0,.9.1,1.3,0,.4-.2.7-.5.9-.9.6-.9.9-2,1-3,0-1.1-.2-2.4-1.3-2.9Z" style="fill:#c62405; stroke-width:0px;"/></g><path d="m48.5,38.8c-.1-.4-.5-.8-.5-.8-3.3,1.3-6.2,3.7-8,6.7-.5.8-.9,1.7-1.3,2.6-1,2.2-1.9,4.5-2,6.9,0,.3,0,.6.2.8.1.2.4.2.6.3.8.1,1.6-.3,2.2-.6,2.5-1.4,4.8-3.3,6.7-5.5.5-.6,1-1.3,1.4-2.1.8-1.6,1-3.5,1.1-5.2,0-1,.1-2.1-.3-3Z" style="fill:#a00b0b; stroke-width:0px;"/><path d="m35.2,56.3c-.3-.3-.8-.3-1.1-.1-.2.1-.4.4-.2.6.1.2.4.1.6,0,.5,0,1,.2,1.3.5-.3.3-.8.2-1.2.1-.3,0-.6,0-.8,0-.3.1-.4.4-.4.7,0,.3.5.4.7.2,0,0,0-.2.2-.3,0,0,.2,0,.3,0,.5,0,.9.1,1.4.3.1,0,.2.1.3.2,0,.2-.1.3-.3.4-.2,0-.4,0-.5,0-.5,0-1,.2-1.3.6-.1.2-.2.3-.2.5,0,.2.2.4.4.3.2,0,.3-.3.5-.5.5-.5,1.4,0,2-.3,0,.3-.3.5-.5.7-.3.1-.6.2-.9.3-.3,0-.6.2-.8.5-.2.2-.2.6,0,.8.2.2.7.1.7-.2,0-.2-.1-.4,0-.6,0,0,.1,0,.2-.1.6-.2,1.2-.3,1.8-.4-.2.6-.5,1.2-1.1,1.4-.1,0-.3,0-.4.1-.3.2-.4.7-.1,1,.3.3.8.2,1-.2.2-.3.1-.7.3-1,.2-.3.6-.3.9-.3-1.7,3.3.7.3.7.3l-2.2-6.4-1.2.6Z" style="fill:#472410; stroke-width:0px;"/><path d="m67.9,41.9c-2.1-2.5-3.6-3.2-6-4.2-2.5-1.1-6.6-1.4-9.1-.9-2.6.4-5.8,2-7.5,3.2s-4.5,4.8-6,7.5c-1.5,2.7-1.9,6.4-1.9,6.4l-2.2.6,3.6,9.3,1.9-1.1,3,1c3,1,5.9,2.3,7.9,2.6,2.2.3,6.1,0,7.7-.8,1.5-.7,5.3-2.2,7-3.6,1.7-1.4,3.8-3.8,4.5-5.6s1.2-5.5.9-7.3c-.3-2-2.2-5.6-3.6-7.2Z" style="fill:#cd1b10; stroke-width:0px;"/><path d="m66.6,42.2c-1.9-1.1-3.3-1.2-5.5-1.4-2.4-.2-6.1.4-8.6,1.1s-5.4,2.4-7,3.5c-1.6,1-4.3,3.7-5.7,5.8-1.3,1.8-1.5,3-1.5,3l1.9,5.8s.6.3,3.4.3c2.8,0,6,.2,7.8,0,2.1-.2,5.5-.8,7-1.5s4.6-2.5,6.3-3.7c1.6-1.2,3.5-3.6,4.3-4.8.8-1.2,1.2-3.5,1-4.5-.3-1.1-2-2.9-3.2-3.6Z" style="fill:#ff3d10; isolation:isolate; opacity:.4; stroke-width:0px;"/><path d="m35.2,54.5c-.4,0-.8.4-.7.7,0,0,.2.7.5.9.2.3.5.5.8.7.7.9.5,2.2.9,3.3.3,1,1.1,1.9,1.3,2.9,0,.2,0,.3.2.4,0,0,.2,0,.3-.1.4-.4.4-1,.3-1.6,0-.6-.3-1.3-.6-1.9-.2-.4-.4-.8-.6-1.2-.2-.6-.2-1.2-.4-1.8-.2-.7-.5-1.3-1-1.8-.3-.3-.6-.5-1-.5Z" style="fill:#683a1a; stroke-width:0px;"/><path d="m35.5,53.9c-.2,0-.5,0-.6.3v.4c1.3.6,2.2,1.8,2.3,3.2,0,.5,0,1.1.2,1.6.1.4.4.7.6,1.1.5.8.6,1.9.3,2.8,0,.2-.1.6.1.7,0,0,.1,0,.2,0,.5-.4.6-1.1.5-1.7,0-.6-.3-1.3-.5-1.9-.2-.5-.6-1-.7-1.5-.1-.5-.1-.9-.2-1.4-.2-1.2-.8-2.3-1.7-3.1-.2-.2-.4-.3-.6-.3Z" style="fill:#472410; stroke-width:0px;"/><path d="m34.5,55c0,0,0,.1,0,.2,0,.4.3.7.6.9.3.3.7.6.9,1,0,0,0,.1.1,0,0,0,0,0,0,0,0-.2,0-.3-.2-.4-.2-.4-.5-.7-.7-1.1-.1-.2-.3-.3-.4-.5,0,0-.2-.2-.3-.2,0,0-.1.1-.1.2Z" style="fill:#bc6031; stroke-width:0px;"/><path d="m37.5,61.8c0-.3,0-.5-.2-.7-.4-1-.6-2.2-1-3.2.1.6.1,1.1.2,1.7,0,.3,0,.5.2.8,0,.2.2.4.3.6.2.3.3.5.5.8Z" style="fill:#bc6031; stroke-width:0px;"/><g style="opacity:.2;"><path d="m37.5,58.1c0,.2,0,.4,0,.6v-.3c-.2.5,0,1.1.4,1.4,0,0,0,0,0,0,0,0,0,0,0,0,0-.3-.2-.5-.3-.7,0-.2-.1-.4-.1-.6,0-.1,0-.3,0-.4,0,0,0,0,0,0,0,0,0,0,0,.1Z" style="fill:#fff; stroke-width:0px;"/></g><g style="opacity:.2;"><path d="m35.3,54.2s-.1,0-.1,0c0,0,0,0,0,0,0,.1.2.2.3.3.1,0,.3.1.4.2.6.3,1,1,1.3,1.7,0-.2-.1-.5-.3-.7-.2-.4-.5-.7-.7-1-.2-.2-.5-.5-.8-.6Z" style="fill:#fff; stroke-width:0px;"/></g><path d="m34.8,62s0,0,0,0c0,0,0,0,0,0,0-.1-.2-.2-.2-.3,0,0,0-.1,0-.2,0,0,0,0,0,0,0,0,0,0,0,.1h0c0,.1,0,.4.2.5,0,0,0,0,.1,0Z" style="fill:#bc6031; stroke-width:0px;"/><path d="m34,59.9c-.1,0-.2.2-.1.3,0,.1.2.2.3.1,0,0,0,0,0,0,0,0,0,0,0-.1,0-.2,0-.3,0-.5,0,0-.1.1-.2.2Z" style="fill:#bc6031; stroke-width:0px;"/><path d="m33.7,58.3s0,0,0,0c0,0,0,0,0-.1,0,0,0,0-.1,0,0,0-.1-.2,0-.3h0c-.1.2-.1.3,0,.4,0,.1.2.2.3.1Z" style="fill:#bc6031; stroke-width:0px;"/><polygon points="34 56.5 34 56.5 34 56.5 34 56.5" style="fill:#fff; stroke-width:0px;"/><path d="m34.1,56.7c0,0,.1-.1.2-.2,0,0,0,0,0-.1,0,0,0,0-.1,0,0,0-.2,0-.2.2,0,0,0,0,0,.1,0,0,0,.1.1.1,0,0,0,0,0,0Z" style="fill:#bc6031; stroke-width:0px;"/><path d="m36,62.9s0,0,0-.2c0,0,0-.1,0-.1,0,0-.1,0-.2,0,0,0,0,0,0,0h0s0,.1,0,.2c0,0,0,.2.2.2,0,0,.2,0,.3,0,0,0,.2,0,.2-.1,0,0,0,0,0,0,0,0,0,0,0,0-.1,0-.2,0-.3,0Z" style="fill:#bc6031; stroke-width:0px;"/><path d="m38.2,63c0-.2-.2-.4-.4-.6v.3c.1.2.2.3.2.5,0,0,0,.1,0,.1,0,0,0,0,.1,0,0,0,0,0,0,0,0,0,0-.2,0-.3Z" style="fill:#bc6031; stroke-width:0px;"/><g style="opacity:.2;"><path d="m38.6,63.3c.2-.4.2-.8,0-1.3v1.3c0,0,0,0,0,0Z" style="fill:#fff; stroke-width:0px;"/></g><g style="opacity:.2;"><path d="m62.8,47.8c-.3-.9-.6-1.8-1.2-2.5-1.1-1.4-2.7-2.3-4.5-2.6s-3.5-.2-5.3,0c-.8.1-1.6.2-2.4.5-.3,0-.6.2-.9.3-.6.3-1.2.6-1.7,1-2,1.4-3.8,3.3-5,5.5-.8,1.3-1.3,2.8-1.1,4.3.3,1.6,1.5,2.9,2.9,3.7,3.2,1.8,7.3,1.3,10.8.2,2-.6,4.1-1.4,5.7-2.7,1.6-1.3,2.9-3.3,2.9-5.4,0-.8-.1-1.5-.3-2.3Z" style="fill:#fc672b; stroke-width:0px;"/></g><g style="opacity:.2;"><path d="m58.4,49c-.2-.7-.5-1.4-.9-2-.9-1.2-2.2-1.8-3.6-2.1-1.4-.3-2.9-.2-4.3,0-.6,0-1.3.2-1.9.4-.3,0-.5.1-.8.3-.5.2-1,.5-1.4.8-1.7,1.2-3.1,2.7-4.1,4.5-.6,1.1-1.1,2.3-.9,3.5.2,1.3,1.2,2.4,2.4,3,2.6,1.5,5.9,1,8.8.2,1.7-.5,3.3-1.1,4.6-2.2,1.3-1.1,2.4-2.7,2.4-4.4,0-.6-.1-1.3-.3-1.9Z" style="fill:#fc672b; stroke-width:0px;"/></g><g style="opacity:.1;"><path d="m47.4,41.4c-.8-.3-1.7-.1-2.5.3-.7.4-1.3,1.1-1.9,1.7,0,0-.7,1.2-1.1,2-.8,1.7-1.3,3.6-.9,5.4.3,1.2,1.1,2.4,2.3,2.5.8,0,1.6-.3,2.2-.8,2.6-1.9,4.2-5.2,3.7-8.4-.2-1.1-.7-2.3-1.8-2.7Z" style="fill:#fff; stroke-width:0px;"/></g><g style="opacity:.1;"><path d="m47.2,41.3c-.3-.2-.8-.1-1.1,0,0,0,0,0-.1,0-1.1.2-2.2.9-2.9,1.8-1,1.2-1.5,2.7-1.8,4.1-.2.7-.3,1.4,0,2.1.4,1,1.8,1.4,2.8,1,1-.4,1.8-1.3,2.3-2.2,1-1.8,1.5-3.8,1.3-5.9,0-.4-.1-.9-.5-1.1Z" style="fill:#fff; stroke-width:0px;"/></g><path d="m45.5,42.3c-.2-.1-.5,0-.7,0,0,0,0,0,0,0-.7.1-1.4.6-1.8,1.1-.6.7-.9,1.7-1.1,2.6-.1.4-.2.9,0,1.3.3.6,1.1.9,1.8.6.6-.2,1.1-.8,1.5-1.4.6-1.1.9-2.4.8-3.7,0-.3,0-.6-.3-.7Z" style="fill:#fcc3c3; stroke-width:0px;"/><g style="opacity:.1;"><path d="m64,50.9c-.4-1.7-.8-3.5-2.1-4.6-.2-.2-.5-.4-.8-.5-.6-.2-1.2,0-1.8.3-.5,0-1.1.2-1.6.4-.4.2-.8.4-.9.8-.1.4,0,.8.1,1.1.3,1.1.5,2.2.4,3.3,0,.4,0,.8.2,1,.3.3.7.3,1,.2,1.4-.1,2.9-.3,4.3-.5.4,0,.7-.2,1-.4.2-.3.2-.8,0-1.1Z" style="fill:#fff; stroke-width:0px;"/></g><g style="opacity:.1;"><path d="m62.9,50.5c-.2-1-.4-2-.8-3,0-.3-.2-.6-.5-.7-.3-.2-.7-.1-1,0h.4c-.8-.2-1.5,0-2.2.2-.3.1-.6.3-.8.6,0,.2,0,.5,0,.8.2.9.3,1.8.5,2.8,0,.2,0,.4.2.5.1,0,.2,0,.4.1,1,0,1.9,0,2.9-.2.3,0,.7-.2.8-.5,0-.2,0-.3,0-.5Z" style="fill:#fff; stroke-width:0px;"/></g><path d="m61.2,49.4c-.1-.6-.3-1.2-.4-1.8,0-.2-.1-.3-.3-.4-.2-.1-.4,0-.6,0h.2c-.4,0-.9,0-1.3.1-.2,0-.4.2-.4.4,0,.1,0,.3,0,.4,0,.5.2,1.1.3,1.6,0,.1,0,.2.1.3,0,0,.1,0,.2,0,.6,0,1.1,0,1.7,0,.2,0,.4-.1.5-.3,0,0,0-.2,0-.3Z" style="fill:#f9a7a5; stroke-width:0px;"/><g style="opacity:.3;"><path d="m44.3,60.7c-3.7-3.5-5.3-9.2-3.8-14.2-.3.2-.5.5-.7.8,0,0-1.3,3.2-1.6,5-.1.5-.2,1.1,0,1.6.1.5.4,1,.6,1.5.4,1.1.4,2.2.8,3.3.5,1.2,1.6,2.2,1.6,3.5.8.1,1.5.6,2.3,1,1.6.7,3.5.8,5.1,1.6.5.3,1,.6,1.5.4-1.8-1.7-3.9-2.9-5.7-4.5Z" style="fill:#960505; stroke-width:0px;"/></g><g style="opacity:.3;"><path d="m70.3,47c-.4-.9-.9-1.8-1.5-2.6-.9-1.3-1.8-2.6-2.9-3.6-1.4-1.3-3-2.3-4.7-3.1l-3.3-.6c-.4,0-3-.2-3.3,0,1.9.8,6.8,2.4,8.1,3.9,1.5,1.8,2.3,3.2,3.2,5.4.9,2.2.4,5.5-.5,7.6-.8,1.9-2.4,3.3-3.9,4.6-.3.3-.6.5-.7.9,0,.4,0,.8.2,1.2.4,1.3.2,2.7-.5,3.9,3.4-1.4,6.6-3.7,8.6-6.8,2-3.1,2.6-7.2,1.1-10.6Z" style="fill:#960505; stroke-width:0px;"/></g><path d="m39.7,57.8c-.1-.3-.3-.7-.5-1-.4-.7-.9-1.4-1.3-2.1-.1-.2-.2-.4-.5-.5-.2,0-.5.1-.4.3,0,0,.8,1.3,1.1,2.1.2.5.2,1.1.4,1.6.1.4.4.7.5,1.1.4.9.3,2.1.9,2.8,0,0,0-.2,0-.3l-.2-2.7c0-.4,0-.9-.2-1.3Z" style="fill:#a00b0b; stroke-width:0px;"/><g style="opacity:.2;"><path d="m41.3,45.1c-.3.4-.5.9-.7,1.3.1-.2.2-.4.3-.6l.3-.7Z" style="fill:#fff; stroke-width:0px;"/></g><g style="opacity:.2;"><path d="m39.2,54.7c-.2-2.8.2-5.7,1.4-8.3-.9,1.7-1.8,3.4-2.2,5.2-.2,1.1,0,2.4.8,3.1Z" style="fill:#fff; stroke-width:0px;"/></g><g style="opacity:.2;"><path d="m45.4,40.7c0,0,.1-.1.2-.2,0,0-.1,0-.2.1h0Z" style="fill:#a00b0b; stroke-width:0px;"/></g><g style="opacity:.5;"><path d="m52.4,37.2c-2.5.6-5,1.6-6.8,3.4,2.6-1.7,5.6-2.9,8.7-3.4,1-.2,2-.2,2.9,0,.6.1,1.2.4,1.7.2-2-.9-4.3-.7-6.5-.2Z" style="fill:#960505; stroke-width:0px;"/></g><g style="opacity:.5;"><path d="m70,54.1c-.3,1.1-.6,2.2-1.2,3.2-.4.7-1,1.3-1.6,1.9-1.5,1.6-3.2,3-5.2,4-.6.3-1.2.6-1.6,1.2,1.9-1.1,3.8-2.2,5.4-3.5s3.2-3,4.1-5c1.1-2.3,1.2-5,.6-7.5.3,1.8-.1,3.8-.6,5.6Z" style="fill:#f9a7a5; stroke-width:0px;"/></g><g style="opacity:.2;"><path d="m57.3,59.2c-.5,0-1,.1-1.5.3-2.9,1-6.1,1.3-9.2.8-2.6-.5-5.1-1.5-6.9-3.3v.2c.4,1.5,1,3.1,1.5,4.6,0,.2.2.5.3.6.1.2.3.2.5.3,1.7.8,3.4,1.4,5.2,2,1.2.4,2.5.8,3.8.9.7,0,1.3,0,2,0,1.3,0,2.6-.2,3.8-.3.4,0,.7,0,1-.3.3-.2.5-.6.6-.9.3-.8.4-1.8.3-2.7-.1-.9-.6-2-1.5-2.1Z" style="fill:#960505; stroke-width:0px;"/></g><text transform="translate(6 83.5) rotate(26.4)" style="fill:#163768; font-family:MyriadPro-Regular, &apos;Myriad Pro&apos;; font-size:19.8px;"><tspan x="0" y="0">Ш</tspan></text><text transform="translate(23.1 91.4) rotate(13.2)" style="fill:#163768; font-family:MyriadPro-Regular, &apos;Myriad Pro&apos;; font-size:19.8px;"><tspan x="0" y="0">ы</tspan></text><text transform="translate(37.1 94.5) rotate(5.4)" style="fill:#163768; font-family:MyriadPro-Regular, &apos;Myriad Pro&apos;; font-size:19.8px;"><tspan x="0" y="0">п</tspan></text><text transform="translate(49 95.7) rotate(-2.1)" style="fill:#163768; font-family:MyriadPro-Regular, &apos;Myriad Pro&apos;; font-size:19.8px;"><tspan x="0" y="0">ш</tspan></text><text transform="translate(64.9 95) rotate(-10.8)" style="fill:#163768; font-family:MyriadPro-Regular, &apos;Myriad Pro&apos;; font-size:19.8px;"><tspan x="0" y="0">ы</tspan></text><text transform="translate(79.3 92) rotate(-20.5)" style="fill:#163768; font-family:MyriadPro-Regular, &apos;Myriad Pro&apos;; font-size:19.8px;"><tspan x="0" y="0">н</tspan></text><text transform="translate(91.2 87.4) rotate(-33)" style="fill:#163768; font-family:MyriadPro-Regular, &apos;Myriad Pro&apos;; font-size:19.8px;"><tspan x="0" y="0">а</tspan></text></g></svg>