<svg width="1920" height="1080" viewBox="0 0 1920 1080" fill="none" xmlns="http://www.w3.org/2000/svg">
<g clip-path="url(#clip0_193_2)">
<rect width="1920" height="1080" fill="#FDF8E4"/>
<g opacity="0.64">
<rect x="546.339" y="726.902" width="499.01" height="446.826" transform="rotate(21.8691 546.339 726.902)" fill="#18C7D2" stroke="#154072" stroke-width="6"/>
<rect x="545.711" y="728.464" width="285.223" height="265.022" transform="rotate(21.8691 545.711 728.464)" fill="#C8F7E9" stroke="#154072" stroke-width="6"/>
</g>
<rect x="1495" y="947.762" width="172.958" height="155.086" transform="rotate(-59.3284 1495 947.762)" fill="#13C880"/>
<rect x="1495.5" y="948.057" width="99.7393" height="92.821" transform="rotate(-59.3284 1495.5 948.057)" fill="#5188C7"/>
<rect x="214" y="237" width="269" height="310" fill="#FBFFFE"/>
<rect x="1621.26" y="274.439" width="139.478" height="161.347" transform="rotate(-30.3121 1621.26 274.439)" fill="#039ED5" stroke="black" stroke-width="4"/>
<rect opacity="0.65" x="1608.74" y="457.331" width="76.4703" height="88.7353" transform="rotate(-30.3121 1608.74 457.331)" fill="#039ED5" stroke="black" stroke-width="4"/>
<rect opacity="0.34" x="1581.74" y="571.206" width="42.5395" height="49.6329" transform="rotate(-30.3121 1581.74 571.206)" fill="#039ED5" stroke="black" stroke-width="4"/>
<rect x="1400" y="200.86" width="574" height="91.7444" transform="rotate(-31.4936 1400 200.86)" fill="#FED427"/>
<rect opacity="0.81" x="2.04521" y="-0.563121" width="305" height="24" transform="matrix(0.869445 0.494031 0.494031 -0.869445 266.419 424.074)" fill="#FF562A" stroke="black" stroke-width="3"/>
<rect opacity="0.81" x="2.04521" y="-0.563121" width="305" height="24" transform="matrix(0.869445 0.494031 0.494031 -0.869445 241.717 467.546)" fill="#FF562A" stroke="black" stroke-width="3"/>
<rect opacity="0.81" x="0.207902" y="-2.11111" width="305" height="24" transform="matrix(0.773003 -0.634402 -0.634402 -0.773003 1510.79 815.341)" fill="#CDF6ED" stroke="black" stroke-width="3"/>
<rect opacity="0.81" x="2.04521" y="-0.563121" width="305" height="24" transform="matrix(0.869445 0.494031 0.494031 -0.869445 214.545 515.365)" fill="#2AF1FF" stroke="black" stroke-width="3"/>
<rect opacity="0.81" x="2.04521" y="-0.563121" width="69.8268" height="112.342" transform="matrix(0.869445 0.494031 0.494031 -0.869445 256.545 429.22)" fill="#2AF1FF" stroke="black" stroke-width="3"/>
<mask id="path-15-inside-1_193_2" fill="white">
<path d="M269.625 1005.77C248.705 1013.01 226.563 1016.06 204.464 1014.75C182.364 1013.44 160.739 1007.78 140.824 998.114C120.91 988.444 103.094 974.945 88.3962 958.39C73.698 941.834 62.4046 922.546 55.1608 901.625C47.917 880.705 44.8646 858.563 46.1779 836.464C47.4913 814.364 53.1446 792.739 62.8152 772.824C72.4858 752.91 85.9842 735.094 102.54 720.396C119.095 705.698 138.384 694.405 159.304 687.161L214.465 846.465L269.625 1005.77Z"/>
</mask>
<path d="M269.625 1005.77C248.705 1013.01 226.563 1016.06 204.464 1014.75C182.364 1013.44 160.739 1007.78 140.824 998.114C120.91 988.444 103.094 974.945 88.3962 958.39C73.698 941.834 62.4046 922.546 55.1608 901.625C47.917 880.705 44.8646 858.563 46.1779 836.464C47.4913 814.364 53.1446 792.739 62.8152 772.824C72.4858 752.91 85.9842 735.094 102.54 720.396C119.095 705.698 138.384 694.405 159.304 687.161L214.465 846.465L269.625 1005.77Z" fill="#F49833" stroke="#811414" stroke-width="12" mask="url(#path-15-inside-1_193_2)"/>
<mask id="path-16-inside-2_193_2" fill="white">
<path d="M256.702 762.436C266.118 757.126 276.488 753.723 287.219 752.42C297.95 751.117 308.833 751.941 319.246 754.844C329.659 757.748 339.398 762.674 347.908 769.341C356.417 776.008 363.53 784.286 368.84 793.702C374.15 803.118 377.554 813.488 378.856 824.219C380.159 834.95 379.335 845.833 376.432 856.246C373.528 866.659 368.603 876.398 361.935 884.908C355.268 893.417 346.99 900.53 337.574 905.84L297.138 834.138L256.702 762.436Z"/>
</mask>
<path d="M256.702 762.436C266.118 757.126 276.488 753.723 287.219 752.42C297.95 751.117 308.833 751.941 319.246 754.844C329.659 757.748 339.398 762.674 347.908 769.341C356.417 776.008 363.53 784.286 368.84 793.702C374.15 803.118 377.554 813.488 378.856 824.219C380.159 834.95 379.335 845.833 376.432 856.246C373.528 866.659 368.603 876.398 361.935 884.908C355.268 893.417 346.99 900.53 337.574 905.84L297.138 834.138L256.702 762.436Z" fill="#F49833" stroke="#811414" stroke-width="12" mask="url(#path-16-inside-2_193_2)"/>
<circle cx="1383.5" cy="53.5" r="64.5" fill="#098B43"/>
<circle opacity="0.81" cx="469.238" cy="378.944" r="64.5" transform="rotate(29.6058 469.238 378.944)" fill="#2E3442"/>
<circle opacity="0.81" cx="449.619" cy="351.619" r="19.5231" transform="rotate(29.6058 449.619 351.619)" fill="#EAF0FF"/>
<path d="M0 0.5V381C59.3333 372.833 123 380.5 183.5 268C225.261 190.345 356.5 164 449.5 144.5C523.9 128.9 576.833 40.5 592.5 0.5H0Z" fill="#F49833"/>
<path d="M1919.5 1079.5V741C1834.5 782.5 1766 739.5 1708 890.5C1674.46 977.814 1615 1035.5 1500 1016.5C1408 1001.3 1287.67 1051.33 1283 1079.5H1919.5Z" fill="#F49833"/>
<rect width="240.324" height="20.9341" transform="matrix(0.958716 -0.284365 -0.284365 -0.958716 386.953 122.409)" fill="#1A2A4D"/>
<path d="M1039.73 995.149L1017.34 965.78L1313.44 874.339L1335.49 903.256L1168.92 1164.58L1146.53 1135.22L1288.55 917.606L1287.18 915.798L1039.73 995.149ZM1138.36 937.093L1228.62 1055.47L1203.77 1074.42L1113.51 956.04L1138.36 937.093Z" fill="#FF7D7D"/>
<g filter="url(#filter0_f_193_2)">
<path d="M273.688 798.792L57.0661 604.619L174.252 473.884L197.522 494.743L103.849 599.246L177.044 664.855L264.649 567.121L287.919 587.979L200.314 685.713L273.931 751.702L369.121 645.506L392.391 666.364L273.688 798.792Z" fill="#098B43"/>
</g>
<g filter="url(#filter1_d_193_2)">
<path d="M1885.89 725.469L1861.35 703.473L1873.49 689.934C1878.16 684.716 1881.06 679.428 1882.18 674.069C1883.35 668.64 1883.36 663.308 1882.21 658.073C1881.11 652.768 1879.5 647.76 1877.36 643.048L1872.36 632.458L1639.38 558.682L1664.79 530.334L1852.8 591.278L1767.18 416.1L1792.21 388.176L1906.59 625.758C1910.71 634.788 1913.95 643.798 1916.32 652.789C1918.75 661.709 1918.82 670.993 1916.53 680.641C1914.31 690.218 1908.26 700.507 1898.4 711.507L1885.89 725.469Z" fill="#FED427"/>
</g>
<g filter="url(#filter2_d_193_2)">
<path d="M575.03 842.991C560.756 855.797 550.734 869.441 544.962 883.923C539.19 898.405 537.516 912.67 539.94 926.716C542.364 940.762 548.754 953.556 559.11 965.098C569.466 976.64 581.495 984.374 595.197 988.302C608.898 992.23 623.26 992.107 638.281 987.933C653.302 983.759 667.949 975.269 682.222 962.463C696.496 949.657 706.518 936.012 712.29 921.53C718.062 907.048 719.736 892.784 717.312 878.738C714.888 864.692 708.497 851.898 698.142 840.356C687.786 828.814 675.757 821.079 662.055 817.151C648.353 813.224 633.992 813.347 618.971 817.521C603.95 821.694 589.303 830.184 575.03 842.991ZM589.259 858.85C600.977 848.336 612.626 841.423 624.205 838.111C635.745 834.754 646.57 834.544 656.679 837.481C666.749 840.373 675.46 845.917 682.811 854.111C690.163 862.304 694.753 871.585 696.58 881.952C698.368 892.276 696.99 903.014 692.446 914.168C687.862 925.278 679.711 936.09 667.993 946.604C656.275 957.117 644.646 964.053 633.106 967.409C621.527 970.721 610.702 970.931 600.632 968.039C590.523 965.102 581.792 959.537 574.441 951.343C567.089 943.149 562.519 933.89 560.731 923.567C558.904 913.2 560.282 902.461 564.866 891.351C569.409 880.197 577.541 869.364 589.259 858.85Z" fill="#FED427"/>
</g>
<path d="M95.8229 1080.04L231.154 958.621L188.704 911.308C180.246 901.881 171.639 895.568 162.885 892.369C154.176 889.131 145.745 888.465 137.595 890.371C129.489 892.237 122.132 896.134 115.524 902.063C109.709 907.28 105.836 912.624 103.905 918.093C101.934 923.519 101.35 928.894 102.151 934.218C102.913 939.498 104.504 944.551 106.925 949.377L105.604 950.562C101.624 946.658 96.435 943.8 90.0369 941.986C83.6388 940.173 76.708 940.07 69.2444 941.677C61.7808 943.285 54.4807 947.29 47.3441 953.693C40.5599 959.78 35.842 966.796 33.1902 974.741C30.5384 982.687 30.6108 991.408 33.4073 1000.91C36.2038 1010.4 42.3846 1020.48 51.9498 1031.14L95.8229 1080.04ZM95.657 1050.61L66.4873 1018.1C56.8827 1007.4 52.135 997.939 52.2444 989.73C52.3584 981.438 55.3889 974.624 61.3361 969.288C65.9176 965.177 71.1942 962.55 77.1657 961.407C83.1813 960.224 89.2932 960.743 95.5015 962.966C101.754 965.149 107.528 969.192 112.825 975.095L142.706 1008.4L95.657 1050.61ZM156.979 995.593L129.707 965.196C125.28 960.262 122.257 954.943 120.638 949.239C118.979 943.491 118.865 937.869 120.294 932.372C121.684 926.831 124.758 921.926 129.516 917.658C135.463 912.322 142.365 909.867 150.221 910.292C158.121 910.678 166.103 915.365 174.166 924.352L201.913 955.277L156.979 995.593Z" fill="#039ED5"/>
<rect x="92" y="258.114" width="397.777" height="34.6496" transform="rotate(-16.5209 92 258.114)" fill="#474D5B"/>
<rect x="197.734" y="200.963" width="111.911" height="155.086" transform="rotate(160.25 197.734 200.963)" fill="#DDF8ED"/>
<rect x="197.539" y="200.421" width="64.5351" height="92.821" transform="rotate(160.25 197.539 200.421)" fill="#C75153"/>
</g>
<defs>
<filter id="filter0_f_193_2" x="52.0662" y="467.192" width="345.325" height="336.6" filterUnits="userSpaceOnUse" color-interpolation-filters="sRGB">
<feFlood flood-opacity="0" result="BackgroundImageFix"/>
<feBlend mode="normal" in="SourceGraphic" in2="BackgroundImageFix" result="shape"/>
<feGaussianBlur stdDeviation="2.5" result="effect1_foregroundBlur_193_2"/>
</filter>
<filter id="filter1_d_193_2" x="1638.38" y="388.176" width="380.419" height="375.333" filterUnits="userSpaceOnUse" color-interpolation-filters="sRGB">
<feFlood flood-opacity="0" result="BackgroundImageFix"/>
<feColorMatrix in="SourceAlpha" type="matrix" values="0 0 0 0 0 0 0 0 0 0 0 0 0 0 0 0 0 0 127 0" result="hardAlpha"/>
<feOffset dx="3" dy="4"/>
<feGaussianBlur stdDeviation="2"/>
<feComposite in2="hardAlpha" operator="out"/>
<feColorMatrix type="matrix" values="0 0 0 0 0 0 0 0 0 0 0 0 0 0 0 0 0 0 0.25 0"/>
<feBlend mode="normal" in2="BackgroundImageFix" result="effect1_dropShadow_193_2"/>
<feBlend mode="normal" in="SourceGraphic" in2="effect1_dropShadow_193_2" result="shape"/>
</filter>
<filter id="filter2_d_193_2" x="505.514" y="780.62" width="253.325" height="251.314" filterUnits="userSpaceOnUse" color-interpolation-filters="sRGB">
<feFlood flood-opacity="0" result="BackgroundImageFix"/>
<feColorMatrix in="SourceAlpha" type="matrix" values="0 0 0 0 0 0 0 0 0 0 0 0 0 0 0 0 0 0 127 0" result="hardAlpha"/>
<feOffset dx="4" dy="4"/>
<feGaussianBlur stdDeviation="1.55"/>
<feComposite in2="hardAlpha" operator="out"/>
<feColorMatrix type="matrix" values="0 0 0 0 0 0 0 0 0 0 0 0 0 0 0 0 0 0 0.25 0"/>
<feBlend mode="normal" in2="BackgroundImageFix" result="effect1_dropShadow_193_2"/>
<feBlend mode="normal" in="SourceGraphic" in2="effect1_dropShadow_193_2" result="shape"/>
</filter>
<clipPath id="clip0_193_2">
<rect width="1920" height="1080" fill="white"/>
</clipPath>
</defs>
</svg>
